<svg xmlns="http://www.w3.org/2000/svg" xmlns:svg="http://www.w3.org/2000/svg" id="svg2" width="549.587" height="442.801" version="1.1"><defs id="defs4"><clipPath id="clipEmfPath1" clipPathUnits="userSpaceOnUse"><rect id="rect3001" width="33.706" height="22.583" x="23.173" y="12.496"/></clipPath><clipPath id="clipEmfPath2" clipPathUnits="userSpaceOnUse"><rect id="rect3004" width="33.857" height="22.583" x="176.506" y="193.162"/></clipPath><clipPath id="clipEmfPath3" clipPathUnits="userSpaceOnUse"><rect id="rect3007" width="33.706" height="22.583" x="316.598" y="12.496"/></clipPath><clipPath id="clipEmfPath4" clipPathUnits="userSpaceOnUse"><rect id="rect3010" width="33.857" height="22.583" x="469.931" y="193.162"/></clipPath><clipPath id="clipEmfPath5" clipPathUnits="userSpaceOnUse"><rect id="rect3013" width="33.857" height="22.583" x="382.355" y="97.258"/></clipPath><clipPath id="clipEmfPath1-1" clipPathUnits="userSpaceOnUse"><rect id="rect3132" width="125.377" height="44.154" x="271.5" y="131.712"/></clipPath><clipPath id="clipEmfPath2-7" clipPathUnits="userSpaceOnUse"><rect id="rect3135" width="125.377" height="44.154" x="271.5" y="212.812"/></clipPath><clipPath id="clipEmfPath3-4" clipPathUnits="userSpaceOnUse"><rect id="rect3138" width="107.337" height="44.154" x="433.858" y="212.812"/></clipPath><clipPath id="clipEmfPath4-0" clipPathUnits="userSpaceOnUse"><rect id="rect3141" width="549.313" height="17.121" x=".902" y="293.912"/></clipPath><clipPath id="clipEmfPath5-9" clipPathUnits="userSpaceOnUse"><rect id="rect3144" width="333.737" height="18.022" x="72.61" y="338.517"/></clipPath><clipPath id="clipEmfPath6" clipPathUnits="userSpaceOnUse"><rect id="rect3147" width="342.757" height="18.022" x="72.61" y="374.562"/></clipPath><clipPath id="clipEmfPath7" clipPathUnits="userSpaceOnUse"><rect id="rect3150" width="243.538" height="18.022" x="135.75" y="410.606"/></clipPath></defs><metadata id="metadata7"/><g id="layer1" transform="translate(-63.736307,-64.65625)"><path style="fill:#fff;fill-opacity:1;fill-rule:evenodd;stroke:none" id="path3166" d="m 270.99235,207.81864 0,54.06664 126.27894,0 0,-54.06664 -126.27894,0 z" clip-path="url(#clipEmfPath1-1)" transform="matrix(1.0333295,0,0,1.0465218,64.357675,64.546499)"/><path style="fill:#fff;fill-opacity:1;fill-rule:evenodd;stroke:none" id="path3178" d="m 433.35098,207.81864 0,54.06664 108.23909,0 0,-54.06664 -108.23909,0 z" clip-path="url(#clipEmfPath2-7)" transform="matrix(1.0333295,0,0,1.0465218,64.357675,64.546499)"/><path style="fill:#fff;fill-opacity:1;fill-rule:evenodd;stroke:none" id="path3188" d="m 0.39462168,288.9186 0,27.03332 550.21537832,0 0,-27.03332 -550.21537832,0 z" clip-path="url(#clipEmfPath3-4)" transform="matrix(1.0333295,0,0,1.0465218,64.357675,64.546499)"/><path style="fill:#000;fill-opacity:1;fill-rule:nonzero;stroke:#000;stroke-width:.15033206px;stroke-linecap:butt;stroke-linejoin:bevel;stroke-opacity:1;stroke-dasharray:none" id="path3198" d="m 325.73201,63.640939 0,56.826291 c 0,0.35669 -0.26308,0.61951 -0.62012,0.61951 -0.33824,0 -0.62012,-0.26282 -0.62012,-0.61951 l 0,-56.826291 c 0,-0.337916 0.28188,-0.619513 0.62012,-0.619513 0.35704,0 0.62012,0.281597 0.62012,0.619513 z m 3.13818,55.568491 -3.7583,7.50925 -3.7583,-7.50925 z" clip-path="url(#clipEmfPath4-0)" transform="matrix(1.0333295,0,0,1.0465218,64.357675,64.546499)"/><path style="fill:#fff;fill-opacity:1;fill-rule:evenodd;stroke:none" id="path3240" d="m 18.43447,370.01856 0,18.02221 45.099621,0 0,-18.02221 -45.099621,0 z" clip-path="url(#clipEmfPath5-9)" transform="matrix(1.0333295,0,0,1.0465218,64.357675,64.546499)"/><path style="fill:#fff;fill-opacity:1;fill-rule:evenodd;stroke:none" id="path3254" d="m 135.69348,406.06298 0,27.03332 243.53796,0 0,-27.03332 -243.53796,0 z" clip-path="url(#clipEmfPath6)" transform="matrix(1.0333295,0,0,1.0465218,64.357675,64.546499)"/><path style="fill:none;stroke:#000;stroke-width:.97706896px;stroke-linecap:round;stroke-linejoin:miter;stroke-miterlimit:4;stroke-opacity:1;stroke-dasharray:none" id="path3180" d="m 490.93507,282.03324 0,56.58191 113.26111,0 0,-56.58191 z"/><path style="fill:none;stroke:#000;stroke-width:1.06878722px;stroke-linecap:round;stroke-linejoin:miter;stroke-miterlimit:4;stroke-opacity:1;stroke-dasharray:none" id="path3190" d="m 64.811308,366.95197 0,33.8571 548.659552,0 0,-33.8571 z"/><path style="fill:#fff;fill-opacity:1;fill-rule:evenodd;stroke:none" id="path3156" d="m 344.38206,197.16036 0,56.58192 130.48776,0 0,-56.58192 -130.48776,0 z"/><path style="fill:none;stroke:#000;stroke-width:1.11373937px;stroke-linecap:round;stroke-linejoin:miter;stroke-miterlimit:4;stroke-opacity:1;stroke-dasharray:none" id="path3158" d="m 344.4504,197.2287 0,56.44524 169.95611,0 0,-56.44524 z"/><text id="text3162" x="463.689" y="186.108" xml:space="preserve" style="font-size:31.02789688px;font-style:normal;font-weight:700;text-align:start;text-anchor:start;fill:#000;font-family:Times New Roman" transform="scale(0.78359294,1.2761728)">Visualization</text><path style="fill:none;stroke:#000;stroke-width:.97706896px;stroke-linecap:round;stroke-linejoin:miter;stroke-miterlimit:4;stroke-opacity:1;stroke-dasharray:none" id="path3168" d="m 344.38206,282.03324 0,56.58191 130.48776,0 0,-56.58191 z"/><text id="text3172" x="459" y="261.708" xml:space="preserve" style="font-size:34.08923721px;font-style:normal;font-weight:700;text-align:start;text-anchor:start;fill:#000;font-family:Times New Roman" transform="scale(0.82314176,1.2148576)">Shape</text><text id="text3184" x="628.044" y="255.033" xml:space="preserve" style="font-size:31.91677094px;font-style:normal;font-weight:700;text-align:start;text-anchor:start;fill:#000;font-family:Times New Roman" transform="scale(0.79737332,1.2541177)">Graphic</text><text id="text3192" x="309.664" y="358.045" xml:space="preserve" style="font-size:38.11062622px;font-style:normal;font-weight:700;text-align:start;text-anchor:start;fill:#000;font-family:Times New Roman" transform="scale(0.89965906,1.1115322)">Kernel</text><path style="fill:#000;fill-opacity:1;fill-rule:nonzero;stroke:#000;stroke-width:.15633102px;stroke-linecap:butt;stroke-linejoin:bevel;stroke-opacity:1;stroke-dasharray:none" id="path3200" d="m 270.30308,196.72815 70.26338,79.98089 c 0.23301,0.26523 0.21359,0.68762 -0.0583,0.92338 -0.26213,0.23576 -0.66991,0.21611 -0.91263,-0.0589 l -70.26338,-79.97107 c -0.23302,-0.27505 -0.2136,-0.68763 0.0583,-0.92339 0.26214,-0.24557 0.66992,-0.2161 0.91264,0.0491 z m 71.81681,76.82762 2.26217,8.47747 -8.0681,-3.26132 z"/><path style="fill:#000;fill-opacity:1;fill-rule:nonzero;stroke:#000;stroke-width:.15633102px;stroke-linecap:butt;stroke-linejoin:bevel;stroke-opacity:1;stroke-dasharray:none" id="path3202" d="m 409.43296,253.74228 0,21.74868 c 0,0.37328 -0.27185,0.64833 -0.64079,0.64833 -0.34951,0 -0.64079,-0.27505 -0.64079,-0.64833 l 0,-21.74868 c 0,-0.35363 0.29128,-0.64833 0.64079,-0.64833 0.36894,0 0.64079,0.2947 0.64079,0.64833 z m 3.24277,20.43236 -3.88356,7.8586 -3.88356,-7.8586 z"/><path style="fill:#000;fill-opacity:1;fill-rule:nonzero;stroke:#000;stroke-width:.11878665px;stroke-linecap:butt;stroke-linejoin:bevel;stroke-opacity:1;stroke-dasharray:none" id="path3204" d="m 491.26208,253.69332 25.41321,24.57851 c 0.19618,0.18973 0.19618,0.49624 0,0.68598 -0.19618,0.18974 -0.51311,0.18974 -0.70929,0 l -25.4132,-24.5785 c -0.19618,-0.18974 -0.19618,-0.49624 0,-0.68599 0.19619,-0.18974 0.5131,-0.18974 0.70928,0 z m 26.48466,22.17028 2.12784,6.18842 -6.39858,-2.05795 z"/><path style="fill:#1c1c1c;fill-opacity:1;fill-rule:evenodd;stroke:none" id="path3206" d="m 157.97099,65.135894 0,66.012236 335.53993,0 0,-66.012236 -335.53993,0 z"/><path style="fill:none;stroke:#000;stroke-width:.97706896px;stroke-linecap:round;stroke-linejoin:miter;stroke-miterlimit:4;stroke-opacity:1;stroke-dasharray:none" id="path3208" d="m 157.97099,65.135894 0,66.012236 335.53993,0 0,-66.012236 z"/><path style="fill:#1c1c1c;fill-opacity:1;fill-rule:evenodd;stroke:none" id="path3210" d="m 157.97099,131.14813 0,132.02447 139.80831,0 0,-132.02447 -139.80831,0 z"/><path style="fill:none;stroke:#000;stroke-width:.97706896px;stroke-linecap:round;stroke-linejoin:miter;stroke-miterlimit:4;stroke-opacity:1;stroke-dasharray:none" id="path3212" d="m 157.97099,131.14813 0,132.02447 139.80831,0 0,-132.02447 z"/><path style="fill:#1c1c1c;fill-opacity:1;fill-rule:evenodd;stroke:none" id="path3214" d="m 167.29154,263.1726 0,75.44255 130.48776,0 0,-75.44255 -130.48776,0 z"/><path style="fill:none;stroke:#000;stroke-width:.97706896px;stroke-linecap:round;stroke-linejoin:miter;stroke-miterlimit:4;stroke-opacity:1;stroke-dasharray:none" id="path3216" d="m 167.29154,263.1726 0,75.44255 130.48776,0 0,-75.44255 z"/><path style="fill:#1c1c1c;fill-opacity:1;fill-rule:evenodd;stroke:none" id="path3218" d="m 64.765449,263.1726 0,75.44255 102.526091,0 0,-75.44255 -102.526091,0 z"/><path style="fill:none;stroke:#000;stroke-width:.97706896px;stroke-linecap:round;stroke-linejoin:miter;stroke-miterlimit:4;stroke-opacity:1;stroke-dasharray:none" id="path3220" d="m 64.765449,263.1726 0,75.44255 102.526091,0 0,-75.44255 z"/><path style="fill:#000;fill-opacity:1;fill-rule:nonzero;stroke:#000;stroke-width:.15633102px;stroke-linecap:butt;stroke-linejoin:bevel;stroke-opacity:1;stroke-dasharray:none" id="path3222" d="m 112.00901,338.61515 0,21.74868 c 0,0.36346 -0.28156,0.64833 -0.64079,0.64833 -0.35923,0 -0.6505,-0.28487 -0.6505,-0.64833 l 0,-21.74868 c 0,-0.35364 0.29127,-0.64833 0.6505,-0.64833 0.35923,0 0.64079,0.29469 0.64079,0.64833 z m 3.24277,20.43237 -3.88356,7.85859 -3.88357,-7.85859 z"/><path style="fill:#000;fill-opacity:1;fill-rule:nonzero;stroke:#000;stroke-width:.15633102px;stroke-linecap:butt;stroke-linejoin:bevel;stroke-opacity:1;stroke-dasharray:none" id="path3224" d="m 233.17621,338.61515 0,21.74868 c 0,0.36346 -0.28156,0.64833 -0.64079,0.64833 -0.35924,0 -0.6505,-0.28487 -0.6505,-0.64833 l 0,-21.74868 c 0,-0.35364 0.29126,-0.64833 0.6505,-0.64833 0.35923,0 0.64079,0.29469 0.64079,0.64833 z m 3.24277,20.43237 -3.88356,7.85859 -3.88356,-7.85859 z"/><path style="fill:#000;fill-opacity:1;fill-rule:nonzero;stroke:#000;stroke-width:.15633102px;stroke-linecap:butt;stroke-linejoin:bevel;stroke-opacity:1;stroke-dasharray:none" id="path3226" d="m 409.43296,338.61515 0,21.74868 c 0,0.37329 -0.27185,0.64833 -0.64079,0.64833 -0.34951,0 -0.64079,-0.27504 -0.64079,-0.64833 l 0,-21.74868 c 0,-0.35364 0.29128,-0.64833 0.64079,-0.64833 0.36894,0 0.64079,0.29469 0.64079,0.64833 z m 3.24277,20.43237 -3.88356,7.85859 -3.88356,-7.85859 z"/><path style="fill:#000;fill-opacity:1;fill-rule:nonzero;stroke:#000;stroke-width:.15633102px;stroke-linecap:butt;stroke-linejoin:bevel;stroke-opacity:1;stroke-dasharray:none" id="path3228" d="m 550.32809,340.02962 0,21.74868 c 0,0.37329 -0.27185,0.64833 -0.64079,0.64833 -0.34952,0 -0.64078,-0.27504 -0.64078,-0.64833 l 0,-21.74868 c 0,-0.35364 0.29126,-0.64833 0.64078,-0.64833 0.36894,0 0.64079,0.29469 0.64079,0.64833 z m 3.24278,20.43237 -3.88357,7.85859 -3.88356,-7.85859 z"/><path style="fill:#000;fill-opacity:1;fill-rule:evenodd;stroke:none" id="path3230" d="m 83.406557,414.05771 0,18.86064 46.602773,0 0,-18.86064 -46.602773,0 z"/><path style="fill:none;stroke:#000;stroke-width:.97706896px;stroke-linecap:round;stroke-linejoin:miter;stroke-miterlimit:4;stroke-opacity:1;stroke-dasharray:none" id="path3232" d="m 83.406557,414.05771 0,18.86064 46.602773,0 0,-18.86064 z"/><path style="fill:#fff;fill-opacity:1;fill-rule:evenodd;stroke:none" id="path3234" d="m 139.32988,414.05771 0,28.29096 344.86049,0 0,-28.29096 -344.86049,0 z"/><text id="text3236" x="149.655" y="429.439" xml:space="preserve" style="font-size:14.38245487px;font-style:normal;font-weight:400;text-align:start;text-anchor:start;fill:#000;font-family:Arial" transform="scale(0.99367712,1.0063631)">OCAF (Open CASCADE Application Framework)</text><path style="fill:none;stroke:#000;stroke-width:.97706896px;stroke-linecap:round;stroke-linejoin:miter;stroke-miterlimit:4;stroke-opacity:1;stroke-dasharray:none" id="path3242" d="m 83.406557,451.77899 0,18.86063 46.602773,0 0,-18.86063 z"/><path style="fill:#fff;fill-opacity:1;fill-rule:evenodd;stroke:none" id="path3244" d="m 139.32988,451.77899 0,28.29096 354.18104,0 0,-28.29096 -354.18104,0 z"/><text id="text3246" x="149.655" y="466.922" xml:space="preserve" style="font-size:14.38245487px;font-style:normal;font-weight:400;text-align:start;text-anchor:start;fill:#000;font-family:Arial" transform="scale(0.99367712,1.0063631)">OCCT</text><text id="text3250" x="194.209" y="466.922" xml:space="preserve" style="font-size:14.38245487px;font-style:normal;font-weight:400;text-align:start;text-anchor:start;fill:#000;font-family:Arial" transform="scale(0.99367712,1.0063631)">Object Libraries required by OCAF</text></g></svg>