<svg xmlns="http://www.w3.org/2000/svg" width="300" height="300"><g id="Layer_1"><title>Layer 1</title><rect id="svg_1" width="297" height="297" x="1" y="1.6" fill="#fff" stroke="#ff56ff" stroke-width="4"/><rect id="svg_3" width="136" height="120" x="153" y="22.6" fill="#ff56ff" stroke="#ff56ff" stroke-width="4"/><rect id="svg_4" width="127" height="260" x="16" y="18.6" fill="#ff56ff" stroke="#ff56ff" stroke-width="4"/><rect id="svg_5" width="131" height="122" x="156" y="155.6" fill="#ff56ff" stroke="#ff56ff" stroke-width="4"/><rect id="svg_6" width="125" height="41" x="17" y="87.6" fill="#fff" stroke="#ff56ff" stroke-width="4"/><rect id="svg_7" width="2" height="3" x="89" y="364.6" fill="#fff" stroke="#ff56ff" stroke-width="4"/><rect id="svg_8" width="117" height="41" x="21" y="126.6" fill="#fff" stroke="#fff" stroke-width="4"/><rect id="svg_9" width="125" height="41" x="164" y="63.6" fill="#fff" stroke="#ff56ff" stroke-width="4"/><rect id="svg_10" width="114" height="64" x="159" y="158.6" fill="#fff" stroke="#ff56ff" stroke-width="4"/><rect id="svg_11" width="101" height="41" x="184" y="215.6" fill="#fff" stroke="#ff56ff" stroke-width="4"/><text id="svg_13" x="24" y="119.6" fill="#000" stroke="#ff56ff" stroke-width="0" font-family="Noto Sans JP" font-size="24" text-anchor="start" transform="matrix(0.742836 0 0 0.850555 6.17194 14.6433)" xml:space="preserve">Message report</text><text style="cursor:move" id="svg_14" x="24" y="118.424" fill="#000" stroke="#ff56ff" stroke-width="0" font-family="Noto Sans JP" font-size="24" text-anchor="start" transform="matrix(0.742836 0 0 0.850555 6.17194 46.6433)" xml:space="preserve">tree view</text><text style="cursor:move" id="svg_15" x="167" y="90.6" fill="#000" stroke="#ff56ff" stroke-width="0" font-family="Noto Sans JP" font-size="24" text-anchor="start" xml:space="preserve">Dump panel</text><text id="svg_16" x="190" y="245.6" fill="#000" stroke="#ff56ff" stroke-width="0" font-family="Noto Sans JP" font-size="24" text-anchor="start" xml:space="preserve">3D View</text><text id="svg_17" x="157" y="181.6" fill="#000" stroke="#ff56ff" stroke-width="0" font-family="Noto Sans JP" font-size="24" text-anchor="start" transform="matrix(0.784367 0 0 0.769922 36.8545 36.9383)" xml:space="preserve">Property panel</text><text id="svg_18" x="176.348" y="206.511" fill="#000" stroke="#ff56ff" stroke-width="0" font-family="Noto Sans JP" font-size="24" text-anchor="start" transform="matrix(0.884685 0 0 0.774516 20.9874 38.7657)" xml:space="preserve">(custom)</text></g></svg>