<svg xmlns="http://www.w3.org/2000/svg" xmlns:svg="http://www.w3.org/2000/svg" id="svg2" width="500" height="240" version="1.1"><defs id="defs4"><clipPath id="clipEmfPath1-1" clipPathUnits="userSpaceOnUse"><rect id="rect3221" width="546.803" height="352.24" x="0" y="0"/></clipPath><clipPath id="clipEmfPath2-7" clipPathUnits="userSpaceOnUse"><rect id="rect3224" width="140.714" height="11.251" x=".6" y="141.166"/></clipPath><clipPath id="clipEmfPath3" clipPathUnits="userSpaceOnUse"><rect id="rect3227" width="140.864" height="11.251" x="177.317" y="141.166"/></clipPath><clipPath id="clipEmfPath4" clipPathUnits="userSpaceOnUse"><rect id="rect3230" width="140.864" height="11.251" x="350.284" y="140.866"/></clipPath><clipPath id="clipEmfPath5" clipPathUnits="userSpaceOnUse"><rect id="rect3233" width="140.714" height="11.251" x="175.067" y="276.482"/></clipPath><clipPath id="clipEmfPath6" clipPathUnits="userSpaceOnUse"><rect id="rect3236" width="140.714" height="11.251" x="175.967" y="214.074"/></clipPath><clipPath id="clipEmfPath7" clipPathUnits="userSpaceOnUse"><rect id="rect3239" width="140.864" height="11.251" x="174.017" y="336.188"/></clipPath></defs><metadata id="metadata7"/><g id="layer1" transform="translate(-28.041461,-50.336628)"><path style="fill:#fff;fill-opacity:1;fill-rule:evenodd;stroke:none" id="path3257" d="m -0.00937591,136.00926 v 21.24618 H 141.75441 v -21.24618 z" clip-path="url(#clipEmfPath1-1)" transform="translate(32.519633,-72.118896)"/><g id="g3196"><path style="fill:none;stroke:#000;stroke-width:1;stroke-linecap:round;stroke-linejoin:miter;stroke-miterlimit:4;stroke-dasharray:none;stroke-opacity:1" id="path3259" d="M 32.510257,63.89036 V 85.13654 H 174.27404 V 63.89036 Z"/><text id="text3261" x="78.231" y="77.499" xml:space="preserve" style="font-style:normal;font-weight:700;font-size:11.2511px;line-height:0%;font-family:Arial;text-align:start;text-anchor:start;fill:#000">ShapeFix</text></g><path style="fill:#fff;fill-opacity:1;fill-rule:evenodd;stroke:none" id="path3265" d="m 176.82969,136.00926 v 21.24618 h 141.76378 v -21.24618 z" clip-path="url(#clipEmfPath2-7)" transform="translate(28.519633,1.8811043)"/><g id="g3188" transform="translate(-1.45134)"><path style="fill:none;stroke:#000;stroke-width:1;stroke-linecap:round;stroke-linejoin:miter;stroke-miterlimit:4;stroke-dasharray:none;stroke-opacity:1" id="path3267" d="M 208.41918,63.89036 V 85.13654 H 350.18296 V 63.89036 Z"/><text id="text3269" x="239.622" y="77.425" xml:space="preserve" style="font-style:normal;font-weight:700;font-size:11.2511px;line-height:0%;font-family:Arial;text-align:start;text-anchor:start;fill:#000">ShapeUpgrade</text></g><path style="fill:#fff;fill-opacity:1;fill-rule:evenodd;stroke:none" id="path3273" d="m 349.77776,135.82174 v 21.24617 h 141.76378 v -21.24617 z" clip-path="url(#clipEmfPath3)" transform="translate(28.519633,1.8811043)"/><g id="g3192"><path style="fill:none;stroke:#000;stroke-width:1;stroke-linecap:round;stroke-linejoin:miter;stroke-miterlimit:4;stroke-dasharray:none;stroke-opacity:1" id="path3275" d="M 382.29739,63.70284 V 84.94901 H 524.06117 V 63.70284 Z"/><text id="text3277" x="415.52" y="77.312" xml:space="preserve" style="font-style:normal;font-weight:700;font-size:11.2511px;line-height:0%;font-family:Arial;text-align:start;text-anchor:start;fill:#000">ShapeCustom</text></g><path style="fill:#fff;fill-opacity:1;fill-rule:evenodd;stroke:none" id="path3281" d="m 174.44821,271.3997 v 21.24618 H 316.21199 V 271.3997 Z" clip-path="url(#clipEmfPath4)" transform="translate(28.519633,1.8811043)"/><g id="g3180" transform="translate(0,-5.3756104)"><path style="fill:none;stroke:#000;stroke-width:1;stroke-linecap:round;stroke-linejoin:miter;stroke-miterlimit:4;stroke-dasharray:none;stroke-opacity:1" id="path3283" d="m 206.96784,199.2808 v 21.24618 H 348.73162 V 199.2808 Z"/><text id="text3285" x="242.366" y="212.89" xml:space="preserve" style="font-style:normal;font-weight:700;font-size:11.2511px;line-height:0%;font-family:Arial;text-align:start;text-anchor:start;fill:#000">ShapeExtend</text></g><path style="fill:#fff;fill-opacity:1;fill-rule:evenodd;stroke:none" id="path3289" d="m 175.3858,208.95508 v 21.24617 h 141.76378 v -21.24617 z" clip-path="url(#clipEmfPath5)" transform="translate(28.519633,1.8811043)"/><g id="g3184" transform="translate(-0.93759,-7.9384003)"><path style="fill:none;stroke:#000;stroke-width:1;stroke-linecap:round;stroke-linejoin:miter;stroke-miterlimit:4;stroke-dasharray:none;stroke-opacity:1" id="path3291" d="m 207.90543,136.83618 v 21.24617 h 141.76378 v -21.24617 z"/><text id="text3293" x="238.834" y="150.371" xml:space="preserve" style="font-style:normal;font-weight:700;font-size:11.2511px;line-height:0%;font-family:Arial;text-align:start;text-anchor:start;fill:#000">ShapeAnalysis</text></g><path style="fill:none;stroke:#000;stroke-width:.937591px;stroke-linecap:round;stroke-linejoin:round;stroke-dasharray:none;stroke-opacity:1" id="path3297" d="M 74.257219,158.83061 V 341.58896" clip-path="url(#clipEmfPath6)" transform="translate(28.519633,1.8811043)"/><path style="fill:none;stroke:#000;stroke-width:1;stroke-linecap:round;stroke-linejoin:miter;stroke-miterlimit:4;stroke-dasharray:none;stroke-opacity:1" id="path3315" d="m 206.03025,258.9126 v 21.24618 H 347.79403 V 258.9126 Z"/><g id="g3176" transform="translate(0.43759)"><path style="fill:none;fill-opacity:1;fill-rule:evenodd;stroke:none" id="path3313" d="m 206.03025,258.9126 v 21.24618 H 347.79403 V 258.9126 Z"/><text id="text3317" x="252.973" y="272.379" xml:space="preserve" style="font-style:normal;font-weight:700;font-size:11.2511px;line-height:0%;font-family:Arial;text-align:start;text-anchor:start;fill:#000">Message</text></g><path style="fill:#000;fill-opacity:1;fill-rule:nonzero;stroke:#000;stroke-width:.150015px;stroke-linecap:butt;stroke-linejoin:bevel;stroke-dasharray:none;stroke-opacity:1" id="path3321" d="m 174.31695,148.19815 h -25.62437 c -0.34691,0 -0.62818,-0.28128 -0.62818,-0.62819 0,-0.34692 0.28127,-0.6282 0.62818,-0.6282 h 25.62437 c 0.34691,0 0.62818,0.28128 0.62818,0.6282 0,0.34691 -0.28127,0.62819 -0.62818,0.62819 z m -24.37737,3.12223 -7.50073,-3.75042 7.50073,-3.75043 z" clip-path="url(#clipEmfPath7)" transform="translate(28.519633,1.8811043)"/><g id="path2302"><path id="path1187" style="color:#000;fill:#000;fill-rule:evenodd;-inkscape-stroke:none" d="M 74.851562 35.234375 L 74.851562 219.70703 L 74.894531 219.70703 L 74.894531 219.70898 L 176.75 219.70898 L 176.75 218.70898 L 75.851562 218.70898 L 75.851562 154.70117 L 176.75 154.70117 L 176.75 153.70117 L 75.851562 153.70117 L 75.851562 89.695312 L 176.75 89.695312 L 176.75 88.695312 L 75.851562 88.695312 L 75.851562 35.234375 L 74.851562 35.234375 z" transform="translate(28.041461,50.336628)"/><g id="g1177"><g id="path1179"><path style="color:#000;fill:#000;fill-rule:evenodd;stroke-width:.375;stroke-linejoin:round;-inkscape-stroke:none" id="path1183" d="m 199.56031,267.12506 6.55552,2.41063 -6.55552,2.41063 c 1.0473,-1.42323 1.04126,-3.37047 0,-4.82126 z"/><path style="color:#000;fill:#000;fill-rule:evenodd;stroke-linejoin:round;-inkscape-stroke:none" id="path1185" d="m 199.625,266.94922 a 0.18751875,0.18751875 0 0 0 -0.2168,0.28515 c 0.99512,1.38651 1.00066,3.24437 0.002,4.60157 a 0.18751875,0.18751875 0 0 0 0.21484,0.28711 l 6.55469,-2.41211 a 0.18751875,0.18751875 0 0 0 0,-0.35157 z m 0.22266,0.48047 5.72461,2.10547 -5.72461,2.10546 c 0.76265,-1.31366 0.76042,-2.88007 0,-4.21093 z"/></g></g></g><g id="path2304"><path style="color:#000;fill:#000;fill-rule:evenodd;-inkscape-stroke:none" id="path1113" d="m 278.79102,84.96875 v 43.67969 h 1 V 84.96875 Z"/><g id="g1103"><g id="path1105"><path style="color:#000;fill:#000;fill-rule:evenodd;stroke-width:.375;stroke-linejoin:round;-inkscape-stroke:none" id="path1109" d="m 281.7117,123.41665 -2.41063,6.55552 -2.41063,-6.55552 c 1.42323,1.0473 3.37047,1.04126 4.82126,0 z"/><path style="color:#000;fill:#000;fill-rule:evenodd;stroke-linejoin:round;-inkscape-stroke:none" id="path1111" d="m 281.75391,123.23438 a 0.18751875,0.18751875 0 0 0 -0.15235,0.0293 c -1.3865,0.99512 -3.24241,1.00066 -4.59961,0.002 a 0.18751875,0.18751875 0 0 0 -0.28711,0.21484 l 2.41016,6.55664 a 0.18751875,0.18751875 0 0 0 0.35156,0 l 2.41016,-6.55664 a 0.18751875,0.18751875 0 0 0 -0.13281,-0.24609 z m -0.34766,0.46875 -2.10547,5.72656 -2.10547,-5.72461 c 1.3136,0.76271 2.88007,0.75835 4.21094,-0.002 z"/></g></g></g><g id="path2820"><path style="color:#000;fill:#000;fill-rule:evenodd;-inkscape-stroke:none" id="path1127" d="m 278.79102,149.77148 v 42.79688 h 1 v -42.79688 z"/><g id="g1117"><g id="path1119"><path style="color:#000;fill:#000;fill-rule:evenodd;stroke-width:.375;stroke-linejoin:round;-inkscape-stroke:none" id="path1123" d="m 281.7117,187.3376 -2.41063,6.55552 -2.41063,-6.55552 c 1.42323,1.0473 3.37047,1.04126 4.82126,0 z"/><path style="color:#000;fill:#000;fill-rule:evenodd;stroke-linejoin:round;-inkscape-stroke:none" id="path1125" d="m 281.75391,187.1543 a 0.18751875,0.18751875 0 0 0 -0.15235,0.0312 c -1.3865,0.99512 -3.24241,1.00066 -4.59961,0.002 a 0.18751875,0.18751875 0 0 0 -0.28711,0.21484 l 2.41016,6.55469 a 0.18751875,0.18751875 0 0 0 0.35156,0 l 2.41016,-6.55469 a 0.18751875,0.18751875 0 0 0 -0.13281,-0.24804 z m -4.5586,0.4707 c 1.31362,0.76277 2.88004,0.76032 4.21094,0 l -2.10547,5.72461 z"/></g></g></g><g id="path3035"><path style="color:#000;fill:#000;fill-rule:evenodd;-inkscape-stroke:none" id="path1141" d="m 278.79102,215.0293 v 42.79882 h 1 V 215.0293 Z"/><g id="g1131"><g id="path1133"><path style="color:#000;fill:#000;fill-rule:evenodd;stroke-width:.375;stroke-linejoin:round;-inkscape-stroke:none" id="path1137" d="m 281.7117,252.59679 -2.41063,6.55552 -2.41063,-6.55552 c 1.42323,1.0473 3.37047,1.04126 4.82126,0 z"/><path style="color:#000;fill:#000;fill-rule:evenodd;stroke-linejoin:round;-inkscape-stroke:none" id="path1139" d="m 281.75391,252.41406 a 0.18751875,0.18751875 0 0 0 -0.15235,0.0312 c -1.3865,0.99512 -3.24241,0.99871 -4.59961,0 a 0.18751875,0.18751875 0 0 0 -0.28711,0.2168 l 2.41016,6.55469 a 0.18751875,0.18751875 0 0 0 0.35156,0 l 2.41016,-6.55469 a 0.18751875,0.18751875 0 0 0 -0.13281,-0.24805 z m -4.5586,0.47071 c 1.31358,0.76269 2.88008,0.76025 4.21094,0 l -2.10547,5.7246 z"/></g></g></g><g id="path4154"><g id="g1163"><g id="path1165"><path style="color:#000;fill:#000;fill-rule:evenodd;stroke-width:.375;stroke-linejoin:round;-inkscape-stroke:none" id="path1169" d="m 199.56031,202.11765 6.55552,2.41063 -6.55552,2.41063 c 1.0473,-1.42323 1.04126,-3.37047 0,-4.82126 z"/><path style="color:#000;fill:#000;fill-rule:evenodd;stroke-linejoin:round;-inkscape-stroke:none" id="path1171" d="m 199.625,201.94141 a 0.18751875,0.18751875 0 0 0 -0.2168,0.28515 c 0.99512,1.3865 1.00066,3.24437 0.002,4.60156 a 0.18751875,0.18751875 0 0 0 0.21484,0.28711 l 6.55469,-2.41015 a 0.18751875,0.18751875 0 0 0 0,-0.35352 z m 0.22266,0.48046 5.72265,2.10547 -5.72265,2.10743 c 0.76282,-1.31371 0.76047,-2.88194 0,-4.2129 z"/></g></g></g><g id="path4236"><g id="g1145"><g id="path1147"><path style="color:#000;fill:#000;fill-rule:evenodd;stroke-width:.375;stroke-linejoin:round;-inkscape-stroke:none" id="path1151" d="m 199.56031,137.11023 6.55552,2.41063 -6.55552,2.41063 c 1.0473,-1.42323 1.04126,-3.37047 0,-4.82126 z"/><path style="color:#000;fill:#000;fill-rule:evenodd;stroke-linejoin:round;-inkscape-stroke:none" id="path1153" d="m 199.625,136.93359 a 0.18751875,0.18751875 0 0 0 -0.2168,0.28516 c 0.99512,1.3865 1.00066,3.24437 0.002,4.60156 a 0.18751875,0.18751875 0 0 0 0.21484,0.28711 l 6.55469,-2.41015 a 0.18751875,0.18751875 0 0 0 0,-0.35157 z m 0.22266,0.48243 5.72461,2.10546 -5.72461,2.10547 c 0.7625,-1.31316 0.75952,-2.88028 0,-4.21093 z"/></g></g></g><g id="path4396"><path id="path958" style="color:#000;fill:#000;fill-rule:evenodd;-inkscape-stroke:none" d="M 424.63867 35.234375 L 424.63867 88.695312 L 321.84375 88.695312 L 321.84375 89.695312 L 425.64453 89.695312 L 425.64453 88.695312 L 425.63867 88.695312 L 425.63867 35.234375 L 424.63867 35.234375 z" transform="translate(28.041461,50.336628)"/><g id="g948"><g id="path950"><path style="color:#000;fill:#000;fill-rule:evenodd;stroke-width:.375;stroke-linejoin:round;-inkscape-stroke:none" id="path954" d="m 355.11503,141.95071 -6.55552,-2.41063 6.55552,-2.41063 c -1.0473,1.42323 -1.04126,3.37047 0,4.82126 z"/><path style="color:#000;fill:#000;fill-rule:evenodd;stroke-linejoin:round;-inkscape-stroke:none" id="path956" d="m 355.05078,136.95312 -6.55664,2.41016 a 0.18751875,0.18751875 0 0 0 0,0.35352 l 6.55664,2.41015 a 0.18751875,0.18751875 0 0 0 0.2168,-0.28515 c -0.99512,-1.3865 -1.00066,-3.24437 -0.002,-4.60157 a 0.18751875,0.18751875 0 0 0 -0.21484,-0.28711 z m -0.22266,0.48047 c -0.76281,1.31371 -0.76047,2.88194 0,4.21289 l -5.72265,-2.10742 z"/></g></g></g></g></svg>