<svg xmlns="http://www.w3.org/2000/svg" xmlns:svg="http://www.w3.org/2000/svg" id="svg8458" width="204.415" height="137.596" version="1.1"><defs id="defs8460"><clipPath id="clipEmfPath1" clipPathUnits="userSpaceOnUse"><rect id="rect8471" width="566.858" height="169.122" x="0" y="0"/></clipPath><clipPath id="clipEmfPath2" clipPathUnits="userSpaceOnUse"><rect id="rect8474" width="26.7" height="15.743" x="159.602" y="140.935"/></clipPath><clipPath id="clipEmfPath3" clipPathUnits="userSpaceOnUse"><rect id="rect8477" width="26.55" height="15.893" x="39.451" y="32.835"/></clipPath></defs><metadata id="metadata8463"/><g id="layer1" transform="translate(70.772185,-349.27533)"><g id="g8479" transform="translate(-84.492153,318.18383)"><path id="path8483" d="m 159.55545,140.80384 0,15.93016 26.69102,0 0,-15.93016 -26.69102,0 z" clip-path="url(#clipEmfPath1)" style="fill:#fff;fill-opacity:1;fill-rule:evenodd;stroke:none"/><text id="text8485" style="font-size:12.45018196px;font-style:normal;font-weight:700;text-align:start;text-anchor:start;fill:#000;font-family:Times New Roman" x="166.652" y="152.78" xml:space="preserve">E</text><text id="text8487" style="font-size:8.10011864px;font-style:normal;font-weight:700;text-align:start;text-anchor:start;fill:#000;font-family:Times New Roman" x="174.903" y="154.729" xml:space="preserve">2</text><path id="path8491" d="m 39.431826,32.788011 0,15.864562 26.625388,0 0,-15.864562 -26.625388,0 z" clip-path="url(#clipEmfPath2)" style="fill:#fff;fill-opacity:1;fill-rule:evenodd;stroke:none"/><text id="text8493" style="font-size:12.45018196px;font-style:normal;font-weight:700;text-align:start;text-anchor:start;fill:#000;font-family:Times New Roman" x="46.501" y="44.529" xml:space="preserve">E</text><text id="text8495" style="font-size:8.10011864px;font-style:normal;font-weight:700;text-align:start;text-anchor:start;fill:#000;font-family:Times New Roman" x="54.751" y="46.479" xml:space="preserve">1</text><path id="path8499" d="M 153.30224,120.70373 19.865915,36.957963" clip-path="url(#clipEmfPath3)" style="fill:none;stroke:#000;stroke-width:2.81254101px;stroke-linecap:butt;stroke-linejoin:round;stroke-opacity:1;stroke-dasharray:none"/><path id="path8501" d="m 159.0117,123.5899 c 1.04064,-1.64924 0.54375,-3.82323 -1.10627,-4.86338 -1.65002,-1.03077 -3.83443,-0.53413 -4.87507,1.11511 -1.03127,1.64924 -0.53438,3.83261 1.11564,4.86338 1.65002,1.04015 3.83443,0.5435 4.8657,-1.11511" style="fill:#fff;fill-opacity:1;fill-rule:evenodd;stroke:none"/><path id="path8503" d="m 160.71736,119.32574 c 1.04064,-1.64924 0.54375,-3.82323 -1.10627,-4.86338 -1.65002,-1.03077 -3.83443,-0.53413 -4.87507,1.11511 -1.03127,1.64924 -0.53438,3.83261 1.11564,4.86338 1.65002,1.04015 3.83443,0.5435 4.8657,-1.11511" style="fill:none;stroke:#000;stroke-width:2.81254101px;stroke-linecap:round;stroke-linejoin:round;stroke-opacity:1;stroke-dasharray:none"/><path id="path8505" d="m 22.200324,38.194893 c 1.04064,-1.649239 0.543758,-3.832608 -1.115641,-4.863383 -1.650024,-1.040145 -3.825056,-0.543499 -4.865696,1.115111 -1.031265,1.64924 -0.534383,3.823238 1.115641,4.863383 1.650024,1.030775 3.834431,0.534129 4.865696,-1.115111" style="fill:#fff;fill-opacity:1;fill-rule:evenodd;stroke:none"/><path id="path8507" d="m 22.200324,38.194893 c 1.04064,-1.649239 0.543758,-3.832608 -1.115641,-4.863383 -1.650024,-1.040145 -3.825056,-0.543499 -4.865696,1.115111 -1.031265,1.64924 -0.534383,3.823238 1.115641,4.863383 1.650024,1.030775 3.834431,0.534129 4.865696,-1.115111" style="fill:none;stroke:#000;stroke-width:2.81254101px;stroke-linecap:round;stroke-linejoin:round;stroke-opacity:1;stroke-dasharray:none"/><path id="path8509" d="M 198.14946,149.63913 61.644959,70.993542" style="fill:none;stroke:#000;stroke-width:2.81254101px;stroke-linecap:butt;stroke-linejoin:round;stroke-opacity:1;stroke-dasharray:none"/><path id="path8511" d="m 202.32483,155.07539 c 1.04064,-1.64924 0.54376,-3.82324 -1.10627,-4.86338 -1.65002,-1.03078 -3.83443,-0.53413 -4.87507,1.11511 -1.03126,1.64924 -0.53438,3.83261 1.11564,4.86338 1.65003,1.04015 3.83443,0.5435 4.8657,-1.11511" style="fill:#fff;fill-opacity:1;fill-rule:evenodd;stroke:none"/><path id="path8513" d="m 204.88333,153.93828 c 1.04064,-1.64924 0.54376,-3.82324 -1.10627,-4.86338 -1.65002,-1.03078 -3.83443,-0.53413 -4.87507,1.11511 -1.03126,1.64924 -0.53438,3.83261 1.11564,4.86338 1.65003,1.04015 3.83443,0.5435 4.8657,-1.11511" style="fill:none;stroke:#000;stroke-width:2.81254101px;stroke-linecap:round;stroke-linejoin:round;stroke-opacity:1;stroke-dasharray:none"/><path id="path8515" d="m 65.513457,69.680379 c 1.04064,-1.649239 0.543757,-3.832608 -1.115642,-4.863383 -1.650024,-1.040145 -3.825056,-0.543499 -4.865696,1.115111 -1.031265,1.64924 -0.534383,3.823238 1.115641,4.863383 1.650025,1.030775 3.834431,0.534129 4.865697,-1.115111" style="fill:#fff;fill-opacity:1;fill-rule:evenodd;stroke:none"/><path id="path8517" d="m 62.670681,70.533212 c 1.04064,-1.649239 0.543757,-3.832608 -1.115642,-4.863383 -1.650024,-1.040145 -3.825056,-0.543499 -4.865696,1.115111 -1.031265,1.64924 -0.534383,3.823238 1.115641,4.863383 1.650025,1.030775 3.834431,0.534129 4.865697,-1.115111" style="fill:none;stroke:#000;stroke-width:2.81254101px;stroke-linecap:round;stroke-linejoin:round;stroke-opacity:1;stroke-dasharray:none"/></g><path style="fill:none;stroke:#000;stroke-width:3;stroke-linecap:butt;stroke-linejoin:miter;stroke-opacity:1;stroke-miterlimit:4;stroke-dasharray:none" id="path8549" d="M -63.096689,357.24106 69.31399,433.6884"/></g></svg>