<svg xmlns="http://www.w3.org/2000/svg" xmlns:svg="http://www.w3.org/2000/svg" id="svg10255" width="203.667" height="125.471" version="1.1"><defs id="defs10257"><clipPath id="clipEmfPath1" clipPathUnits="userSpaceOnUse"><rect id="rect10268" width="566.858" height="136.878" x="0" y="0"/></clipPath><clipPath id="clipEmfPath2" clipPathUnits="userSpaceOnUse"><rect id="rect10271" width="26.55" height="15.742" x="37.201" y="12.893"/></clipPath></defs><metadata id="metadata10260"/><g id="layer1" transform="translate(361.82854,13.222076)"><g id="g10273" transform="translate(-376.86429,-24.629083)"><path id="path10277" d="m 20.484674,17.081635 2.400035,1.480471 c 0.215628,0.140551 0.281254,0.421653 0.150002,0.646534 -0.140627,0.215512 -0.431256,0.290472 -0.646884,0.149921 l -2.39066,-1.48047 c -0.225003,-0.131181 -0.290629,-0.421653 -0.150002,-0.646535 0.131252,-0.215512 0.421881,-0.281102 0.637509,-0.149921 z m 5.587582,3.457555 2.39066,1.471101 c 0.215628,0.140551 0.290629,0.431023 0.150002,0.646535 -0.131252,0.224881 -0.421881,0.290472 -0.646885,0.149921 l -2.39066,-1.471101 c -0.215628,-0.140551 -0.290629,-0.431023 -0.150002,-0.646535 0.131252,-0.224881 0.421881,-0.290472 0.646885,-0.149921 z m 5.578206,3.448185 2.39066,1.480471 c 0.225003,0.131181 0.290629,0.421653 0.150002,0.637165 -0.131252,0.224881 -0.421881,0.290472 -0.637509,0.159291 L 31.15358,24.783831 c -0.215628,-0.140551 -0.281254,-0.431023 -0.150002,-0.646535 0.140627,-0.215511 0.431256,-0.290472 0.646884,-0.149921 z m 5.578207,3.448185 2.390659,1.480471 c 0.225004,0.131181 0.29063,0.421653 0.159378,0.646535 -0.140627,0.215512 -0.431257,0.281102 -0.646885,0.149921 l -2.39066,-1.480471 c -0.225003,-0.131181 -0.290629,-0.421653 -0.150002,-0.646534 0.131252,-0.215512 0.421881,-0.281102 0.63751,-0.149922 z m 5.587581,3.448186 2.39066,1.48047 c 0.215628,0.140552 0.290629,0.421654 0.150002,0.646535 -0.140627,0.215512 -0.421881,0.290472 -0.646884,0.149921 l -2.39066,-1.480471 c -0.215628,-0.13118 -0.290629,-0.421653 -0.150002,-0.637164 0.131252,-0.224882 0.421881,-0.290472 0.646884,-0.159291 z m 5.578207,3.457555 2.390659,1.471101 c 0.225004,0.140551 0.29063,0.431023 0.150003,0.646534 -0.131252,0.224882 -0.421881,0.290473 -0.646885,0.149922 l -2.39066,-1.471101 c -0.215628,-0.140551 -0.281254,-0.431023 -0.150002,-0.646535 0.140627,-0.224882 0.421881,-0.290472 0.646885,-0.149921 z m 5.578206,3.448185 2.39066,1.480471 c 0.225003,0.131181 0.290629,0.421653 0.159377,0.637165 -0.140627,0.224881 -0.431256,0.290472 -0.646884,0.159291 l -2.39066,-1.480471 c -0.225003,-0.140551 -0.290629,-0.421653 -0.159377,-0.646535 0.140627,-0.215511 0.431256,-0.290472 0.646884,-0.149921 z m 5.587582,3.448185 2.39066,1.480471 c 0.215628,0.131181 0.281254,0.421653 0.150002,0.646535 -0.140627,0.215511 -0.421881,0.281102 -0.646885,0.149921 l -2.39066,-1.480471 c -0.225003,-0.131181 -0.290629,-0.421653 -0.150002,-0.646535 0.131252,-0.215511 0.421881,-0.281102 0.646885,-0.149921 z m 5.578206,3.448186 2.39066,1.48047 c 0.215628,0.140551 0.290629,0.431023 0.150002,0.646535 -0.131252,0.215512 -0.421881,0.290472 -0.646884,0.149921 l -2.39066,-1.480471 c -0.215628,-0.131181 -0.281254,-0.421653 -0.150002,-0.637164 0.140627,-0.224882 0.421881,-0.290472 0.646884,-0.159291 z m 5.578206,3.457555 2.39066,1.471101 c 0.225004,0.140551 0.29063,0.431023 0.159378,0.646534 -0.140627,0.224882 -0.431257,0.290472 -0.646885,0.149921 l -2.39066,-1.4711 c -0.225003,-0.140551 -0.290629,-0.431024 -0.159377,-0.646535 0.140627,-0.224882 0.431256,-0.290472 0.646884,-0.149921 z m 5.578207,3.448185 2.400035,1.480471 c 0.215628,0.131181 0.281254,0.421653 0.150002,0.646535 -0.140627,0.215511 -0.431256,0.281102 -0.646884,0.149921 l -2.39066,-1.480471 c -0.225003,-0.140551 -0.290629,-0.421653 -0.150002,-0.646535 0.131252,-0.215511 0.421881,-0.290472 0.637509,-0.149921 z m 5.587582,3.448185 2.390659,1.480471 c 0.215629,0.131181 0.29063,0.421653 0.150003,0.646535 -0.131252,0.215511 -0.421882,0.290472 -0.646885,0.149921 l -2.39066,-1.480471 c -0.215628,-0.131181 -0.290629,-0.421653 -0.150002,-0.646535 0.131252,-0.215511 0.421881,-0.281102 0.646885,-0.149921 z m 5.578206,3.448185 2.39066,1.480471 c 0.225003,0.140551 0.290629,0.431023 0.150002,0.646535 -0.131252,0.224882 -0.421881,0.290472 -0.637509,0.149921 L 86.96377,59.284423 c -0.215628,-0.131181 -0.281254,-0.421653 -0.150002,-0.637164 0.140627,-0.224882 0.431256,-0.290473 0.646884,-0.159292 z m 5.578206,3.457556 2.400035,1.4711 c 0.215629,0.140551 0.281255,0.431024 0.150003,0.646535 -0.140627,0.224882 -0.431257,0.290472 -0.646885,0.159291 l -2.39066,-1.480471 c -0.225003,-0.140551 -0.290629,-0.431023 -0.150002,-0.646534 0.131252,-0.224882 0.421881,-0.290472 0.637509,-0.149921 z m 5.587582,3.448185 2.39066,1.480471 c 0.21563,0.131181 0.29063,0.421653 0.15,0.646534 -0.14062,0.215512 -0.42188,0.281102 -0.64688,0.149921 l -2.390662,-1.48047 c -0.215628,-0.140551 -0.29063,-0.421653 -0.150002,-0.646535 0.131251,-0.215512 0.421881,-0.290472 0.646884,-0.149921 z m 5.57821,3.448185 2.39066,1.480471 c 0.225,0.140551 0.29063,0.421653 0.15,0.646535 -0.13125,0.215511 -0.42188,0.290472 -0.63751,0.149921 l -2.40004,-1.480471 c -0.21562,-0.131181 -0.28125,-0.421653 -0.15,-0.646535 0.14063,-0.215511 0.42188,-0.281102 0.64689,-0.149921 z m 5.5782,3.448185 2.39066,1.480471 c 0.22501,0.140551 0.29063,0.431023 0.15938,0.646535 -0.14063,0.224881 -0.43126,0.290472 -0.64688,0.149921 l -2.39066,-1.480471 c -0.22501,-0.131181 -0.29063,-0.421653 -0.15938,-0.637165 0.14063,-0.224881 0.43125,-0.290472 0.64688,-0.159291 z m 5.58758,3.457556 2.39066,1.4711 c 0.21563,0.140551 0.28126,0.431023 0.15001,0.646535 -0.14063,0.224882 -0.42188,0.290472 -0.64689,0.159291 l -2.39066,-1.480471 c -0.225,-0.140551 -0.29063,-0.431023 -0.15,-0.646534 0.13125,-0.224882 0.42188,-0.290473 0.64688,-0.149921 z m 5.57821,3.448185 2.39066,1.480471 c 0.225,0.13118 0.29063,0.421653 0.15,0.646534 -0.13125,0.215512 -0.42188,0.281102 -0.64688,0.149921 l -2.39066,-1.48047 c -0.21563,-0.140552 -0.28126,-0.421654 -0.15,-0.646535 0.14062,-0.215512 0.42188,-0.290472 0.64688,-0.149921 z m 5.57821,3.448185 2.39066,1.480471 c 0.225,0.140551 0.29063,0.421653 0.15937,0.646534 -0.14062,0.215512 -0.43125,0.290473 -0.64688,0.149922 l -2.39066,-1.480471 c -0.225,-0.131181 -0.29063,-0.421653 -0.15938,-0.646535 0.14063,-0.215512 0.43126,-0.281102 0.64689,-0.149921 z m 5.5782,3.448185 2.40004,1.480471 c 0.21563,0.140551 0.28125,0.431023 0.15,0.646535 -0.14063,0.224881 -0.42188,0.290472 -0.64688,0.149921 l -2.39066,-1.480471 c -0.22501,-0.131181 -0.29063,-0.421653 -0.15001,-0.637165 0.13126,-0.224881 0.42189,-0.290472 0.63751,-0.159291 z m 5.58759,3.457555 2.39066,1.480471 c 0.21562,0.131181 0.29062,0.421653 0.15,0.637165 -0.13125,0.224881 -0.42188,0.290472 -0.64689,0.159291 L 137.19575,90.3462 c -0.21563,-0.140551 -0.29063,-0.431023 -0.15,-0.646535 0.13125,-0.224881 0.42188,-0.290472 0.64689,-0.149921 z m 5.5782,3.448186 2.39066,1.48047 c 0.22501,0.131181 0.29063,0.421653 0.15,0.646535 -0.13125,0.215512 -0.42188,0.281102 -0.63751,0.149921 l -2.40003,-1.480471 c -0.21563,-0.140551 -0.28125,-0.421653 -0.15,-0.646534 0.14062,-0.215512 0.43125,-0.290472 0.64688,-0.149921 z m 5.57821,3.448185 2.40003,1.480471 c 0.21563,0.140551 0.28126,0.421653 0.15001,0.646534 -0.14063,0.215512 -0.43126,0.290472 -0.64689,0.149921 l -2.39066,-1.48047 c -0.225,-0.131181 -0.29063,-0.421654 -0.15,-0.646535 0.13125,-0.215512 0.42188,-0.281102 0.63751,-0.149921 z m 5.58758,3.448185 2.39066,1.48047 c 0.21563,0.14055 0.29063,0.43102 0.15,0.64654 -0.13125,0.22488 -0.42188,0.29047 -0.64688,0.14992 l -2.39066,-1.4711 c -0.21563,-0.14056 -0.29063,-0.43103 -0.15,-0.64654 0.13125,-0.224881 0.42188,-0.290471 0.64688,-0.15929 z m 5.57821,3.45756 2.39066,1.48047 c 0.225,0.13118 0.29063,0.42165 0.15,0.63716 -0.13125,0.22488 -0.42188,0.29047 -0.63751,0.15929 l -2.40004,-1.48047 c -0.21562,-0.14055 -0.28125,-0.43102 -0.15,-0.64653 0.14063,-0.22489 0.43126,-0.29048 0.64689,-0.14992 z m 5.5782,3.44818 2.39066,1.48047 c 0.22501,0.13118 0.29063,0.42165 0.15938,0.64654 -0.14063,0.21551 -0.43126,0.2811 -0.64688,0.14992 l -2.39066,-1.48047 c -0.22501,-0.13118 -0.29063,-0.42166 -0.15938,-0.64654 0.14063,-0.21551 0.43125,-0.29047 0.64688,-0.14992 z m 5.58758,3.44819 2.39066,1.48047 c 0.21563,0.14055 0.28126,0.42165 0.15001,0.64653 -0.14063,0.21551 -0.42188,0.29047 -0.64689,0.14992 l -2.39066,-1.48047 c -0.21563,-0.13118 -0.29063,-0.42165 -0.15,-0.64653 0.13125,-0.21551 0.42188,-0.28111 0.64688,-0.14992 z m 5.57821,3.45755 2.39066,1.4711 c 0.225,0.14055 0.29063,0.43102 0.15,0.64654 -0.13125,0.22488 -0.42188,0.29047 -0.64688,0.14992 l -2.39066,-1.4711 c -0.21563,-0.14055 -0.28126,-0.43103 -0.15,-0.64654 0.14062,-0.22488 0.42188,-0.29047 0.64688,-0.14992 z m 5.57821,3.44819 2.39066,1.48047 c 0.225,0.13118 0.29063,0.42165 0.15937,0.63716 -0.14062,0.22488 -0.43125,0.29047 -0.64688,0.15929 l -2.39066,-1.48047 c -0.225,-0.14055 -0.29063,-0.43102 -0.15938,-0.64653 0.14063,-0.21551 0.43126,-0.29047 0.64689,-0.14992 z m 5.58758,3.44818 2.39066,1.48047 c 0.21563,0.13118 0.28125,0.42166 0.15,0.64654 -0.14063,0.21551 -0.42188,0.2811 -0.64688,0.14992 l -2.39066,-1.48047 c -0.22501,-0.13118 -0.29063,-0.42166 -0.15001,-0.64654 0.13126,-0.21551 0.42189,-0.2811 0.64689,-0.14992 z m 5.57821,3.44819 2.39066,1.48047 c 0.21562,0.14055 0.29062,0.42165 0.15,0.64653 -0.13125,0.21551 -0.42188,0.29047 -0.64689,0.14992 l -2.39066,-1.48047 c -0.21563,-0.13118 -0.29063,-0.42165 -0.15,-0.63716 0.14063,-0.22488 0.42188,-0.29047 0.64689,-0.15929 z m 5.5782,3.45755 2.39066,1.4711 c 0.225,0.14055 0.29063,0.43103 0.15,0.64654 -0.13125,0.22488 -0.42188,0.29047 -0.63751,0.14992 l -2.39066,-1.4711 c -0.225,-0.14055 -0.29062,-0.43103 -0.15937,-0.64654 0.14062,-0.22488 0.43125,-0.29047 0.64688,-0.14992 z" clip-path="url(#clipEmfPath1)" style="fill:#000;fill-opacity:1;fill-rule:nonzero;stroke:#000;stroke-width:.1500022px;stroke-linecap:butt;stroke-linejoin:bevel;stroke-opacity:1;stroke-dasharray:none"/><path id="path10279" d="m 37.116167,12.799514 0,15.863525 26.625389,0 0,-15.863525 -26.625389,0 z" style="fill:#fff;fill-opacity:1;fill-rule:evenodd;stroke:none"/><text id="text10281" style="font-size:12.45018196px;font-style:normal;font-weight:700;text-align:start;text-anchor:start;fill:#000;font-family:Times New Roman" x="42.301" y="24.737" xml:space="preserve">E</text><text id="text10283" style="font-size:8.10011864px;font-style:normal;font-weight:700;text-align:start;text-anchor:start;fill:#000;font-family:Times New Roman" x="50.551" y="26.686" xml:space="preserve">11</text><path id="path10287" d="M 66.638473,45.875855 20.53155,16.950454" clip-path="url(#clipEmfPath2)" style="fill:none;stroke:#000;stroke-width:2.81254101px;stroke-linecap:butt;stroke-linejoin:round;stroke-opacity:1;stroke-dasharray:none"/><path id="path10289" d="m 70.266651,48.190262 c 1.031265,-1.649132 0.534383,-3.832358 -1.115641,-4.872435 -1.650024,-1.030708 -3.834431,-0.534094 -4.865696,1.115038 -1.040641,1.649132 -0.543758,3.832358 1.115641,4.863065 1.650024,1.040078 3.825056,0.543464 4.865696,-1.105668" style="fill:#fff;fill-opacity:1;fill-rule:evenodd;stroke:none"/><path id="path10291" d="m 70.266651,48.190262 c 1.031265,-1.649132 0.534383,-3.832358 -1.115641,-4.872435 -1.650024,-1.030708 -3.834431,-0.534094 -4.865696,1.115038 -1.040641,1.649132 -0.543758,3.832358 1.115641,4.863065 1.650024,1.040078 3.825056,0.543464 4.865696,-1.105668" style="fill:none;stroke:#000;stroke-width:2.81254101px;stroke-linecap:round;stroke-linejoin:round;stroke-opacity:1;stroke-dasharray:none"/><path id="path10293" d="m 22.950335,18.206043 c 1.04064,-1.649132 0.543758,-3.832358 -1.115641,-4.872436 -1.650024,-1.030707 -3.825056,-0.534093 -4.865696,1.115039 -1.031265,1.649132 -0.534383,3.832358 1.115641,4.863065 1.650024,1.040078 3.834431,0.543464 4.865696,-1.105668" style="fill:#fff;fill-opacity:1;fill-rule:evenodd;stroke:none"/><path id="path10295" d="m 22.950335,18.206043 c 1.04064,-1.649132 0.543758,-3.832358 -1.115641,-4.872436 -1.650024,-1.030707 -3.825056,-0.534093 -4.865696,1.115039 -1.031265,1.649132 -0.534383,3.832358 1.115641,4.863065 1.650024,1.040078 3.834431,0.543464 4.865696,-1.105668" style="fill:none;stroke:#000;stroke-width:2.81254101px;stroke-linecap:round;stroke-linejoin:round;stroke-opacity:1;stroke-dasharray:none"/></g><path style="fill:none;stroke:#000;stroke-width:3;stroke-linecap:butt;stroke-linejoin:miter;stroke-opacity:1;stroke-miterlimit:4;stroke-dasharray:none" id="path10317" d="M 8.216302,6.5507873 50.162686,32.929441" transform="translate(-361.82854,-13.222076)"/></g></svg>