<svg xmlns="http://www.w3.org/2000/svg" xmlns:svg="http://www.w3.org/2000/svg" id="svg7843" width="141.503" height="184.223" version="1.1"><defs id="defs7845"><clipPath id="clipEmfPath1" clipPathUnits="userSpaceOnUse"><rect id="rect7856" width="566.858" height="189.815" x="0" y="0"/></clipPath><clipPath id="clipEmfPath2" clipPathUnits="userSpaceOnUse"><rect id="rect7859" width="26.55" height="16.055" x="111.302" y="110.138"/></clipPath><clipPath id="clipEmfPath3" clipPathUnits="userSpaceOnUse"><rect id="rect7862" width="26.7" height="15.905" x="77.101" y="148.851"/></clipPath><clipPath id="clipEmfPath4" clipPathUnits="userSpaceOnUse"><rect id="rect7865" width="26.7" height="15.905" x="71.851" y="32.561"/></clipPath></defs><metadata id="metadata7848"/><g id="layer1" transform="translate(-43.534308,-323.10849)"><g id="g7867" transform="translate(-33.666065,317.51691)"><path id="path7871" d="m 111.30163,110.15645 0,15.99922 26.62538,0 0,-15.99922 -26.62538,0 z" clip-path="url(#clipEmfPath1)" style="fill:#fff;fill-opacity:1;fill-rule:evenodd;stroke:none"/><text id="text7873" style="font-size:12.45018196px;font-style:normal;font-weight:700;text-align:start;text-anchor:start;fill:#000;font-family:Times New Roman" x="114.602" y="121.842" xml:space="preserve">Vn</text><text id="text7875" style="font-size:8.10011864px;font-style:normal;font-weight:700;text-align:start;text-anchor:start;fill:#000;font-family:Times New Roman" x="130.502" y="123.792" xml:space="preserve">1</text><path id="path7879" d="m 77.119876,148.85094 0,15.88668 26.625384,0 0,-15.88668 -26.625384,0 z" clip-path="url(#clipEmfPath2)" style="fill:#fff;fill-opacity:1;fill-rule:evenodd;stroke:none"/><text id="text7881" style="font-size:12.45018196px;font-style:normal;font-weight:700;text-align:start;text-anchor:start;fill:#000;font-family:Times New Roman" x="82.201" y="160.555" xml:space="preserve">E</text><text id="text7883" style="font-size:8.10011864px;font-style:normal;font-weight:700;text-align:start;text-anchor:start;fill:#000;font-family:Times New Roman" x="90.451" y="162.506" xml:space="preserve">21</text><path id="path7887" d="m 71.869799,32.504874 0,15.942955 26.625389,0 0,-15.942955 -26.625389,0 z" clip-path="url(#clipEmfPath3)" style="fill:#fff;fill-opacity:1;fill-rule:evenodd;stroke:none"/><text id="text7889" style="font-size:12.45018196px;font-style:normal;font-weight:700;text-align:start;text-anchor:start;fill:#000;font-family:Times New Roman" x="76.951" y="44.265" xml:space="preserve">E</text><text id="text7891" style="font-size:8.10011864px;font-style:normal;font-weight:700;text-align:start;text-anchor:start;fill:#000;font-family:Times New Roman" x="85.201" y="46.216" xml:space="preserve">22</text><path id="path7895" d="m 102.62025,13.373326 0,157.553914" clip-path="url(#clipEmfPath4)" style="fill:none;stroke:#000;stroke-width:2.81254101px;stroke-linecap:butt;stroke-linejoin:round;stroke-opacity:1;stroke-dasharray:none"/><path id="path7897" d="m 102.02024,6.9961442 c -1.95003,0 -3.525052,1.5755391 -3.525052,3.5262068 0,1.960046 1.575022,3.535585 3.525052,3.535585 1.9594,0 3.53443,-1.575539 3.53443,-3.535585 0,-1.9506677 -1.57503,-3.5262068 -3.53443,-3.5262068" style="fill:#fff;fill-opacity:1;fill-rule:evenodd;stroke:none"/><path id="path7899" d="m 102.02024,6.9961442 c -1.95003,0 -3.525052,1.5755391 -3.525052,3.5262068 0,1.960046 1.575022,3.535585 3.525052,3.535585 1.9594,0 3.53443,-1.575539 3.53443,-3.535585 0,-1.9506677 -1.57503,-3.5262068 -3.53443,-3.5262068" style="fill:none;stroke:#000;stroke-width:2.81254101px;stroke-linecap:round;stroke-linejoin:round;stroke-opacity:1;stroke-dasharray:none"/><path id="path7901" d="m 102.39525,168.30134 c -1.95003,0 -3.525056,1.57554 -3.525056,3.52621 0,1.96005 1.575026,3.53559 3.525056,3.53559 1.9594,0 3.53442,-1.57554 3.53442,-3.53559 0,-1.95067 -1.57502,-3.52621 -3.53442,-3.52621" style="fill:#fff;fill-opacity:1;fill-rule:evenodd;stroke:none"/><path id="path7903" d="m 102.39525,168.30134 c -1.95003,0 -3.525056,1.57554 -3.525056,3.52621 0,1.96005 1.575026,3.53559 3.525056,3.53559 1.9594,0 3.53442,-1.57554 3.53442,-3.53559 0,-1.95067 -1.57502,-3.52621 -3.53442,-3.52621" style="fill:none;stroke:#000;stroke-width:2.81254101px;stroke-linecap:round;stroke-linejoin:round;stroke-opacity:1;stroke-dasharray:none"/><path id="path7905" d="m 102.46087,101.58476 c -1.95003,0 -3.534426,1.58492 -3.534426,3.53559 0,1.95067 1.584396,3.53558 3.534426,3.53558 1.95003,0 3.53443,-1.58491 3.53443,-3.53558 0,-1.95067 -1.5844,-3.53559 -3.53443,-3.53559" style="fill:#fff;fill-opacity:1;fill-rule:evenodd;stroke:none"/><path id="path7907" d="m 102.46087,101.58476 c -1.95003,0 -3.534426,1.58492 -3.534426,3.53559 0,1.95067 1.584396,3.53558 3.534426,3.53558 1.95003,0 3.53443,-1.58491 3.53443,-3.53558 0,-1.95067 -1.5844,-3.53559 -3.53443,-3.53559" style="fill:none;stroke:#000;stroke-width:2.81254101px;stroke-linecap:round;stroke-linejoin:round;stroke-opacity:1;stroke-dasharray:none"/></g><path style="fill:none;stroke:#000;stroke-width:2;stroke-linecap:butt;stroke-linejoin:miter;stroke-opacity:1;stroke-miterlimit:4;stroke-dasharray:none" id="path7946" d="m 25.023548,8.6271 0,86.288095" transform="translate(43.534308,323.10849)"/><path style="fill:none;stroke:#000;stroke-width:2;stroke-linecap:butt;stroke-linejoin:miter;stroke-opacity:1;stroke-miterlimit:4;stroke-dasharray:none" id="path7948" d="m 25.454988,104.40689 0,57.38158" transform="translate(43.534308,323.10849)"/></g></svg>