<svg xmlns="http://www.w3.org/2000/svg" xmlns:svg="http://www.w3.org/2000/svg" id="svg5925" width="194.922" height="180.603" version="1.1"><defs id="defs5927"><clipPath id="clipEmfPath1" clipPathUnits="userSpaceOnUse"><rect id="rect5960" width="566.858" height="189.815" x="0" y="0"/></clipPath><clipPath id="clipEmfPath2" clipPathUnits="userSpaceOnUse"><rect id="rect5963" width="26.55" height="15.905" x="70.801" y="34.662"/></clipPath><clipPath id="clipEmfPath3" clipPathUnits="userSpaceOnUse"><rect id="rect5966" width="26.7" height="15.755" x="143.852" y="89.881"/></clipPath></defs><metadata id="metadata5930"/><g id="layer1" transform="translate(-379.68462,-739.20433)"><g id="g5968" transform="translate(355.90361,729.99263)"><path id="path5972" d="m 70.744783,34.624349 0,15.942956 26.681639,0 0,-15.942956 -26.681639,0 z" clip-path="url(#clipEmfPath1)" style="fill:#fff;fill-opacity:1;fill-rule:evenodd;stroke:none"/><text id="text5974" style="font-size:12.45018196px;font-style:normal;font-weight:700;text-align:start;text-anchor:start;fill:#000;font-family:Times New Roman" x="77.851" y="46.366" xml:space="preserve">E</text><text id="text5976" style="font-size:8.10011864px;font-style:normal;font-weight:700;text-align:start;text-anchor:start;fill:#000;font-family:Times New Roman" x="86.101" y="48.317" xml:space="preserve">2</text><path id="path5980" d="m 143.87085,89.76822 0,15.88669 26.62539,0 0,-15.88669 -26.62539,0 z" clip-path="url(#clipEmfPath2)" style="fill:#fff;fill-opacity:1;fill-rule:evenodd;stroke:none"/><text id="text5982" style="font-size:12.45018196px;font-style:normal;font-weight:700;text-align:start;text-anchor:start;fill:#000;font-family:Times New Roman" x="150.902" y="101.735" xml:space="preserve">E</text><text id="text5984" style="font-size:8.10011864px;font-style:normal;font-weight:700;text-align:start;text-anchor:start;fill:#000;font-family:Times New Roman" x="159.152" y="103.685" xml:space="preserve">1</text><path id="path5988" d="m 94.745133,16.993315 0,157.619565" clip-path="url(#clipEmfPath3)" style="fill:none;stroke:#000;stroke-width:2.81254101px;stroke-linecap:butt;stroke-linejoin:round;stroke-opacity:1;stroke-dasharray:none"/><path id="path5990" d="m 94.145125,10.616133 c -1.950029,0 -3.525052,1.584917 -3.525052,3.535585 0,1.950667 1.575023,3.535585 3.525052,3.535585 1.959403,0 3.534426,-1.584918 3.534426,-3.535585 0,-1.950668 -1.575023,-3.535585 -3.534426,-3.535585" style="fill:#fff;fill-opacity:1;fill-rule:evenodd;stroke:none"/><path id="path5992" d="m 94.145125,10.616133 c -1.950029,0 -3.525052,1.584917 -3.525052,3.535585 0,1.950667 1.575023,3.535585 3.525052,3.535585 1.959403,0 3.534426,-1.584918 3.534426,-3.535585 0,-1.950668 -1.575023,-3.535585 -3.534426,-3.535585" style="fill:none;stroke:#000;stroke-width:2.81254101px;stroke-linecap:round;stroke-linejoin:round;stroke-opacity:1;stroke-dasharray:none"/><path id="path5994" d="m 94.52013,171.98698 c -1.950028,0 -3.525051,1.58492 -3.525051,3.53559 0,1.95066 1.575023,3.5262 3.525051,3.5262 1.959404,0 3.534427,-1.57554 3.534427,-3.5262 0,-1.95067 -1.575023,-3.53559 -3.534427,-3.53559" style="fill:#fff;fill-opacity:1;fill-rule:evenodd;stroke:none"/><path id="path5996" d="m 94.52013,171.98698 c -1.950028,0 -3.525051,1.58492 -3.525051,3.53559 0,1.95066 1.575023,3.5262 3.525051,3.5262 1.959404,0 3.534427,-1.57554 3.534427,-3.5262 0,-1.95067 -1.575023,-3.53559 -3.534427,-3.53559" style="fill:none;stroke:#000;stroke-width:2.81254101px;stroke-linecap:round;stroke-linejoin:round;stroke-opacity:1;stroke-dasharray:none"/><path id="path5998" d="M 31.491085,109.48122 188.99338,109.07795" style="fill:none;stroke:#000;stroke-width:2.81254101px;stroke-linecap:butt;stroke-linejoin:round;stroke-opacity:1;stroke-dasharray:none"/><path id="path6000" d="m 25.181618,110.16582 c 0,1.96943 1.584398,3.55435 3.534426,3.55435 1.950029,-0.009 3.534427,-1.60368 3.525052,-3.5731 0,-1.96943 -1.584398,-3.56372 -3.534427,-3.55434 -1.959403,0 -3.534426,1.60367 -3.525051,3.57309" style="fill:#fff;fill-opacity:1;fill-rule:evenodd;stroke:none"/><path id="path6002" d="m 25.181618,110.16582 c 0,1.96943 1.584398,3.55435 3.534426,3.55435 1.950029,-0.009 3.534427,-1.60368 3.525052,-3.5731 0,-1.96943 -1.584398,-3.56372 -3.534427,-3.55434 -1.959403,0 -3.534426,1.60367 -3.525051,3.57309" style="fill:none;stroke:#000;stroke-width:2.81254101px;stroke-linecap:round;stroke-linejoin:round;stroke-opacity:1;stroke-dasharray:none"/><path id="path6004" d="m 186.36835,109.34992 c 0.009,1.96942 1.59377,3.56372 3.5438,3.55434 1.95003,0 3.52505,-1.60367 3.51567,-3.5731 0,-1.96942 -1.58439,-3.55434 -3.53442,-3.55434 -1.95003,0.009 -3.52505,1.60368 -3.52505,3.5731" style="fill:#fff;fill-opacity:1;fill-rule:evenodd;stroke:none"/><path id="path6006" d="m 186.36835,109.34992 c 0.009,1.96942 1.59377,3.56372 3.5438,3.55434 1.95003,0 3.52505,-1.60367 3.51567,-3.5731 0,-1.96942 -1.58439,-3.55434 -3.53442,-3.55434 -1.95003,0.009 -3.52505,1.60368 -3.52505,3.5731" style="fill:none;stroke:#000;stroke-width:2.81254101px;stroke-linecap:round;stroke-linejoin:round;stroke-opacity:1;stroke-dasharray:none"/></g><path style="fill:none;stroke:#000;stroke-width:2;stroke-linecap:butt;stroke-linejoin:miter;stroke-opacity:1;stroke-miterlimit:4;stroke-dasharray:none" id="path6038" d="m 70.297635,8.9723282 0,153.3086718" transform="translate(379.68462,739.20433)"/></g></svg>