<svg xmlns="http://www.w3.org/2000/svg" xmlns:svg="http://www.w3.org/2000/svg" id="svg7232" width="187.048" height="75.617" version="1.1"><defs id="defs7234"><clipPath id="clipEmfPath1" clipPathUnits="userSpaceOnUse"><rect id="rect7245" width="566.858" height="165.508" x="0" y="0"/></clipPath><clipPath id="clipEmfPath2" clipPathUnits="userSpaceOnUse"><rect id="rect7248" width="26.55" height="16.056" x="111.302" y="110.139"/></clipPath><clipPath id="clipEmfPath3" clipPathUnits="userSpaceOnUse"><rect id="rect7251" width="26.7" height="15.906" x="47.101" y="86.58"/></clipPath><clipPath id="clipEmfPath4" clipPathUnits="userSpaceOnUse"><rect id="rect7254" width="26.55" height="15.756" x="151.802" y="86.28"/></clipPath></defs><metadata id="metadata7237"/><g id="layer1" transform="translate(42.093052,-363.12514)"><g id="g7256" transform="translate(-73.748232,273.23421)"><path id="path7260" d="m 111.24537,110.15727 0,16.06499 26.62539,0 0,-16.06499 -26.62539,0 z" clip-path="url(#clipEmfPath1)" style="fill:#fff;fill-opacity:1;fill-rule:evenodd;stroke:none"/><text id="text7262" style="font-size:12.45018196px;font-style:normal;font-weight:700;text-align:start;text-anchor:start;fill:#000;font-family:Times New Roman" x="114.602" y="121.843" xml:space="preserve">Vn</text><text id="text7264" style="font-size:8.10011864px;font-style:normal;font-weight:700;text-align:start;text-anchor:start;fill:#000;font-family:Times New Roman" x="130.502" y="123.793" xml:space="preserve">1</text><path id="path7268" d="m 47.119438,86.524005 0,15.943075 26.625389,0 0,-15.943075 -26.625389,0 z" clip-path="url(#clipEmfPath2)" style="fill:#fff;fill-opacity:1;fill-rule:evenodd;stroke:none"/><text id="text7270" style="font-size:12.45018196px;font-style:normal;font-weight:700;text-align:start;text-anchor:start;fill:#000;font-family:Times New Roman" x="52.201" y="98.284" xml:space="preserve">E</text><text id="text7272" style="font-size:8.10011864px;font-style:normal;font-weight:700;text-align:start;text-anchor:start;fill:#000;font-family:Times New Roman" x="60.451" y="100.235" xml:space="preserve">11</text><path id="path7276" d="m 151.74597,86.148874 0,15.877426 26.62538,0 0,-15.877426 -26.62538,0 z" clip-path="url(#clipEmfPath3)" style="fill:#fff;fill-opacity:1;fill-rule:evenodd;stroke:none"/><text id="text7278" style="font-size:12.45018196px;font-style:normal;font-weight:700;text-align:start;text-anchor:start;fill:#000;font-family:Times New Roman" x="156.902" y="98.134" xml:space="preserve">E</text><text id="text7280" style="font-size:8.10011864px;font-style:normal;font-weight:700;text-align:start;text-anchor:start;fill:#000;font-family:Times New Roman" x="165.152" y="100.085" xml:space="preserve">12</text><path id="path7284" d="m 39.3662,105.97456 157.5023,-0.39389" clip-path="url(#clipEmfPath4)" style="fill:none;stroke:#000;stroke-width:2.81254101px;stroke-linecap:butt;stroke-linejoin:round;stroke-opacity:1;stroke-dasharray:none"/><path id="path7286" d="m 33.056733,106.56539 c 0,1.95068 1.584398,3.53561 3.534426,3.52623 1.950029,0 3.534427,-1.58493 3.525052,-3.53561 0,-1.96006 -1.584398,-3.53561 -3.534427,-3.52623 -1.959403,0 -3.534426,1.58493 -3.525051,3.53561" style="fill:#fff;fill-opacity:1;fill-rule:evenodd;stroke:none"/><path id="path7288" d="m 33.056733,106.56539 c 0,1.95068 1.584398,3.53561 3.534426,3.52623 1.950029,0 3.534427,-1.58493 3.525052,-3.53561 0,-1.96006 -1.584398,-3.53561 -3.534427,-3.52623 -1.959403,0 -3.534426,1.58493 -3.525051,3.53561" style="fill:none;stroke:#000;stroke-width:2.81254101px;stroke-linecap:round;stroke-linejoin:round;stroke-opacity:1;stroke-dasharray:none"/><path id="path7290" d="m 194.24346,105.75886 c 0.009,1.95068 1.59377,3.52623 3.5438,3.51685 1.95003,0 3.52505,-1.58493 3.51568,-3.53561 0,-1.95068 -1.5844,-3.52623 -3.53443,-3.52623 -1.95003,0.009 -3.52505,1.5943 -3.52505,3.54499" style="fill:#fff;fill-opacity:1;fill-rule:evenodd;stroke:none"/><path id="path7292" d="m 194.24346,105.75886 c 0.009,1.95068 1.59377,3.52623 3.5438,3.51685 1.95003,0 3.52505,-1.58493 3.51568,-3.53561 0,-1.95068 -1.5844,-3.52623 -3.53443,-3.52623 -1.95003,0.009 -3.52505,1.5943 -3.52505,3.54499" style="fill:none;stroke:#000;stroke-width:2.81254101px;stroke-linecap:round;stroke-linejoin:round;stroke-opacity:1;stroke-dasharray:none"/><path id="path7294" d="m 102.46087,101.58552 c -1.95003,0 -3.534426,1.58493 -3.534426,3.53561 0,1.95069 1.584396,3.53561 3.534426,3.53561 1.95003,0 3.53443,-1.58492 3.53443,-3.53561 0,-1.95068 -1.5844,-3.53561 -3.53443,-3.53561" style="fill:#fff;fill-opacity:1;fill-rule:evenodd;stroke:none"/><path id="path7296" d="m 102.46087,101.58552 c -1.95003,0 -3.534426,1.58493 -3.534426,3.53561 0,1.95069 1.584396,3.53561 3.534426,3.53561 1.95003,0 3.53443,-1.58492 3.53443,-3.53561 0,-1.95068 -1.5844,-3.53561 -3.53443,-3.53561" style="fill:none;stroke:#000;stroke-width:2.81254101px;stroke-linecap:round;stroke-linejoin:round;stroke-opacity:1;stroke-dasharray:none"/></g><path style="fill:none;stroke:#000;stroke-width:2;stroke-linecap:butt;stroke-linejoin:miter;stroke-opacity:1;stroke-miterlimit:4;stroke-dasharray:none" id="path7331" d="M 8.121694,16.480859 67.257779,15.973253" transform="translate(-42.093052,363.12514)"/><path style="fill:none;stroke:#000;stroke-width:2;stroke-linecap:butt;stroke-linejoin:miter;stroke-opacity:1;stroke-miterlimit:4;stroke-dasharray:none" id="path7333" d="M 74.110458,15.71945 162.43388,14.958041" transform="translate(-42.093052,363.12514)"/></g></svg>