<svg xmlns="http://www.w3.org/2000/svg" xmlns:svg="http://www.w3.org/2000/svg" id="svg9059" width="204.665" height="131.16" version="1.1"><defs id="defs9061"><clipPath id="clipEmfPath1" clipPathUnits="userSpaceOnUse"><rect id="rect9072" width="566.858" height="162.567" x="0" y="0"/></clipPath><clipPath id="clipEmfPath2" clipPathUnits="userSpaceOnUse"><rect id="rect9075" width="26.7" height="15.747" x="98.851" y="74.085"/></clipPath><clipPath id="clipEmfPath3" clipPathUnits="userSpaceOnUse"><rect id="rect9078" width="26.7" height="15.747" x="159.302" y="140.971"/></clipPath><clipPath id="clipEmfPath4" clipPathUnits="userSpaceOnUse"><rect id="rect9081" width="26.55" height="15.897" x="39.301" y="32.843"/></clipPath></defs><metadata id="metadata9064"/><g id="layer1" transform="translate(56.60986,-329.64737)"><g id="g9083" transform="translate(-70.64843,298.24077)"><path id="path9087" d="m 98.870194,73.972457 0,15.878021 26.625386,0 0,-15.878021 -26.625386,0 z" clip-path="url(#clipEmfPath1)" style="fill:#fff;fill-opacity:1;fill-rule:evenodd;stroke:none"/><text id="text9089" style="font-size:12.45018196px;font-style:normal;font-weight:700;text-align:start;text-anchor:start;fill:#000;font-family:Times New Roman" x="103.952" y="85.933" xml:space="preserve">E</text><text id="text9091" style="font-size:8.10011864px;font-style:normal;font-weight:700;text-align:start;text-anchor:start;fill:#000;font-family:Times New Roman" x="112.202" y="87.882" xml:space="preserve">12</text><path id="path9095" d="m 159.30233,140.84011 0,15.93426 26.69101,0 0,-15.93426 -26.69101,0 z" clip-path="url(#clipEmfPath2)" style="fill:#fff;fill-opacity:1;fill-rule:evenodd;stroke:none"/><text id="text9097" style="font-size:12.45018196px;font-style:normal;font-weight:700;text-align:start;text-anchor:start;fill:#000;font-family:Times New Roman" x="164.402" y="152.819" xml:space="preserve">E</text><text id="text9099" style="font-size:8.10011864px;font-style:normal;font-weight:700;text-align:start;text-anchor:start;fill:#000;font-family:Times New Roman" x="172.653" y="154.769" xml:space="preserve">22</text><path id="path9103" d="m 39.178697,32.796455 0,15.868648 26.625389,0 0,-15.868648 -26.625389,0 z" clip-path="url(#clipEmfPath3)" style="fill:#fff;fill-opacity:1;fill-rule:evenodd;stroke:none"/><text id="text9105" style="font-size:12.45018196px;font-style:normal;font-weight:700;text-align:start;text-anchor:start;fill:#000;font-family:Times New Roman" x="44.401" y="44.541" xml:space="preserve">E</text><text id="text9107" style="font-size:8.10011864px;font-style:normal;font-weight:700;text-align:start;text-anchor:start;fill:#000;font-family:Times New Roman" x="52.651" y="46.491" xml:space="preserve">11</text><path id="path9111" d="M 196.93413,148.29172 63.488427,64.524378" clip-path="url(#clipEmfPath4)" style="fill:none;stroke:#000;stroke-width:2.81254101px;stroke-linecap:butt;stroke-linejoin:round;stroke-opacity:1;stroke-dasharray:none"/><path id="path9113" d="m 202.64358,151.17863 c 1.03127,-1.64966 0.53439,-3.82422 -1.11564,-4.86463 -1.65002,-1.03104 -3.83443,-0.53427 -4.86569,1.11539 -1.04064,1.64967 -0.54376,3.8336 1.11564,4.86464 1.65002,1.04041 3.82505,0.54364 4.86569,-1.1154" style="fill:#fff;fill-opacity:1;fill-rule:evenodd;stroke:none"/><path id="path9115" d="m 202.64358,151.17863 c 1.03127,-1.64966 0.53439,-3.82422 -1.11564,-4.86463 -1.65002,-1.03104 -3.83443,-0.53427 -4.86569,1.11539 -1.04064,1.64967 -0.54376,3.8336 1.11564,4.86464 1.65002,1.04041 3.82505,0.54364 4.86569,-1.1154" style="fill:none;stroke:#000;stroke-width:2.81254101px;stroke-linecap:round;stroke-linejoin:round;stroke-opacity:1;stroke-dasharray:none"/><path id="path9117" d="m 65.822836,65.761627 c 1.04064,-1.649665 0.543758,-3.833596 -1.106266,-4.864636 -1.650024,-1.040413 -3.834431,-0.543639 -4.875071,1.115398 -1.031265,1.649665 -0.534383,3.824222 1.115641,4.864636 1.650024,1.03104 3.834431,0.534266 4.865696,-1.115398" style="fill:#fff;fill-opacity:1;fill-rule:evenodd;stroke:none"/><path id="path9119" d="m 65.822836,65.761627 c 1.04064,-1.649665 0.543758,-3.833596 -1.106266,-4.864636 -1.650024,-1.040413 -3.834431,-0.543639 -4.875071,1.115398 -1.031265,1.649665 -0.534383,3.824222 1.115641,4.864636 1.650024,1.03104 3.834431,0.534266 4.865696,-1.115398" style="fill:none;stroke:#000;stroke-width:2.81254101px;stroke-linecap:round;stroke-linejoin:round;stroke-opacity:1;stroke-dasharray:none"/><path id="path9121" d="M 153.05848,120.73482 19.612786,36.967482" style="fill:none;stroke:#000;stroke-width:2.81254101px;stroke-linecap:butt;stroke-linejoin:round;stroke-opacity:1;stroke-dasharray:none"/><path id="path9123" d="m 158.76794,123.62174 c 1.03127,-1.64967 0.53439,-3.82423 -1.11564,-4.86464 -1.65002,-1.03104 -3.83443,-0.53427 -4.86569,1.1154 -1.04064,1.64966 -0.54376,3.83359 1.11564,4.86463 1.65002,1.04042 3.82505,0.54364 4.86569,-1.11539" style="fill:#fff;fill-opacity:1;fill-rule:evenodd;stroke:none"/><path id="path9125" d="m 158.76794,123.62174 c 1.03127,-1.64967 0.53439,-3.82423 -1.11564,-4.86464 -1.65002,-1.03104 -3.83443,-0.53427 -4.86569,1.1154 -1.04064,1.64966 -0.54376,3.83359 1.11564,4.86463 1.65002,1.04042 3.82505,0.54364 4.86569,-1.11539" style="fill:none;stroke:#000;stroke-width:2.81254101px;stroke-linecap:round;stroke-linejoin:round;stroke-opacity:1;stroke-dasharray:none"/><path id="path9127" d="m 21.947195,38.204731 c 1.040641,-1.649665 0.543758,-3.833596 -1.106266,-4.864636 -1.650024,-1.040413 -3.834431,-0.54364 -4.875071,1.115398 -1.031265,1.649665 -0.534383,3.824222 1.115641,4.864636 1.650024,1.03104 3.834431,0.534266 4.865696,-1.115398" style="fill:#fff;fill-opacity:1;fill-rule:evenodd;stroke:none"/><path id="path9129" d="m 21.947195,38.204731 c 1.040641,-1.649665 0.543758,-3.833596 -1.106266,-4.864636 -1.650024,-1.040413 -3.834431,-0.54364 -4.875071,1.115398 -1.031265,1.649665 -0.534383,3.824222 1.115641,4.864636 1.650024,1.03104 3.834431,0.534266 4.865696,-1.115398" style="fill:none;stroke:#000;stroke-width:2.81254101px;stroke-linecap:round;stroke-linejoin:round;stroke-opacity:1;stroke-dasharray:none"/><path id="path9131" d="m 59.307116,63.9245 c 0,1.96835 1.584398,3.561776 3.534427,3.552403 1.950028,0 3.534426,-1.602799 3.525051,-3.571149 0,-1.96835 -1.584398,-3.552402 -3.534427,-3.552402 -1.959403,0.0094 -3.534426,1.602799 -3.525051,3.571148" style="fill:#fff;fill-opacity:1;fill-rule:evenodd;stroke:none"/><path id="path9133" d="m 59.307116,63.9245 c 0,1.96835 1.584398,3.561776 3.534427,3.552403 1.950028,0 3.534426,-1.602799 3.525051,-3.571149 0,-1.96835 -1.584398,-3.552402 -3.534427,-3.552402 -1.959403,0.0094 -3.534426,1.602799 -3.525051,3.571148" style="fill:none;stroke:#000;stroke-width:2.81254101px;stroke-linecap:round;stroke-linejoin:round;stroke-opacity:1;stroke-dasharray:none"/></g><path style="fill:none;stroke:#000;stroke-width:3;stroke-linecap:butt;stroke-linejoin:miter;stroke-opacity:1;stroke-miterlimit:4;stroke-dasharray:none" id="path9173" d="m 144.67103,92.560478 37.97222,22.908862" transform="translate(-56.60986,329.64737)"/></g></svg>