<svg xmlns="http://www.w3.org/2000/svg" xmlns:svg="http://www.w3.org/2000/svg" id="svg2" width="169.595" height="115.662" version="1.1"><defs id="defs4"><clipPath id="clipEmfPath1" clipPathUnits="userSpaceOnUse"><rect id="rect2990" width="17.278" height="17.999" x="3.183" y="14.643"/></clipPath><clipPath id="clipEmfPath2" clipPathUnits="userSpaceOnUse"><rect id="rect2993" width="17.43" height="18.151" x="54.866" y="17.388"/></clipPath></defs><metadata id="metadata7"/><g id="layer1" transform="translate(-99.629249,-395.59893)"><g id="g2995" transform="matrix(2.2499232,0,0,2.2499232,101.67528,395.53094)"><path id="path2999" d="m 25.415222,0.49572229 c -13.84907,0 -25.07420523,11.29674871 -25.07420523,25.23417171 0,13.937423 11.22513523,25.234171 25.07420523,25.234171 13.84907,0 25.074205,-11.296748 25.074205,-25.234171 0,-13.937423 -11.225135,-25.23417171 -25.074205,-25.23417171" style="fill:none;stroke:#000;stroke-width:.94726878px;stroke-linecap:round;stroke-linejoin:round;stroke-opacity:1;stroke-dasharray:none"/><path id="path3001" d="m 24.941588,20.772671 c -2.491317,0 -4.518473,2.040088 -4.518473,4.547298 0,2.507211 2.027156,4.537766 4.518473,4.537766 2.491317,0 4.518472,-2.030555 4.518472,-4.537766 0,-2.50721 -2.027155,-4.547298 -4.518472,-4.547298" style="fill:#fff;fill-opacity:1;fill-rule:evenodd;stroke:none"/><path id="path3003" d="m 24.941588,20.772671 c -2.491317,0 -4.518473,2.040088 -4.518473,4.547298 0,2.507211 2.027156,4.537766 4.518473,4.537766 2.491317,0 4.518472,-2.030555 4.518472,-4.537766 0,-2.50721 -2.027155,-4.547298 -4.518472,-4.547298" style="fill:none;stroke:#000;stroke-width:2.84180641px;stroke-linecap:round;stroke-linejoin:round;stroke-opacity:1;stroke-dasharray:none"/><text id="text3005" style="font-size:13.94379711px;font-style:normal;font-weight:400;text-align:start;text-anchor:start;fill:#000;font-family:Arial" x="3.183" y="27.608" xml:space="preserve">V</text><text id="text3007" style="font-size:8.79065418px;font-style:normal;font-weight:400;text-align:start;text-anchor:start;fill:#000;font-family:Arial" x="12.428" y="29.591" xml:space="preserve">1</text><path id="path3011" d="m 50.11052,0.49572229 c -13.84907,0 -25.074206,11.29674871 -25.074206,25.23417171 0,13.937423 11.225136,25.234171 25.074206,25.234171 13.84907,0 25.064732,-11.296748 25.064732,-25.234171 0,-13.937423 -11.215662,-25.23417171 -25.064732,-25.23417171" clip-path="url(#clipEmfPath1)" style="fill:none;stroke:#000;stroke-width:.94726878px;stroke-linecap:round;stroke-linejoin:round;stroke-opacity:1;stroke-dasharray:none"/><path id="path3013" d="m 49.636885,20.772671 c -2.491317,0 -4.518472,2.040088 -4.518472,4.547298 0,2.507211 2.027155,4.537766 4.518472,4.537766 2.491317,0 4.509,-2.030555 4.509,-4.537766 0,-2.50721 -2.017683,-4.547298 -4.509,-4.547298" style="fill:#fff;fill-opacity:1;fill-rule:evenodd;stroke:none"/><path id="path3015" d="m 49.636885,20.772671 c -2.491317,0 -4.518472,2.040088 -4.518472,4.547298 0,2.507211 2.027155,4.537766 4.518472,4.537766 2.491317,0 4.509,-2.030555 4.509,-4.537766 0,-2.50721 -2.017683,-4.547298 -4.509,-4.547298" style="fill:none;stroke:#000;stroke-width:2.84180641px;stroke-linecap:round;stroke-linejoin:round;stroke-opacity:1;stroke-dasharray:none"/><text id="text3017" style="font-size:13.94379711px;font-style:normal;font-weight:400;text-align:start;text-anchor:start;fill:#000;font-family:Arial" x="54.866" y="30.353" xml:space="preserve">V</text><text id="text3019" style="font-size:8.79065418px;font-style:normal;font-weight:400;text-align:start;text-anchor:start;fill:#000;font-family:Arial" x="64.111" y="32.336" xml:space="preserve">2</text><path id="path2999-0" d="m 48.910577,0.49552764 c -13.84907,0 -25.074205,11.29674836 -25.074205,25.23417136 0,13.937423 11.225135,25.234171 25.074205,25.234171 13.849066,0 25.074206,-11.296748 25.074206,-25.234171 0,-13.937423 -11.22514,-25.23417136 -25.074206,-25.23417136" style="fill:none;stroke:#000;stroke-width:.94726878px;stroke-linecap:round;stroke-linejoin:round;stroke-opacity:1;stroke-dasharray:none"/><path style="fill:#fff;stroke:#fff;stroke-width:.105;stroke-miterlimit:4;stroke-opacity:1;stroke-dasharray:none" id="path4048" d="m 32.090434,25.876774 c 0,1.860431 -1.508178,3.368609 -3.368609,3.368609 -1.860432,0 -3.368609,-1.508178 -3.368609,-3.368609 0,-1.860432 1.508177,-3.368609 3.368609,-3.368609 1.860431,0 3.368609,1.508177 3.368609,3.368609 z" transform="translate(-4.1006914,-0.50166522)"/></g></g></svg>