<svg xmlns="http://www.w3.org/2000/svg" xmlns:svg="http://www.w3.org/2000/svg" id="svg6570" width="187.048" height="184.223" version="1.1"><defs id="defs6572"><clipPath id="clipEmfPath1" clipPathUnits="userSpaceOnUse"><rect id="rect6583" width="566.858" height="189.815" x="0" y="0"/></clipPath><clipPath id="clipEmfPath2" clipPathUnits="userSpaceOnUse"><rect id="rect6586" width="26.55" height="16.055" x="111.302" y="110.138"/></clipPath><clipPath id="clipEmfPath3" clipPathUnits="userSpaceOnUse"><rect id="rect6589" width="26.7" height="15.905" x="77.101" y="148.851"/></clipPath><clipPath id="clipEmfPath4" clipPathUnits="userSpaceOnUse"><rect id="rect6592" width="26.7" height="15.905" x="47.101" y="86.58"/></clipPath><clipPath id="clipEmfPath5" clipPathUnits="userSpaceOnUse"><rect id="rect6595" width="26.55" height="15.755" x="151.802" y="86.28"/></clipPath><clipPath id="clipEmfPath6" clipPathUnits="userSpaceOnUse"><rect id="rect6598" width="26.7" height="15.905" x="71.851" y="32.561"/></clipPath></defs><metadata id="metadata6575"/><g id="layer1" transform="translate(76.37877,-320.25135)"><g id="g6600" transform="translate(-108.03395,314.65977)"><path id="path6604" d="m 111.24537,110.15645 0,15.99922 26.62539,0 0,-15.99922 -26.62539,0 z" clip-path="url(#clipEmfPath1)" style="fill:#fff;fill-opacity:1;fill-rule:evenodd;stroke:none"/><text id="text6606" style="font-size:12.45018196px;font-style:normal;font-weight:700;text-align:start;text-anchor:start;fill:#000;font-family:Times New Roman" x="114.602" y="121.842" xml:space="preserve">Vn</text><text id="text6608" style="font-size:8.10011864px;font-style:normal;font-weight:700;text-align:start;text-anchor:start;fill:#000;font-family:Times New Roman" x="130.502" y="123.792" xml:space="preserve">1</text><path id="path6612" d="m 77.119876,148.85094 0,15.88668 26.625384,0 0,-15.88668 -26.625384,0 z" clip-path="url(#clipEmfPath2)" style="fill:#fff;fill-opacity:1;fill-rule:evenodd;stroke:none"/><text id="text6614" style="font-size:12.45018196px;font-style:normal;font-weight:700;text-align:start;text-anchor:start;fill:#000;font-family:Times New Roman" x="82.201" y="160.555" xml:space="preserve">E</text><text id="text6616" style="font-size:8.10011864px;font-style:normal;font-weight:700;text-align:start;text-anchor:start;fill:#000;font-family:Times New Roman" x="90.451" y="162.506" xml:space="preserve">21</text><path id="path6620" d="m 47.119438,86.523359 0,15.942961 26.625389,0 0,-15.942961 -26.625389,0 z" clip-path="url(#clipEmfPath3)" style="fill:#fff;fill-opacity:1;fill-rule:evenodd;stroke:none"/><text id="text6622" style="font-size:12.45018196px;font-style:normal;font-weight:700;text-align:start;text-anchor:start;fill:#000;font-family:Times New Roman" x="52.201" y="98.284" xml:space="preserve">E</text><text id="text6624" style="font-size:8.10011864px;font-style:normal;font-weight:700;text-align:start;text-anchor:start;fill:#000;font-family:Times New Roman" x="60.451" y="100.234" xml:space="preserve">11</text><path id="path6628" d="m 151.74597,86.148231 0,15.877309 26.62538,0 0,-15.877309 -26.62538,0 z" clip-path="url(#clipEmfPath4)" style="fill:#fff;fill-opacity:1;fill-rule:evenodd;stroke:none"/><text id="text6630" style="font-size:12.45018196px;font-style:normal;font-weight:700;text-align:start;text-anchor:start;fill:#000;font-family:Times New Roman" x="156.902" y="98.134" xml:space="preserve">E</text><text id="text6632" style="font-size:8.10011864px;font-style:normal;font-weight:700;text-align:start;text-anchor:start;fill:#000;font-family:Times New Roman" x="165.152" y="100.084" xml:space="preserve">12</text><path id="path6636" d="m 71.869799,32.504874 0,15.942955 26.625389,0 0,-15.942955 -26.625389,0 z" clip-path="url(#clipEmfPath5)" style="fill:#fff;fill-opacity:1;fill-rule:evenodd;stroke:none"/><text id="text6638" style="font-size:12.45018196px;font-style:normal;font-weight:700;text-align:start;text-anchor:start;fill:#000;font-family:Times New Roman" x="76.951" y="44.265" xml:space="preserve">E</text><text id="text6640" style="font-size:8.10011864px;font-style:normal;font-weight:700;text-align:start;text-anchor:start;fill:#000;font-family:Times New Roman" x="85.201" y="46.216" xml:space="preserve">22</text><path id="path6644" d="m 102.62025,13.373326 0,157.553914" clip-path="url(#clipEmfPath6)" style="fill:none;stroke:#000;stroke-width:2.81254101px;stroke-linecap:butt;stroke-linejoin:round;stroke-opacity:1;stroke-dasharray:none"/><path id="path6646" d="m 102.02024,6.9961442 c -1.95003,0 -3.525052,1.5755391 -3.525052,3.5262068 0,1.960046 1.575022,3.535585 3.525052,3.535585 1.9594,0 3.53443,-1.575539 3.53443,-3.535585 0,-1.9506677 -1.57503,-3.5262068 -3.53443,-3.5262068" style="fill:#fff;fill-opacity:1;fill-rule:evenodd;stroke:none"/><path id="path6648" d="m 102.02024,6.9961442 c -1.95003,0 -3.525052,1.5755391 -3.525052,3.5262068 0,1.960046 1.575022,3.535585 3.525052,3.535585 1.9594,0 3.53443,-1.575539 3.53443,-3.535585 0,-1.9506677 -1.57503,-3.5262068 -3.53443,-3.5262068" style="fill:none;stroke:#000;stroke-width:2.81254101px;stroke-linecap:round;stroke-linejoin:round;stroke-opacity:1;stroke-dasharray:none"/><path id="path6650" d="m 102.39525,168.30134 c -1.95003,0 -3.525056,1.57554 -3.525056,3.52621 0,1.96005 1.575026,3.53559 3.525056,3.53559 1.9594,0 3.53442,-1.57554 3.53442,-3.53559 0,-1.95067 -1.57502,-3.52621 -3.53442,-3.52621" style="fill:#fff;fill-opacity:1;fill-rule:evenodd;stroke:none"/><path id="path6652" d="m 102.39525,168.30134 c -1.95003,0 -3.525056,1.57554 -3.525056,3.52621 0,1.96005 1.575026,3.53559 3.525056,3.53559 1.9594,0 3.53442,-1.57554 3.53442,-3.53559 0,-1.95067 -1.57502,-3.52621 -3.53442,-3.52621" style="fill:none;stroke:#000;stroke-width:2.81254101px;stroke-linecap:round;stroke-linejoin:round;stroke-opacity:1;stroke-dasharray:none"/><path id="path6654" d="m 39.3662,105.9175 157.5023,-0.40327" style="fill:none;stroke:#000;stroke-width:2.81254101px;stroke-linecap:butt;stroke-linejoin:round;stroke-opacity:1;stroke-dasharray:none"/><path id="path6656" d="m 33.056733,106.53646 c 0,1.93191 1.584398,3.49807 3.534426,3.48869 1.950029,0 3.534427,-1.57554 3.525052,-3.50745 0,-1.93191 -1.584398,-3.49807 -3.534427,-3.48869 -1.959403,0 -3.534426,1.57554 -3.525051,3.50745" style="fill:#fff;fill-opacity:1;fill-rule:evenodd;stroke:none"/><path id="path6658" d="m 33.056733,106.53646 c 0,1.93191 1.584398,3.49807 3.534426,3.48869 1.950029,0 3.534427,-1.57554 3.525052,-3.50745 0,-1.93191 -1.584398,-3.49807 -3.534427,-3.48869 -1.959403,0 -3.534426,1.57554 -3.525051,3.50745" style="fill:none;stroke:#000;stroke-width:2.81254101px;stroke-linecap:round;stroke-linejoin:round;stroke-opacity:1;stroke-dasharray:none"/><path id="path6660" d="m 194.24346,105.72055 c 0.009,1.94129 1.59377,3.49808 3.5438,3.49808 1.95003,-0.009 3.52505,-1.57554 3.51568,-3.50745 0,-1.94129 -1.5844,-3.49808 -3.53443,-3.49808 -1.95003,0.009 -3.52505,1.57554 -3.52505,3.50745" style="fill:#fff;fill-opacity:1;fill-rule:evenodd;stroke:none"/><path id="path6662" d="m 194.24346,105.72055 c 0.009,1.94129 1.59377,3.49808 3.5438,3.49808 1.95003,-0.009 3.52505,-1.57554 3.51568,-3.50745 0,-1.94129 -1.5844,-3.49808 -3.53443,-3.49808 -1.95003,0.009 -3.52505,1.57554 -3.52505,3.50745" style="fill:none;stroke:#000;stroke-width:2.81254101px;stroke-linecap:round;stroke-linejoin:round;stroke-opacity:1;stroke-dasharray:none"/><path id="path6664" d="m 102.46087,101.58476 c -1.95003,0 -3.534426,1.58492 -3.534426,3.53559 0,1.95067 1.584396,3.53558 3.534426,3.53558 1.95003,0 3.53443,-1.58491 3.53443,-3.53558 0,-1.95067 -1.5844,-3.53559 -3.53443,-3.53559" style="fill:#fff;fill-opacity:1;fill-rule:evenodd;stroke:none"/><path id="path6666" d="m 102.46087,101.58476 c -1.95003,0 -3.534426,1.58492 -3.534426,3.53559 0,1.95067 1.584396,3.53558 3.534426,3.53558 1.95003,0 3.53443,-1.58491 3.53443,-3.53558 0,-1.95067 -1.5844,-3.53559 -3.53443,-3.53559" style="fill:none;stroke:#000;stroke-width:2.81254101px;stroke-linecap:round;stroke-linejoin:round;stroke-opacity:1;stroke-dasharray:none"/></g><path style="fill:none;stroke:#000;stroke-width:2;stroke-linecap:butt;stroke-linejoin:miter;stroke-opacity:1;stroke-miterlimit:4;stroke-dasharray:none" id="path6720" d="m -5.7414067,329.12368 0,86.61064"/><path style="fill:none;stroke:#000;stroke-width:2;stroke-linecap:butt;stroke-linejoin:miter;stroke-miterlimit:4;stroke-opacity:1;stroke-dasharray:none" id="path6722" d="m -6.096368,423.89843 0.354961,59.98852"/></g></svg>