<svg xmlns="http://www.w3.org/2000/svg" xmlns:svg="http://www.w3.org/2000/svg" id="svg7465" width="443.336" height="263.349" version="1.1"><defs id="defs7467"><clipPath id="clipEmfPath1" clipPathUnits="userSpaceOnUse"><rect id="rect7498" width="20.561" height="15.604" x="257.689" y="157.542"/></clipPath><clipPath id="clipEmfPath2" clipPathUnits="userSpaceOnUse"><rect id="rect7501" width="20.411" height="15.604" x="417.976" y="25.807"/></clipPath><clipPath id="clipEmfPath3" clipPathUnits="userSpaceOnUse"><rect id="rect7504" width="20.561" height="15.604" x="51.328" y="177.798"/></clipPath><clipPath id="clipEmfPath4" clipPathUnits="userSpaceOnUse"><rect id="rect7507" width="20.561" height="15.604" x="161.637" y="220.559"/></clipPath><clipPath id="clipEmfPath5" clipPathUnits="userSpaceOnUse"><rect id="rect7510" width="30.316" height="15.604" x="160.587" y="159.343"/></clipPath><clipPath id="clipEmfPath6" clipPathUnits="userSpaceOnUse"><rect id="rect7513" width="56.28" height="15.604" x="331.979" y="143.589"/></clipPath><clipPath id="clipEmfPath7" clipPathUnits="userSpaceOnUse"><rect id="rect7516" width="47.125" height="15.604" x="355.692" y="95.576"/></clipPath><clipPath id="clipEmfPath8" clipPathUnits="userSpaceOnUse"><rect id="rect7519" width="44.574" height="15.604" x="270.146" y="90.324"/></clipPath><clipPath id="clipEmfPath9" clipPathUnits="userSpaceOnUse"><rect id="rect7522" width="42.323" height="15.604" x="187.902" y="95.576"/></clipPath><clipPath id="clipEmfPath10" clipPathUnits="userSpaceOnUse"><rect id="rect7525" width="45.775" height="15.604" x="102.355" y="141.788"/></clipPath><clipPath id="clipEmfPath11" clipPathUnits="userSpaceOnUse"><rect id="rect7528" width="51.328" height="15.604" x="210.414" y="169.846"/></clipPath><clipPath id="clipEmfPath12" clipPathUnits="userSpaceOnUse"><rect id="rect7531" width="40.072" height="15.604" x="192.404" y="121.533"/></clipPath><clipPath id="clipEmfPath13" clipPathUnits="userSpaceOnUse"><rect id="rect7534" width="35.119" height="15.604" x="343.686" y="121.083"/></clipPath><clipPath id="clipEmfPath14" clipPathUnits="userSpaceOnUse"><rect id="rect7537" width="20.411" height="15.604" x="391.712" y="134.586"/></clipPath><clipPath id="clipEmfPath15" clipPathUnits="userSpaceOnUse"><rect id="rect7540" width="20.561" height="15.604" x="299.712" y="69.769"/></clipPath><clipPath id="clipEmfPath16" clipPathUnits="userSpaceOnUse"><rect id="rect7543" width="20.561" height="15.604" x="138.375" y="114.781"/></clipPath><clipPath id="clipEmfPath17" clipPathUnits="userSpaceOnUse"><rect id="rect7546" width="20.411" height="15.604" x="244.632" y="189.801"/></clipPath><clipPath id="clipEmfPath18" clipPathUnits="userSpaceOnUse"><rect id="rect7549" width="23.563" height="15.604" x="347.438" y="186.8"/></clipPath><clipPath id="clipEmfPath19" clipPathUnits="userSpaceOnUse"><rect id="rect7552" width="23.563" height="15.604" x="406.72" y="65.568"/></clipPath><clipPath id="clipEmfPath20" clipPathUnits="userSpaceOnUse"><rect id="rect7555" width="23.563" height="15.604" x="183.849" y="66.318"/></clipPath><clipPath id="clipEmfPath21" clipPathUnits="userSpaceOnUse"><rect id="rect7558" width="23.563" height="15.604" x="103.256" y="198.353"/></clipPath><clipPath id="clipEmfPath22" clipPathUnits="userSpaceOnUse"><rect id="rect7561" width="23.563" height="15.604" x="401.917" y="114.781"/></clipPath><clipPath id="clipEmfPath23" clipPathUnits="userSpaceOnUse"><rect id="rect7564" width="23.563" height="15.604" x="161.787" y="95.576"/></clipPath></defs><metadata id="metadata7470"/><g id="layer1" transform="translate(164.51761,-266.39753)"><g id="g7566" transform="translate(-164.66769,248.57074)"><path id="path7570" d="m 191.6161,88.3925 -75.79098,97.58247 227.37293,0 75.79098,-97.58247 z" style="fill:silver;fill-opacity:1;fill-rule:evenodd;stroke:none"/><path id="path7572" d="m 191.6161,88.3925 -75.79098,97.58247 227.37293,0 75.79098,-97.58247 z" style="fill:none;stroke:#000;stroke-width:1.87601423px;stroke-linecap:round;stroke-linejoin:miter;stroke-miterlimit:4;stroke-opacity:1;stroke-dasharray:none"/><path id="path7574" d="m 168.72872,118.45683 70.91334,0.3751" style="fill:none;stroke:#000;stroke-width:.93800712px;stroke-linecap:round;stroke-linejoin:round;stroke-opacity:1;stroke-dasharray:none"/><path id="path7576" d="M 115.44992,185.97497 14.520351,214.85773" style="fill:none;stroke:#000;stroke-width:.93800712px;stroke-linecap:round;stroke-linejoin:round;stroke-opacity:1;stroke-dasharray:none"/><path id="path7578" d="M 190.49049,88.073664 92.937747,116.95642" style="fill:none;stroke:#000;stroke-width:.93800712px;stroke-linecap:round;stroke-linejoin:round;stroke-opacity:1;stroke-dasharray:none"/><path id="path7580" d="M 93.31295,116.58132 15.270756,214.85773" style="fill:none;stroke:#000;stroke-width:.93800712px;stroke-linecap:round;stroke-linejoin:round;stroke-opacity:1;stroke-dasharray:none"/><path id="path7582" d="m 168.72872,118.08173 0,-98.276409" style="fill:none;stroke:#000;stroke-width:.93800712px;stroke-linecap:round;stroke-linejoin:round;stroke-opacity:1;stroke-dasharray:none"/><path id="path7584" d="m 442.62681,207.73081 0.075,-189.425892" style="fill:none;stroke:#000;stroke-width:.93800712px;stroke-linecap:round;stroke-linejoin:round;stroke-opacity:1;stroke-dasharray:none"/><path id="path7586" d="m 323.63122,117.70663 0.0563,-65.642641" style="fill:none;stroke:#000;stroke-width:.93800712px;stroke-linecap:round;stroke-linejoin:round;stroke-opacity:1;stroke-dasharray:none"/><path id="path7588" d="m 239.64206,118.45683 0.0657,-66.767942" style="fill:none;stroke:#000;stroke-width:.93800712px;stroke-linecap:round;stroke-linejoin:round;stroke-opacity:1;stroke-dasharray:none"/><path id="path7590" d="m 239.26686,51.763908 84.42064,-0.07502" style="fill:none;stroke:#000;stroke-width:.93800712px;stroke-linecap:round;stroke-linejoin:round;stroke-opacity:1;stroke-dasharray:none"/><path id="path7592" d="M 169.47913,19.430221 443.00201,18.304918" style="fill:none;stroke:#000;stroke-width:.93800712px;stroke-linecap:round;stroke-linejoin:round;stroke-opacity:1;stroke-dasharray:none"/><path id="path7594" d="m 324.06271,118.08173 70.91334,0.3751" style="fill:none;stroke:#000;stroke-width:.93800712px;stroke-linecap:round;stroke-linejoin:round;stroke-opacity:1;stroke-dasharray:none"/><path id="path7596" d="m 323.6875,207.35571 118.93931,0.7502" style="fill:none;stroke:#000;stroke-width:.93800712px;stroke-linecap:round;stroke-linejoin:round;stroke-opacity:1;stroke-dasharray:none"/><path id="path7598" d="m 323.2185,184.47457 0.0188,-2.81326 c 0,-0.24382 0.20636,-0.46888 0.469,-0.46888 0.24389,0 0.46901,0.22506 0.46901,0.46888 l -0.0188,2.81326 c 0,0.26257 -0.20636,0.46887 -0.46901,0.46887 -0.24388,0 -0.469,-0.2063 -0.469,-0.46887 z m 0.0188,-6.56427 0,-2.81325 c 0,-0.24382 0.20636,-0.46888 0.469,-0.46888 0.26265,0 0.46901,0.22506 0.46901,0.46888 l 0,2.81325 c 0,0.26257 -0.20636,0.46888 -0.46901,0.46888 -0.26264,0 -0.469,-0.20631 -0.469,-0.46888 z m 0,-6.56426 0,-2.81326 c 0,-0.24381 0.20636,-0.46887 0.469,-0.46887 0.26265,0 0.46901,0.22506 0.46901,0.46887 l 0,2.81326 c 0,0.26257 -0.20636,0.46887 -0.46901,0.46887 -0.26264,0 -0.469,-0.2063 -0.469,-0.46887 z m 0,-6.56427 0.0188,-2.81325 c 0,-0.24382 0.20636,-0.46888 0.469,-0.46888 0.24389,0 0.46901,0.22506 0.46901,0.46888 l -0.0188,2.81325 c 0,0.26257 -0.20636,0.46888 -0.46901,0.46888 -0.24388,0 -0.469,-0.20631 -0.469,-0.46888 z m 0.0188,-6.56426 0,-2.81326 c 0,-0.24381 0.20636,-0.46887 0.469,-0.46887 0.26265,0 0.46901,0.22506 0.46901,0.46887 l 0,2.81326 c 0,0.26257 -0.20636,0.46888 -0.46901,0.46888 -0.26264,0 -0.469,-0.20631 -0.469,-0.46888 z m 0,-6.56426 0,-2.81326 c 0,-0.24381 0.20636,-0.46888 0.469,-0.46888 0.26265,0 0.46901,0.22507 0.46901,0.46888 l 0,2.81326 c 0,0.26257 -0.20636,0.46887 -0.46901,0.46887 -0.26264,0 -0.469,-0.2063 -0.469,-0.46887 z m 0,-6.56427 0.0188,-2.81325 c 0,-0.24382 0.20636,-0.46888 0.469,-0.46888 0.24389,0 0.46901,0.22506 0.46901,0.46888 l -0.0188,2.81325 c 0,0.26257 -0.20636,0.46888 -0.46901,0.46888 -0.24388,0 -0.469,-0.20631 -0.469,-0.46888 z m 0.0188,-6.56426 0,-2.81326 c 0,-0.24381 0.20636,-0.46887 0.469,-0.46887 0.26265,0 0.46901,0.22506 0.46901,0.46887 l 0,2.81326 c 0,0.26257 -0.20636,0.46888 -0.46901,0.46888 -0.26264,0 -0.469,-0.20631 -0.469,-0.46888 z m 0,-6.56426 0,-2.81326 c 0,-0.24382 0.20636,-0.46888 0.469,-0.46888 0.26265,0 0.46901,0.22506 0.46901,0.46888 l 0,2.81326 c 0,0.26257 -0.20636,0.46887 -0.46901,0.46887 -0.26264,0 -0.469,-0.2063 -0.469,-0.46887 z m 0,-6.56427 0.0188,-2.81325 c 0,-0.24382 0.20636,-0.46888 0.469,-0.46888 0.24389,0 0.46901,0.22506 0.46901,0.46888 l -0.0188,2.81325 c 0,0.26257 -0.20636,0.46888 -0.46901,0.46888 -0.24388,0 -0.469,-0.20631 -0.469,-0.46888 z m 0.20636,-6.93936 0,0 c 0.20636,-0.15004 0.50653,-0.11253 0.65661,0.0938 0.15008,0.22506 0.11256,0.50639 -0.0938,0.65643 l 0,0 c -0.20636,0.16879 -0.50653,0.13128 -0.65661,-0.0938 -0.15008,-0.2063 -0.11256,-0.48763 0.0938,-0.65642 z" style="fill:#000;fill-opacity:1;fill-rule:nonzero;stroke:#000;stroke-width:.15008114px;stroke-linecap:butt;stroke-linejoin:bevel;stroke-opacity:1;stroke-dasharray:none"/><path id="path7600" d="m 323.3123,207.73081 0.075,-21.75584" style="fill:none;stroke:#000;stroke-width:.93800712px;stroke-linecap:round;stroke-linejoin:round;stroke-opacity:1;stroke-dasharray:none"/><text id="text7602" style="font-size:13.80746555px;font-style:normal;font-weight:700;text-align:start;text-anchor:start;fill:#000;font-family:Calibri" x="257.689" y="170.596" xml:space="preserve">F</text><text id="text7604" style="font-size:8.70470619px;font-style:normal;font-weight:700;text-align:start;text-anchor:start;fill:#000;font-family:Calibri" x="263.993" y="172.546" xml:space="preserve">1</text><path id="path7608" d="m 168.88819,115.08092 c -1.95106,0 -3.53629,1.55667 -3.53629,3.46968 0,1.92239 1.58523,3.46968 3.53629,3.46968 1.95105,0 3.53628,-1.54729 3.53628,-3.46968 0,-1.91301 -1.58523,-3.46968 -3.53628,-3.46968" clip-path="url(#clipEmfPath1)" style="fill:#fff;fill-opacity:1;fill-rule:evenodd;stroke:none"/><path id="path7610" d="m 168.88819,115.08092 c -1.95106,0 -3.53629,1.55667 -3.53629,3.46968 0,1.92239 1.58523,3.46968 3.53629,3.46968 1.95105,0 3.53628,-1.54729 3.53628,-3.46968 0,-1.91301 -1.58523,-3.46968 -3.53628,-3.46968" style="fill:none;stroke:#000;stroke-width:2.0636158px;stroke-linecap:round;stroke-linejoin:round;stroke-opacity:1;stroke-dasharray:none"/><path id="path7612" d="m 239.05112,115.08092 c -1.95106,0 -3.53629,1.55667 -3.53629,3.46968 0,1.92239 1.58523,3.46968 3.53629,3.46968 1.95105,0 3.53629,-1.54729 3.53629,-3.46968 0,-1.91301 -1.58524,-3.46968 -3.53629,-3.46968" style="fill:#fff;fill-opacity:1;fill-rule:evenodd;stroke:none"/><path id="path7614" d="m 239.05112,115.08092 c -1.95106,0 -3.53629,1.55667 -3.53629,3.46968 0,1.92239 1.58523,3.46968 3.53629,3.46968 1.95105,0 3.53629,-1.54729 3.53629,-3.46968 0,-1.91301 -1.58524,-3.46968 -3.53629,-3.46968" style="fill:none;stroke:#000;stroke-width:2.0636158px;stroke-linecap:round;stroke-linejoin:round;stroke-opacity:1;stroke-dasharray:none"/><path id="path7616" d="m 324.60675,114.33072 c -1.95105,0 -3.54567,1.55667 -3.54567,3.46968 0,1.93177 1.59462,3.46968 3.54567,3.46968 1.95106,0 3.52691,-1.53791 3.52691,-3.46968 0,-1.91301 -1.57585,-3.46968 -3.52691,-3.46968" style="fill:#fff;fill-opacity:1;fill-rule:evenodd;stroke:none"/><path id="path7618" d="m 324.60675,114.33072 c -1.95105,0 -3.54567,1.55667 -3.54567,3.46968 0,1.93177 1.59462,3.46968 3.54567,3.46968 1.95106,0 3.52691,-1.53791 3.52691,-3.46968 0,-1.91301 -1.57585,-3.46968 -3.52691,-3.46968" style="fill:none;stroke:#000;stroke-width:2.0636158px;stroke-linecap:round;stroke-linejoin:round;stroke-opacity:1;stroke-dasharray:none"/><path id="path7620" d="m 395.52009,116.20622 c -1.95105,0 -3.54567,1.55667 -3.54567,3.46968 0,1.93177 1.59462,3.46969 3.54567,3.46969 1.95106,0 3.52691,-1.53792 3.52691,-3.46969 0,-1.91301 -1.57585,-3.46968 -3.52691,-3.46968" style="fill:#fff;fill-opacity:1;fill-rule:evenodd;stroke:none"/><path id="path7622" d="m 395.52009,116.20622 c -1.95105,0 -3.54567,1.55667 -3.54567,3.46968 0,1.93177 1.59462,3.46969 3.54567,3.46969 1.95106,0 3.52691,-1.53792 3.52691,-3.46969 0,-1.91301 -1.57585,-3.46968 -3.52691,-3.46968" style="fill:none;stroke:#000;stroke-width:2.0636158px;stroke-linecap:round;stroke-linejoin:round;stroke-opacity:1;stroke-dasharray:none"/><path id="path7624" d="m 419.15787,83.947555 c -1.95105,0 -3.54567,1.556669 -3.54567,3.469683 0,1.931769 1.59462,3.469682 3.54567,3.469682 1.95106,0 3.52691,-1.537913 3.52691,-3.469682 0,-1.913014 -1.57585,-3.469683 -3.52691,-3.469683" style="fill:#fff;fill-opacity:1;fill-rule:evenodd;stroke:none"/><path id="path7626" d="m 419.15787,83.947555 c -1.95105,0 -3.54567,1.556669 -3.54567,3.469683 0,1.931769 1.59462,3.469682 3.54567,3.469682 1.95106,0 3.52691,-1.537913 3.52691,-3.469682 0,-1.913014 -1.57585,-3.469683 -3.52691,-3.469683" style="fill:none;stroke:#000;stroke-width:2.0636158px;stroke-linecap:round;stroke-linejoin:round;stroke-opacity:1;stroke-dasharray:none"/><path id="path7628" d="m 343.7421,181.84886 c -1.95106,0 -3.54567,1.55667 -3.54567,3.46968 0,1.93177 1.59461,3.46968 3.54567,3.46968 1.95105,0 3.5269,-1.53791 3.5269,-3.46968 0,-1.91301 -1.57585,-3.46968 -3.5269,-3.46968" style="fill:#fff;fill-opacity:1;fill-rule:evenodd;stroke:none"/><path id="path7630" d="m 343.7421,181.84886 c -1.95106,0 -3.54567,1.55667 -3.54567,3.46968 0,1.93177 1.59461,3.46968 3.54567,3.46968 1.95105,0 3.5269,-1.53791 3.5269,-3.46968 0,-1.91301 -1.57585,-3.46968 -3.5269,-3.46968" style="fill:none;stroke:#000;stroke-width:2.0636158px;stroke-linecap:round;stroke-linejoin:round;stroke-opacity:1;stroke-dasharray:none"/><path id="path7632" d="m 116.35979,181.47376 c -1.95106,0 -3.53629,1.55667 -3.53629,3.46968 0,1.92239 1.58523,3.46968 3.53629,3.46968 1.95105,0 3.53628,-1.54729 3.53628,-3.46968 0,-1.91301 -1.58523,-3.46968 -3.53628,-3.46968" style="fill:#fff;fill-opacity:1;fill-rule:evenodd;stroke:none"/><path id="path7634" d="m 116.35979,181.47376 c -1.95106,0 -3.53629,1.55667 -3.53629,3.46968 0,1.92239 1.58523,3.46968 3.53629,3.46968 1.95105,0 3.53628,-1.54729 3.53628,-3.46968 0,-1.91301 -1.58523,-3.46968 -3.53628,-3.46968" style="fill:none;stroke:#000;stroke-width:2.0636158px;stroke-linecap:round;stroke-linejoin:round;stroke-opacity:1;stroke-dasharray:none"/><path id="path7636" d="m 191.40036,85.072858 c -1.95106,0 -3.53629,1.556668 -3.53629,3.469682 0,1.922391 1.58523,3.469682 3.53629,3.469682 1.95105,0 3.53628,-1.547291 3.53628,-3.469682 0,-1.913014 -1.58523,-3.469682 -3.53628,-3.469682" style="fill:#fff;fill-opacity:1;fill-rule:evenodd;stroke:none"/><path id="path7638" d="m 191.40036,85.072858 c -1.95106,0 -3.53629,1.556668 -3.53629,3.469682 0,1.922391 1.58523,3.469682 3.53629,3.469682 1.95105,0 3.53628,-1.547291 3.53628,-3.469682 0,-1.913014 -1.58523,-3.469682 -3.53628,-3.469682" style="fill:none;stroke:#000;stroke-width:2.0636158px;stroke-linecap:round;stroke-linejoin:round;stroke-opacity:1;stroke-dasharray:none"/><text id="text7640" style="font-size:13.80746555px;font-style:normal;font-weight:700;text-align:start;text-anchor:start;fill:#000;font-family:Calibri" x="417.976" y="38.86" xml:space="preserve">F</text><text id="text7642" style="font-size:8.70470619px;font-style:normal;font-weight:700;text-align:start;text-anchor:start;fill:#000;font-family:Calibri" x="424.279" y="40.811" xml:space="preserve">2</text><text id="text7646" style="font-size:13.80746555px;font-style:normal;font-weight:700;text-align:start;text-anchor:start;fill:#000;font-family:Calibri" x="51.328" y="190.851" xml:space="preserve">F</text><text id="text7648" style="font-size:8.70470619px;font-style:normal;font-weight:700;text-align:start;text-anchor:start;fill:#000;font-family:Calibri" x="57.631" y="192.802" xml:space="preserve">3</text><text id="text7652" style="font-size:13.80746555px;font-style:normal;font-weight:700;text-align:start;text-anchor:start;fill:#000;font-family:Calibri" x="161.637" y="233.613" xml:space="preserve">E</text><text id="text7654" style="font-size:8.70470619px;font-style:normal;font-weight:700;text-align:start;text-anchor:start;fill:#000;font-family:Calibri" x="168.391" y="235.563" xml:space="preserve">x</text><text id="text7658" style="font-size:13.80746555px;font-style:normal;font-weight:700;text-align:start;text-anchor:start;fill:#000;font-family:Calibri" x="160.587" y="172.396" xml:space="preserve">V</text><text id="text7660" style="font-size:8.70470619px;font-style:normal;font-weight:700;text-align:start;text-anchor:start;fill:#000;font-family:Calibri" x="168.691" y="174.347" xml:space="preserve">in1</text><text id="text7664" style="font-size:13.80746555px;font-style:normal;font-weight:700;text-align:start;text-anchor:start;fill:#000;font-family:Calibri" x="331.979" y="156.642" xml:space="preserve">PB</text><text id="text7666" style="font-size:8.70470619px;font-style:normal;font-weight:700;text-align:start;text-anchor:start;fill:#000;font-family:Calibri" x="347.138" y="158.593" xml:space="preserve">on11</text><text id="text7670" style="font-size:13.80746555px;font-style:normal;font-weight:700;text-align:start;text-anchor:start;fill:#000;font-family:Calibri" x="355.692" y="108.629" xml:space="preserve">PB</text><text id="text7672" style="font-size:8.70470619px;font-style:normal;font-weight:700;text-align:start;text-anchor:start;fill:#000;font-family:Calibri" x="370.85" y="110.58" xml:space="preserve">on12</text><text id="text7676" style="font-size:13.80746555px;font-style:normal;font-weight:700;text-align:start;text-anchor:start;fill:#000;font-family:Calibri" x="270.146" y="103.378" xml:space="preserve">PB</text><text id="text7678" style="font-size:8.70470619px;font-style:normal;font-weight:700;text-align:start;text-anchor:start;fill:#000;font-family:Calibri" x="285.304" y="105.328" xml:space="preserve">on2</text><text id="text7682" style="font-size:13.80746555px;font-style:normal;font-weight:700;text-align:start;text-anchor:start;fill:#000;font-family:Calibri" x="187.902" y="108.629" xml:space="preserve">PB</text><text id="text7684" style="font-size:8.70470619px;font-style:normal;font-weight:700;text-align:start;text-anchor:start;fill:#000;font-family:Calibri" x="203.06" y="110.58" xml:space="preserve">on31</text><text id="text7688" style="font-size:13.80746555px;font-style:normal;font-weight:700;text-align:start;text-anchor:start;fill:#000;font-family:Calibri" x="102.355" y="154.842" xml:space="preserve">PB</text><text id="text7690" style="font-size:8.70470619px;font-style:normal;font-weight:700;text-align:start;text-anchor:start;fill:#000;font-family:Calibri" x="117.514" y="156.792" xml:space="preserve">on32</text><text id="text7694" style="font-size:13.80746555px;font-style:normal;font-weight:700;text-align:start;text-anchor:start;fill:#000;font-family:Calibri" x="210.414" y="182.899" xml:space="preserve">PB</text><text id="text7696" style="font-size:8.70470619px;font-style:normal;font-weight:700;text-align:start;text-anchor:start;fill:#000;font-family:Calibri" x="225.572" y="184.85" xml:space="preserve">on4</text><text id="text7700" style="font-size:13.80746555px;font-style:normal;font-weight:700;text-align:start;text-anchor:start;fill:#000;font-family:Calibri" x="192.404" y="134.586" xml:space="preserve">PB</text><text id="text7702" style="font-size:8.70470619px;font-style:normal;font-weight:700;text-align:start;text-anchor:start;fill:#000;font-family:Calibri" x="207.562" y="136.537" xml:space="preserve">in1</text><text id="text7706" style="font-size:13.80746555px;font-style:normal;font-weight:700;text-align:start;text-anchor:start;fill:#000;font-family:Calibri" x="343.686" y="134.136" xml:space="preserve">PB</text><text id="text7708" style="font-size:8.70470619px;font-style:normal;font-weight:700;text-align:start;text-anchor:start;fill:#000;font-family:Calibri" x="358.844" y="136.087" xml:space="preserve">sc1</text><text id="text7712" style="font-size:13.80746555px;font-style:normal;font-weight:700;text-align:start;text-anchor:start;fill:#000;font-family:Calibri" x="391.712" y="147.64" xml:space="preserve">E</text><text id="text7714" style="font-size:8.70470619px;font-style:normal;font-weight:700;text-align:start;text-anchor:start;fill:#000;font-family:Calibri" x="398.465" y="149.59" xml:space="preserve">1</text><text id="text7718" style="font-size:13.80746555px;font-style:normal;font-weight:700;text-align:start;text-anchor:start;fill:#000;font-family:Calibri" x="299.712" y="82.822" xml:space="preserve">E</text><text id="text7720" style="font-size:8.70470619px;font-style:normal;font-weight:700;text-align:start;text-anchor:start;fill:#000;font-family:Calibri" x="306.466" y="84.773" xml:space="preserve">2</text><text id="text7724" style="font-size:13.80746555px;font-style:normal;font-weight:700;text-align:start;text-anchor:start;fill:#000;font-family:Calibri" x="138.375" y="127.834" xml:space="preserve">E</text><text id="text7726" style="font-size:8.70470619px;font-style:normal;font-weight:700;text-align:start;text-anchor:start;fill:#000;font-family:Calibri" x="145.128" y="129.785" xml:space="preserve">3</text><text id="text7730" style="font-size:13.80746555px;font-style:normal;font-weight:700;text-align:start;text-anchor:start;fill:#000;font-family:Calibri" x="244.632" y="202.855" xml:space="preserve">E</text><text id="text7732" style="font-size:8.70470619px;font-style:normal;font-weight:700;text-align:start;text-anchor:start;fill:#000;font-family:Calibri" x="251.386" y="204.805" xml:space="preserve">4</text><path id="path7736" d="m 155.22142,163.46892 0.0657,-98.276404" clip-path="url(#clipEmfPath17)" style="fill:none;stroke:#000;stroke-width:.93800712px;stroke-linecap:round;stroke-linejoin:round;stroke-opacity:1;stroke-dasharray:none"/><path id="path7738" d="m 154.75242,186.35007 0,0 c 0,-0.25319 0.21574,-0.46888 0.469,-0.46888 0.26264,0 0.46901,0.21569 0.46901,0.46888 l 0,0 c 0,0.26257 -0.20637,0.46888 -0.46901,0.46888 -0.25326,0 -0.469,-0.20631 -0.469,-0.46888 z m 0.009,-1.8755 0,0 c 0,-0.2532 0.20636,-0.46888 0.469,-0.46888 0.26264,0 0.46901,0.21568 0.46901,0.46888 l 0,0 c 0,0.26257 -0.20637,0.46887 -0.46901,0.46887 -0.26264,0 -0.469,-0.2063 -0.469,-0.46887 z m 0.009,-1.87551 0,0 c 0,-0.25319 0.20636,-0.46887 0.469,-0.46887 0.25326,0 0.46901,0.21568 0.46901,0.46887 l 0,0 c 0,0.26257 -0.21575,0.46888 -0.46901,0.46888 -0.26264,0 -0.469,-0.20631 -0.469,-0.46888 z m 0,-1.8755 0,0 c 0,-0.26257 0.20636,-0.46888 0.469,-0.46888 0.26264,0 0.46901,0.20631 0.46901,0.46888 l 0,0 c 0,0.26257 -0.20637,0.46887 -0.46901,0.46887 -0.26264,0 -0.469,-0.2063 -0.469,-0.46887 z m 0.009,-1.87551 0,0 c 0,-0.26257 0.20636,-0.46887 0.469,-0.46887 0.25326,0 0.46901,0.2063 0.46901,0.46887 l 0,0 c 0,0.26257 -0.21575,0.46888 -0.46901,0.46888 -0.26264,0 -0.469,-0.20631 -0.469,-0.46888 z m 0,-1.8755 0,0 c 0,-0.26257 0.21574,-0.46888 0.469,-0.46888 0.26264,0 0.46901,0.20631 0.46901,0.46888 l 0,0 c 0,0.26257 -0.20637,0.46888 -0.46901,0.46888 -0.25326,0 -0.469,-0.20631 -0.469,-0.46888 z m 0.009,-1.8755 0,0 c 0,-0.26257 0.20636,-0.46888 0.469,-0.46888 0.25326,0 0.46901,0.20631 0.46901,0.46888 l 0,0 c 0,0.25319 -0.21575,0.46887 -0.46901,0.46887 -0.26264,0 -0.469,-0.21568 -0.469,-0.46887 z m 0,-1.87551 0,0 c 0,-0.26257 0.21574,-0.46887 0.469,-0.46887 0.26264,0 0.46901,0.2063 0.46901,0.46887 l 0,0 c 0,0.25319 -0.20637,0.46888 -0.46901,0.46888 -0.25326,0 -0.469,-0.21569 -0.469,-0.46888 z m 0.009,-1.8755 0,0 c 0,-0.26257 0.20636,-0.46888 0.469,-0.46888 0.25326,0 0.46901,0.20631 0.46901,0.46888 l 0,0 c 0,0.25319 -0.21575,0.46887 -0.46901,0.46887 -0.26264,0 -0.469,-0.21568 -0.469,-0.46887 z m 0,-1.87551 0,-0.009 c 0,-0.2532 0.21574,-0.46888 0.469,-0.46888 0.26264,0 0.46901,0.21568 0.46901,0.46888 l 0,0.009 c 0,0.2532 -0.20637,0.46888 -0.46901,0.46888 -0.25326,0 -0.469,-0.21568 -0.469,-0.46888 z m 0.009,-1.88488 0,0 c 0,-0.25319 0.20636,-0.46887 0.469,-0.46887 0.26264,0 0.46901,0.21568 0.46901,0.46887 l 0,0 c 0,0.26257 -0.20637,0.46888 -0.46901,0.46888 -0.26264,0 -0.469,-0.20631 -0.469,-0.46888 z m 0,-1.8755 0,0 c 0,-0.25319 0.21574,-0.46888 0.469,-0.46888 0.26264,0 0.46901,0.21569 0.46901,0.46888 l 0,0 c 0,0.26257 -0.20637,0.46887 -0.46901,0.46887 -0.25326,0 -0.469,-0.2063 -0.469,-0.46887 z m 0.009,-1.87551 0,0 c 0,-0.25319 0.20636,-0.46887 0.469,-0.46887 0.26264,0 0.46901,0.21568 0.46901,0.46887 l 0,0 c 0,0.26258 -0.20637,0.46888 -0.46901,0.46888 -0.26264,0 -0.469,-0.2063 -0.469,-0.46888 z" style="fill:#000;fill-opacity:1;fill-rule:nonzero;stroke:#000;stroke-width:.15008114px;stroke-linecap:butt;stroke-linejoin:bevel;stroke-opacity:1;stroke-dasharray:none"/><path id="path7740" d="m 154.84622,234.73807 0.44086,-51.76391" style="fill:none;stroke:#000;stroke-width:.93800712px;stroke-linecap:round;stroke-linejoin:round;stroke-opacity:1;stroke-dasharray:none"/><path id="path7742" d="m 155.00568,163.84402 c -1.95105,0 -3.53629,1.55667 -3.53629,3.46968 0,1.9224 1.58524,3.46969 3.53629,3.46969 1.95105,0 3.53629,-1.54729 3.53629,-3.46969 0,-1.91301 -1.58524,-3.46968 -3.53629,-3.46968" style="fill:#fff;fill-opacity:1;fill-rule:evenodd;stroke:none"/><path id="path7744" d="m 155.00568,163.84402 c -1.95105,0 -3.53629,1.55667 -3.53629,3.46968 0,1.9224 1.58524,3.46969 3.53629,3.46969 1.95105,0 3.53629,-1.54729 3.53629,-3.46969 0,-1.91301 -1.58524,-3.46968 -3.53629,-3.46968" style="fill:none;stroke:#000;stroke-width:2.0636158px;stroke-linecap:round;stroke-linejoin:round;stroke-opacity:1;stroke-dasharray:none"/><text id="text7746" style="font-size:13.80746555px;font-style:normal;font-weight:700;text-align:start;text-anchor:start;fill:#000;font-family:Calibri" x="347.438" y="199.854" xml:space="preserve">V</text><text id="text7748" style="font-size:8.70470619px;font-style:normal;font-weight:700;text-align:start;text-anchor:start;fill:#000;font-family:Calibri" x="355.542" y="201.804" xml:space="preserve">1</text><text id="text7752" style="font-size:13.80746555px;font-style:normal;font-weight:700;text-align:start;text-anchor:start;fill:#000;font-family:Calibri" x="406.72" y="78.621" xml:space="preserve">V</text><text id="text7754" style="font-size:8.70470619px;font-style:normal;font-weight:700;text-align:start;text-anchor:start;fill:#000;font-family:Calibri" x="414.824" y="80.572" xml:space="preserve">2</text><text id="text7758" style="font-size:13.80746555px;font-style:normal;font-weight:700;text-align:start;text-anchor:start;fill:#000;font-family:Calibri" x="183.849" y="79.371" xml:space="preserve">V</text><text id="text7760" style="font-size:8.70470619px;font-style:normal;font-weight:700;text-align:start;text-anchor:start;fill:#000;font-family:Calibri" x="191.954" y="81.322" xml:space="preserve">3</text><text id="text7764" style="font-size:13.80746555px;font-style:normal;font-weight:700;text-align:start;text-anchor:start;fill:#000;font-family:Calibri" x="103.256" y="211.407" xml:space="preserve">V</text><text id="text7766" style="font-size:8.70470619px;font-style:normal;font-weight:700;text-align:start;text-anchor:start;fill:#000;font-family:Calibri" x="111.36" y="213.357" xml:space="preserve">4</text><text id="text7770" style="font-size:13.80746555px;font-style:normal;font-weight:700;text-align:start;text-anchor:start;fill:#000;font-family:Calibri" x="401.917" y="127.834" xml:space="preserve">V</text><text id="text7772" style="font-size:8.70470619px;font-style:normal;font-weight:700;text-align:start;text-anchor:start;fill:#000;font-family:Calibri" x="410.022" y="129.785" xml:space="preserve">5</text><text id="text7776" style="font-size:13.80746555px;font-style:normal;font-weight:700;text-align:start;text-anchor:start;fill:#000;font-family:Calibri" x="156.738" y="109.134" xml:space="preserve">V</text><text id="text7778" style="font-size:8.70470619px;font-style:normal;font-weight:700;text-align:start;text-anchor:start;fill:#000;font-family:Calibri" x="162.823" y="112.599" xml:space="preserve">6</text><path style="fill:#fff;fill-rule:evenodd;stroke:#000;stroke-width:1px;stroke-linecap:butt;stroke-linejoin:miter;stroke-opacity:1" id="path22745" d="m 230.74905,217.40091 a 3.5344493,3.5344493 0 1 1 -7.0689,0 3.5344493,3.5344493 0 1 1 7.0689,0 z" transform="matrix(0.74537012,0,0,0.81679869,-0.56516883,-58.729446)"/></g><path style="fill:none;stroke:#000;stroke-width:1px;stroke-linecap:butt;stroke-linejoin:miter;stroke-opacity:1" id="path22739" d="m 154.50593,145.19716 0,-96.439973" transform="translate(-164.51761,266.39753)"/></g></svg>