<svg xmlns="http://www.w3.org/2000/svg" xmlns:svg="http://www.w3.org/2000/svg" id="svg3102" width="530.963" height="198.23" version="1.1"><defs id="defs3104"><clipPath id="clipEmfPath1" clipPathUnits="userSpaceOnUse"><rect id="rect3115" width="26.55" height="15.93" x="168" y="92.272"/></clipPath><clipPath id="clipEmfPath2" clipPathUnits="userSpaceOnUse"><rect id="rect3118" width="26.55" height="15.93" x="140.7" y="53.65"/></clipPath><clipPath id="clipEmfPath3" clipPathUnits="userSpaceOnUse"><rect id="rect3121" width="26.55" height="15.93" x="94.95" y="37.119"/></clipPath><clipPath id="clipEmfPath4" clipPathUnits="userSpaceOnUse"><rect id="rect3124" width="26.7" height="15.93" x="439.35" y="118.27"/></clipPath><clipPath id="clipEmfPath5" clipPathUnits="userSpaceOnUse"><rect id="rect3127" width="26.55" height="15.93" x="405.3" y="157.042"/></clipPath><clipPath id="clipEmfPath6" clipPathUnits="userSpaceOnUse"><rect id="rect3130" width="26.55" height="15.93" x="375.3" y="94.526"/></clipPath><clipPath id="clipEmfPath7" clipPathUnits="userSpaceOnUse"><rect id="rect3133" width="26.7" height="15.93" x="365.85" y="137.806"/></clipPath><clipPath id="clipEmfPath8" clipPathUnits="userSpaceOnUse"><rect id="rect3136" width="26.7" height="15.93" x="479.85" y="94.225"/></clipPath><clipPath id="clipEmfPath9" clipPathUnits="userSpaceOnUse"><rect id="rect3139" width="26.55" height="15.93" x="445.8" y="53.95"/></clipPath><clipPath id="clipEmfPath10" clipPathUnits="userSpaceOnUse"><rect id="rect3142" width="26.55" height="15.93" x="400.05" y="40.425"/></clipPath></defs><metadata id="metadata3107"/><g id="layer1" transform="translate(-151.66161,-507.53545)"><g id="g3144" transform="translate(153.05654,496.59758)"><path id="path3148" d="m 167.9625,92.234045 0,15.967195 26.625,0 0,-15.967195 -26.625,0 z" clip-path="url(#clipEmfPath0)" style="fill:#fff;fill-opacity:1;fill-rule:evenodd;stroke:none"/><text id="text3150" style="font-size:13.80000019px;font-style:normal;font-weight:700;text-align:start;text-anchor:start;fill:#000;font-family:Calibri" x="175.8" y="105.346" xml:space="preserve">E</text><text id="text3152" style="font-size:8.69999981px;font-style:normal;font-weight:700;text-align:start;text-anchor:start;fill:#000;font-family:Calibri" x="182.55" y="107.3" xml:space="preserve">1</text><path id="path3156" d="m 140.5875,53.537073 0,15.967197 26.625,0 0,-15.967197 -26.625,0 z" clip-path="url(#clipEmfPath1)" style="fill:#fff;fill-opacity:1;fill-rule:evenodd;stroke:none"/><text id="text3158" style="font-size:13.80000019px;font-style:normal;font-weight:700;text-align:start;text-anchor:start;fill:#000;font-family:Calibri" x="148.5" y="66.724" xml:space="preserve">E</text><text id="text3160" style="font-size:8.69999981px;font-style:normal;font-weight:700;text-align:start;text-anchor:start;fill:#000;font-family:Calibri" x="155.25" y="68.678" xml:space="preserve">2</text><path id="path3164" d="m 94.8375,37.006328 0,15.967197 26.625,0 0,-15.967197 -26.625,0 z" clip-path="url(#clipEmfPath2)" style="fill:#fff;fill-opacity:1;fill-rule:evenodd;stroke:none"/><text id="text3166" style="font-size:13.80000019px;font-style:normal;font-weight:700;text-align:start;text-anchor:start;fill:#000;font-family:Calibri" x="102.75" y="50.193" xml:space="preserve">E</text><text id="text3168" style="font-size:8.69999981px;font-style:normal;font-weight:700;text-align:start;text-anchor:start;fill:#000;font-family:Calibri" x="109.5" y="52.147" xml:space="preserve">3</text><path id="path3172" d="m 118.8375,19.348486 0,157.859224" clip-path="url(#clipEmfPath3)" style="fill:none;stroke:#000;stroke-width:2.8125px;stroke-linecap:butt;stroke-linejoin:round;stroke-opacity:1;stroke-dasharray:none"/><path id="path3174" d="m 118.24687,12.961607 c -1.94999,0 -3.53437,1.587327 -3.53437,3.540961 0,1.953634 1.58438,3.540961 3.53437,3.540961 1.95,0 3.53438,-1.587327 3.53438,-3.540961 0,-1.953634 -1.58438,-3.540961 -3.53438,-3.540961" style="fill:#fff;fill-opacity:1;fill-rule:evenodd;stroke:none"/><path id="path3176" d="m 118.24687,12.961607 c -1.94999,0 -3.53437,1.587327 -3.53437,3.540961 0,1.953634 1.58438,3.540961 3.53437,3.540961 1.95,0 3.53438,-1.587327 3.53438,-3.540961 0,-1.953634 -1.58438,-3.540961 -3.53438,-3.540961" style="fill:none;stroke:#000;stroke-width:2.8125px;stroke-linecap:round;stroke-linejoin:round;stroke-opacity:1;stroke-dasharray:none"/><path id="path3178" d="m 118.62187,174.57782 c -1.94999,0 -3.53437,1.58733 -3.53437,3.54096 0,1.95364 1.58438,3.53157 3.53437,3.53157 1.95,0 3.53438,-1.57793 3.53438,-3.53157 0,-1.95363 -1.58438,-3.54096 -3.53438,-3.54096" style="fill:#fff;fill-opacity:1;fill-rule:evenodd;stroke:none"/><path id="path3180" d="m 118.62187,174.57782 c -1.94999,0 -3.53437,1.58733 -3.53437,3.54096 0,1.95364 1.58438,3.53157 3.53437,3.53157 1.95,0 3.53438,-1.57793 3.53438,-3.53157 0,-1.95363 -1.58438,-3.54096 -3.53438,-3.54096" style="fill:none;stroke:#000;stroke-width:2.8125px;stroke-linecap:round;stroke-linejoin:round;stroke-opacity:1;stroke-dasharray:none"/><path id="path3182" d="m 55.59375,112.09912 157.5,-0.39449" style="fill:none;stroke:#000;stroke-width:2.8125px;stroke-linecap:butt;stroke-linejoin:round;stroke-opacity:1;stroke-dasharray:none"/><path id="path3184" d="m 49.275,112.69084 c 0.0094,1.95364 1.59375,3.53157 3.54375,3.53157 1.95,-0.009 3.525,-1.59672 3.525,-3.55035 -0.0094,-1.95364 -1.59375,-3.53157 -3.54375,-3.53157 -1.95,0.009 -3.525,1.59672 -3.525,3.55035" style="fill:#fff;fill-opacity:1;fill-rule:evenodd;stroke:none"/><path id="path3186" d="m 49.275,112.69084 c 0.0094,1.95364 1.59375,3.53157 3.54375,3.53157 1.95,-0.009 3.525,-1.59672 3.525,-3.55035 -0.0094,-1.95364 -1.59375,-3.53157 -3.54375,-3.53157 -1.95,0.009 -3.525,1.59672 -3.525,3.55035" style="fill:none;stroke:#000;stroke-width:2.8125px;stroke-linecap:round;stroke-linejoin:round;stroke-opacity:1;stroke-dasharray:none"/><path id="path3188" d="m 210.46875,111.8737 c 0,1.95363 1.58437,3.54096 3.53437,3.53157 1.95,0 3.53438,-1.58733 3.525,-3.54096 0,-1.96303 -1.58437,-3.54097 -3.53437,-3.53157 -1.95938,0 -3.53438,1.58732 -3.525,3.54096" style="fill:#fff;fill-opacity:1;fill-rule:evenodd;stroke:none"/><path id="path3190" d="m 210.46875,111.8737 c 0,1.95363 1.58437,3.54096 3.53437,3.53157 1.95,0 3.53438,-1.58733 3.525,-3.54096 0,-1.96303 -1.58437,-3.54097 -3.53437,-3.53157 -1.95938,0 -3.53438,1.58732 -3.525,3.54096" style="fill:none;stroke:#000;stroke-width:2.8125px;stroke-linecap:round;stroke-linejoin:round;stroke-opacity:1;stroke-dasharray:none"/><path id="path3192" d="M 61.21875,166.7445 173.84062,56.429954" style="fill:none;stroke:#000;stroke-width:2.8125px;stroke-linecap:butt;stroke-linejoin:round;stroke-opacity:1;stroke-dasharray:none"/><path id="path3194" d="m 57.0375,171.50648 c 1.359375,1.39948 3.6,1.42766 4.9875,0.0564 1.396875,-1.36191 1.425,-3.59732 0.05625,-4.9968 -1.359375,-1.39947 -3.590625,-1.42765 -4.9875,-0.0563 -1.396875,1.36191 -1.425,3.60671 -0.05625,4.99679" style="fill:#fff;fill-opacity:1;fill-rule:evenodd;stroke:none"/><path id="path3196" d="m 57.0375,171.50648 c 1.359375,1.39948 3.6,1.42766 4.9875,0.0564 1.396875,-1.36191 1.425,-3.59732 0.05625,-4.9968 -1.359375,-1.39947 -3.590625,-1.42765 -4.9875,-0.0563 -1.396875,1.36191 -1.425,3.60671 -0.05625,4.99679" style="fill:none;stroke:#000;stroke-width:2.8125px;stroke-linecap:round;stroke-linejoin:round;stroke-opacity:1;stroke-dasharray:none"/><path id="path3198" d="m 172.09687,58.364802 c 1.36875,1.399478 3.60001,1.418263 4.99688,0.05636 1.39687,-1.3713 1.41563,-3.606708 0.0563,-5.006186 -1.36875,-1.399478 -3.6,-1.418263 -4.99688,-0.05636 -1.39687,1.371301 -1.41562,3.606708 -0.0563,5.006186" style="fill:#fff;fill-opacity:1;fill-rule:evenodd;stroke:none"/><path id="path3200" d="m 172.09687,58.364802 c 1.36875,1.399478 3.60001,1.418263 4.99688,0.05636 1.39687,-1.3713 1.41563,-3.606708 0.0563,-5.006186 -1.36875,-1.399478 -3.6,-1.418263 -4.99688,-0.05636 -1.39687,1.371301 -1.41562,3.606708 -0.0563,5.006186" style="fill:none;stroke:#000;stroke-width:2.8125px;stroke-linecap:round;stroke-linejoin:round;stroke-opacity:1;stroke-dasharray:none"/><path id="path3202" d="m 439.35,118.15726 0,16.04234 26.625,0 0,-16.04234 -26.625,0 z" style="fill:#fff;fill-opacity:1;fill-rule:evenodd;stroke:none"/><text id="text3204" style="font-size:13.80000019px;font-style:normal;font-weight:700;text-align:start;text-anchor:start;fill:#000;font-family:Calibri" x="442.65" y="131.344" xml:space="preserve">Vn</text><text id="text3206" style="font-size:8.69999981px;font-style:normal;font-weight:700;text-align:start;text-anchor:start;fill:#000;font-family:Calibri" x="458.1" y="133.298" xml:space="preserve">1</text><path id="path3210" d="m 405.225,156.92937 0,15.9672 26.625,0 0,-15.9672 -26.625,0 z" clip-path="url(#clipEmfPath4)" style="fill:#fff;fill-opacity:1;fill-rule:evenodd;stroke:none"/><text id="text3212" style="font-size:13.80000019px;font-style:normal;font-weight:700;text-align:start;text-anchor:start;fill:#000;font-family:Calibri" x="410.85" y="170.116" xml:space="preserve">E</text><text id="text3214" style="font-size:8.69999981px;font-style:normal;font-weight:700;text-align:start;text-anchor:start;fill:#000;font-family:Calibri" x="417.6" y="172.07" xml:space="preserve">31</text><path id="path3218" d="m 375.225,94.488238 0,15.967202 26.625,0 0,-15.967202 -26.625,0 z" clip-path="url(#clipEmfPath5)" style="fill:#fff;fill-opacity:1;fill-rule:evenodd;stroke:none"/><text id="text3220" style="font-size:13.80000019px;font-style:normal;font-weight:700;text-align:start;text-anchor:start;fill:#000;font-family:Calibri" x="380.85" y="107.6" xml:space="preserve">E</text><text id="text3222" style="font-size:8.69999981px;font-style:normal;font-weight:700;text-align:start;text-anchor:start;fill:#000;font-family:Calibri" x="387.6" y="109.554" xml:space="preserve">11</text><path id="path3226" d="m 365.85,137.76874 0,15.96719 26.625,0 0,-15.96719 -26.625,0 z" clip-path="url(#clipEmfPath6)" style="fill:#fff;fill-opacity:1;fill-rule:evenodd;stroke:none"/><text id="text3228" style="font-size:13.80000019px;font-style:normal;font-weight:700;text-align:start;text-anchor:start;fill:#000;font-family:Calibri" x="371.4" y="150.881" xml:space="preserve">E</text><text id="text3230" style="font-size:8.69999981px;font-style:normal;font-weight:700;text-align:start;text-anchor:start;fill:#000;font-family:Calibri" x="378.15" y="152.834" xml:space="preserve">21</text><path id="path3234" d="m 479.85,94.112539 0,15.967201 26.625,0 0,-15.967201 -26.625,0 z" clip-path="url(#clipEmfPath7)" style="fill:#fff;fill-opacity:1;fill-rule:evenodd;stroke:none"/><text id="text3236" style="font-size:13.80000019px;font-style:normal;font-weight:700;text-align:start;text-anchor:start;fill:#000;font-family:Calibri" x="485.4" y="107.3" xml:space="preserve">E</text><text id="text3238" style="font-size:8.69999981px;font-style:normal;font-weight:700;text-align:start;text-anchor:start;fill:#000;font-family:Calibri" x="492.15" y="109.253" xml:space="preserve">12</text><path id="path3242" d="m 445.725,53.912772 0,15.967197 26.625,0 0,-15.967197 -26.625,0 z" clip-path="url(#clipEmfPath8)" style="fill:#fff;fill-opacity:1;fill-rule:evenodd;stroke:none"/><text id="text3244" style="font-size:13.80000019px;font-style:normal;font-weight:700;text-align:start;text-anchor:start;fill:#000;font-family:Calibri" x="451.35" y="67.025" xml:space="preserve">E</text><text id="text3246" style="font-size:8.69999981px;font-style:normal;font-weight:700;text-align:start;text-anchor:start;fill:#000;font-family:Calibri" x="458.1" y="68.978" xml:space="preserve">22</text><path id="path3250" d="m 399.975,40.387617 0,15.967197 26.625,0 0,-15.967197 -26.625,0 z" clip-path="url(#clipEmfPath9)" style="fill:#fff;fill-opacity:1;fill-rule:evenodd;stroke:none"/><text id="text3252" style="font-size:13.80000019px;font-style:normal;font-weight:700;text-align:start;text-anchor:start;fill:#000;font-family:Calibri" x="405.6" y="53.5" xml:space="preserve">E</text><text id="text3254" style="font-size:8.69999981px;font-style:normal;font-weight:700;text-align:start;text-anchor:start;fill:#000;font-family:Calibri" x="412.35" y="55.453" xml:space="preserve">32</text><path id="path3258" d="m 430.725,21.22698 0,157.86862" clip-path="url(#clipEmfPath10)" style="fill:none;stroke:#000;stroke-width:2.8125px;stroke-linecap:butt;stroke-linejoin:round;stroke-opacity:1;stroke-dasharray:none"/><path id="path3260" d="m 430.125,14.840101 c -1.95,0 -3.525,1.59672 -3.525,3.550353 0,1.953634 1.575,3.531569 3.525,3.531569 1.95,0 3.525,-1.577935 3.525,-3.531569 0,-1.953633 -1.575,-3.550353 -3.525,-3.550353" style="fill:#fff;fill-opacity:1;fill-rule:evenodd;stroke:none"/><path id="path3262" d="m 430.125,14.840101 c -1.95,0 -3.525,1.59672 -3.525,3.550353 0,1.953634 1.575,3.531569 3.525,3.531569 1.95,0 3.525,-1.577935 3.525,-3.531569 0,-1.953633 -1.575,-3.550353 -3.525,-3.550353" style="fill:none;stroke:#000;stroke-width:2.8125px;stroke-linecap:round;stroke-linejoin:round;stroke-opacity:1;stroke-dasharray:none"/><path id="path3264" d="m 430.5,176.46571 c -1.95,0 -3.525,1.57793 -3.525,3.53157 0,1.95363 1.575,3.53156 3.525,3.53156 1.95,0 3.525,-1.57793 3.525,-3.53156 0,-1.95364 -1.575,-3.53157 -3.525,-3.53157" style="fill:#fff;fill-opacity:1;fill-rule:evenodd;stroke:none"/><path id="path3266" d="m 430.5,176.46571 c -1.95,0 -3.525,1.57793 -3.525,3.53157 0,1.95363 1.575,3.53156 3.525,3.53156 1.95,0 3.525,-1.57793 3.525,-3.53156 0,-1.95364 -1.575,-3.53157 -3.525,-3.53157" style="fill:none;stroke:#000;stroke-width:2.8125px;stroke-linecap:round;stroke-linejoin:round;stroke-opacity:1;stroke-dasharray:none"/><path id="path3268" d="m 367.4625,113.987 157.5,-0.39448" style="fill:none;stroke:#000;stroke-width:2.8125px;stroke-linecap:butt;stroke-linejoin:round;stroke-opacity:1;stroke-dasharray:none"/><path id="path3270" d="m 361.1625,114.56934 c 0,1.95363 1.59375,3.53157 3.54375,3.53157 1.95,0 3.525,-1.59672 3.50625,-3.55036 0,-1.95363 -1.575,-3.53157 -3.525,-3.53157 -1.95,0.0188 -3.525,1.59672 -3.525,3.55036" style="fill:#fff;fill-opacity:1;fill-rule:evenodd;stroke:none"/><path id="path3272" d="m 361.1625,114.56934 c 0,1.95363 1.59375,3.53157 3.54375,3.53157 1.95,0 3.525,-1.59672 3.50625,-3.55036 0,-1.95363 -1.575,-3.53157 -3.525,-3.53157 -1.95,0.0188 -3.525,1.59672 -3.525,3.55036" style="fill:none;stroke:#000;stroke-width:2.8125px;stroke-linecap:round;stroke-linejoin:round;stroke-opacity:1;stroke-dasharray:none"/><path id="path3274" d="m 522.3375,113.76158 c 0.0188,1.95364 1.59375,3.53157 3.54375,3.53157 1.95,0 3.525,-1.59672 3.525,-3.55035 0,-1.95363 -1.59375,-3.53157 -3.54375,-3.53157 -1.95,0 -3.525,1.59672 -3.525,3.55035" style="fill:#fff;fill-opacity:1;fill-rule:evenodd;stroke:none"/><path id="path3276" d="m 522.3375,113.76158 c 0.0188,1.95364 1.59375,3.53157 3.54375,3.53157 1.95,0 3.525,-1.59672 3.525,-3.55035 0,-1.95363 -1.59375,-3.53157 -3.54375,-3.53157 -1.95,0 -3.525,1.59672 -3.525,3.55035" style="fill:none;stroke:#000;stroke-width:2.8125px;stroke-linecap:round;stroke-linejoin:round;stroke-opacity:1;stroke-dasharray:none"/><path id="path3278" d="M 373.10625,168.63239 485.71875,58.308447" style="fill:none;stroke:#000;stroke-width:2.8125px;stroke-linecap:butt;stroke-linejoin:round;stroke-opacity:1;stroke-dasharray:none"/><path id="path3280" d="m 368.90625,173.38498 c 1.36875,1.40887 3.6,1.42765 5.00625,0.0563 1.3875,-1.35251 1.425,-3.58792 0.0562,-4.99679 -1.36875,-1.39009 -3.6,-1.42766 -5.00625,-0.0564 -1.3875,1.3713 -1.40625,3.60671 -0.0562,4.9968" style="fill:#fff;fill-opacity:1;fill-rule:evenodd;stroke:none"/><path id="path3282" d="m 368.90625,173.38498 c 1.36875,1.40887 3.6,1.42765 5.00625,0.0563 1.3875,-1.35251 1.425,-3.58792 0.0562,-4.99679 -1.36875,-1.39009 -3.6,-1.42766 -5.00625,-0.0564 -1.3875,1.3713 -1.40625,3.60671 -0.0562,4.9968" style="fill:none;stroke:#000;stroke-width:2.8125px;stroke-linecap:round;stroke-linejoin:round;stroke-opacity:1;stroke-dasharray:none"/><path id="path3284" d="m 483.975,60.243296 c 1.36875,1.40887 3.6,1.427655 4.9875,0.05635 1.40625,-1.371301 1.425,-3.606708 0.0563,-4.996794 -1.35,-1.40887 -3.58125,-1.427655 -4.9875,-0.05635 -1.3875,1.3713 -1.425,3.606708 -0.0562,4.996793" style="fill:#fff;fill-opacity:1;fill-rule:evenodd;stroke:none"/><path id="path3286" d="m 483.975,60.243296 c 1.36875,1.40887 3.6,1.427655 4.9875,0.05635 1.40625,-1.371301 1.425,-3.606708 0.0563,-4.996794 -1.35,-1.40887 -3.58125,-1.427655 -4.9875,-0.05635 -1.3875,1.3713 -1.425,3.606708 -0.0562,4.996793" style="fill:none;stroke:#000;stroke-width:2.8125px;stroke-linecap:round;stroke-linejoin:round;stroke-opacity:1;stroke-dasharray:none"/><path id="path3288" d="m 430.55625,109.59133 c -1.95,0 -3.525,1.57793 -3.525,3.53157 0,1.95363 1.575,3.53156 3.525,3.53156 1.95,0 3.54375,-1.57793 3.54375,-3.53156 0,-1.95364 -1.59375,-3.53157 -3.54375,-3.53157" style="fill:#fff;fill-opacity:1;fill-rule:evenodd;stroke:none"/><path id="path3290" d="m 430.55625,109.59133 c -1.95,0 -3.525,1.57793 -3.525,3.53157 0,1.95363 1.575,3.53156 3.525,3.53156 1.95,0 3.54375,-1.57793 3.54375,-3.53156 0,-1.95364 -1.59375,-3.53157 -3.54375,-3.53157" style="fill:none;stroke:#000;stroke-width:2.8125px;stroke-linecap:round;stroke-linejoin:round;stroke-opacity:1;stroke-dasharray:none"/><path id="path3292" d="m 301.93125,92.985443 0,7.983597 -36.46875,0 0,15.9672 36.46875,0 0,7.9836 12.16875,-15.9672 z" style="fill:#fff;fill-opacity:1;fill-rule:evenodd;stroke:none"/><path id="path3294" d="m 301.93125,92.985443 0,7.983597 -36.46875,0 0,15.9672 36.46875,0 0,7.9836 12.16875,-15.9672 z" style="fill:none;stroke:#000;stroke-width:.9375px;stroke-linecap:round;stroke-linejoin:round;stroke-opacity:1;stroke-dasharray:none"/></g><path style="fill:none;stroke:#000;stroke-width:2.781;stroke-linecap:butt;stroke-linejoin:miter;stroke-miterlimit:4;stroke-opacity:1;stroke-dasharray:none" id="path3400" d="M 272.00684,516.32648 271.5878,670.49433"/><path style="fill:none;stroke:#000;stroke-width:2.55883098;stroke-linecap:butt;stroke-linejoin:miter;stroke-miterlimit:4;stroke-opacity:1;stroke-dasharray:none" id="path3400-1" d="m 583.84019,519.63897 -0.6412,85.29642"/><path style="fill:none;stroke:#000;stroke-width:2.39339042;stroke-linecap:butt;stroke-linejoin:miter;stroke-miterlimit:4;stroke-opacity:1;stroke-dasharray:none" id="path3400-7" d="m 584.05552,612.92596 -0.80664,59.31834"/></g></svg>