<svg xmlns="http://www.w3.org/2000/svg" xmlns:svg="http://www.w3.org/2000/svg" id="svg7940" width="489.426" height="256.698" version="1.1"><defs id="defs7942"><marker id="Arrow1Lend" orient="auto" refX="0" refY="0" style="overflow:visible"><path id="path7101" d="M 0.0,0.0 L 5.0,-5.0 L -12.5,0.0 L 5.0,5.0 L 0.0,0.0 z" style="fill-rule:evenodd;stroke:#000;stroke-width:1pt" transform="scale(0.8) rotate(180) translate(12.5,0)"/></marker><marker id="TriangleInL" orient="auto" refX="0" refY="0" style="overflow:visible"><path id="path7231" d="M 5.77,0.0 L -2.88,5.0 L -2.88,-5.0 L 5.77,0.0 z" style="fill-rule:evenodd;stroke:#000;stroke-width:1pt" transform="scale(-0.8)"/></marker><marker id="Arrow1Mend" orient="auto" refX="0" refY="0" style="overflow:visible"><path id="path7107" d="M 0.0,0.0 L 5.0,-5.0 L -12.5,0.0 L 5.0,5.0 L 0.0,0.0 z" style="fill-rule:evenodd;stroke:#000;stroke-width:1pt" transform="scale(0.4) rotate(180) translate(10,0)"/></marker><marker id="Arrow2Mend" orient="auto" refX="0" refY="0" style="overflow:visible"><path id="path7125" style="fill-rule:evenodd;stroke-width:.625;stroke-linejoin:round" d="M 8.7185878,4.0337352 L -2.2072895,0.016013256 L 8.7185884,-4.0017078 C 6.9730900,-1.6296469 6.9831476,1.6157441 8.7185878,4.0337352 z" transform="scale(0.6) rotate(180) translate(0,0)"/></marker><marker id="Arrow2Lstart" orient="auto" refX="0" refY="0" style="overflow:visible"><path id="path7116" style="fill-rule:evenodd;stroke-width:.625;stroke-linejoin:round" d="M 8.7185878,4.0337352 L -2.2072895,0.016013256 L 8.7185884,-4.0017078 C 6.9730900,-1.6296469 6.9831476,1.6157441 8.7185878,4.0337352 z" transform="scale(1.1) translate(1,0)"/></marker><marker id="Arrow2Lend" orient="auto" refX="0" refY="0" style="overflow:visible"><path id="path7119" style="fill-rule:evenodd;stroke-width:.625;stroke-linejoin:round" d="M 8.7185878,4.0337352 L -2.2072895,0.016013256 L 8.7185884,-4.0017078 C 6.9730900,-1.6296469 6.9831476,1.6157441 8.7185878,4.0337352 z" transform="scale(1.1) rotate(180) translate(1,0)"/></marker><clipPath id="clipEmfPath1" clipPathUnits="userSpaceOnUse"><rect id="rect7953" width="134.464" height="15.044" x="181.542" y="29.486"/></clipPath><clipPath id="clipEmfPath2" clipPathUnits="userSpaceOnUse"><rect id="rect7956" width="119.123" height="14.141" x="1.354" y="91.768"/></clipPath><clipPath id="clipEmfPath3" clipPathUnits="userSpaceOnUse"><rect id="rect7959" width="118.22" height="13.991" x="127.395" y="155.404"/></clipPath><clipPath id="clipEmfPath4" clipPathUnits="userSpaceOnUse"><rect id="rect7962" width="116.867" height="13.991" x="383.84" y="92.671"/></clipPath><clipPath id="clipEmfPath5" clipPathUnits="userSpaceOnUse"><rect id="rect7965" width="118.22" height="13.991" x="1.805" y="155.103"/></clipPath><clipPath id="clipEmfPath6" clipPathUnits="userSpaceOnUse"><rect id="rect7968" width="118.672" height="13.991" x="252.986" y="155.103"/></clipPath><clipPath id="clipEmfPath7" clipPathUnits="userSpaceOnUse"><rect id="rect7971" width="116.716" height="13.991" x="384.291" y="155.103"/></clipPath><marker id="Arrow1Lend-3" orient="auto" refX="0" refY="0" style="overflow:visible"><path id="path7101-4" d="M 0,0 5,-5 -12.5,0 5,5 0,0 z" style="fill-rule:evenodd;stroke:#000;stroke-width:1pt" transform="matrix(-0.8,0,0,-0.8,-10,0)"/></marker><marker id="Arrow1Lend-1" orient="auto" refX="0" refY="0" style="overflow:visible"><path id="path7101-3" d="M 0,0 5,-5 -12.5,0 5,5 0,0 z" style="fill-rule:evenodd;stroke:#000;stroke-width:1pt" transform="matrix(-0.8,0,0,-0.8,-10,0)"/></marker><marker id="Arrow1Lend-7" orient="auto" refX="0" refY="0" style="overflow:visible"><path id="path7101-42" d="M 0,0 5,-5 -12.5,0 5,5 0,0 z" style="fill-rule:evenodd;stroke:#000;stroke-width:1pt" transform="matrix(-0.8,0,0,-0.8,-10,0)"/></marker><marker id="Arrow1Lend-79" orient="auto" refX="0" refY="0" style="overflow:visible"><path id="path7101-31" d="M 0,0 5,-5 -12.5,0 5,5 0,0 z" style="fill-rule:evenodd;stroke:#000;stroke-width:1pt" transform="matrix(-0.8,0,0,-0.8,-10,0)"/></marker><marker id="Arrow1Lend-8" orient="auto" refX="0" refY="0" style="overflow:visible"><path id="path7101-6" d="M 0,0 5,-5 -12.5,0 5,5 0,0 z" style="fill-rule:evenodd;stroke:#000;stroke-width:1pt" transform="matrix(-0.8,0,0,-0.8,-10,0)"/></marker><marker id="Arrow1Lend-0" orient="auto" refX="0" refY="0" style="overflow:visible"><path id="path7101-2" d="M 0,0 5,-5 -12.5,0 5,5 0,0 z" style="fill-rule:evenodd;stroke:#000;stroke-width:1pt" transform="matrix(-0.8,0,0,-0.8,-10,0)"/></marker><marker id="Arrow2Mend-6" orient="auto" refX="0" refY="0" style="overflow:visible"><path id="path7125-0" style="fill-rule:evenodd;stroke-width:.625;stroke-linejoin:round" d="M 8.7185878,4.0337352 -2.2072895,0.01601326 8.7185884,-4.0017078 c -1.7454984,2.3720609 -1.7354408,5.6174519 -6e-7,8.035443 z" transform="scale(-0.6,-0.6)"/></marker><marker id="Arrow2Mend-4" orient="auto" refX="0" refY="0" style="overflow:visible"><path id="path7125-8" style="fill-rule:evenodd;stroke-width:.625;stroke-linejoin:round" d="M 8.7185878,4.0337352 -2.2072895,0.01601326 8.7185884,-4.0017078 c -1.7454984,2.3720609 -1.7354408,5.6174519 -6e-7,8.035443 z" transform="scale(-0.6,-0.6)"/></marker><marker id="Arrow2Mend-5" orient="auto" refX="0" refY="0" style="overflow:visible"><path id="path7125-09" style="fill-rule:evenodd;stroke-width:.625;stroke-linejoin:round" d="M 8.7185878,4.0337352 -2.2072895,0.01601326 8.7185884,-4.0017078 c -1.7454984,2.3720609 -1.7354408,5.6174519 -6e-7,8.035443 z" transform="scale(-0.6,-0.6)"/></marker></defs><metadata id="metadata7945"/><g id="layer1" transform="translate(151.25265,-261.25634)"><g id="g7973" transform="translate(-150.65102,302.21449)"><path id="path7977" d="m 180.82754,25.198612 0,23.506169 135.79927,0 0,-23.506169 z" clip-path="url(#clipEmfPath0)" style="fill:none;stroke:#000;stroke-width:1.2596637px;stroke-linecap:round;stroke-linejoin:miter;stroke-miterlimit:4;stroke-opacity:1;stroke-dasharray:none"/><text id="text7979" style="font-size:13.83749962px;font-style:normal;font-weight:700;text-align:start;text-anchor:start;fill:#000;font-family:Calibri" x="209.518" y="42.424" xml:space="preserve">BOPDS_Interf</text><path id="path7987" d="m 0.63923232,87.57458 0,22.5001 120.45768768,0 0,-22.5001 z" clip-path="url(#clipEmfPath1)" style="fill:none;stroke:#000;stroke-width:1.25026321px;stroke-linecap:round;stroke-linejoin:miter;stroke-miterlimit:4;stroke-opacity:1;stroke-dasharray:none"/><text id="text7989" style="font-size:13.83749962px;font-style:normal;font-weight:700;text-align:start;text-anchor:start;fill:#000;font-family:Calibri" x="50.758" y="69.763" xml:space="preserve">BOPDS_InterfVV</text><path id="path7999" d="m 126.67141,151.06944 0,22.50011 119.57404,0 0,-22.50011 z" clip-path="url(#clipEmfPath2)" style="fill:none;stroke:#000;stroke-width:1.25026321px;stroke-linecap:round;stroke-linejoin:miter;stroke-miterlimit:4;stroke-opacity:1;stroke-dasharray:none"/><text id="text8001" style="font-size:13.83749962px;font-style:normal;font-weight:700;text-align:start;text-anchor:start;fill:#000;font-family:Calibri" x="48.574" y="102.255" xml:space="preserve">BOPDS</text><text id="text8003" style="font-size:13.83749962px;font-style:normal;font-weight:700;text-align:start;text-anchor:start;fill:#000;font-family:Calibri" x="89.042" y="103.774" xml:space="preserve">_InterfVE</text><path id="path8013" d="m 383.18218,88.383193 0,22.509507 118.12637,0 0,-22.509507 z" clip-path="url(#clipEmfPath3)" style="fill:none;stroke:#000;stroke-width:1.2596637px;stroke-linecap:round;stroke-linejoin:miter;stroke-miterlimit:4;stroke-opacity:1;stroke-dasharray:none"/><text id="text8015" style="font-size:13.83749962px;font-style:normal;font-weight:700;text-align:start;text-anchor:start;fill:#000;font-family:Calibri" x="47.057" y="171.695" xml:space="preserve">BOPDS_InterfVF</text><path id="path8025" d="m 1.0152513,150.81558 0,22.44368 119.6398487,0 0,-22.44368 z" clip-path="url(#clipEmfPath4)" style="fill:none;stroke:#000;stroke-width:1.25026321px;stroke-linecap:round;stroke-linejoin:miter;stroke-miterlimit:4;stroke-opacity:1;stroke-dasharray:none"/><text id="text8027" style="font-size:13.83749962px;font-style:normal;font-weight:700;text-align:start;text-anchor:start;fill:#000;font-family:Calibri" x="48.923" y="137.656" xml:space="preserve">BOPDS_InterfEE</text><path id="path8037" d="m 252.32756,150.81558 0,22.45309 120.00647,0 0,-22.45309 z" clip-path="url(#clipEmfPath5)" style="fill:none;stroke:#000;stroke-width:1.2596637px;stroke-linecap:round;stroke-linejoin:miter;stroke-miterlimit:4;stroke-opacity:1;stroke-dasharray:none"/><text id="text8039" style="font-size:13.83749962px;font-style:normal;font-weight:700;text-align:start;text-anchor:start;fill:#000;font-family:Calibri" x="49.271" y="205.262" xml:space="preserve">BOPDS_InterfEF</text><path id="path8049" d="m 383.5582,150.8908 0,22.37787 118.12637,0 0,-22.37787 z" clip-path="url(#clipEmfPath6)" style="fill:none;stroke:#000;stroke-width:1.2596637px;stroke-linecap:round;stroke-linejoin:miter;stroke-miterlimit:4;stroke-opacity:1;stroke-dasharray:none"/><text id="text8051" style="font-size:13.83749962px;font-style:normal;font-weight:700;text-align:start;text-anchor:start;fill:#000;font-family:Calibri" x="356.666" y="72.329" xml:space="preserve">BOPDS_InterfFF</text><path id="path8061" d="m 110.21117,87.019835 65.91614,-35.40029 c 0.31021,-0.159841 0.68623,-0.04701 0.84604,0.26327 0.16921,0.300879 0.0564,0.676977 -0.25381,0.846222 L 110.8034,88.129326 c -0.31021,0.159842 -0.68623,0.04701 -0.85544,-0.263269 -0.15981,-0.300879 -0.047,-0.68638 0.26321,-0.846222 z m 63.33101,-37.562857 8.40402,-0.244464 -4.85064,6.873203 z" clip-path="url(#clipEmfPath7)" style="fill:#000;fill-opacity:1;fill-rule:nonzero;stroke:#000;stroke-width:.15040761px;stroke-linecap:butt;stroke-linejoin:bevel;stroke-opacity:1;stroke-dasharray:none"/><path id="path7977-0" d="m 42.339993,54.049725 0,23.632509 109.338927,0 0,-23.632509 z" clip-path="url(#clipEmfPath0)" style="fill:none;stroke:#000;stroke-width:1.13333213px;stroke-linecap:round;stroke-linejoin:miter;stroke-miterlimit:4;stroke-opacity:1;stroke-dasharray:none"/><path id="path7977-9" d="m 40.06113,155.83871 0,23.63251 109.33894,0 0,-23.63251 z" clip-path="url(#clipEmfPath0)" style="fill:none;stroke:#000;stroke-width:1.13333225px;stroke-linecap:round;stroke-linejoin:miter;stroke-miterlimit:4;stroke-opacity:1;stroke-dasharray:none"/><path id="path7977-4" d="m 41.604324,86.737307 0,25.863453 108.531406,0 0,-25.863453 z" clip-path="url(#clipEmfPath0)" style="fill:none;stroke:#000;stroke-width:1.181234px;stroke-linecap:round;stroke-linejoin:miter;stroke-miterlimit:4;stroke-opacity:1;stroke-dasharray:none"/><path id="path7977-8" d="m 346.98776,188.54277 0,26.59013 111.53693,0 0,-26.59013 z" clip-path="url(#clipEmfPath0)" style="fill:none;stroke:#000;stroke-width:1.21418393px;stroke-linecap:round;stroke-linejoin:miter;stroke-miterlimit:4;stroke-opacity:1;stroke-dasharray:none"/><path id="path7977-82" d="m 347.71077,152.04444 0,23.62486 110.85053,0 0,-23.62486 z" clip-path="url(#clipEmfPath0)" style="fill:none;stroke:#000;stroke-width:1.14095533px;stroke-linecap:round;stroke-linejoin:miter;stroke-miterlimit:4;stroke-opacity:1;stroke-dasharray:none"/><path id="path7977-45" d="m 348.46658,56.328587 0,23.632503 109.33893,0 0,-23.632503 z" clip-path="url(#clipEmfPath0)" style="fill:none;stroke:#000;stroke-width:1.13333213px;stroke-linecap:round;stroke-linejoin:miter;stroke-miterlimit:4;stroke-opacity:1;stroke-dasharray:none"/><path id="path7977-4-4" d="m 41.604316,120.54037 0,25.86345 108.531414,0 0,-25.86345 z" clip-path="url(#clipEmfPath0)" style="fill:none;stroke:#000;stroke-width:1.181234px;stroke-linecap:round;stroke-linejoin:miter;stroke-miterlimit:4;stroke-opacity:1;stroke-dasharray:none"/><path id="path7977-4-4-3" d="m 40.844696,188.9061 0,25.86345 108.531414,0 0,-25.86345 z" clip-path="url(#clipEmfPath0)" style="fill:none;stroke:#000;stroke-width:1.181234px;stroke-linecap:round;stroke-linejoin:miter;stroke-miterlimit:4;stroke-opacity:1;stroke-dasharray:none"/><path id="path7977-45-1" d="m 348.84638,87.472974 0,23.632496 109.33893,0 0,-23.632496 z" clip-path="url(#clipEmfPath0)" style="fill:none;stroke:#000;stroke-width:1.13333213px;stroke-linecap:round;stroke-linejoin:miter;stroke-miterlimit:4;stroke-opacity:1;stroke-dasharray:none"/><path id="path7977-45-1-2" d="m 348.84637,119.99774 0,23.63249 109.33894,0 0,-23.63249 z" clip-path="url(#clipEmfPath0)" style="fill:none;stroke:#000;stroke-width:1.13333213px;stroke-linecap:round;stroke-linejoin:miter;stroke-miterlimit:4;stroke-opacity:1;stroke-dasharray:none"/><path style="fill:none;stroke:#000;stroke-width:1.10169673px;stroke-linecap:square;stroke-linejoin:miter;stroke-opacity:1;marker-end:url(#Arrow1Mend)" id="path7092" d="M 149.85384,204.29486 C 230.85854,55.736284 224.20183,70.168708 233.29123,49.430411"/><path style="fill:none;stroke:#000;stroke-width:1.09412837px;stroke-linecap:square;stroke-linejoin:miter;stroke-opacity:1;marker-end:url(#Arrow2Mend)" id="path7092-1" d="M 345.7377,205.8298 C 266.29458,50.514625 344.4084,205.30413 266.83812,50.201751"/><path style="fill:none;stroke:#000;stroke-width:.99494576000000001;stroke-linecap:square;stroke-linejoin:miter;stroke-miterlimit:4;stroke-opacity:1;stroke-dasharray:none;marker-end:url(#Arrow2Mend)" id="path7092-1-8" d="M 348.11603,163.37866 C 276.12641,49.564157 346.91144,162.99344 276.61894,49.334877"/><path style="fill:none;stroke:#000;stroke-width:1.10269988;stroke-linecap:square;stroke-linejoin:miter;stroke-miterlimit:4;stroke-opacity:1;stroke-dasharray:none;marker-end:url(#Arrow1Mend)" id="path7092-1-8-7" d="M 149.61475,165.27411 C 219.55739,49.941963 150.7851,164.88377 219.07886,49.709629"/><path style="fill:none;stroke:#000;stroke-width:1.13005996;stroke-linecap:square;stroke-linejoin:miter;stroke-miterlimit:4;stroke-opacity:1;stroke-dasharray:none;marker-end:url(#Arrow1Mend)" id="path7092-9" d="M 149.66811,132.69657 C 206.67163,53.004017 201.98726,60.746123 208.38353,49.6213"/><path style="fill:none;stroke:#000;stroke-width:1.10019314;stroke-linecap:square;stroke-linejoin:miter;stroke-miterlimit:4;stroke-opacity:1;stroke-dasharray:none;marker-end:url(#Arrow2Mend)" id="path7092-9-5" d="M 349.11274,130.81271 C 288.83402,53.259375 293.78753,60.793646 287.02374,49.967454"/><path style="fill:none;stroke:#000;stroke-width:1.1100000000000001;stroke-linecap:square;stroke-linejoin:miter;stroke-opacity:1;marker-end:url(#Arrow2Mend);stroke-miterlimit:4;stroke-dasharray:none" id="path7092-8" d="M 348.82796,103.94125 C 300.14567,51.005439 304.14623,56.148144 298.68367,48.758472"/><path style="fill:none;stroke:#000;stroke-width:.94566226;stroke-linecap:square;stroke-linejoin:miter;stroke-miterlimit:4;stroke-opacity:1;stroke-dasharray:none;marker-end:url(#Arrow2Mend)" id="path7092-8-2" d="M 348.46436,74.478977 C 312.52241,49.924315 315.47601,52.309799 311.44301,48.882043"/><path style="fill:none;stroke:#000;stroke-width:1.10514271;stroke-linecap:square;stroke-linejoin:miter;stroke-miterlimit:4;stroke-opacity:1;stroke-dasharray:none;marker-end:url(#Arrow2Mend)" id="path7092-8-6" d="M 149.55974,102.35503 C 199.86531,51.574705 195.73135,56.508011 201.37605,49.419244"/><path style="fill:none;stroke:#000;stroke-width:.84515506;stroke-linecap:square;stroke-linejoin:miter;stroke-miterlimit:4;stroke-opacity:1;stroke-dasharray:none;marker-end:url(#Arrow2Mend)" id="path7092-8-2-0" d="m 151.98151,68.474714 c 37.31475,-18.891043 34.24834,-17.05577 38.43538,-19.692908"/><text id="text8051-0" style="font-size:13.83749962px;font-style:normal;font-weight:700;text-align:start;text-anchor:start;fill:#000;font-family:Calibri" x="355.225" y="101.496" xml:space="preserve">BOPDS_InterfVZ</text><text id="text8051-6" style="font-size:13.83749962px;font-style:normal;font-weight:700;text-align:start;text-anchor:start;fill:#000;font-family:Calibri" x="355.225" y="135.678" xml:space="preserve">BOPDS_InterfEZ</text><text id="text8051-6-1" style="font-size:13.83749962px;font-style:normal;font-weight:700;text-align:start;text-anchor:start;fill:#000;font-family:Calibri" x="354.789" y="166.823" xml:space="preserve">BOPDS_InterfFZ</text><text id="text8051-6-1-3" style="font-size:13.83749962px;font-style:normal;font-weight:700;text-align:start;text-anchor:start;fill:#000;font-family:Calibri" x="354.232" y="206.323" xml:space="preserve">BOPDS_InterfZZ</text></g></g></svg>