<svg xmlns="http://www.w3.org/2000/svg" xmlns:svg="http://www.w3.org/2000/svg" id="svg2" width="393.907" height="170.253" version="1.1"><defs id="defs4"><clipPath id="clipEmfPath1" clipPathUnits="userSpaceOnUse"><rect id="rect2990" width="79.833" height="21.253" x="51.021" y="181.247"/></clipPath><clipPath id="clipEmfPath2" clipPathUnits="userSpaceOnUse"><rect id="rect2993" width="79.833" height="19.457" x="288.42" y="176.757"/></clipPath><clipPath id="clipEmfPath3" clipPathUnits="userSpaceOnUse"><rect id="rect2996" width="36.015" height="20.355" x="24.46" y="45.948"/></clipPath><clipPath id="clipEmfPath4" clipPathUnits="userSpaceOnUse"><rect id="rect2999" width="29.562" height="27.239" x="7.203" y="109.706"/></clipPath><clipPath id="clipEmfPath5" clipPathUnits="userSpaceOnUse"><rect id="rect3002" width="20.408" height="15.565" x="67.678" y="87.256"/></clipPath><clipPath id="clipEmfPath6" clipPathUnits="userSpaceOnUse"><rect id="rect3005" width="38.716" height="19.756" x="120.95" y="52.084"/></clipPath><clipPath id="clipEmfPath7" clipPathUnits="userSpaceOnUse"><rect id="rect3008" width="30.913" height="26.491" x="106.694" y="130.061"/></clipPath><clipPath id="clipEmfPath8" clipPathUnits="userSpaceOnUse"><rect id="rect3011" width="35.265" height="22.749" x="267.411" y="64.507"/></clipPath><clipPath id="clipEmfPath9" clipPathUnits="userSpaceOnUse"><rect id="rect3014" width="30.613" height="30.981" x="292.021" y="125.571"/></clipPath><clipPath id="clipEmfPath10" clipPathUnits="userSpaceOnUse"><rect id="rect3017" width="39.766" height="22.3" x="330.137" y="66.303"/></clipPath><clipPath id="clipEmfPath11" clipPathUnits="userSpaceOnUse"><rect id="rect3020" width="27.611" height="15.416" x="78.933" y="111.652"/></clipPath><clipPath id="clipEmfPath12" clipPathUnits="userSpaceOnUse"><rect id="rect3023" width="27.611" height="15.565" x="337.34" y="99.229"/></clipPath><clipPath id="clipEmfPath1-1" clipPathUnits="userSpaceOnUse"><rect id="rect3265" width="36.015" height="20.467" x="24.46" y="32.055"/></clipPath><clipPath id="clipEmfPath2-7" clipPathUnits="userSpaceOnUse"><rect id="rect3268" width="29.562" height="27.389" x="7.203" y="96.164"/></clipPath><clipPath id="clipEmfPath3-4" clipPathUnits="userSpaceOnUse"><rect id="rect3271" width="20.408" height="15.651" x="67.678" y="73.59"/></clipPath><clipPath id="clipEmfPath4-0" clipPathUnits="userSpaceOnUse"><rect id="rect3274" width="38.716" height="19.865" x="120.95" y="38.225"/></clipPath><clipPath id="clipEmfPath5-9" clipPathUnits="userSpaceOnUse"><rect id="rect3277" width="30.913" height="26.637" x="106.694" y="116.631"/></clipPath><clipPath id="clipEmfPath6-4" clipPathUnits="userSpaceOnUse"><rect id="rect3280" width="35.265" height="23.025" x="267.411" y="50.565"/></clipPath><clipPath id="clipEmfPath7-8" clipPathUnits="userSpaceOnUse"><rect id="rect3283" width="30.613" height="31.152" x="292.021" y="112.116"/></clipPath><clipPath id="clipEmfPath8-8" clipPathUnits="userSpaceOnUse"><rect id="rect3286" width="39.766" height="22.423" x="330.137" y="52.522"/></clipPath><clipPath id="clipEmfPath9-2" clipPathUnits="userSpaceOnUse"><rect id="rect3289" width="27.611" height="15.651" x="78.933" y="97.97"/></clipPath><clipPath id="clipEmfPath10-4" clipPathUnits="userSpaceOnUse"><rect id="rect3292" width="27.611" height="15.651" x="337.34" y="85.63"/></clipPath><clipPath id="clipEmfPath1-5" clipPathUnits="userSpaceOnUse"><rect id="rect3518" width="36.015" height="20.467" x="24.46" y="32.055"/></clipPath><clipPath id="clipEmfPath2-5" clipPathUnits="userSpaceOnUse"><rect id="rect3521" width="29.562" height="27.389" x="7.203" y="96.164"/></clipPath><clipPath id="clipEmfPath3-1" clipPathUnits="userSpaceOnUse"><rect id="rect3524" width="20.408" height="15.651" x="67.678" y="73.59"/></clipPath><clipPath id="clipEmfPath4-7" clipPathUnits="userSpaceOnUse"><rect id="rect3527" width="38.716" height="19.865" x="120.95" y="38.225"/></clipPath><clipPath id="clipEmfPath5-1" clipPathUnits="userSpaceOnUse"><rect id="rect3530" width="30.913" height="26.637" x="106.694" y="116.631"/></clipPath><clipPath id="clipEmfPath6-1" clipPathUnits="userSpaceOnUse"><rect id="rect3533" width="35.265" height="23.025" x="267.411" y="50.565"/></clipPath><clipPath id="clipEmfPath7-5" clipPathUnits="userSpaceOnUse"><rect id="rect3536" width="30.613" height="31.152" x="292.021" y="112.116"/></clipPath><clipPath id="clipEmfPath8-2" clipPathUnits="userSpaceOnUse"><rect id="rect3539" width="39.766" height="22.423" x="330.137" y="52.522"/></clipPath><clipPath id="clipEmfPath9-7" clipPathUnits="userSpaceOnUse"><rect id="rect3542" width="27.611" height="15.651" x="78.933" y="97.97"/></clipPath><clipPath id="clipEmfPath10-6" clipPathUnits="userSpaceOnUse"><rect id="rect3545" width="27.611" height="15.651" x="337.34" y="85.63"/></clipPath></defs><metadata id="metadata7"/><g id="layer1" transform="translate(89.058928,-286.58096)"><g id="g3294" transform="translate(-85.113711,280.22779)"><path id="path3298" d="m 44.484081,24.972216 c -19.583125,0 -35.4522088,15.914498 -35.4522088,35.553664 0,19.639167 15.8690838,35.553665 35.4522088,35.553665 19.583125,0 35.452208,-15.914498 35.452208,-35.553665 0,-19.639166 -15.869083,-35.553664 -35.452208,-35.553664" clip-path="url(#clipEmfPath0)" style="fill:none;stroke:#000;stroke-width:.9378891px;stroke-linecap:round;stroke-linejoin:round;stroke-opacity:1;stroke-dasharray:none"/><path id="path3300" d="m 44.080788,56.199244 c -1.950809,0 -3.535841,1.561352 -3.535841,3.480121 0,1.918769 1.585032,3.48012 3.535841,3.48012 1.95081,0 3.526464,-1.561351 3.526464,-3.48012 0,-1.918769 -1.575654,-3.480121 -3.526464,-3.480121" style="fill:#fff;fill-opacity:1;fill-rule:evenodd;stroke:none"/><path id="path3302" d="m 44.080788,56.199244 c -1.950809,0 -3.535841,1.561352 -3.535841,3.480121 0,1.918769 1.585032,3.48012 3.535841,3.48012 1.95081,0 3.526464,-1.561351 3.526464,-3.48012 0,-1.918769 -1.575654,-3.480121 -3.526464,-3.480121" style="fill:none;stroke:#000;stroke-width:2.06335616px;stroke-linecap:round;stroke-linejoin:round;stroke-opacity:1;stroke-dasharray:none"/><text id="text3304" style="font-size:13.80572796px;font-style:normal;font-weight:700;text-align:start;text-anchor:start;fill:#000;font-family:Calibri" x="24.46" y="45.148" xml:space="preserve">V</text><text id="text3306" style="font-size:8.70361137px;font-style:normal;font-weight:700;text-align:start;text-anchor:start;fill:#000;font-family:Calibri" x="32.564" y="47.104" xml:space="preserve">1</text><text id="text3308" style="font-size:8.70361137px;font-style:normal;font-weight:700;text-align:start;text-anchor:start;fill:#000;font-family:Calibri" x="36.915" y="47.104" xml:space="preserve">1</text><path id="path3312" d="m 42.608303,77.644311 c -19.583125,0 -35.452209,15.914498 -35.452209,35.553669 0,19.63916 15.869084,35.55366 35.452209,35.55366 19.583124,0 35.452208,-15.9145 35.452208,-35.55366 0,-19.639171 -15.869084,-35.553669 -35.452208,-35.553669" clip-path="url(#clipEmfPath1-1)" style="fill:none;stroke:#000;stroke-width:.9378891px;stroke-linecap:round;stroke-linejoin:round;stroke-opacity:1;stroke-dasharray:none"/><path id="path3314" d="m 42.20501,108.87134 c -1.950809,0 -3.535842,1.56135 -3.535842,3.48012 0,1.91877 1.585033,3.48012 3.535842,3.48012 1.95081,0 3.526463,-1.56135 3.526463,-3.48012 0,-1.91877 -1.575653,-3.48012 -3.526463,-3.48012" style="fill:#fff;fill-opacity:1;fill-rule:evenodd;stroke:none"/><path id="path3316" d="m 42.20501,108.87134 c -1.950809,0 -3.535842,1.56135 -3.535842,3.48012 0,1.91877 1.585033,3.48012 3.535842,3.48012 1.95081,0 3.526463,-1.56135 3.526463,-3.48012 0,-1.91877 -1.575653,-3.48012 -3.526463,-3.48012" style="fill:none;stroke:#000;stroke-width:2.06335616px;stroke-linecap:round;stroke-linejoin:round;stroke-opacity:1;stroke-dasharray:none"/><text id="text3318" style="font-size:13.80572796px;font-style:normal;font-weight:700;text-align:start;text-anchor:start;fill:#000;font-family:Calibri" x="7.203" y="109.257" xml:space="preserve">V</text><text id="text3320" style="font-size:8.70361137px;font-style:normal;font-weight:700;text-align:start;text-anchor:start;fill:#000;font-family:Calibri" x="15.306" y="111.213" xml:space="preserve">12</text><path id="path3324" d="m 87.62698,52.436952 c -19.583125,0 -35.452208,15.914497 -35.452208,35.553664 0,19.639164 15.869083,35.553664 35.452208,35.553664 19.58312,0 35.45221,-15.9145 35.45221,-35.553664 0,-19.639167 -15.86909,-35.553664 -35.45221,-35.553664" clip-path="url(#clipEmfPath2-7)" style="fill:none;stroke:#000;stroke-width:.9378891px;stroke-linecap:round;stroke-linejoin:round;stroke-opacity:1;stroke-dasharray:none"/><path id="path3326" d="m 87.223688,83.663979 c -1.95081,0 -3.535842,1.561352 -3.535842,3.480121 0,1.918769 1.585032,3.48012 3.535842,3.48012 1.950809,0 3.526463,-1.561351 3.526463,-3.48012 0,-1.918769 -1.575654,-3.480121 -3.526463,-3.480121" style="fill:#fff;fill-opacity:1;fill-rule:evenodd;stroke:none"/><path id="path3328" d="m 87.223688,83.663979 c -1.95081,0 -3.535842,1.561352 -3.535842,3.480121 0,1.918769 1.585032,3.48012 3.535842,3.48012 1.950809,0 3.526463,-1.561351 3.526463,-3.48012 0,-1.918769 -1.575654,-3.480121 -3.526463,-3.480121" style="fill:none;stroke:#000;stroke-width:2.06335616px;stroke-linecap:round;stroke-linejoin:round;stroke-opacity:1;stroke-dasharray:none"/><text id="text3330" style="font-size:13.80572796px;font-style:normal;font-weight:700;text-align:start;text-anchor:start;fill:#000;font-family:Calibri" x="67.678" y="86.683" xml:space="preserve">V</text><text id="text3332" style="font-size:8.70361137px;font-style:normal;font-weight:700;text-align:start;text-anchor:start;fill:#000;font-family:Calibri" x="75.781" y="88.64" xml:space="preserve">13</text><path id="path3336" d="m 132.64566,28.35828 c -19.58313,0 -35.452211,15.914497 -35.452211,35.553664 0,19.639167 15.869081,35.553664 35.452211,35.553664 19.58312,0 35.45221,-15.914497 35.45221,-35.553664 0,-19.639167 -15.86909,-35.553664 -35.45221,-35.553664" clip-path="url(#clipEmfPath3-4)" style="fill:none;stroke:#000;stroke-width:.9378891px;stroke-linecap:round;stroke-linejoin:round;stroke-opacity:1;stroke-dasharray:none"/><path id="path3338" d="m 132.24237,59.585307 c -1.95081,0 -3.53585,1.561352 -3.53585,3.480121 0,1.918769 1.58504,3.48012 3.53585,3.48012 1.9508,0 3.52646,-1.561351 3.52646,-3.48012 0,-1.918769 -1.57566,-3.480121 -3.52646,-3.480121" style="fill:#fff;fill-opacity:1;fill-rule:evenodd;stroke:none"/><path id="path3340" d="m 128.02264,56.209524 c -1.95081,0 -3.53585,1.561352 -3.53585,3.480121 0,1.918769 1.58504,3.48012 3.53585,3.48012 1.9508,0 3.52646,-1.561351 3.52646,-3.48012 0,-1.918769 -1.57566,-3.480121 -3.52646,-3.480121" style="fill:none;stroke:#000;stroke-width:2.06335616px;stroke-linecap:round;stroke-linejoin:round;stroke-opacity:1;stroke-dasharray:none"/><text id="text3342" style="font-size:13.80572796px;font-style:normal;font-weight:700;text-align:start;text-anchor:start;fill:#000;font-family:Calibri" x="120.95" y="51.318" xml:space="preserve">V</text><text id="text3344" style="font-size:8.70361137px;font-style:normal;font-weight:700;text-align:start;text-anchor:start;fill:#000;font-family:Calibri" x="129.054" y="53.274" xml:space="preserve">1</text><text id="text3346" style="font-size:8.70361137px;font-style:normal;font-weight:700;text-align:start;text-anchor:start;fill:#000;font-family:Calibri" x="133.405" y="53.274" xml:space="preserve">4</text><path id="path3350" d="m 124.76739,75.763165 c -19.58313,0 -35.452209,15.914497 -35.452209,35.553665 0,19.63917 15.869079,35.55366 35.452209,35.55366 19.58312,0 35.45221,-15.91449 35.45221,-35.55366 0,-19.639168 -15.86909,-35.553665 -35.45221,-35.553665" clip-path="url(#clipEmfPath4-0)" style="fill:none;stroke:#000;stroke-width:.9378891px;stroke-linecap:round;stroke-linejoin:round;stroke-opacity:1;stroke-dasharray:none"/><path id="path3352" d="m 124.3641,106.99019 c -1.95081,0 -3.53585,1.56135 -3.53585,3.48012 0,1.91877 1.58504,3.48012 3.53585,3.48012 1.95081,0 3.52646,-1.56135 3.52646,-3.48012 0,-1.91877 -1.57565,-3.48012 -3.52646,-3.48012" style="fill:#fff;fill-opacity:1;fill-rule:evenodd;stroke:none"/><path id="path3354" d="m 125.20805,111.20992 c -1.95081,0 -3.53585,1.56135 -3.53585,3.48012 0,1.91877 1.58504,3.48012 3.53585,3.48012 1.95081,0 3.52646,-1.56135 3.52646,-3.48012 0,-1.91877 -1.57565,-3.48012 -3.52646,-3.48012" style="fill:none;stroke:#000;stroke-width:2.06335616px;stroke-linecap:round;stroke-linejoin:round;stroke-opacity:1;stroke-dasharray:none"/><text id="text3356" style="font-size:13.80572796px;font-style:normal;font-weight:700;text-align:start;text-anchor:start;fill:#000;font-family:Calibri" x="106.694" y="129.724" xml:space="preserve">V</text><text id="text3358" style="font-size:8.70361137px;font-style:normal;font-weight:700;text-align:start;text-anchor:start;fill:#000;font-family:Calibri" x="114.798" y="131.68" xml:space="preserve">1</text><text id="text3360" style="font-size:8.70361137px;font-style:normal;font-weight:700;text-align:start;text-anchor:start;fill:#000;font-family:Calibri" x="119.149" y="131.68" xml:space="preserve">5</text><path id="path3364" d="m 299.52427,41.535709 c -19.56437,0 -35.45221,15.914497 -35.45221,35.553664 0,19.639167 15.88784,35.553667 35.45221,35.553667 19.58312,0 35.45221,-15.9145 35.45221,-35.553667 0,-19.639167 -15.86909,-35.553664 -35.45221,-35.553664" clip-path="url(#clipEmfPath5-9)" style="fill:none;stroke:#000;stroke-width:.9378891px;stroke-linecap:round;stroke-linejoin:round;stroke-opacity:1;stroke-dasharray:none"/><path id="path3366" d="m 299.12098,72.753331 c -1.95081,0 -3.53585,1.561351 -3.53585,3.480121 0,1.918769 1.58504,3.48012 3.53585,3.48012 1.95081,0 3.53584,-1.561351 3.53584,-3.48012 0,-1.91877 -1.58503,-3.480121 -3.53584,-3.480121" style="fill:#fff;fill-opacity:1;fill-rule:evenodd;stroke:none"/><path id="path3368" d="m 299.12098,72.753331 c -1.95081,0 -3.53585,1.561351 -3.53585,3.480121 0,1.918769 1.58504,3.48012 3.53585,3.48012 1.95081,0 3.53584,-1.561351 3.53584,-3.48012 0,-1.91877 -1.58503,-3.480121 -3.53584,-3.480121" style="fill:none;stroke:#000;stroke-width:2.06335616px;stroke-linecap:round;stroke-linejoin:round;stroke-opacity:1;stroke-dasharray:none"/><text id="text3370" style="font-size:13.80572796px;font-style:normal;font-weight:700;text-align:start;text-anchor:start;fill:#000;font-family:Calibri" x="267.411" y="63.658" xml:space="preserve">V</text><text id="text3372" style="font-size:8.70361137px;font-style:normal;font-weight:700;text-align:start;text-anchor:start;fill:#000;font-family:Calibri" x="275.514" y="65.614" xml:space="preserve">21</text><path id="path3376" d="m 326.53547,78.406176 c -19.56436,0 -35.4522,15.914497 -35.4522,35.553664 0,19.63917 15.88784,35.55366 35.4522,35.55366 19.58313,0 35.45221,-15.91449 35.45221,-35.55366 0,-19.639167 -15.86908,-35.553664 -35.45221,-35.553664" clip-path="url(#clipEmfPath6-4)" style="fill:none;stroke:#000;stroke-width:.9378891px;stroke-linecap:round;stroke-linejoin:round;stroke-opacity:1;stroke-dasharray:none"/><path id="path3378" d="m 326.14156,109.6332 c -1.95081,0 -3.54522,1.56135 -3.54522,3.48012 0,1.91877 1.59441,3.48012 3.54522,3.48012 1.95081,0 3.52646,-1.56135 3.52646,-3.48012 0,-1.91877 -1.57565,-3.48012 -3.52646,-3.48012" style="fill:#fff;fill-opacity:1;fill-rule:evenodd;stroke:none"/><path id="path3380" d="m 326.14156,109.6332 c -1.95081,0 -3.54522,1.56135 -3.54522,3.48012 0,1.91877 1.59441,3.48012 3.54522,3.48012 1.95081,0 3.52646,-1.56135 3.52646,-3.48012 0,-1.91877 -1.57565,-3.48012 -3.52646,-3.48012" style="fill:none;stroke:#000;stroke-width:2.06335616px;stroke-linecap:round;stroke-linejoin:round;stroke-opacity:1;stroke-dasharray:none"/><text id="text3382" style="font-size:13.80572796px;font-style:normal;font-weight:700;text-align:start;text-anchor:start;fill:#000;font-family:Calibri" x="292.021" y="125.209" xml:space="preserve">V</text><text id="text3384" style="font-size:8.70361137px;font-style:normal;font-weight:700;text-align:start;text-anchor:start;fill:#000;font-family:Calibri" x="300.125" y="127.165" xml:space="preserve">22</text><path id="path3388" d="m 350.17028,38.149646 c -19.56437,0 -35.45221,15.914497 -35.45221,35.553664 0,19.639167 15.88784,35.55366 35.45221,35.55366 19.58313,0 35.45221,-15.914493 35.45221,-35.55366 0,-19.639167 -15.86908,-35.553664 -35.45221,-35.553664" clip-path="url(#clipEmfPath7-8)" style="fill:none;stroke:#000;stroke-width:.9378891px;stroke-linecap:round;stroke-linejoin:round;stroke-opacity:1;stroke-dasharray:none"/><path id="path3390" d="m 349.77637,69.376674 c -1.95081,0 -3.54522,1.561351 -3.54522,3.48012 0,1.918769 1.59441,3.480121 3.54522,3.480121 1.95081,0 3.52646,-1.561352 3.52646,-3.480121 0,-1.918769 -1.57565,-3.48012 -3.52646,-3.48012" style="fill:#fff;fill-opacity:1;fill-rule:evenodd;stroke:none"/><path id="path3392" d="m 349.77637,69.376674 c -1.95081,0 -3.54522,1.561351 -3.54522,3.48012 0,1.918769 1.59441,3.480121 3.54522,3.480121 1.95081,0 3.52646,-1.561352 3.52646,-3.480121 0,-1.918769 -1.57565,-3.48012 -3.52646,-3.48012" style="fill:none;stroke:#000;stroke-width:2.06335616px;stroke-linecap:round;stroke-linejoin:round;stroke-opacity:1;stroke-dasharray:none"/><text id="text3394" style="font-size:13.80572796px;font-style:normal;font-weight:700;text-align:start;text-anchor:start;fill:#000;font-family:Calibri" x="330.137" y="65.614" xml:space="preserve">V</text><text id="text3396" style="font-size:8.70361137px;font-style:normal;font-weight:700;text-align:start;text-anchor:start;fill:#000;font-family:Calibri" x="338.24" y="67.571" xml:space="preserve">23</text><path id="path3400" d="m 87.251825,0.51731522 c -47.96365,0 -86.84853268,38.99616178 -86.84853268,87.09707078 0,48.110314 38.88488268,87.097074 86.84853268,87.097074 47.973025,0 86.848535,-38.98676 86.848535,-87.097074 0,-48.100909 -38.87551,-87.09707078 -86.848535,-87.09707078" clip-path="url(#clipEmfPath8-8)" style="fill:none;stroke:red;stroke-width:.9378891px;stroke-linecap:round;stroke-linejoin:round;stroke-opacity:1;stroke-dasharray:none"/><path id="path3402" d="m 87.467539,83.28775 c -1.950809,0 -3.526463,1.589569 -3.526463,3.545961 0,1.956392 1.575654,3.536555 3.526463,3.536555 1.960188,0 3.535842,-1.580163 3.535842,-3.536555 0,-1.956392 -1.575654,-3.545961 -3.535842,-3.545961" style="fill:none;stroke:red;stroke-width:2.06335616px;stroke-linecap:round;stroke-linejoin:round;stroke-opacity:1;stroke-dasharray:none"/><text id="text3404" style="font-size:13.80572796px;font-style:normal;font-weight:700;text-align:start;text-anchor:start;fill:red;font-family:Calibri" x="78.933" y="111.063" xml:space="preserve">V</text><text id="text3406" style="font-size:13.80572796px;font-style:normal;font-weight:700;text-align:start;text-anchor:start;fill:red;font-family:Calibri" x="87.036" y="111.063" xml:space="preserve">N</text><text id="text3408" style="font-size:8.70361137px;font-style:normal;font-weight:700;text-align:start;text-anchor:start;fill:red;font-family:Calibri" x="96.19" y="113.019" xml:space="preserve">1</text><path id="path3412" d="m 325.6351,21.971788 c -35.24587,0 -63.81397,28.649858 -63.81397,63.977784 0,35.346738 28.5681,63.996598 63.81397,63.996598 35.24587,0 63.81398,-28.64986 63.81398,-63.996598 0,-35.327926 -28.56811,-63.977784 -63.81398,-63.977784" clip-path="url(#clipEmfPath9-2)" style="fill:none;stroke:red;stroke-width:.9378891px;stroke-linecap:round;stroke-linejoin:round;stroke-opacity:1;stroke-dasharray:none"/><path id="path3414" d="m 326.19783,83.35359 c -1.9508,0 -3.52646,1.580163 -3.52646,3.536555 0,1.956392 1.57566,3.555367 3.52646,3.555367 1.95081,0 3.52647,-1.598975 3.52647,-3.555367 0,-1.956392 -1.57566,-3.536555 -3.52647,-3.536555" style="fill:none;stroke:red;stroke-width:2.06335616px;stroke-linecap:round;stroke-linejoin:round;stroke-opacity:1;stroke-dasharray:none"/><text id="text3416" style="font-size:13.80572796px;font-style:normal;font-weight:700;text-align:start;text-anchor:start;fill:red;font-family:Calibri" x="337.34" y="98.723" xml:space="preserve">V</text><text id="text3418" style="font-size:13.80572796px;font-style:normal;font-weight:700;text-align:start;text-anchor:start;fill:red;font-family:Calibri" x="345.443" y="98.723" xml:space="preserve">N</text><text id="text3420" style="font-size:8.70361137px;font-style:normal;font-weight:700;text-align:start;text-anchor:start;fill:red;font-family:Calibri" x="354.597" y="100.679" xml:space="preserve">2</text><path id="path3298-1" d="m 126.86379,29.13062 c -19.58313,0 -35.452207,15.914498 -35.452207,35.553664 0,19.63917 15.869077,35.553656 35.452207,35.553656 19.58312,0 35.45221,-15.914486 35.45221,-35.553656 0,-19.639166 -15.86909,-35.553664 -35.45221,-35.553664" clip-path="url(#clipEmfPath0)" style="fill:none;stroke:#000;stroke-width:.9378891px;stroke-linecap:round;stroke-linejoin:round;stroke-opacity:1;stroke-dasharray:none"/><path id="path3298-4" d="m 129.39562,81.455263 c -19.58312,0 -35.452195,15.914498 -35.452195,35.553667 0,19.63917 15.869075,35.55367 35.452195,35.55367 19.58313,0 35.45221,-15.9145 35.45221,-35.55367 0,-19.639169 -15.86908,-35.553667 -35.45221,-35.553667" clip-path="url(#clipEmfPath0)" style="fill:none;stroke:#000;stroke-width:.9378891px;stroke-linecap:round;stroke-linejoin:round;stroke-opacity:1;stroke-dasharray:none"/><path id="path3298-2" d="m 42.047237,80.61132 c -19.58313,0 -35.4522103,15.9145 -35.4522103,35.55366 0,19.63917 15.8690803,35.55367 35.4522103,35.55367 19.58312,0 35.4522,-15.9145 35.4522,-35.55367 0,-19.63916 -15.86908,-35.55366 -35.4522,-35.55366" clip-path="url(#clipEmfPath0)" style="fill:none;stroke:#000;stroke-width:.9378891px;stroke-linecap:round;stroke-linejoin:round;stroke-opacity:1;stroke-dasharray:none"/><path id="path3298-3" d="m 83.822551,48.963348 c -19.58312,0 -35.45221,15.914497 -35.45221,35.553667 0,19.639155 15.86909,35.553655 35.45221,35.553655 19.583129,0 35.452209,-15.9145 35.452209,-35.553655 0,-19.63917 -15.86908,-35.553667 -35.452209,-35.553667" clip-path="url(#clipEmfPath0)" style="fill:none;stroke:#000;stroke-width:.9378891px;stroke-linecap:round;stroke-linejoin:round;stroke-opacity:1;stroke-dasharray:none"/><path id="path3298-22" d="m 297.76283,42.633753 c -19.58313,0 -35.45221,15.914498 -35.45221,35.553663 0,19.63917 15.86908,35.553674 35.45221,35.553674 19.58312,0 35.45221,-15.914504 35.45221,-35.553674 0,-19.639165 -15.86909,-35.553663 -35.45221,-35.553663" clip-path="url(#clipEmfPath0)" style="fill:none;stroke:#000;stroke-width:.9378891px;stroke-linecap:round;stroke-linejoin:round;stroke-opacity:1;stroke-dasharray:none"/><path id="path3298-16" d="m 347.76662,34.892839 c -19.58312,0 -35.45221,15.914498 -35.45221,35.553664 0,19.639167 15.86909,35.553667 35.45221,35.553667 19.58313,0 35.45221,-15.9145 35.45221,-35.553667 0,-19.639166 -15.86908,-35.553664 -35.45221,-35.553664" clip-path="url(#clipEmfPath0)" style="fill:none;stroke:#000;stroke-width:.9378891px;stroke-linecap:round;stroke-linejoin:round;stroke-opacity:1;stroke-dasharray:none"/><path id="path3298-8" d="m 326.03502,73.437778 c -19.58312,0 -35.45221,15.914498 -35.45221,35.553662 0,19.63917 15.86909,35.55366 35.45221,35.55366 19.58313,0 35.45221,-15.91449 35.45221,-35.55366 0,-19.639164 -15.86908,-35.553662 -35.45221,-35.553662" clip-path="url(#clipEmfPath0)" style="fill:none;stroke:#000;stroke-width:.9378891px;stroke-linecap:round;stroke-linejoin:round;stroke-opacity:1;stroke-dasharray:none"/><path id="path3298-1-5" d="m 85.299461,6.6011714 c -49.160084,0 -88.9966776,37.9931926 -88.9966776,84.8784036 0,46.885225 39.8365936,84.878385 88.9966776,84.878385 49.160049,0 88.996659,-37.99316 88.996659,-84.878385 0,-46.885211 -39.83661,-84.8784036 -88.996659,-84.8784036" clip-path="url(#clipEmfPath0)" style="fill:none;stroke:#ed0000;stroke-width:.49599999;stroke-linecap:round;stroke-linejoin:round;stroke-miterlimit:4;stroke-opacity:1;stroke-dasharray:none"/><path id="path3298-1-5-7" d="m 324.7691,24.887597 c -35.91229,0 -65.01361,26.974591 -65.01361,60.26238 0,33.287803 29.10132,60.262363 65.01361,60.262363 35.91227,0 65.0136,-26.97456 65.0136,-60.262363 0,-33.287789 -29.10133,-60.26238 -65.0136,-60.26238" clip-path="url(#clipEmfPath0)" style="fill:none;stroke:#ed0000;stroke-width:.35720822;stroke-linecap:round;stroke-linejoin:round;stroke-miterlimit:4;stroke-opacity:1;stroke-dasharray:none"/><text xml:space="preserve" style="font-size:14px;font-style:normal;font-weight:400;line-height:125%;letter-spacing:0;word-spacing:0;fill:#000;fill-opacity:1;stroke:none;font-family:Sans" id="text4894" x="62.305" y="165.635"><tspan id="tspan4896" x="62.305" y="165.635">Chain 1</tspan></text><text xml:space="preserve" style="font-size:14px;font-style:normal;font-weight:400;line-height:125%;letter-spacing:0;word-spacing:0;fill:#000;fill-opacity:1;stroke:none;font-family:Sans" id="text4898" x="300.297" y="162.681"><tspan id="tspan4900" x="300.297" y="162.681">Chain 2</tspan></text></g></g></svg>