<svg xmlns="http://www.w3.org/2000/svg" xmlns:svg="http://www.w3.org/2000/svg" id="svg2" width="171.408" height="178.583" version="1.1"><defs id="defs4"><clipPath id="clipEmfPath1" clipPathUnits="userSpaceOnUse"><rect id="rect2990" width="20.286" height="18" x="27.401" y="47.193"/></clipPath><clipPath id="clipEmfPath2" clipPathUnits="userSpaceOnUse"><rect id="rect2993" width="20.286" height="18" x="130.948" y="46.74"/></clipPath><clipPath id="clipEmfPath3" clipPathUnits="userSpaceOnUse"><rect id="rect2996" width="20.286" height="18.151" x="76.146" y="4.992"/></clipPath><clipPath id="clipEmfPath4" clipPathUnits="userSpaceOnUse"><rect id="rect2999" width="20.437" height="18.151" x="97.794" y="101.496"/></clipPath><clipPath id="clipEmfPath5" clipPathUnits="userSpaceOnUse"><rect id="rect3002" width="54.801" height="18" x="66.609" y="132.807"/></clipPath><clipPath id="clipEmfPath6" clipPathUnits="userSpaceOnUse"><rect id="rect3005" width="54.953" height="18.151" x="11.202" y="11.193"/></clipPath><clipPath id="clipEmfPath7" clipPathUnits="userSpaceOnUse"><rect id="rect3008" width="54.953" height="18.151" x="112.024" y="12.101"/></clipPath></defs><metadata id="metadata7"/><g id="layer1" transform="translate(65.702496,-323.07573)"><g id="g3010" transform="translate(-64.79419,323.17051)"><path id="path3014" d="m 67.772908,25.771055 34.562952,0" style="fill:none;stroke:#000;stroke-width:.94615257px;stroke-linecap:round;stroke-linejoin:round;stroke-opacity:1;stroke-dasharray:none"/><path id="path3016" d="m 67.271447,49.216476 34.562953,0" style="fill:none;stroke:#000;stroke-width:.94615257px;stroke-linecap:round;stroke-linejoin:round;stroke-opacity:1;stroke-dasharray:none"/><path id="path3018" d="m 40.779175,37.266875 2.838458,0 c 0.255461,0 0.473076,0.217437 0.473076,0.472689 0,0.264707 -0.217615,0.47269 -0.473076,0.47269 l -2.838458,0 c -0.264922,0 -0.473076,-0.207983 -0.473076,-0.47269 0,-0.255252 0.208154,-0.472689 0.473076,-0.472689 z m 6.623068,0 2.838458,0 c 0.255461,0 0.473076,0.217437 0.473076,0.472689 0,0.264707 -0.217615,0.47269 -0.473076,0.47269 l -2.838458,0 c -0.264922,0 -0.473076,-0.207983 -0.473076,-0.47269 0,-0.255252 0.208154,-0.472689 0.473076,-0.472689 z m 6.623068,0 2.838458,0 c 0.255461,0 0.473076,0.217437 0.473076,0.472689 0,0.264707 -0.217615,0.47269 -0.473076,0.47269 l -2.838458,0 c -0.264923,0 -0.473076,-0.207983 -0.473076,-0.47269 0,-0.255252 0.208153,-0.472689 0.473076,-0.472689 z m 6.623068,0 2.838458,0 c 0.255461,0 0.473076,0.217437 0.473076,0.472689 0,0.264707 -0.217615,0.47269 -0.473076,0.47269 l -2.838458,0 c -0.264923,0 -0.473076,-0.207983 -0.473076,-0.47269 0,-0.255252 0.208153,-0.472689 0.473076,-0.472689 z m 6.623068,0 2.838458,0 c 0.255461,0 0.473076,0.217437 0.473076,0.472689 0,0.264707 -0.217615,0.47269 -0.473076,0.47269 l -2.838458,0 c -0.264923,0 -0.473076,-0.207983 -0.473076,-0.47269 0,-0.255252 0.208153,-0.472689 0.473076,-0.472689 z m 6.623068,0 2.838458,0 c 0.255461,0 0.473076,0.217437 0.473076,0.472689 0,0.264707 -0.217615,0.47269 -0.473076,0.47269 l -2.838458,0 c -0.264923,0 -0.473076,-0.207983 -0.473076,-0.47269 0,-0.255252 0.208153,-0.472689 0.473076,-0.472689 z m 6.623068,0 2.838457,0 c 0.255462,0 0.473077,0.217437 0.473077,0.472689 0,0.264707 -0.217615,0.47269 -0.473077,0.47269 l -2.838457,0 c -0.264923,0 -0.473076,-0.207983 -0.473076,-0.47269 0,-0.255252 0.208153,-0.472689 0.473076,-0.472689 z m 6.623068,0 2.838457,0 c 0.255462,0 0.473077,0.217437 0.473077,0.472689 0,0.264707 -0.217615,0.47269 -0.473077,0.47269 l -2.838457,0 c -0.264923,0 -0.473077,-0.207983 -0.473077,-0.47269 0,-0.255252 0.208154,-0.472689 0.473077,-0.472689 z m 6.623068,0 2.838457,0 c 0.255461,0 0.473077,0.217437 0.473077,0.472689 0,0.264707 -0.217616,0.47269 -0.473077,0.47269 l -2.838457,0 c -0.264923,0 -0.473077,-0.207983 -0.473077,-0.47269 0,-0.255252 0.208154,-0.472689 0.473077,-0.472689 z m 6.623071,0 2.83845,0 c 0.25547,0 0.47308,0.217437 0.47308,0.472689 0,0.264707 -0.21761,0.47269 -0.47308,0.47269 l -2.83845,0 c -0.26493,0 -0.47308,-0.207983 -0.47308,-0.47269 0,-0.255252 0.20815,-0.472689 0.47308,-0.472689 z m 6.62306,0 2.83846,0 c 0.25546,0 0.47308,0.217437 0.47308,0.472689 0,0.264707 -0.21762,0.47269 -0.47308,0.47269 l -2.83846,0 c -0.26492,0 -0.47307,-0.207983 -0.47307,-0.47269 0,-0.255252 0.20815,-0.472689 0.47307,-0.472689 z m 6.62307,0 2.83846,0 c 0.25546,0 0.47308,0.217437 0.47308,0.472689 0,0.264707 -0.21762,0.47269 -0.47308,0.47269 l -2.83846,0 c -0.26492,0 -0.47307,-0.207983 -0.47307,-0.47269 0,-0.255252 0.20815,-0.472689 0.47307,-0.472689 z m 6.62307,0 2.83846,0 c 0.25546,0 0.47307,0.217437 0.47307,0.472689 0,0.264707 -0.21761,0.47269 -0.47307,0.47269 l -2.83846,0 c -0.26492,0 -0.47308,-0.207983 -0.47308,-0.47269 0,-0.255252 0.20816,-0.472689 0.47308,-0.472689 z m 6.62307,0 2.83846,0 c 0.25546,0 0.47307,0.217437 0.47307,0.472689 0,0.264707 -0.21761,0.47269 -0.47307,0.47269 l -2.83846,0 c -0.26492,0 -0.47308,-0.207983 -0.47308,-0.47269 0,-0.255252 0.20816,-0.472689 0.47308,-0.472689 z" style="fill:#000;fill-opacity:1;fill-rule:nonzero;stroke:#000;stroke-width:.15138441px;stroke-linecap:butt;stroke-linejoin:bevel;stroke-opacity:1;stroke-dasharray:none"/><path id="path3020" d="m 36.360643,1.314078 c -19.755666,0 -35.76456689,15.995827 -35.76456689,35.735359 0,19.739532 16.00890089,35.735359 35.76456689,35.735359 19.755665,0 35.764567,-15.995827 35.764567,-35.735359 0,-19.739532 -16.008902,-35.735359 -35.764567,-35.735359" style="fill:#fff;fill-opacity:1;fill-rule:evenodd;stroke:none"/><path id="path3022" d="m 36.360643,1.314078 c -19.755666,0 -35.76456689,15.995827 -35.76456689,35.735359 0,19.739532 16.00890089,35.735359 35.76456689,35.735359 19.755665,0 35.764567,-15.995827 35.764567,-35.735359 0,-19.739532 -16.008902,-35.735359 -35.764567,-35.735359" style="fill:none;stroke:#000;stroke-width:.94615257px;stroke-linecap:round;stroke-linejoin:round;stroke-opacity:1;stroke-dasharray:none"/><path id="path3024" d="m 35.130645,32.889766 c -2.488382,0 -4.513148,2.023113 -4.513148,4.509462 0,2.486349 2.024766,4.500008 4.513148,4.500008 2.488381,0 4.513147,-2.013659 4.513147,-4.500008 0,-2.486349 -2.024766,-4.509462 -4.513147,-4.509462" style="fill:#fff;fill-opacity:1;fill-rule:evenodd;stroke:none"/><path id="path3026" d="m 35.130645,32.889766 c -2.488382,0 -4.513148,2.023113 -4.513148,4.509462 0,2.486349 2.024766,4.500008 4.513148,4.500008 2.488381,0 4.513147,-2.013659 4.513147,-4.500008 0,-2.486349 -2.024766,-4.509462 -4.513147,-4.509462" style="fill:none;stroke:#000;stroke-width:2.83845758px;stroke-linecap:round;stroke-linejoin:round;stroke-opacity:1;stroke-dasharray:none"/><text id="text3028" style="font-size:13.9273653px;font-style:normal;font-weight:700;text-align:start;text-anchor:start;fill:#000;font-family:Calibri" x="27.401" y="60.353" xml:space="preserve">V</text><text id="text3030" style="font-size:8.78029537px;font-style:normal;font-weight:700;text-align:start;text-anchor:start;fill:#000;font-family:Calibri" x="35.575" y="62.319" xml:space="preserve">21</text><path id="path3034" d="m 134.25905,0.36869815 c -19.75567,0 -35.764569,15.99582785 -35.764569,35.73535885 0,19.739532 16.008899,35.735359 35.764569,35.735359 19.75566,0 35.76456,-15.995827 35.76456,-35.735359 0,-19.739531 -16.0089,-35.73535885 -35.76456,-35.73535885" clip-path="url(#clipEmfPath1)" style="fill:#fff;fill-opacity:1;fill-rule:evenodd;stroke:none"/><path id="path3036" d="m 134.25905,0.36869815 c -19.75567,0 -35.764569,15.99582785 -35.764569,35.73535885 0,19.739532 16.008899,35.735359 35.764569,35.735359 19.75566,0 35.76456,-15.995827 35.76456,-35.735359 0,-19.739531 -16.0089,-35.73535885 -35.76456,-35.73535885" style="fill:none;stroke:#000;stroke-width:.94615257px;stroke-linecap:round;stroke-linejoin:round;stroke-opacity:1;stroke-dasharray:none"/><path id="path3038" d="m 134.47666,31.944386 c -2.48838,0 -4.51314,2.023113 -4.51314,4.509462 0,2.486349 2.02476,4.500008 4.51314,4.500008 2.48838,0 4.51315,-2.013659 4.51315,-4.500008 0,-2.486349 -2.02477,-4.509462 -4.51315,-4.509462" style="fill:#fff;fill-opacity:1;fill-rule:evenodd;stroke:none"/><path id="path3040" d="m 134.47666,31.944386 c -2.48838,0 -4.51314,2.023113 -4.51314,4.509462 0,2.486349 2.02476,4.500008 4.51314,4.500008 2.48838,0 4.51315,-2.013659 4.51315,-4.500008 0,-2.486349 -2.02477,-4.509462 -4.51315,-4.509462" style="fill:none;stroke:#000;stroke-width:2.83845758px;stroke-linecap:round;stroke-linejoin:round;stroke-opacity:1;stroke-dasharray:none"/><path id="path3042" d="m 130.8529,46.626135 0,18.151294 20.43689,0 0,-18.151294 -20.43689,0 z" style="fill:#fff;fill-opacity:1;fill-rule:evenodd;stroke:none"/><text id="text3044" style="font-size:13.9273653px;font-style:normal;font-weight:700;text-align:start;text-anchor:start;fill:#000;font-family:Calibri" x="130.948" y="59.899" xml:space="preserve">V</text><text id="text3046" style="font-size:8.78029537px;font-style:normal;font-weight:700;text-align:start;text-anchor:start;fill:#000;font-family:Calibri" x="139.122" y="61.866" xml:space="preserve">22</text><text id="text3050" style="font-size:13.9273653px;font-style:normal;font-weight:700;text-align:start;text-anchor:start;fill:#000;font-family:Calibri" x="76.146" y="18.151" xml:space="preserve">E</text><text id="text3052" style="font-size:8.78029537px;font-style:normal;font-weight:700;text-align:start;text-anchor:start;fill:#000;font-family:Calibri" x="82.959" y="20.118" xml:space="preserve">2</text><path id="path3056" d="m 83.384425,54.255351 c -31.090573,0 -56.296077,24.86349 -56.296077,55.522159 0,30.66812 25.205504,55.53161 56.296077,55.53161 31.090575,0 56.296075,-24.86349 56.296075,-55.53161 0,-30.658669 -25.2055,-55.522159 -56.296075,-55.522159" clip-path="url(#clipEmfPath3)" style="fill:#fff;fill-opacity:1;fill-rule:evenodd;stroke:none"/><path id="path3058" d="m 83.384425,54.255351 c -31.090573,0 -56.296077,24.86349 -56.296077,55.522159 0,30.66812 25.205504,55.53161 56.296077,55.53161 31.090575,0 56.296075,-24.86349 56.296075,-55.53161 0,-30.658669 -25.2055,-55.522159 -56.296075,-55.522159" style="fill:none;stroke:#000;stroke-width:.94615257px;stroke-linecap:round;stroke-linejoin:round;stroke-opacity:1;stroke-dasharray:none"/><path id="path3060" d="m 83.829117,103.79326 c -2.488381,0 -4.513148,2.02311 -4.513148,4.50946 0,2.48635 2.024767,4.50001 4.513148,4.50001 2.488381,0 4.503686,-2.01366 4.503686,-4.50001 0,-2.48635 -2.015305,-4.50946 -4.503686,-4.50946" style="fill:#fff;fill-opacity:1;fill-rule:evenodd;stroke:none"/><path id="path3062" d="m 83.829117,103.79326 c -2.488381,0 -4.513148,2.02311 -4.513148,4.50946 0,2.48635 2.024767,4.50001 4.513148,4.50001 2.488381,0 4.503686,-2.01366 4.503686,-4.50001 0,-2.48635 -2.015305,-4.50946 -4.503686,-4.50946" style="fill:none;stroke:#000;stroke-width:2.83845758px;stroke-linecap:round;stroke-linejoin:round;stroke-opacity:1;stroke-dasharray:none"/><text id="text3064" style="font-size:13.9273653px;font-style:normal;font-weight:700;text-align:start;text-anchor:start;fill:#000;font-family:Calibri" x="97.794" y="114.656" xml:space="preserve">V</text><text id="text3066" style="font-size:8.78029537px;font-style:normal;font-weight:700;text-align:start;text-anchor:start;fill:#000;font-family:Calibri" x="105.969" y="116.622" xml:space="preserve">1</text><path id="path3070" d="m 80.536506,112.73655 -30.257959,32.26581 c -0.236538,0.25526 -0.633922,0.26471 -0.889383,0.0284 -0.255462,-0.23635 -0.264923,-0.63341 -0.02839,-0.88866 l 30.248497,-32.26582 c 0.246,-0.25525 0.643384,-0.27416 0.898845,-0.0378 0.255461,0.2458 0.264923,0.64286 0.02839,0.89811 z m -27.088348,33.50426 -7.93822,2.93068 2.412689,-8.10191 z" clip-path="url(#clipEmfPath4)" style="fill:#000;fill-opacity:1;fill-rule:nonzero;stroke:#000;stroke-width:.15138441px;stroke-linecap:butt;stroke-linejoin:bevel;stroke-opacity:1;stroke-dasharray:none"/><text id="text3072" style="font-size:13.9273653px;font-style:normal;font-weight:700;text-align:start;text-anchor:start;fill:#000;font-family:Calibri" x="66.609" y="145.967" xml:space="preserve">Tol(V</text><text id="text3074" style="font-size:8.78029537px;font-style:normal;font-weight:700;text-align:start;text-anchor:start;fill:#000;font-family:Calibri" x="97.037" y="147.933" xml:space="preserve">1</text><text id="text3076" style="font-size:13.9273653px;font-style:normal;font-weight:700;text-align:start;text-anchor:start;fill:#000;font-family:Calibri" x="101.428" y="145.967" xml:space="preserve">)</text><text id="text3080" style="font-size:13.9273653px;font-style:normal;font-weight:700;text-align:start;text-anchor:start;fill:#000;font-family:Calibri" x="11.202" y="24.353" xml:space="preserve">Tol(V</text><text id="text3082" style="font-size:8.78029537px;font-style:normal;font-weight:700;text-align:start;text-anchor:start;fill:#000;font-family:Calibri" x="41.631" y="26.319" xml:space="preserve">21</text><text id="text3084" style="font-size:13.9273653px;font-style:normal;font-weight:700;text-align:start;text-anchor:start;fill:#000;font-family:Calibri" x="50.411" y="24.353" xml:space="preserve">)</text><text id="text3088" style="font-size:13.9273653px;font-style:normal;font-weight:700;text-align:start;text-anchor:start;fill:#000;font-family:Calibri" x="112.024" y="25.261" xml:space="preserve">Tol(V</text><text id="text3090" style="font-size:8.78029537px;font-style:normal;font-weight:700;text-align:start;text-anchor:start;fill:#000;font-family:Calibri" x="142.453" y="27.227" xml:space="preserve">22</text><text id="text3092" style="font-size:13.9273653px;font-style:normal;font-weight:700;text-align:start;text-anchor:start;fill:#000;font-family:Calibri" x="151.233" y="25.261" xml:space="preserve">)</text><path id="path3096" d="M 28.923884,38.25007 7.3516054,38.29734 c -0.3500765,0 -0.6339222,-0.283614 -0.6339222,-0.633405 0,-0.340337 0.2743842,-0.623951 0.6244607,-0.623951 l 21.5722781,-0.05672 c 0.350077,0 0.633922,0.283614 0.633922,0.633404 0,0.349791 -0.283845,0.633405 -0.62446,0.633405 z m -20.3044342,3.195384 -7.578682,-3.762612 7.559759,-3.800427 z" clip-path="url(#clipEmfPath7)" style="fill:#000;fill-opacity:1;fill-rule:nonzero;stroke:#000;stroke-width:.15138441px;stroke-linecap:butt;stroke-linejoin:bevel;stroke-opacity:1;stroke-dasharray:none"/><path id="path3098" d="m 139.17904,35.536829 23.46458,0 c 0.35008,0 0.62447,0.283614 0.62447,0.633405 0,0.34979 -0.27439,0.623951 -0.62447,0.623951 l -23.46458,0 c -0.35007,0 -0.63392,-0.274161 -0.63392,-0.623951 0,-0.349791 0.28385,-0.633405 0.63392,-0.633405 z m 22.19674,-3.148115 7.56922,3.78152 -7.56922,3.781519 z" style="fill:#000;fill-opacity:1;fill-rule:nonzero;stroke:#000;stroke-width:.15138441px;stroke-linecap:butt;stroke-linejoin:bevel;stroke-opacity:1;stroke-dasharray:none"/></g></g></svg>