<svg xmlns="http://www.w3.org/2000/svg" xmlns:svg="http://www.w3.org/2000/svg" xmlns:xlink="http://www.w3.org/1999/xlink" id="svg5449" width="584.785" height="346.517" version="1.1"><defs id="defs5451"><clipPath id="clipEmfPath1" clipPathUnits="userSpaceOnUse"><rect id="rect5462" width="42.528" height="20.436" x="17.432" y="236.22"/></clipPath><clipPath id="clipEmfPath2" clipPathUnits="userSpaceOnUse"><rect id="rect5465" width="13.976" height="15.778" x="153.13" y="176.113"/></clipPath><clipPath id="clipEmfPath3" clipPathUnits="userSpaceOnUse"><rect id="rect5468" width="70.178" height="20.436" x="153.13" y="228.707"/></clipPath><clipPath id="clipEmfPath4" clipPathUnits="userSpaceOnUse"><rect id="rect5471" width="14.126" height="20.286" x="67.774" y="262.967"/></clipPath><clipPath id="clipEmfPath5" clipPathUnits="userSpaceOnUse"><rect id="rect5474" width="13.976" height="15.778" x="504.022" y="176.864"/></clipPath><clipPath id="clipEmfPath6" clipPathUnits="userSpaceOnUse"><rect id="rect5477" width="14.126" height="20.286" x="400.632" y="61.61"/></clipPath><clipPath id="clipEmfPath7" clipPathUnits="userSpaceOnUse"><rect id="rect5480" width="47.787" height="15.778" x="285.672" y="128.028"/></clipPath><clipPath id="clipEmfPath8" clipPathUnits="userSpaceOnUse"><rect id="rect5483" width="18.484" height="15.628" x="448.72" y="155.526"/></clipPath><clipPath id="clipEmfPath9" clipPathUnits="userSpaceOnUse"><rect id="rect5486" width="13.976" height="20.286" x="434.895" y="0"/></clipPath><clipPath id="clipEmfPath10" clipPathUnits="userSpaceOnUse"><rect id="rect5489" width="13.074" height="15.778" x="378.542" y="256.506"/></clipPath><linearGradient id="linearGradient8429" x1="110.769" x2="361.977" y1="67.881" y2="67.881" gradientUnits="userSpaceOnUse" spreadMethod="reflect" xlink:href="#linearGradient8423"/><linearGradient id="linearGradient8423"><stop style="stop-color:#e6e6e6;stop-opacity:1" id="stop8425" offset="0"/><stop style="stop-color:#e6e6e6;stop-opacity:0" id="stop8427" offset="1"/></linearGradient><linearGradient id="linearGradient9240" x1="110.769" x2="361.977" y1="67.881" y2="67.881" gradientTransform="translate(-110.78355,86.858072)" gradientUnits="userSpaceOnUse" spreadMethod="reflect" xlink:href="#linearGradient8423"/><linearGradient id="linearGradient9240-6" x1="110.769" x2="361.977" y1="67.881" y2="67.881" gradientTransform="translate(-110.78355,86.858072)" gradientUnits="userSpaceOnUse" spreadMethod="reflect" xlink:href="#linearGradient8423-0"/><linearGradient id="linearGradient8423-0"><stop style="stop-color:#e6e6e6;stop-opacity:1" id="stop8425-3" offset="0"/><stop style="stop-color:#e6e6e6;stop-opacity:0" id="stop8427-6" offset="1"/></linearGradient><linearGradient id="linearGradient9320" x1="110.769" x2="361.977" y1="67.881" y2="67.881" gradientTransform="translate(221.10825,93.8465)" gradientUnits="userSpaceOnUse" spreadMethod="reflect" xlink:href="#linearGradient8423-0"/></defs><metadata id="metadata5454"/><g id="layer1" transform="translate(210.18628,-240.65622)"><g id="g5491" transform="translate(-209.88573,236.75033)"><path id="path5188-8-2" d="m 394.75926,111.82294 -62.72198,99.8092 188.16589,0 62.72197,-99.8092 z" style="fill:url(#linearGradient9320);fill-opacity:1;stroke:#000;stroke-width:.32020226px;stroke-linecap:round;stroke-linejoin:round;stroke-opacity:1;stroke-dasharray:none"/><path style="fill:none;stroke:#000;stroke-width:1.40773749;stroke-linecap:butt;stroke-linejoin:miter;stroke-miterlimit:4;stroke-opacity:1;stroke-dasharray:none" id="path9261" d="m 426.3364,176.31047 -14.09469,-6.11506"/><path id="path5613" d="m 396.01672,98.251149 -62.55187,99.927651 187.6556,0 62.55187,-99.927651 z" style="fill:none;stroke:#000;stroke-width:.93921721px;stroke-linecap:round;stroke-linejoin:round;stroke-opacity:1;stroke-dasharray:none"/><path id="path5188-8" d="m 62.867449,104.83451 -62.72198013,99.8092 188.16590113,0 62.72197,-99.8092 z" style="fill:url(#linearGradient9240);fill-opacity:1;stroke:#000;stroke-width:.32020226px;stroke-linecap:round;stroke-linejoin:round;stroke-opacity:1;stroke-dasharray:none"/><path id="path5533" d="m 63.810417,116.07198 -62.5518659,99.92764 187.6555989,0 62.55187,-99.92764 z" style="fill:none;stroke:#000;stroke-width:.30994168px;stroke-linecap:round;stroke-linejoin:round;stroke-opacity:1;stroke-dasharray:none"/><path id="path5525" d="m 63.158137,94.365467 -62.55186545,99.927653 187.65559845,0 62.55187,-99.927653 z" style="fill:none;stroke:#000;stroke-width:.93921721px;stroke-linecap:round;stroke-linejoin:round;stroke-opacity:1;stroke-dasharray:none"/><text id="text5495" style="font-size:13.82527733px;font-style:normal;font-weight:700;text-align:start;text-anchor:start;fill:#000;font-family:Calibri" x="17.432" y="249.293" xml:space="preserve">Tol(Ei)</text><path id="path5499" d="m 63.810417,104.80194 -62.5518659,99.92765 187.6555989,0 62.55187,-99.92765 z" style="fill:none;stroke:none"/><text id="text5527" style="font-size:13.82527733px;font-style:normal;font-weight:700;text-align:start;text-anchor:start;fill:#000;font-family:Calibri" x="153.13" y="189.186" xml:space="preserve">Fj</text><path id="path5535" d="m 131.24621,178.05717 0,68.37155" style="fill:none;stroke:#000;stroke-width:.30994168px;stroke-linecap:round;stroke-linejoin:round;stroke-opacity:1;stroke-dasharray:none"/><path id="path5537" d="m 131.49041,179.57863 -0.20663,8.01111 c -0.009,0.3475 -0.30055,0.61985 -0.63867,0.61046 -0.34751,-0.009 -0.61988,-0.29114 -0.61049,-0.63863 l 0.20663,-8.02051 c 0.009,-0.3381 0.30055,-0.61046 0.64806,-0.61046 0.33812,0.009 0.61049,0.30053 0.6011,0.64803 z m 2.95853,6.84654 -3.9541,7.41005 -3.55963,-7.60727 z" style="fill:#000;fill-opacity:1;fill-rule:nonzero;stroke:#000;stroke-width:.15027475px;stroke-linecap:butt;stroke-linejoin:bevel;stroke-opacity:1;stroke-dasharray:none"/><path id="path5539" d="m 130.24125,227.64533 0,-5.75711 c 0,-0.34749 0.28177,-0.62925 0.62928,-0.62925 0.34751,0 0.61988,0.28176 0.61988,0.62925 l 0,5.75711 c 0,0.34749 -0.27237,0.62924 -0.61988,0.62924 -0.34751,0 -0.62928,-0.28175 -0.62928,-0.62924 z m -3.12759,-4.50802 3.75687,-7.51335 3.75686,7.51335 z" style="fill:#000;fill-opacity:1;fill-rule:nonzero;stroke:#000;stroke-width:.15027475px;stroke-linecap:butt;stroke-linejoin:bevel;stroke-opacity:1;stroke-dasharray:none"/><path id="path5541" d="m 204.50516,247.05796 -73.63463,0" style="fill:none;stroke:#000;stroke-width:.30994168px;stroke-linecap:round;stroke-linejoin:round;stroke-opacity:1;stroke-dasharray:none"/><text id="text5543" style="font-size:13.82527733px;font-style:normal;font-weight:700;text-align:start;text-anchor:start;fill:#000;font-family:Calibri" x="153.13" y="241.78" xml:space="preserve">2</text><text id="text5545" style="font-size:13.82527733px;font-style:normal;font-weight:700;text-align:start;text-anchor:start;fill:#000;font-family:Calibri" x="160.193" y="241.78" xml:space="preserve">·</text><text id="text5547" style="font-size:13.82527733px;font-style:normal;font-weight:700;text-align:start;text-anchor:start;fill:#000;font-family:Calibri" x="163.799" y="241.78" xml:space="preserve">Tol(Fj)</text><text id="text5551" style="font-size:13.82527733px;font-style:normal;font-weight:700;text-align:start;text-anchor:start;fill:#000;font-family:Calibri" x="67.774" y="276.041" xml:space="preserve">Ei</text><path id="path5555" d="M 96.68302,31.048948 97.058707,168.54338" clip-path="url(#clipEmfPath4)" style="fill:none;stroke:#000;stroke-width:2.81765175px;stroke-linecap:butt;stroke-linejoin:round;stroke-opacity:1;stroke-dasharray:none"/><path id="path5557" d="m 83.533979,32.55162 0.375687,259.58649" style="fill:none;stroke:#000;stroke-width:.30994168px;stroke-linecap:round;stroke-linejoin:round;stroke-opacity:1;stroke-dasharray:none"/><path id="path5559" d="m 109.83206,32.175952 0.37569,259.586488" style="fill:none;stroke:#000;stroke-width:.30994168px;stroke-linecap:round;stroke-linejoin:round;stroke-opacity:1;stroke-dasharray:none"/><path id="path5561" d="m 96.870863,286.87876 c -7.156835,0 -12.961197,2.43245 -12.961197,5.44718 0,3.00534 5.804362,5.44718 12.961197,5.44718 7.156837,0 12.961197,-2.44184 12.961197,-5.44718 0,-3.01473 -5.80436,-5.44718 -12.961197,-5.44718" style="fill:none;stroke:#000;stroke-width:.30994168px;stroke-linecap:round;stroke-linejoin:round;stroke-opacity:1;stroke-dasharray:none"/><path id="path5563" d="m 96.495176,25.41393 c -7.156835,0 -12.961197,2.43245 -12.961197,5.447184 0,3.005343 5.804362,5.447184 12.961197,5.447184 7.156834,0 12.961194,-2.441841 12.961194,-5.447184 0,-3.014734 -5.80436,-5.447184 -12.961194,-5.447184" style="fill:none;stroke:#000;stroke-width:.30994168px;stroke-linecap:round;stroke-linejoin:round;stroke-opacity:1;stroke-dasharray:none"/><path id="path5565" d="m 96.833294,26.165266 c -1.953571,0 -3.531456,1.577805 -3.531456,3.531278 0,1.962864 1.577885,3.540669 3.531456,3.540669 1.962964,0 3.540846,-1.577805 3.540846,-3.540669 0,-1.953473 -1.577882,-3.531278 -3.540846,-3.531278" style="fill:#fff;fill-opacity:1;fill-rule:evenodd;stroke:none"/><path id="path5567" d="m 96.833294,26.165266 c -1.953571,0 -3.531456,1.577805 -3.531456,3.531278 0,1.962864 1.577885,3.540669 3.531456,3.540669 1.962964,0 3.540846,-1.577805 3.540846,-3.540669 0,-1.953473 -1.577882,-3.531278 -3.540846,-3.531278" style="fill:none;stroke:#000;stroke-width:2.06627798px;stroke-linecap:round;stroke-linejoin:round;stroke-opacity:1;stroke-dasharray:none"/><path id="path5569" d="m 96.833294,288.7571 c -1.953571,0 -3.531456,1.5778 -3.531456,3.53127 0,1.96287 1.577885,3.54067 3.531456,3.54067 1.962964,0 3.540846,-1.5778 3.540846,-3.54067 0,-1.95347 -1.577882,-3.53127 -3.540846,-3.53127" style="fill:#fff;fill-opacity:1;fill-rule:evenodd;stroke:none"/><path id="path5571" d="m 96.833294,288.7571 c -1.953571,0 -3.531456,1.5778 -3.531456,3.53127 0,1.96287 1.577885,3.54067 3.531456,3.54067 1.962964,0 3.540846,-1.5778 3.540846,-3.54067 0,-1.95347 -1.577882,-3.53127 -3.540846,-3.53127" style="fill:none;stroke:#000;stroke-width:2.06627798px;stroke-linecap:round;stroke-linejoin:round;stroke-opacity:1;stroke-dasharray:none"/><path id="path5573" d="m 96.870863,248.18497 c -7.156835,0 -12.961197,2.43245 -12.961197,5.44718 0,3.00534 5.804362,5.44719 12.961197,5.44719 7.156837,0 12.961197,-2.44185 12.961197,-5.44719 0,-3.01473 -5.80436,-5.44718 -12.961197,-5.44718" style="fill:none;stroke:#000;stroke-width:.30994168px;stroke-linecap:round;stroke-linejoin:round;stroke-opacity:1;stroke-dasharray:none"/><path id="path5575" d="m 95.931646,254.19565 -11.646294,0" style="fill:none;stroke:#000;stroke-width:.30994168px;stroke-linecap:round;stroke-linejoin:round;stroke-opacity:1;stroke-dasharray:none"/><path id="path5577" d="m 77.2694,254.81551 -71.5026063,0 c -0.3475104,0 -0.6292756,-0.27236 -0.6292756,-0.61986 0,-0.34749 0.2817652,-0.62924 0.6292756,-0.62924 l 71.5026063,0 c 0.34751,0 0.629275,0.28175 0.629275,0.62924 0,0.3475 -0.281765,0.61986 -0.629275,0.61986 z m -1.249159,-4.37654 7.513738,3.75668 -7.513738,3.75668 z" style="fill:#000;fill-opacity:1;fill-rule:nonzero;stroke:#000;stroke-width:.15027475px;stroke-linecap:butt;stroke-linejoin:bevel;stroke-opacity:1;stroke-dasharray:none"/><path id="path5579" d="M 97.058707,204.6075 96.68302,288.7571" style="fill:none;stroke:#000;stroke-width:2.81765175px;stroke-linecap:butt;stroke-linejoin:round;stroke-opacity:1;stroke-dasharray:none"/><path id="path5581" d="m 98.467532,169.67978 -0.03757,2.81751 -2.817652,-0.0282 0.03757,-2.81751 2.817651,0.0282 z m -0.06575,5.63502 -0.02818,2.8175 -2.817652,-0.0282 0.02818,-2.81751 2.817651,0.0282 z m -0.06574,5.63501 -0.02818,2.81751 -2.817651,-0.0282 0.02818,-2.81751 2.817652,0.0282 z m -0.05635,5.63502 -0.03757,2.81751 -2.817651,-0.0282 0.03757,-2.81751 2.817652,0.0282 z m -0.06575,5.63502 -0.02818,2.81751 -2.817651,-0.0282 0.02818,-2.81751 2.817652,0.0282 z m -0.06574,5.63502 -0.02818,2.81751 -2.817652,-0.0282 0.02818,-2.81751 2.817652,0.0282 z m -0.05635,5.63501 0,0 -2.817651,-0.0282 0,0 2.817651,0.0282 z" style="fill:#000;fill-opacity:1;fill-rule:nonzero;stroke:#000;stroke-width:.15027475px;stroke-linecap:butt;stroke-linejoin:bevel;stroke-opacity:1;stroke-dasharray:none"/><path id="path5583" d="m 288.61206,176.19762 0.0188,6.29243 -34.37535,0.13149 0.047,12.58487 34.37535,-0.13149 0.0282,6.29244 11.41149,-12.62244 z" style="fill:#fff;fill-opacity:1;fill-rule:evenodd;stroke:none"/><path id="path5585" d="m 288.61206,176.19762 0.0188,6.29243 -34.37535,0.13149 0.047,12.58487 34.37535,-0.13149 0.0282,6.29244 11.41149,-12.62244 z" style="fill:none;stroke:#000;stroke-width:.93921721px;stroke-linecap:round;stroke-linejoin:round;stroke-opacity:1;stroke-dasharray:none"/><path id="path5587" d="m 396.669,111.94902 -62.55187,99.92765 187.6556,0 62.55187,-99.92765 z" style="fill:none;stroke:none"/><text id="text5615" style="font-size:13.82527733px;font-style:normal;font-weight:700;text-align:start;text-anchor:start;fill:#000;font-family:Calibri" x="504.022" y="189.938" xml:space="preserve">Fj</text><path id="path5619" d="m 397.04468,101.43032 -62.55186,99.92765 187.6556,0 62.55186,-99.92765 z" clip-path="url(#clipEmfPath5)" style="fill:none;stroke:#000;stroke-width:.31933385px;stroke-linecap:round;stroke-linejoin:round;stroke-opacity:1;stroke-dasharray:none"/><path id="path5621" d="m 396.669,123.21906 -62.55187,99.92765 187.6556,0 62.55187,-99.92765 z" style="fill:none;stroke:#000;stroke-width:.31933385px;stroke-linecap:round;stroke-linejoin:round;stroke-opacity:1;stroke-dasharray:none"/><text id="text5623" style="font-size:13.82527733px;font-style:normal;font-weight:700;text-align:start;text-anchor:start;fill:#000;font-family:Calibri" x="400.632" y="74.683" xml:space="preserve">Ei</text><path id="path5627" d="m 429.5416,38.186637 0.37569,137.494433" clip-path="url(#clipEmfPath6)" style="fill:none;stroke:#000;stroke-width:2.81765175px;stroke-linecap:butt;stroke-linejoin:round;stroke-opacity:1;stroke-dasharray:none"/><path id="path5629" d="M 416.39256,39.689309 416.76825,299.2758" style="fill:none;stroke:#000;stroke-width:.31933385px;stroke-linecap:round;stroke-linejoin:round;stroke-opacity:1;stroke-dasharray:none"/><path id="path5631" d="m 442.69064,39.313641 0.37569,259.586489" style="fill:none;stroke:#000;stroke-width:.31933385px;stroke-linecap:round;stroke-linejoin:round;stroke-opacity:1;stroke-dasharray:none"/><path id="path5633" d="m 429.72944,294.01645 c -7.15683,0 -12.96119,2.44184 -12.96119,5.44718 0,3.00534 5.80436,5.44718 12.96119,5.44718 7.15684,0 12.9612,-2.44184 12.9612,-5.44718 0,-3.00534 -5.80436,-5.44718 -12.9612,-5.44718" style="fill:none;stroke:#000;stroke-width:.31933385px;stroke-linecap:round;stroke-linejoin:round;stroke-opacity:1;stroke-dasharray:none"/><path id="path5635" d="m 429.35376,32.55162 c -7.15684,0 -12.9612,2.441841 -12.9612,5.447183 0,3.005343 5.80436,5.447184 12.9612,5.447184 7.15683,0 12.96119,-2.441841 12.96119,-5.447184 0,-3.005342 -5.80436,-5.447183 -12.96119,-5.447183" style="fill:none;stroke:#000;stroke-width:.31933385px;stroke-linecap:round;stroke-linejoin:round;stroke-opacity:1;stroke-dasharray:none"/><path id="path5637" d="m 429.69187,33.302955 c -1.95357,0 -3.53145,1.577805 -3.53145,3.531278 0,1.953473 1.57788,3.550061 3.53145,3.550061 1.95358,0 3.55024,-1.596588 3.55024,-3.550061 0,-1.953473 -1.59666,-3.531278 -3.55024,-3.531278" style="fill:#fff;fill-opacity:1;fill-rule:evenodd;stroke:none"/><path id="path5639" d="m 429.69187,33.302955 c -1.95357,0 -3.53145,1.577805 -3.53145,3.531278 0,1.953473 1.57788,3.550061 3.53145,3.550061 1.95358,0 3.55024,-1.596588 3.55024,-3.550061 0,-1.953473 -1.59666,-3.531278 -3.55024,-3.531278" style="fill:none;stroke:#000;stroke-width:2.06627798px;stroke-linecap:round;stroke-linejoin:round;stroke-opacity:1;stroke-dasharray:none"/><path id="path5641" d="m 429.69187,295.89479 c -1.95357,0 -3.53145,1.5778 -3.53145,3.53127 0,1.95348 1.57788,3.55006 3.53145,3.55006 1.95358,0 3.55024,-1.59658 3.55024,-3.55006 0,-1.95347 -1.59666,-3.53127 -3.55024,-3.53127" style="fill:#fff;fill-opacity:1;fill-rule:evenodd;stroke:none"/><path id="path5643" d="m 429.69187,295.89479 c -1.95357,0 -3.53145,1.5778 -3.53145,3.53127 0,1.95348 1.57788,3.55006 3.53145,3.55006 1.95358,0 3.55024,-1.59658 3.55024,-3.55006 0,-1.95347 -1.59666,-3.53127 -3.55024,-3.53127" style="fill:none;stroke:#000;stroke-width:2.06627798px;stroke-linecap:round;stroke-linejoin:round;stroke-opacity:1;stroke-dasharray:none"/><path id="path5645" d="m 429.91729,211.74519 -0.37569,84.1496" style="fill:none;stroke:#000;stroke-width:2.81765175px;stroke-linecap:butt;stroke-linejoin:round;stroke-opacity:1;stroke-dasharray:none"/><path id="path5647" d="m 431.32611,176.82686 -0.0376,2.81751 -2.81765,-0.0376 0.0376,-2.81751 2.81765,0.0376 z m -0.0564,5.63502 -0.0376,2.81751 -2.81765,-0.0376 0.0376,-2.81751 2.81765,0.0376 z m -0.0751,5.63501 -0.0188,2.81751 -2.81765,-0.0376 0.0188,-2.81751 2.81765,0.0376 z m -0.0564,5.63502 -0.0376,2.81751 -2.81765,-0.0376 0.0376,-2.8175 2.81765,0.0376 z m -0.0563,5.63502 -0.0376,2.81751 -2.81766,-0.0376 0.0376,-2.81751 2.81766,0.0376 z m -0.0751,5.63502 -0.0188,2.81751 -2.81765,-0.0376 0.0188,-2.81751 2.81765,0.0376 z m -0.0564,5.61623 0,0 -2.81765,0 0,0 2.81765,0 z" style="fill:#000;fill-opacity:1;fill-rule:nonzero;stroke:#000;stroke-width:.15027475px;stroke-linecap:butt;stroke-linejoin:bevel;stroke-opacity:1;stroke-dasharray:none"/><path id="path5649" d="m 429.69187,173.80273 c -1.95357,0 -3.53145,1.57781 -3.53145,3.53128 0,1.95347 1.57788,3.55006 3.53145,3.55006 1.95358,0 3.55024,-1.59659 3.55024,-3.55006 0,-1.95347 -1.59666,-3.53128 -3.55024,-3.53128" style="fill:#fff;fill-opacity:1;fill-rule:evenodd;stroke:none"/><path id="path5651" d="m 429.69187,173.80273 c -1.95357,0 -3.53145,1.57781 -3.53145,3.53128 0,1.95347 1.57788,3.55006 3.53145,3.55006 1.95358,0 3.55024,-1.59659 3.55024,-3.55006 0,-1.95347 -1.59666,-3.53128 -3.55024,-3.53128" style="fill:none;stroke:#000;stroke-width:2.06627798px;stroke-linecap:round;stroke-linejoin:round;stroke-opacity:1;stroke-dasharray:none"/><path id="path5653" d="m 429.44768,160.27869 c -9.80543,0 -17.75121,7.94538 -17.75121,17.75031 0,9.80493 7.94578,17.7503 17.75121,17.7503 9.80543,0 17.7512,-7.94537 17.7512,-17.7503 0,-9.80493 -7.94577,-17.75031 -17.7512,-17.75031" style="fill:none;stroke:#000;stroke-width:.93921721px;stroke-linecap:round;stroke-linejoin:round;stroke-opacity:1;stroke-dasharray:none"/><path id="path5655" d="m 428.79023,178.08535 -0.93922,0 c -0.0751,0 -0.15028,-0.0564 -0.15028,-0.15027 0,-0.0751 0.0751,-0.15027 0.15028,-0.15027 l 0.93922,0 c 0.0939,0 0.15027,0.0751 0.15027,0.15027 0,0.0939 -0.0564,0.15027 -0.15027,0.15027 z m -2.19777,0 -0.93922,0 c -0.0751,0 -0.15027,-0.0564 -0.15027,-0.15027 0,-0.0751 0.0751,-0.15027 0.15027,-0.15027 l 0.93922,0 c 0.0939,0 0.16906,0.0751 0.16906,0.15027 0,0.0939 -0.0751,0.15027 -0.16906,0.15027 z m -2.17899,0 -0.93921,0 c -0.0939,0 -0.16906,-0.0564 -0.16906,-0.15027 0,-0.0751 0.0751,-0.15027 0.16906,-0.15027 l 0.93921,0 c 0.0751,0 0.15028,0.0751 0.15028,0.15027 0,0.0939 -0.0751,0.15027 -0.15028,0.15027 z m -2.19777,0 -0.93921,0 c -0.0751,0 -0.15028,-0.0564 -0.15028,-0.15027 0,-0.0751 0.0751,-0.15027 0.15028,-0.15027 l 0.93921,0 c 0.0939,0 0.15028,0.0751 0.15028,0.15027 0,0.0939 -0.0563,0.15027 -0.15028,0.15027 z m -2.19776,0 -0.93922,0 c -0.0751,0 -0.15028,-0.0564 -0.15028,-0.15027 0,-0.0751 0.0751,-0.15027 0.15028,-0.15027 l 0.93922,0 c 0.0939,0 0.16906,0.0751 0.16906,0.15027 0,0.0939 -0.0751,0.15027 -0.16906,0.15027 z m -2.17899,0 -0.93921,0 c -0.0939,0 -0.16906,-0.0564 -0.16906,-0.15027 0,-0.0751 0.0751,-0.15027 0.16906,-0.15027 l 0.93921,0 c 0.0751,0 0.15028,0.0751 0.15028,0.15027 0,0.0939 -0.0751,0.15027 -0.15028,0.15027 z m -2.19777,0 -0.93921,0 c -0.0751,0 -0.15028,-0.0564 -0.15028,-0.15027 0,-0.0751 0.0751,-0.15027 0.15028,-0.15027 l 0.93921,0 c 0.0939,0 0.15028,0.0751 0.15028,0.15027 0,0.0939 -0.0563,0.15027 -0.15028,0.15027 z m -2.19776,0 -0.93922,0 c -0.0751,0 -0.15028,-0.0564 -0.15028,-0.15027 0,-0.0751 0.0751,-0.15027 0.15028,-0.15027 l 0.93922,0 c 0.0939,0 0.16906,0.0751 0.16906,0.15027 0,0.0939 -0.0751,0.15027 -0.16906,0.15027 z m -2.17899,0 -0.93922,0 c -0.0939,0 -0.16905,-0.0564 -0.16905,-0.15027 0,-0.0751 0.0751,-0.15027 0.16905,-0.15027 l 0.93922,0 c 0.0751,0 0.15028,0.0751 0.15028,0.15027 0,0.0939 -0.0751,0.15027 -0.15028,0.15027 z m -2.19777,0 -0.93921,0 c -0.0751,0 -0.15028,-0.0564 -0.15028,-0.15027 0,-0.0751 0.0751,-0.15027 0.15028,-0.15027 l 0.93921,0 c 0.0939,0 0.15028,0.0751 0.15028,0.15027 0,0.0939 -0.0564,0.15027 -0.15028,0.15027 z m -2.19776,0 -0.93922,0 c -0.0751,0 -0.15028,-0.0564 -0.15028,-0.15027 0,-0.0751 0.0751,-0.15027 0.15028,-0.15027 l 0.93922,0 c 0.0939,0 0.16905,0.0751 0.16905,0.15027 0,0.0939 -0.0751,0.15027 -0.16905,0.15027 z m -2.17899,0 -0.93922,0 c -0.0939,0 -0.16905,-0.0564 -0.16905,-0.15027 0,-0.0751 0.0751,-0.15027 0.16905,-0.15027 l 0.93922,0 c 0.0751,0 0.15028,0.0751 0.15028,0.15027 0,0.0939 -0.0751,0.15027 -0.15028,0.15027 z m -2.19777,0 -0.93921,0 c -0.0751,0 -0.15028,-0.0564 -0.15028,-0.15027 0,-0.0751 0.0751,-0.15027 0.15028,-0.15027 l 0.93921,0 c 0.0939,0 0.15028,0.0751 0.15028,0.15027 0,0.0939 -0.0564,0.15027 -0.15028,0.15027 z m -2.19776,0 -0.93922,0 c -0.0751,0 -0.15028,-0.0564 -0.15028,-0.15027 0,-0.0751 0.0751,-0.15027 0.15028,-0.15027 l 0.93922,0 c 0.0939,0 0.16905,0.0751 0.16905,0.15027 0,0.0939 -0.0751,0.15027 -0.16905,0.15027 z m -2.17899,0 -0.93922,0 c -0.0939,0 -0.16906,-0.0564 -0.16906,-0.15027 0,-0.0751 0.0751,-0.15027 0.16906,-0.15027 l 0.93922,0 c 0.0751,0 0.15028,0.0751 0.15028,0.15027 0,0.0939 -0.0751,0.15027 -0.15028,0.15027 z m -2.19777,0 -0.93921,0 c -0.0751,0 -0.15028,-0.0564 -0.15028,-0.15027 0,-0.0751 0.0751,-0.15027 0.15028,-0.15027 l 0.93921,0 c 0.0939,0 0.15028,0.0751 0.15028,0.15027 0,0.0939 -0.0564,0.15027 -0.15028,0.15027 z m -2.19777,0 -0.93921,0 c -0.0751,0 -0.15028,-0.0564 -0.15028,-0.15027 0,-0.0751 0.0751,-0.15027 0.15028,-0.15027 l 0.93921,0 c 0.0939,0 0.16906,0.0751 0.16906,0.15027 0,0.0939 -0.0751,0.15027 -0.16906,0.15027 z m -2.17898,0 -0.93922,0 c -0.0939,0 -0.16906,-0.0564 -0.16906,-0.15027 0,-0.0751 0.0751,-0.15027 0.16906,-0.15027 l 0.93922,0 c 0.0751,0 0.15028,0.0751 0.15028,0.15027 0,0.0939 -0.0751,0.15027 -0.15028,0.15027 z m -2.19777,0 -0.93921,0 c -0.0751,0 -0.15028,-0.0564 -0.15028,-0.15027 0,-0.0751 0.0751,-0.15027 0.15028,-0.15027 l 0.93921,0 c 0.0939,0 0.15028,0.0751 0.15028,0.15027 0,0.0939 -0.0564,0.15027 -0.15028,0.15027 z m -2.19777,0 -0.93921,0 c -0.0751,0 -0.15028,-0.0564 -0.15028,-0.15027 0,-0.0751 0.0751,-0.15027 0.15028,-0.15027 l 0.93921,0 c 0.0939,0 0.16906,0.0751 0.16906,0.15027 0,0.0939 -0.0751,0.15027 -0.16906,0.15027 z m -2.17898,0 -0.93922,0 c -0.0939,0 -0.16906,-0.0564 -0.16906,-0.15027 0,-0.0751 0.0751,-0.15027 0.16906,-0.15027 l 0.93922,0 c 0.0751,0 0.15028,0.0751 0.15028,0.15027 0,0.0939 -0.0751,0.15027 -0.15028,0.15027 z m -2.19777,0 -0.93922,0 c -0.0751,0 -0.15027,-0.0564 -0.15027,-0.15027 0,-0.0751 0.0751,-0.15027 0.15027,-0.15027 l 0.93922,0 c 0.0939,0 0.15028,0.0751 0.15028,0.15027 0,0.0939 -0.0564,0.15027 -0.15028,0.15027 z m -2.19777,0 -0.93921,0 c -0.0751,0 -0.15028,-0.0564 -0.15028,-0.15027 0,-0.0751 0.0751,-0.15027 0.15028,-0.15027 l 0.93921,0 c 0.0939,0 0.16906,0.0751 0.16906,0.15027 0,0.0939 -0.0751,0.15027 -0.16906,0.15027 z" style="fill:#000;fill-opacity:1;fill-rule:nonzero;stroke:#000;stroke-width:.15027475px;stroke-linecap:butt;stroke-linejoin:bevel;stroke-opacity:1;stroke-dasharray:none"/><text id="text5657" style="font-size:13.82527733px;font-style:normal;font-weight:700;text-align:start;text-anchor:start;fill:#000;font-family:Calibri" x="285.672" y="141.101" xml:space="preserve">Tol(Vn)</text><text id="text5661" style="font-size:13.82527733px;font-style:normal;font-weight:700;text-align:start;text-anchor:start;fill:#000;font-family:Calibri" x="448.72" y="168.6" xml:space="preserve">Vn</text><path id="path5665" d="m 429.69187,303.78381 0,0.93917 c 0,0.0939 -0.0564,0.15027 -0.15027,0.15027 -0.0751,0 -0.15028,-0.0564 -0.15028,-0.15027 l 0,-0.93917 c 0,-0.0751 0.0751,-0.15027 0.15028,-0.15027 0.0939,0 0.15027,0.0751 0.15027,0.15027 z m 0,2.19766 0,0.93917 c 0,0.0751 -0.0564,0.15026 -0.15027,0.15026 -0.0751,0 -0.15028,-0.0751 -0.15028,-0.15026 l 0,-0.93917 c 0,-0.0939 0.0751,-0.16905 0.15028,-0.16905 0.0939,0 0.15027,0.0751 0.15027,0.16905 z m 0,2.17887 0,0.93917 c 0,0.0939 -0.0564,0.16905 -0.15027,0.16905 -0.0751,0 -0.15028,-0.0751 -0.15028,-0.16905 l 0,-0.93917 c 0,-0.0751 0.0751,-0.15027 0.15028,-0.15027 0.0939,0 0.15027,0.0751 0.15027,0.15027 z m 0,2.19766 0,0.93917 c 0,0.0939 -0.0564,0.15026 -0.15027,0.15026 -0.0751,0 -0.15028,-0.0564 -0.15028,-0.15026 l 0,-0.93917 c 0,-0.0751 0.0751,-0.15027 0.15028,-0.15027 0.0939,0 0.15027,0.0751 0.15027,0.15027 z m 0,2.19765 0,0.93917 c 0,0.0751 -0.0564,0.15027 -0.15027,0.15027 -0.0751,0 -0.15028,-0.0751 -0.15028,-0.15027 l 0,-0.93917 c 0,-0.0939 0.0751,-0.16905 0.15028,-0.16905 0.0939,0 0.15027,0.0751 0.15027,0.16905 z m 0,2.17888 0,0.93917 c 0,0.0939 -0.0564,0.16905 -0.15027,0.16905 -0.0751,0 -0.15028,-0.0751 -0.15028,-0.16905 l 0,-0.93917 c 0,-0.0751 0.0751,-0.15027 0.15028,-0.15027 0.0939,0 0.15027,0.0751 0.15027,0.15027 z m 0,2.19765 0,0.93917 c 0,0.0939 -0.0564,0.15027 -0.15027,0.15027 -0.0751,0 -0.15028,-0.0564 -0.15028,-0.15027 l 0,-0.93917 c 0,-0.0751 0.0751,-0.15026 0.15028,-0.15026 0.0939,0 0.15027,0.0751 0.15027,0.15026 z m 0,2.19766 0,0.93917 c 0,0.0751 -0.0564,0.15027 -0.15027,0.15027 -0.0751,0 -0.15028,-0.0751 -0.15028,-0.15027 l 0,-0.93917 c 0,-0.0939 0.0751,-0.16905 0.15028,-0.16905 0.0939,0 0.15027,0.0751 0.15027,0.16905 z m 0,2.17888 0,0.93917 c 0,0.0939 -0.0564,0.16905 -0.15027,0.16905 -0.0751,0 -0.15028,-0.0751 -0.15028,-0.16905 l 0,-0.93917 c 0,-0.0751 0.0751,-0.15027 0.15028,-0.15027 0.0939,0 0.15027,0.0751 0.15027,0.15027 z m 0,2.19765 0,0.93917 c 0,0.0939 -0.0564,0.15027 -0.15027,0.15027 -0.0751,0 -0.15028,-0.0563 -0.15028,-0.15027 l 0,-0.93917 c 0,-0.0751 0.0751,-0.15026 0.15028,-0.15026 0.0939,0 0.15027,0.0751 0.15027,0.15026 z m 0,2.19766 0,0.93917 c 0,0.0751 -0.0564,0.15027 -0.15027,0.15027 -0.0751,0 -0.15028,-0.0751 -0.15028,-0.15027 l 0,-0.93917 c 0,-0.0939 0.0751,-0.16905 0.15028,-0.16905 0.0939,0 0.15027,0.0751 0.15027,0.16905 z m 0,2.17887 0,0.93917 c 0,0.0939 -0.0564,0.16905 -0.15027,0.16905 -0.0751,0 -0.15028,-0.0751 -0.15028,-0.16905 l 0,-0.93917 c 0,-0.0751 0.0751,-0.15026 0.15028,-0.15026 0.0939,0 0.15027,0.0751 0.15027,0.15026 z m 0,2.19766 0,0.93917 c 0,0.0939 -0.0564,0.15027 -0.15027,0.15027 -0.0751,0 -0.15028,-0.0564 -0.15028,-0.15027 l 0,-0.93917 c 0,-0.0751 0.0751,-0.15027 0.15028,-0.15027 0.0939,0 0.15027,0.0751 0.15027,0.15027 z m 0,2.19766 0,0.93917 c 0,0.0751 -0.0564,0.15026 -0.15027,0.15026 -0.0751,0 -0.15028,-0.0751 -0.15028,-0.15026 l 0,-0.93917 c 0,-0.0939 0.0751,-0.16905 0.15028,-0.16905 0.0939,0 0.15027,0.0751 0.15027,0.16905 z m 0,2.17887 0,0.93917 c 0,0.0939 -0.0564,0.16905 -0.15027,0.16905 -0.0751,0 -0.15028,-0.0751 -0.15028,-0.16905 l 0,-0.93917 c 0,-0.0751 0.0751,-0.15027 0.15028,-0.15027 0.0939,0 0.15027,0.0751 0.15027,0.15027 z m 0,2.19766 0,0.5635 c 0,0.0939 -0.0564,0.15027 -0.15027,0.15027 -0.0751,0 -0.15028,-0.0564 -0.15028,-0.15027 l 0,-0.5635 c 0,-0.0751 0.0751,-0.15027 0.15028,-0.15027 0.0939,0 0.15027,0.0751 0.15027,0.15027 z" clip-path="url(#clipEmfPath8)" style="fill:#000;fill-opacity:1;fill-rule:nonzero;stroke:#000;stroke-width:.15027475px;stroke-linecap:butt;stroke-linejoin:bevel;stroke-opacity:1;stroke-dasharray:none"/><path id="path5667" d="m 428.54603,32.927287 0,-3.756678 c 0,-0.338101 0.28176,-0.619852 0.61988,-0.619852 0.3569,0 0.61989,0.281751 0.61989,0.619852 l 0,3.756678 c 0,0.356885 -0.26299,0.619852 -0.61989,0.619852 -0.33812,0 -0.61988,-0.262967 -0.61988,-0.619852 z m 0,-8.771844 0,-3.756679 c 0,-0.338101 0.28176,-0.619851 0.61988,-0.619851 0.3569,0 0.61989,0.28175 0.61989,0.619851 l 0,3.756679 c 0,0.356884 -0.26299,0.638635 -0.61989,0.638635 -0.33812,0 -0.61988,-0.281751 -0.61988,-0.638635 z m -3.13699,-4.752198 3.75687,-7.513357 3.75687,7.513357 z" style="fill:#000;fill-opacity:1;fill-rule:nonzero;stroke:#000;stroke-width:.15027475px;stroke-linecap:butt;stroke-linejoin:bevel;stroke-opacity:1;stroke-dasharray:none"/><text id="text5669" style="font-size:13.82527733px;font-style:normal;font-weight:700;text-align:start;text-anchor:start;fill:#000;font-family:Calibri" x="434.895" y="13.073" xml:space="preserve">Ci</text><path id="path5673" d="m 429.16591,323.84447 -0.93922,0 c -0.0751,0 -0.15027,-0.0564 -0.15027,-0.15026 0,-0.0751 0.0751,-0.15027 0.15027,-0.15027 l 0.93922,0 c 0.0939,0 0.15028,0.0751 0.15028,0.15027 0,0.0939 -0.0564,0.15026 -0.15028,0.15026 z m -2.19777,0 -0.93921,0 c -0.0751,0 -0.15028,-0.0564 -0.15028,-0.15026 0,-0.0751 0.0751,-0.15027 0.15028,-0.15027 l 0.93921,0 c 0.0939,0 0.16906,0.0751 0.16906,0.15027 0,0.0939 -0.0751,0.15026 -0.16906,0.15026 z m -2.17898,0 -0.93922,0 c -0.0939,0 -0.16906,-0.0564 -0.16906,-0.15026 0,-0.0751 0.0751,-0.15027 0.16906,-0.15027 l 0.93922,0 c 0.0751,0 0.15027,0.0751 0.15027,0.15027 0,0.0939 -0.0751,0.15026 -0.15027,0.15026 z m -2.19777,0 -0.93922,0 c -0.0751,0 -0.15027,-0.0564 -0.15027,-0.15026 0,-0.0751 0.0751,-0.15027 0.15027,-0.15027 l 0.93922,0 c 0.0939,0 0.15028,0.0751 0.15028,0.15027 0,0.0939 -0.0564,0.15026 -0.15028,0.15026 z m -2.19777,0 -0.93921,0 c -0.0751,0 -0.15028,-0.0564 -0.15028,-0.15026 0,-0.0751 0.0751,-0.15027 0.15028,-0.15027 l 0.93921,0 c 0.0939,0 0.16906,0.0751 0.16906,0.15027 0,0.0939 -0.0751,0.15026 -0.16906,0.15026 z m -2.17898,0 -0.93922,0 c -0.0939,0 -0.16906,-0.0564 -0.16906,-0.15026 0,-0.0751 0.0751,-0.15027 0.16906,-0.15027 l 0.93922,0 c 0.0751,0 0.15027,0.0751 0.15027,0.15027 0,0.0939 -0.0751,0.15026 -0.15027,0.15026 z m -2.19777,0 -0.93922,0 c -0.0751,0 -0.15027,-0.0564 -0.15027,-0.15026 0,-0.0751 0.0751,-0.15027 0.15027,-0.15027 l 0.93922,0 c 0.0939,0 0.15028,0.0751 0.15028,0.15027 0,0.0939 -0.0564,0.15026 -0.15028,0.15026 z m -2.19777,0 -0.93921,0 c -0.0751,0 -0.15028,-0.0564 -0.15028,-0.15026 0,-0.0751 0.0751,-0.15027 0.15028,-0.15027 l 0.93921,0 c 0.0939,0 0.16906,0.0751 0.16906,0.15027 0,0.0939 -0.0751,0.15026 -0.16906,0.15026 z m -2.17898,0 -0.93922,0 c -0.0939,0 -0.16906,-0.0564 -0.16906,-0.15026 0,-0.0751 0.0751,-0.15027 0.16906,-0.15027 l 0.93922,0 c 0.0751,0 0.15027,0.0751 0.15027,0.15027 0,0.0939 -0.0751,0.15026 -0.15027,0.15026 z m -2.19777,0 -0.93922,0 c -0.0751,0 -0.15027,-0.0564 -0.15027,-0.15026 0,-0.0751 0.0751,-0.15027 0.15027,-0.15027 l 0.93922,0 c 0.0939,0 0.15028,0.0751 0.15028,0.15027 0,0.0939 -0.0564,0.15026 -0.15028,0.15026 z m -2.19777,0 -0.93921,0 c -0.0751,0 -0.15028,-0.0564 -0.15028,-0.15026 0,-0.0751 0.0751,-0.15027 0.15028,-0.15027 l 0.93921,0 c 0.0939,0 0.16906,0.0751 0.16906,0.15027 0,0.0939 -0.0751,0.15026 -0.16906,0.15026 z m -2.17898,0 -0.93922,0 c -0.0939,0 -0.16906,-0.0564 -0.16906,-0.15026 0,-0.0751 0.0751,-0.15027 0.16906,-0.15027 l 0.93922,0 c 0.0751,0 0.15027,0.0751 0.15027,0.15027 0,0.0939 -0.0751,0.15026 -0.15027,0.15026 z m -2.19777,0 -0.93922,0 c -0.0751,0 -0.15027,-0.0564 -0.15027,-0.15026 0,-0.0751 0.0751,-0.15027 0.15027,-0.15027 l 0.93922,0 c 0.0939,0 0.15028,0.0751 0.15028,0.15027 0,0.0939 -0.0564,0.15026 -0.15028,0.15026 z m -2.19777,0 -0.93922,0 c -0.0751,0 -0.15027,-0.0564 -0.15027,-0.15026 0,-0.0751 0.0751,-0.15027 0.15027,-0.15027 l 0.93922,0 c 0.0939,0 0.16906,0.0751 0.16906,0.15027 0,0.0939 -0.0751,0.15026 -0.16906,0.15026 z m -2.17898,0 -0.93922,0 c -0.0939,0 -0.16906,-0.0564 -0.16906,-0.15026 0,-0.0751 0.0751,-0.15027 0.16906,-0.15027 l 0.93922,0 c 0.0751,0 0.15027,0.0751 0.15027,0.15027 0,0.0939 -0.0751,0.15026 -0.15027,0.15026 z m -2.19777,0 -0.93922,0 c -0.0751,0 -0.15027,-0.0564 -0.15027,-0.15026 0,-0.0751 0.0751,-0.15027 0.15027,-0.15027 l 0.93922,0 c 0.0939,0 0.15027,0.0751 0.15027,0.15027 0,0.0939 -0.0564,0.15026 -0.15027,0.15026 z m -2.19777,0 -0.93922,0 c -0.0751,0 -0.15027,-0.0564 -0.15027,-0.15026 0,-0.0751 0.0751,-0.15027 0.15027,-0.15027 l 0.93922,0 c 0.0939,0 0.16906,0.0751 0.16906,0.15027 0,0.0939 -0.0751,0.15026 -0.16906,0.15026 z m -2.17898,0 -0.93922,0 c -0.0939,0 -0.16906,-0.0564 -0.16906,-0.15026 0,-0.0751 0.0751,-0.15027 0.16906,-0.15027 l 0.93922,0 c 0.0751,0 0.15027,0.0751 0.15027,0.15027 0,0.0939 -0.0751,0.15026 -0.15027,0.15026 z m -2.19777,0 -0.93922,0 c -0.0751,0 -0.15027,-0.0564 -0.15027,-0.15026 0,-0.0751 0.0751,-0.15027 0.15027,-0.15027 l 0.93922,0 c 0.0939,0 0.15027,0.0751 0.15027,0.15027 0,0.0939 -0.0564,0.15026 -0.15027,0.15026 z m -2.19777,0 -0.93922,0 c -0.0751,0 -0.15027,-0.0564 -0.15027,-0.15026 0,-0.0751 0.0751,-0.15027 0.15027,-0.15027 l 0.93922,0 c 0.0939,0 0.16906,0.0751 0.16906,0.15027 0,0.0939 -0.0751,0.15026 -0.16906,0.15026 z m -2.17898,0 -0.93922,0 c -0.0939,0 -0.16906,-0.0564 -0.16906,-0.15026 0,-0.0751 0.0751,-0.15027 0.16906,-0.15027 l 0.93922,0 c 0.0751,0 0.15027,0.0751 0.15027,0.15027 0,0.0939 -0.0751,0.15026 -0.15027,0.15026 z m -2.19777,0 -0.93922,0 c -0.0751,0 -0.15027,-0.0564 -0.15027,-0.15026 0,-0.0751 0.0751,-0.15027 0.15027,-0.15027 l 0.93922,0 c 0.0939,0 0.15027,0.0751 0.15027,0.15027 0,0.0939 -0.0564,0.15026 -0.15027,0.15026 z m -2.19777,0 -0.93922,0 c -0.0751,0 -0.15027,-0.0564 -0.15027,-0.15026 0,-0.0751 0.0751,-0.15027 0.15027,-0.15027 l 0.93922,0 c 0.0939,0 0.16906,0.0751 0.16906,0.15027 0,0.0939 -0.0751,0.15026 -0.16906,0.15026 z" clip-path="url(#clipEmfPath9)" style="fill:#000;fill-opacity:1;fill-rule:nonzero;stroke:#000;stroke-width:.15027475px;stroke-linecap:butt;stroke-linejoin:bevel;stroke-opacity:1;stroke-dasharray:none"/><path id="path5675" d="m 394.47123,189.95645 0,121.34072 c 0,0.35688 -0.26298,0.61985 -0.61988,0.61985 -0.33812,0 -0.61989,-0.26297 -0.61989,-0.61985 l 0,-121.34072 c 0,-0.3381 0.28177,-0.61985 0.61989,-0.61985 0.3569,0 0.61988,0.28175 0.61988,0.61985 z m -3.1182,1.25849 2.49832,-12.52853 2.49831,12.52853 z m 4.99663,118.82374 -2.49831,12.52852 -2.49832,-12.52852 z" style="fill:#000;fill-opacity:1;fill-rule:nonzero;stroke:#000;stroke-width:.15027475px;stroke-linecap:butt;stroke-linejoin:bevel;stroke-opacity:1;stroke-dasharray:none"/><text id="text5677" style="font-size:13.82527733px;font-style:normal;font-weight:700;text-align:start;text-anchor:start;fill:#000;font-family:Calibri" x="378.542" y="269.579" xml:space="preserve">t</text><text id="text5679" style="font-size:8.71593571px;font-style:normal;font-weight:700;text-align:start;text-anchor:start;fill:#000;font-family:Calibri" x="383.351" y="271.533" xml:space="preserve">i</text><path id="path5683" d="m 427.28748,175.68107 -13.90042,-4.50801" clip-path="url(#clipEmfPath10)" style="fill:none;stroke:#000;stroke-width:.31933385px;stroke-linecap:round;stroke-linejoin:round;stroke-opacity:1;stroke-dasharray:none"/><path id="path5685" d="m 406.47442,169.14445 -74.04788,-23.29141 c -0.31933,-0.1127 -0.50718,-0.4508 -0.41326,-0.7889 0.11271,-0.31932 0.46961,-0.50715 0.78895,-0.41323 l 74.04788,23.2914 c 0.33812,0.1127 0.50718,0.46959 0.41326,0.78891 -0.11271,0.3381 -0.45083,0.50715 -0.78895,0.41323 z m 0.13149,-4.56436 6.02978,5.84163 -8.2839,1.33362 z" style="fill:#000;fill-opacity:1;fill-rule:nonzero;stroke:#000;stroke-width:.15027475px;stroke-linecap:butt;stroke-linejoin:bevel;stroke-opacity:1;stroke-dasharray:none"/><path id="path5531" d="m 64.186104,94.28324 -62.5518661,99.92765 187.6556021,0 62.55186,-99.92765 z" clip-path="url(#clipEmfPath2)" style="fill:none;stroke:#000;stroke-width:.30994168px;stroke-linecap:round;stroke-linejoin:round;stroke-opacity:1;stroke-dasharray:none"/><path style="fill:none;stroke:#000;stroke-width:1;stroke-linecap:butt;stroke-linejoin:miter;stroke-miterlimit:4;stroke-opacity:1;stroke-dasharray:3,3;stroke-dashoffset:0" id="path9263" d="m 435.5,297.51709 0,30.5" transform="translate(-5.51879,5.21045)"/><path id="path5655-9" d="m 428.60791,323.11926 -0.93922,0 c -0.0751,0 -0.15028,-0.0564 -0.15028,-0.15027 0,-0.0751 0.0751,-0.15027 0.15028,-0.15027 l 0.93922,0 c 0.0939,0 0.15027,0.0751 0.15027,0.15027 0,0.0939 -0.0564,0.15027 -0.15027,0.15027 z m -2.19777,0 -0.93922,0 c -0.0751,0 -0.15027,-0.0564 -0.15027,-0.15027 0,-0.0751 0.0751,-0.15027 0.15027,-0.15027 l 0.93922,0 c 0.0939,0 0.16906,0.0751 0.16906,0.15027 0,0.0939 -0.0751,0.15027 -0.16906,0.15027 z m -2.17899,0 -0.93921,0 c -0.0939,0 -0.16906,-0.0564 -0.16906,-0.15027 0,-0.0751 0.0751,-0.15027 0.16906,-0.15027 l 0.93921,0 c 0.0751,0 0.15028,0.0751 0.15028,0.15027 0,0.0939 -0.0751,0.15027 -0.15028,0.15027 z m -2.19777,0 -0.93921,0 c -0.0751,0 -0.15028,-0.0564 -0.15028,-0.15027 0,-0.0751 0.0751,-0.15027 0.15028,-0.15027 l 0.93921,0 c 0.0939,0 0.15028,0.0751 0.15028,0.15027 0,0.0939 -0.0563,0.15027 -0.15028,0.15027 z m -2.19776,0 -0.93922,0 c -0.0751,0 -0.15028,-0.0564 -0.15028,-0.15027 0,-0.0751 0.0751,-0.15027 0.15028,-0.15027 l 0.93922,0 c 0.0939,0 0.16906,0.0751 0.16906,0.15027 0,0.0939 -0.0751,0.15027 -0.16906,0.15027 z m -2.17899,0 -0.93921,0 c -0.0939,0 -0.16906,-0.0564 -0.16906,-0.15027 0,-0.0751 0.0751,-0.15027 0.16906,-0.15027 l 0.93921,0 c 0.0751,0 0.15028,0.0751 0.15028,0.15027 0,0.0939 -0.0751,0.15027 -0.15028,0.15027 z m -2.19777,0 -0.93921,0 c -0.0751,0 -0.15028,-0.0564 -0.15028,-0.15027 0,-0.0751 0.0751,-0.15027 0.15028,-0.15027 l 0.93921,0 c 0.0939,0 0.15028,0.0751 0.15028,0.15027 0,0.0939 -0.0563,0.15027 -0.15028,0.15027 z m -2.19776,0 -0.93922,0 c -0.0751,0 -0.15028,-0.0564 -0.15028,-0.15027 0,-0.0751 0.0751,-0.15027 0.15028,-0.15027 l 0.93922,0 c 0.0939,0 0.16906,0.0751 0.16906,0.15027 0,0.0939 -0.0751,0.15027 -0.16906,0.15027 z m -2.17899,0 -0.93922,0 c -0.0939,0 -0.16905,-0.0564 -0.16905,-0.15027 0,-0.0751 0.0751,-0.15027 0.16905,-0.15027 l 0.93922,0 c 0.0751,0 0.15028,0.0751 0.15028,0.15027 0,0.0939 -0.0751,0.15027 -0.15028,0.15027 z m -2.19777,0 -0.93921,0 c -0.0751,0 -0.15028,-0.0564 -0.15028,-0.15027 0,-0.0751 0.0751,-0.15027 0.15028,-0.15027 l 0.93921,0 c 0.0939,0 0.15028,0.0751 0.15028,0.15027 0,0.0939 -0.0564,0.15027 -0.15028,0.15027 z m -2.19776,0 -0.93922,0 c -0.0751,0 -0.15028,-0.0564 -0.15028,-0.15027 0,-0.0751 0.0751,-0.15027 0.15028,-0.15027 l 0.93922,0 c 0.0939,0 0.16905,0.0751 0.16905,0.15027 0,0.0939 -0.0751,0.15027 -0.16905,0.15027 z m -2.17899,0 -0.93922,0 c -0.0939,0 -0.16905,-0.0564 -0.16905,-0.15027 0,-0.0751 0.0751,-0.15027 0.16905,-0.15027 l 0.93922,0 c 0.0751,0 0.15028,0.0751 0.15028,0.15027 0,0.0939 -0.0751,0.15027 -0.15028,0.15027 z m -2.19777,0 -0.93921,0 c -0.0751,0 -0.15028,-0.0564 -0.15028,-0.15027 0,-0.0751 0.0751,-0.15027 0.15028,-0.15027 l 0.93921,0 c 0.0939,0 0.15028,0.0751 0.15028,0.15027 0,0.0939 -0.0564,0.15027 -0.15028,0.15027 z m -2.19776,0 -0.93922,0 c -0.0751,0 -0.15028,-0.0564 -0.15028,-0.15027 0,-0.0751 0.0751,-0.15027 0.15028,-0.15027 l 0.93922,0 c 0.0939,0 0.16905,0.0751 0.16905,0.15027 0,0.0939 -0.0751,0.15027 -0.16905,0.15027 z m -2.17899,0 -0.93922,0 c -0.0939,0 -0.16906,-0.0564 -0.16906,-0.15027 0,-0.0751 0.0751,-0.15027 0.16906,-0.15027 l 0.93922,0 c 0.0751,0 0.15028,0.0751 0.15028,0.15027 0,0.0939 -0.0751,0.15027 -0.15028,0.15027 z m -2.19777,0 -0.93921,0 c -0.0751,0 -0.15028,-0.0564 -0.15028,-0.15027 0,-0.0751 0.0751,-0.15027 0.15028,-0.15027 l 0.93921,0 c 0.0939,0 0.15028,0.0751 0.15028,0.15027 0,0.0939 -0.0564,0.15027 -0.15028,0.15027 z m -2.19777,0 -0.93921,0 c -0.0751,0 -0.15028,-0.0564 -0.15028,-0.15027 0,-0.0751 0.0751,-0.15027 0.15028,-0.15027 l 0.93921,0 c 0.0939,0 0.16906,0.0751 0.16906,0.15027 0,0.0939 -0.0751,0.15027 -0.16906,0.15027 z m -2.17898,0 -0.93922,0 c -0.0939,0 -0.16906,-0.0564 -0.16906,-0.15027 0,-0.0751 0.0751,-0.15027 0.16906,-0.15027 l 0.93922,0 c 0.0751,0 0.15028,0.0751 0.15028,0.15027 0,0.0939 -0.0751,0.15027 -0.15028,0.15027 z m -2.19777,0 -0.93921,0 c -0.0751,0 -0.15028,-0.0564 -0.15028,-0.15027 0,-0.0751 0.0751,-0.15027 0.15028,-0.15027 l 0.93921,0 c 0.0939,0 0.15028,0.0751 0.15028,0.15027 0,0.0939 -0.0564,0.15027 -0.15028,0.15027 z m -2.19777,0 -0.93921,0 c -0.0751,0 -0.15028,-0.0564 -0.15028,-0.15027 0,-0.0751 0.0751,-0.15027 0.15028,-0.15027 l 0.93921,0 c 0.0939,0 0.16906,0.0751 0.16906,0.15027 0,0.0939 -0.0751,0.15027 -0.16906,0.15027 z m -2.17898,0 -0.93922,0 c -0.0939,0 -0.16906,-0.0564 -0.16906,-0.15027 0,-0.0751 0.0751,-0.15027 0.16906,-0.15027 l 0.93922,0 c 0.0751,0 0.15028,0.0751 0.15028,0.15027 0,0.0939 -0.0751,0.15027 -0.15028,0.15027 z m -2.19777,0 -0.93922,0 c -0.0751,0 -0.15027,-0.0564 -0.15027,-0.15027 0,-0.0751 0.0751,-0.15027 0.15027,-0.15027 l 0.93922,0 c 0.0939,0 0.15028,0.0751 0.15028,0.15027 0,0.0939 -0.0564,0.15027 -0.15028,0.15027 z m -2.19777,0 -0.93921,0 c -0.0751,0 -0.15028,-0.0564 -0.15028,-0.15027 0,-0.0751 0.0751,-0.15027 0.15028,-0.15027 l 0.93921,0 c 0.0939,0 0.16906,0.0751 0.16906,0.15027 0,0.0939 -0.0751,0.15027 -0.16906,0.15027 z" style="fill:#000;fill-opacity:1;fill-rule:nonzero;stroke:#000;stroke-width:.15027475px;stroke-linecap:butt;stroke-linejoin:bevel;stroke-opacity:1;stroke-dasharray:none"/><path id="path5687" d="m 332.99007,145.25198 -46.96086,0" style="fill:none;stroke:#000;stroke-width:.31933385px;stroke-linecap:round;stroke-linejoin:round;stroke-opacity:1;stroke-dasharray:none"/></g><path style="fill:none;stroke:#000;stroke-width:3;stroke-linecap:butt;stroke-linejoin:miter;stroke-miterlimit:4;stroke-opacity:1;stroke-dasharray:none" id="path9259" d="m 102.40789,28.856948 0,131.108192" transform="translate(-215.40452,241.96078)"/><path style="fill:none;stroke:#000;stroke-width:3.01673079;stroke-linecap:butt;stroke-linejoin:miter;stroke-miterlimit:4;stroke-opacity:1;stroke-dasharray:none" id="path9259-4" d="m 219.59548,276.94055 0,132.57463"/></g></svg>