<svg xmlns="http://www.w3.org/2000/svg" xmlns:svg="http://www.w3.org/2000/svg" id="svg16206" width="336.008" height="253.014" version="1.1"><defs id="defs16208"><clipPath id="clipEmfPath1" clipPathUnits="userSpaceOnUse"><rect id="rect16219" width="20.109" height="18.015" x="265.775" y="0"/></clipPath><clipPath id="clipEmfPath2" clipPathUnits="userSpaceOnUse"><rect id="rect16222" width="48.323" height="17.865" x="41.569" y="219.18"/></clipPath><clipPath id="clipEmfPath3" clipPathUnits="userSpaceOnUse"><rect id="rect16225" width="20.109" height="18.015" x="256.32" y="193.359"/></clipPath><clipPath id="clipEmfPath4" clipPathUnits="userSpaceOnUse"><rect id="rect16228" width="20.109" height="18.015" x="151.271" y="223.383"/></clipPath><clipPath id="clipEmfPath5" clipPathUnits="userSpaceOnUse"><rect id="rect16231" width="20.109" height="18.015" x="296.689" y="115.445"/></clipPath><clipPath id="clipEmfPath6" clipPathUnits="userSpaceOnUse"><rect id="rect16234" width="20.26" height="18.015" x="20.86" y="108.839"/></clipPath><clipPath id="clipEmfPath7" clipPathUnits="userSpaceOnUse"><rect id="rect16237" width="20.109" height="18.015" x="86.591" y="103.285"/></clipPath><clipPath id="clipEmfPath8" clipPathUnits="userSpaceOnUse"><rect id="rect16240" width="20.26" height="17.865" x="96.795" y="154.927"/></clipPath><clipPath id="clipEmfPath9" clipPathUnits="userSpaceOnUse"><rect id="rect16243" width="20.26" height="18.015" x="156.373" y="13.211"/></clipPath><clipPath id="clipEmfPath10" clipPathUnits="userSpaceOnUse"><rect id="rect16246" width="20.109" height="18.015" x="48.623" y="1.501"/></clipPath><clipPath id="clipEmfPath11" clipPathUnits="userSpaceOnUse"><rect id="rect16249" width="20.26" height="18.015" x="324.752" y="156.729"/></clipPath><clipPath id="clipEmfPath12" clipPathUnits="userSpaceOnUse"><rect id="rect16252" width="36.017" height="18.015" x="191.64" y="155.828"/></clipPath><clipPath id="clipEmfPath13" clipPathUnits="userSpaceOnUse"><rect id="rect16255" width="20.26" height="17.865" x="65.881" y="188.254"/></clipPath><clipPath id="clipEmfPath14" clipPathUnits="userSpaceOnUse"><rect id="rect16258" width="48.323" height="17.865" x="264.724" y="215.877"/></clipPath></defs><metadata id="metadata16211"/><g id="layer1" transform="translate(-206.44282,-405.85504)"><g id="g16260" transform="translate(206.89303,401.5582)"><path id="path16264" d="m 244.55845,198.51913 c -2.46678,0 -4.4646,4.40987 -4.4646,9.85184 0,5.44196 1.99782,9.85183 4.4646,9.85183 2.47616,0 4.47397,-4.40987 4.47397,-9.85183 0,-5.44197 -1.99781,-9.85184 -4.47397,-9.85184" clip-path="url(#clipEmfPath0)" style="fill:none;stroke:#000;stroke-width:.93793988px;stroke-linecap:round;stroke-linejoin:round;stroke-opacity:1;stroke-dasharray:none"/><path id="path16266" d="m 87.922486,198.51913 c -2.466782,0 -4.464594,4.40987 -4.464594,9.85184 0,5.44196 1.997812,9.85183 4.464594,9.85183 2.476161,0 4.473973,-4.40987 4.473973,-9.85183 0,-5.44197 -1.997812,-9.85184 -4.473973,-9.85184" style="fill:none;stroke:#000;stroke-width:.93793988px;stroke-linecap:round;stroke-linejoin:round;stroke-opacity:1;stroke-dasharray:none"/><path id="path16268" d="m 68.882306,52.242865 0,2.552094 196.592204,0 0,-2.552094 -196.592204,0 z" style="fill:silver;fill-opacity:1;fill-rule:evenodd;stroke:none"/><path id="path16270" d="m 68.882306,54.794959 0,1.951601 196.592204,0 0,-1.951601 -196.592204,0 z" style="fill:#c2c2c2;fill-opacity:1;fill-rule:evenodd;stroke:none"/><path id="path16272" d="m 68.882306,56.74656 0,1.200986 196.592204,0 0,-1.200986 -196.592204,0 z" style="fill:#c4c4c4;fill-opacity:1;fill-rule:evenodd;stroke:none"/><path id="path16274" d="m 68.882306,57.947546 0,1.200985 196.592204,0 0,-1.200985 -196.592204,0 z" style="fill:#c6c6c6;fill-opacity:1;fill-rule:evenodd;stroke:none"/><path id="path16276" d="m 68.882306,59.148531 0,0.900739 196.592204,0 0,-0.900739 -196.592204,0 z" style="fill:#c8c8c8;fill-opacity:1;fill-rule:evenodd;stroke:none"/><path id="path16278" d="m 68.882306,60.04927 0,0.750616 196.592204,0 0,-0.750616 -196.592204,0 z" style="fill:#cacaca;fill-opacity:1;fill-rule:evenodd;stroke:none"/><path id="path16280" d="m 68.882306,60.799886 0,0.750616 196.592204,0 0,-0.750616 -196.592204,0 z" style="fill:#ccc;fill-opacity:1;fill-rule:evenodd;stroke:none"/><path id="path16282" d="m 68.882306,61.550502 0,0.750616 196.592204,0 0,-0.750616 -196.592204,0 z" style="fill:#cecece;fill-opacity:1;fill-rule:evenodd;stroke:none"/><path id="path16284" d="m 68.882306,62.301118 0,0.900739 196.592204,0 0,-0.900739 -196.592204,0 z" style="fill:#d0d0d0;fill-opacity:1;fill-rule:evenodd;stroke:none"/><path id="path16286" d="m 68.882306,63.201857 0,0.750616 196.592204,0 0,-0.750616 -196.592204,0 z" style="fill:#d2d2d2;fill-opacity:1;fill-rule:evenodd;stroke:none"/><path id="path16288" d="m 68.882306,63.952473 0,0.750615 196.592204,0 0,-0.750615 -196.592204,0 z" style="fill:#d4d4d4;fill-opacity:1;fill-rule:evenodd;stroke:none"/><path id="path16290" d="m 68.882306,64.703088 0,0.750616 196.592204,0 0,-0.750616 -196.592204,0 z" style="fill:#d6d6d6;fill-opacity:1;fill-rule:evenodd;stroke:none"/><path id="path16292" d="m 68.882306,65.453704 0,0.600493 196.592204,0 0,-0.600493 -196.592204,0 z" style="fill:#d8d8d8;fill-opacity:1;fill-rule:evenodd;stroke:none"/><path id="path16294" d="m 68.882306,66.054197 0,0.750616 196.592204,0 0,-0.750616 -196.592204,0 z" style="fill:#dadada;fill-opacity:1;fill-rule:evenodd;stroke:none"/><path id="path16296" d="m 68.882306,66.804813 0,1.050862 196.592204,0 0,-1.050862 -196.592204,0 z" style="fill:#dcdcdc;fill-opacity:1;fill-rule:evenodd;stroke:none"/><path id="path16298" d="m 68.882306,67.855675 0,0.900739 196.592204,0 0,-0.900739 -196.592204,0 z" style="fill:#dedede;fill-opacity:1;fill-rule:evenodd;stroke:none"/><path id="path16300" d="m 68.882306,68.756414 0,0.750616 196.592204,0 0,-0.750616 -196.592204,0 z" style="fill:#e0e0e0;fill-opacity:1;fill-rule:evenodd;stroke:none"/><path id="path16302" d="m 68.882306,69.50703 0,1.200985 196.592204,0 0,-1.200985 -196.592204,0 z" style="fill:#e2e2e2;fill-opacity:1;fill-rule:evenodd;stroke:none"/><path id="path16304" d="m 68.882306,70.708015 0,1.200986 196.592204,0 0,-1.200986 -196.592204,0 z" style="fill:#e4e4e4;fill-opacity:1;fill-rule:evenodd;stroke:none"/><path id="path16306" d="m 68.882306,71.909001 0,1.501232 196.592204,0 0,-1.501232 -196.592204,0 z" style="fill:#e6e6e6;fill-opacity:1;fill-rule:evenodd;stroke:none"/><path id="path16308" d="m 68.882306,73.410233 0,2.85234 196.592204,0 0,-2.85234 -196.592204,0 z" style="fill:#e8e8e8;fill-opacity:1;fill-rule:evenodd;stroke:none"/><path id="path16310" d="m 68.882306,76.262573 0,1.351108 196.592204,0 0,-1.351108 -196.592204,0 z" style="fill:#eaeaea;fill-opacity:1;fill-rule:evenodd;stroke:none"/><path id="path16312" d="m 70.38301,97.279817 0,9.758003 195.0915,0 0,-9.758003 -195.0915,0 z" style="fill:silver;fill-opacity:1;fill-rule:evenodd;stroke:none"/><path id="path16314" d="m 70.38301,107.03782 0,7.80641 195.0915,0 0,-7.80641 -195.0915,0 z" style="fill:#c2c2c2;fill-opacity:1;fill-rule:evenodd;stroke:none"/><path id="path16316" d="m 70.38301,114.84423 0,5.10419 195.0915,0 0,-5.10419 -195.0915,0 z" style="fill:#c4c4c4;fill-opacity:1;fill-rule:evenodd;stroke:none"/><path id="path16318" d="m 70.38301,119.94842 0,4.35357 195.0915,0 0,-4.35357 -195.0915,0 z" style="fill:#c6c6c6;fill-opacity:1;fill-rule:evenodd;stroke:none"/><path id="path16320" d="m 70.38301,124.30199 0,3.9032 195.0915,0 0,-3.9032 -195.0915,0 z" style="fill:#c8c8c8;fill-opacity:1;fill-rule:evenodd;stroke:none"/><path id="path16322" d="m 70.38301,128.20519 0,3.15259 195.0915,0 0,-3.15259 -195.0915,0 z" style="fill:#cacaca;fill-opacity:1;fill-rule:evenodd;stroke:none"/><path id="path16324" d="m 70.38301,131.35778 0,3.45283 195.0915,0 0,-3.45283 -195.0915,0 z" style="fill:#ccc;fill-opacity:1;fill-rule:evenodd;stroke:none"/><path id="path16326" d="m 70.38301,134.81061 0,3.15259 195.0915,0 0,-3.15259 -195.0915,0 z" style="fill:#cecece;fill-opacity:1;fill-rule:evenodd;stroke:none"/><path id="path16328" d="m 70.38301,137.9632 0,2.70221 195.0915,0 0,-2.70221 -195.0915,0 z" style="fill:#d0d0d0;fill-opacity:1;fill-rule:evenodd;stroke:none"/><path id="path16330" d="m 70.38301,140.66541 0,2.85235 195.0915,0 0,-2.85235 -195.0915,0 z" style="fill:#d2d2d2;fill-opacity:1;fill-rule:evenodd;stroke:none"/><path id="path16332" d="m 70.38301,143.51776 0,3.00246 195.0915,0 0,-3.00246 -195.0915,0 z" style="fill:#d4d4d4;fill-opacity:1;fill-rule:evenodd;stroke:none"/><path id="path16334" d="m 70.38301,146.52022 0,2.85234 195.0915,0 0,-2.85234 -195.0915,0 z" style="fill:#d6d6d6;fill-opacity:1;fill-rule:evenodd;stroke:none"/><path id="path16336" d="m 70.38301,149.37256 0,2.70222 195.0915,0 0,-2.70222 -195.0915,0 z" style="fill:#d8d8d8;fill-opacity:1;fill-rule:evenodd;stroke:none"/><path id="path16338" d="m 70.38301,152.07478 0,3.15258 195.0915,0 0,-3.15258 -195.0915,0 z" style="fill:#dadada;fill-opacity:1;fill-rule:evenodd;stroke:none"/><path id="path16340" d="m 70.38301,155.22736 0,3.45284 195.0915,0 0,-3.45284 -195.0915,0 z" style="fill:#dcdcdc;fill-opacity:1;fill-rule:evenodd;stroke:none"/><path id="path16342" d="m 70.38301,158.6802 0,3.15258 195.0915,0 0,-3.15258 -195.0915,0 z" style="fill:#dedede;fill-opacity:1;fill-rule:evenodd;stroke:none"/><path id="path16344" d="m 70.38301,161.83278 0,3.90321 195.0915,0 0,-3.90321 -195.0915,0 z" style="fill:#e0e0e0;fill-opacity:1;fill-rule:evenodd;stroke:none"/><path id="path16346" d="m 70.38301,165.73599 0,4.35357 195.0915,0 0,-4.35357 -195.0915,0 z" style="fill:#e2e2e2;fill-opacity:1;fill-rule:evenodd;stroke:none"/><path id="path16348" d="m 70.38301,170.08956 0,5.10419 195.0915,0 0,-5.10419 -195.0915,0 z" style="fill:#e4e4e4;fill-opacity:1;fill-rule:evenodd;stroke:none"/><path id="path16350" d="m 70.38301,175.19375 0,6.30517 195.0915,0 0,-6.30517 -195.0915,0 z" style="fill:#e6e6e6;fill-opacity:1;fill-rule:evenodd;stroke:none"/><path id="path16352" d="m 70.38301,181.49892 0,10.95899 195.0915,0 0,-10.95899 -195.0915,0 z" style="fill:#e8e8e8;fill-opacity:1;fill-rule:evenodd;stroke:none"/><path id="path16354" d="m 70.38301,192.45791 0,5.25431 195.0915,0 0,-5.25431 -195.0915,0 z" style="fill:#eaeaea;fill-opacity:1;fill-rule:evenodd;stroke:none"/><path id="path16356" d="m 88.147591,197.58086 157.573899,0" style="fill:none;stroke:#000;stroke-width:.93793988px;stroke-linecap:round;stroke-linejoin:round;stroke-opacity:1;stroke-dasharray:none"/><path id="path16358" d="m 88.147591,218.2228 157.573899,0" style="fill:none;stroke:#000;stroke-width:.93793988px;stroke-linecap:round;stroke-linejoin:round;stroke-opacity:1;stroke-dasharray:none"/><path id="path16360" d="m 72.202613,207.90183 190.401797,0" style="fill:none;stroke:#000;stroke-width:.93793988px;stroke-linecap:round;stroke-linejoin:round;stroke-opacity:1;stroke-dasharray:none"/><path id="path16362" d="m 275.54798,171.30931 c -19.58418,0 -35.45413,15.87552 -35.45413,35.4666 0,19.59107 15.86995,35.4666 35.45413,35.4666 19.58419,0 35.45413,-15.87553 35.45413,-35.4666 0,-19.59108 -15.86994,-35.4666 -35.45413,-35.4666" style="fill:#fff;fill-opacity:1;fill-rule:evenodd;stroke:none"/><path id="path16364" d="m 275.54798,171.30931 c -19.58418,0 -35.45413,15.87552 -35.45413,35.4666 0,19.59107 15.86995,35.4666 35.45413,35.4666 19.58419,0 35.45413,-15.87553 35.45413,-35.4666 0,-19.59108 -15.86994,-35.4666 -35.45413,-35.4666" style="fill:none;stroke:#000;stroke-width:.93793988px;stroke-linecap:round;stroke-linejoin:round;stroke-opacity:1;stroke-dasharray:none"/><path id="path16366" d="m 57.880271,22.743661 c -11.743008,0 -21.263098,9.523439 -21.263098,21.270577 0,11.747139 9.52009,21.270578 21.263098,21.270578 11.743007,0 21.263097,-9.523439 21.263097,-21.270578 0,-11.747138 -9.52009,-21.270577 -21.263097,-21.270577" style="fill:#fff;fill-opacity:1;fill-rule:evenodd;stroke:none"/><path id="path16368" d="m 57.880271,22.743661 c -11.743008,0 -21.263098,9.523439 -21.263098,21.270577 0,11.747139 9.52009,21.270578 21.263098,21.270578 11.743007,0 21.263097,-9.523439 21.263097,-21.270578 0,-11.747138 -9.52009,-21.270577 -21.263097,-21.270577" style="fill:none;stroke:#000;stroke-width:.93793988px;stroke-linecap:round;stroke-linejoin:round;stroke-opacity:1;stroke-dasharray:none"/><path id="path16370" d="m 57.945927,173.18585 c -19.584185,0 -35.454128,15.87552 -35.454128,35.4666 0,19.59107 15.869943,35.4666 35.454128,35.4666 19.584185,0 35.454128,-15.87553 35.454128,-35.4666 0,-19.59108 -15.869943,-35.4666 -35.454128,-35.4666" style="fill:#fff;fill-opacity:1;fill-rule:evenodd;stroke:none"/><path id="path16372" d="m 57.945927,173.18585 c -19.584185,0 -35.454128,15.87552 -35.454128,35.4666 0,19.59107 15.869943,35.4666 35.454128,35.4666 19.584185,0 35.454128,-15.87553 35.454128,-35.4666 0,-19.59108 -15.869943,-35.4666 -35.454128,-35.4666" style="fill:none;stroke:#000;stroke-width:.93793988px;stroke-linecap:round;stroke-linejoin:round;stroke-opacity:1;stroke-dasharray:none"/><path id="path16374" d="m 60.009394,178.81547 214.788236,0" style="fill:none;stroke:#36f;stroke-width:2.81381965px;stroke-linecap:butt;stroke-linejoin:round;stroke-opacity:1;stroke-dasharray:none"/><path id="path16376" d="m 58.133515,173.24214 0,-98.51833" style="fill:none;stroke:#000;stroke-width:.93793988px;stroke-linecap:round;stroke-linejoin:round;stroke-opacity:1;stroke-dasharray:none"/><path id="path16378" d="m 46.878236,174.12412 0,-78.814669" style="fill:none;stroke:#000;stroke-width:.93793988px;stroke-linecap:round;stroke-linejoin:round;stroke-opacity:1;stroke-dasharray:none"/><path id="path16380" d="m 70.326733,174.12412 0,-78.814669" style="fill:none;stroke:#000;stroke-width:.93793988px;stroke-linecap:round;stroke-linejoin:round;stroke-opacity:1;stroke-dasharray:none"/><path id="path16382" d="m 58.067859,91.612668 c -6.218542,0 -11.255279,2.007897 -11.255279,4.475547 0,2.467649 5.036737,4.475545 11.255279,4.475545 6.218541,0 11.255279,-2.007896 11.255279,-4.475545 0,-2.46765 -5.036738,-4.475547 -11.255279,-4.475547" style="fill:none;stroke:#000;stroke-width:.93793988px;stroke-linecap:round;stroke-linejoin:round;stroke-opacity:1;stroke-dasharray:none"/><path id="path16384" d="m 276.67351,170.934 0,-98.518333" style="fill:none;stroke:#000;stroke-width:.93793988px;stroke-linecap:round;stroke-linejoin:round;stroke-opacity:1;stroke-dasharray:none"/><path id="path16386" d="m 265.41823,171.30931 0,-78.814669" style="fill:none;stroke:#000;stroke-width:.93793988px;stroke-linecap:round;stroke-linejoin:round;stroke-opacity:1;stroke-dasharray:none"/><path id="path16388" d="m 288.86673,172.81054 0,-78.814667" style="fill:none;stroke:#000;stroke-width:.93793988px;stroke-linecap:round;stroke-linejoin:round;stroke-opacity:1;stroke-dasharray:none"/><path id="path16390" d="m 277.10496,89.304524 c -6.20916,0 -11.25528,1.998514 -11.25528,4.466164 0,2.477033 5.04612,4.475547 11.25528,4.475547 6.21854,0 11.25528,-1.998514 11.25528,-4.475547 0,-2.46765 -5.03674,-4.466164 -11.25528,-4.466164" style="fill:none;stroke:#000;stroke-width:.93793988px;stroke-linecap:round;stroke-linejoin:round;stroke-opacity:1;stroke-dasharray:none"/><path id="path16392" d="m 58.161653,203.58579 c -2.466782,0 -4.473974,1.99852 -4.473974,4.46617 0,2.47703 2.007192,4.47554 4.473974,4.47554 2.466782,0 4.473973,-1.99851 4.473973,-4.47554 0,-2.46765 -2.007191,-4.46617 -4.473973,-4.46617" style="fill:#fff;fill-opacity:1;fill-rule:evenodd;stroke:none"/><path id="path16394" d="m 58.161653,203.58579 c -2.466782,0 -4.473974,1.99852 -4.473974,4.46617 0,2.47703 2.007192,4.47554 4.473974,4.47554 2.466782,0 4.473973,-1.99851 4.473973,-4.47554 0,-2.46765 -2.007191,-4.46617 -4.473973,-4.46617" style="fill:none;stroke:#000;stroke-width:2.81381965px;stroke-linecap:round;stroke-linejoin:round;stroke-opacity:1;stroke-dasharray:none"/><path id="path16396" d="m 276.26082,202.51616 c -2.46679,0 -4.4646,2.0079 -4.4646,4.47555 0,2.46765 1.99781,4.47555 4.4646,4.47555 2.47616,0 4.47397,-2.0079 4.47397,-4.47555 0,-2.46765 -1.99781,-4.47555 -4.47397,-4.47555" style="fill:#fff;fill-opacity:1;fill-rule:evenodd;stroke:none"/><path id="path16398" d="m 276.26082,202.51616 c -2.46679,0 -4.4646,2.0079 -4.4646,4.47555 0,2.46765 1.99781,4.47555 4.4646,4.47555 2.47616,0 4.47397,-2.0079 4.47397,-4.47555 0,-2.46765 -1.99781,-4.47555 -4.47397,-4.47555" style="fill:none;stroke:#000;stroke-width:2.81381965px;stroke-linecap:round;stroke-linejoin:round;stroke-opacity:1;stroke-dasharray:none"/><path id="path16400" d="m 277.35821,21.87107 c -11.74301,0 -21.2631,9.523439 -21.2631,21.270577 0,11.747139 9.52009,21.261195 21.2631,21.261195 11.743,0 21.26309,-9.514056 21.26309,-21.261195 0,-11.747138 -9.52009,-21.270577 -21.26309,-21.270577" style="fill:#fff;fill-opacity:1;fill-rule:evenodd;stroke:none"/><path id="path16402" d="m 277.35821,21.87107 c -11.74301,0 -21.2631,9.523439 -21.2631,21.270577 0,11.747139 9.52009,21.261195 21.2631,21.261195 11.743,0 21.26309,-9.514056 21.26309,-21.261195 0,-11.747138 -9.52009,-21.270577 -21.26309,-21.270577" style="fill:none;stroke:#000;stroke-width:.93793988px;stroke-linecap:round;stroke-linejoin:round;stroke-opacity:1;stroke-dasharray:none"/><path id="path16404" d="m 78.768192,44.079917 176.764148,0" style="fill:none;stroke:#000;stroke-width:.93793988px;stroke-linecap:round;stroke-linejoin:round;stroke-opacity:1;stroke-dasharray:none"/><path id="path16406" d="m 77.389421,52.524346 181.463229,0" style="fill:none;stroke:#000;stroke-width:.93793988px;stroke-linecap:round;stroke-linejoin:round;stroke-opacity:1;stroke-dasharray:none"/><path id="path16408" d="m 77.389421,35.006848 180.018799,0" style="fill:none;stroke:#000;stroke-width:.93793988px;stroke-linecap:round;stroke-linejoin:round;stroke-opacity:1;stroke-dasharray:none"/><path id="path16410" d="m 46.81258,63.408276 0,13.135778" style="fill:none;stroke:#000;stroke-width:.93793988px;stroke-linecap:round;stroke-linejoin:round;stroke-opacity:1;stroke-dasharray:none"/><path id="path16412" d="m 69.013617,63.408276 0,13.135778" style="fill:none;stroke:#000;stroke-width:.93793988px;stroke-linecap:round;stroke-linejoin:round;stroke-opacity:1;stroke-dasharray:none"/><path id="path16414" d="m 57.570751,73.288257 c -6.218542,0 -11.255279,2.007898 -11.255279,4.475548 0,2.467649 5.036737,4.466164 11.255279,4.466164 6.218541,0 11.255278,-1.998515 11.255278,-4.466164 0,-2.46765 -5.036737,-4.475548 -11.255278,-4.475548" style="fill:#fff;fill-opacity:1;fill-rule:evenodd;stroke:none"/><path id="path16416" d="m 57.570751,73.288257 c -6.218542,0 -11.255279,2.007898 -11.255279,4.475548 0,2.467649 5.036737,4.466164 11.255279,4.466164 6.218541,0 11.255278,-1.998515 11.255278,-4.466164 0,-2.46765 -5.036737,-4.475548 -11.255278,-4.475548" style="fill:none;stroke:#000;stroke-width:.93793988px;stroke-linecap:round;stroke-linejoin:round;stroke-opacity:1;stroke-dasharray:none"/><path id="path16418" d="m 48.754116,67.161355 0,10.377265 19.255906,0 0,-10.377265 -19.255906,0 z" style="fill:#fff;fill-opacity:1;fill-rule:evenodd;stroke:none"/><path id="path16420" d="m 265.84968,62.404327 0,13.135778" style="fill:none;stroke:#000;stroke-width:.93793988px;stroke-linecap:round;stroke-linejoin:round;stroke-opacity:1;stroke-dasharray:none"/><path id="path16422" d="m 288.05072,62.404327 0,13.135778" style="fill:none;stroke:#000;stroke-width:.93793988px;stroke-linecap:round;stroke-linejoin:round;stroke-opacity:1;stroke-dasharray:none"/><path id="path16424" d="m 276.60785,72.284309 c -6.21854,0 -11.25527,2.007897 -11.25527,4.475547 0,2.46765 5.03673,4.475547 11.25527,4.475547 6.21855,0 11.25528,-2.007897 11.25528,-4.475547 0,-2.46765 -5.03673,-4.475547 -11.25528,-4.475547" style="fill:#fff;fill-opacity:1;fill-rule:evenodd;stroke:none"/><path id="path16426" d="m 276.60785,72.284309 c -6.21854,0 -11.25527,2.007897 -11.25527,4.475547 0,2.46765 5.03673,4.475547 11.25527,4.475547 6.21855,0 11.25528,-2.007897 11.25528,-4.475547 0,-2.46765 -5.03673,-4.475547 -11.25528,-4.475547" style="fill:none;stroke:#000;stroke-width:.93793988px;stroke-linecap:round;stroke-linejoin:round;stroke-opacity:1;stroke-dasharray:none"/><path id="path16428" d="m 267.79122,66.157407 0,10.386647 19.2559,0 0,-10.386647 -19.2559,0 z" style="fill:#fff;fill-opacity:1;fill-rule:evenodd;stroke:none"/><path id="path16430" d="m 277.70524,38.31894 c -2.46678,0 -4.47397,2.007898 -4.47397,4.475548 0,2.467649 2.00719,4.475547 4.47397,4.475547 2.46679,0 4.4646,-2.007898 4.4646,-4.475547 0,-2.46765 -1.99781,-4.475548 -4.4646,-4.475548" style="fill:#fff;fill-opacity:1;fill-rule:evenodd;stroke:none"/><path id="path16432" d="m 277.70524,38.31894 c -2.46678,0 -4.47397,2.007898 -4.47397,4.475548 0,2.467649 2.00719,4.475547 4.47397,4.475547 2.46679,0 4.4646,-2.007898 4.4646,-4.475547 0,-2.46765 -1.99781,-4.475548 -4.4646,-4.475548" style="fill:none;stroke:#000;stroke-width:2.81381965px;stroke-linecap:round;stroke-linejoin:round;stroke-opacity:1;stroke-dasharray:none"/><path id="path16434" d="m 58.227309,39.322889 c -2.466782,0 -4.473974,2.007898 -4.473974,4.475547 0,2.46765 2.007192,4.466165 4.473974,4.466165 2.466781,0 4.464593,-1.998515 4.464593,-4.466165 0,-2.467649 -1.997812,-4.475547 -4.464593,-4.475547" style="fill:#fff;fill-opacity:1;fill-rule:evenodd;stroke:none"/><path id="path16436" d="m 58.227309,39.322889 c -2.466782,0 -4.473974,2.007898 -4.473974,4.475547 0,2.46765 2.007192,4.466165 4.473974,4.466165 2.466781,0 4.464593,-1.998515 4.464593,-4.466165 0,-2.467649 -1.997812,-4.475547 -4.464593,-4.475547" style="fill:none;stroke:#000;stroke-width:2.81381965px;stroke-linecap:round;stroke-linejoin:round;stroke-opacity:1;stroke-dasharray:none"/><path id="path16438" d="m 1.3506334,178.93744 59.4091126,0" style="fill:none;stroke:#000;stroke-width:2.81381965px;stroke-linecap:butt;stroke-linejoin:round;stroke-opacity:1;stroke-dasharray:none"/><path id="path16440" d="m 275.86688,178.94682 59.39036,0" style="fill:none;stroke:#000;stroke-width:2.81381965px;stroke-linecap:butt;stroke-linejoin:round;stroke-opacity:1;stroke-dasharray:none"/><path id="path16442" d="m 54.287961,212.2554 -17.755202,15.14368 c -0.262623,0.22518 -0.656558,0.18765 -0.881664,-0.0751 -0.225105,-0.26272 -0.196967,-0.65679 0.06566,-0.88198 l 17.755202,-15.14367 c 0.262623,-0.2158 0.656558,-0.18766 0.881664,0.0751 0.225105,0.26272 0.196967,0.65679 -0.06566,0.88197 z m -14.772553,16.71059 -8.150698,2.01728 3.28279,-7.73134 z" style="fill:#000;fill-opacity:1;fill-rule:nonzero;stroke:#000;stroke-width:.15007038px;stroke-linecap:butt;stroke-linejoin:bevel;stroke-opacity:1;stroke-dasharray:none"/><path id="path16444" d="m 273.83155,210.31319 -15.62608,18.20243 c -0.2251,0.26272 -0.61904,0.29086 -0.88166,0.0751 -0.26262,-0.22518 -0.29076,-0.62864 -0.0657,-0.89135 l 15.62608,-18.20244 c 0.22511,-0.26271 0.61904,-0.29086 0.88167,-0.0657 0.26262,0.22519 0.29076,0.61926 0.0657,0.88198 z m -12.43708,19.29082 -7.73801,3.2558 2.04471,-8.14418 z" style="fill:#000;fill-opacity:1;fill-rule:nonzero;stroke:#000;stroke-width:.15007038px;stroke-linecap:butt;stroke-linejoin:bevel;stroke-opacity:1;stroke-dasharray:none"/><text id="text16446" style="font-size:13.80647564px;font-style:normal;font-weight:700;text-align:start;text-anchor:start;fill:#000;font-family:Calibri" x="265.775" y="13.061" xml:space="preserve">V</text><text id="text16448" style="font-size:8.70408249px;font-style:normal;font-weight:700;text-align:start;text-anchor:start;fill:#000;font-family:Calibri" x="273.878" y="15.012" xml:space="preserve">3</text><text id="text16452" style="font-size:13.80647564px;font-style:normal;font-weight:700;text-align:start;text-anchor:start;fill:#000;font-family:Calibri" x="41.569" y="232.241" xml:space="preserve">Tol(V</text><text id="text16454" style="font-size:8.70408249px;font-style:normal;font-weight:700;text-align:start;text-anchor:start;fill:#000;font-family:Calibri" x="71.734" y="234.192" xml:space="preserve">1</text><text id="text16456" style="font-size:13.80647564px;font-style:normal;font-weight:700;text-align:start;text-anchor:start;fill:#000;font-family:Calibri" x="76.086" y="232.241" xml:space="preserve">)</text><text id="text16460" style="font-size:13.80647564px;font-style:normal;font-weight:700;text-align:start;text-anchor:start;fill:#000;font-family:Calibri" x="256.32" y="206.419" xml:space="preserve">V</text><text id="text16462" style="font-size:8.70408249px;font-style:normal;font-weight:700;text-align:start;text-anchor:start;fill:#000;font-family:Calibri" x="264.424" y="208.371" xml:space="preserve">2</text><text id="text16466" style="font-size:13.80647564px;font-style:normal;font-weight:700;text-align:start;text-anchor:start;fill:#000;font-family:Calibri" x="151.271" y="236.444" xml:space="preserve">E</text><text id="text16468" style="font-size:8.70408249px;font-style:normal;font-weight:700;text-align:start;text-anchor:start;fill:#000;font-family:Calibri" x="158.024" y="238.396" xml:space="preserve">12</text><text id="text16472" style="font-size:13.80647564px;font-style:normal;font-weight:700;text-align:start;text-anchor:start;fill:#000;font-family:Calibri" x="296.689" y="128.505" xml:space="preserve">E</text><text id="text16474" style="font-size:8.70408249px;font-style:normal;font-weight:700;text-align:start;text-anchor:start;fill:#000;font-family:Calibri" x="303.442" y="130.457" xml:space="preserve">23</text><text id="text16478" style="font-size:13.80647564px;font-style:normal;font-weight:700;text-align:start;text-anchor:start;fill:#000;font-family:Calibri" x="20.86" y="121.9" xml:space="preserve">E</text><text id="text16480" style="font-size:8.70408249px;font-style:normal;font-weight:700;text-align:start;text-anchor:start;fill:#000;font-family:Calibri" x="27.613" y="123.852" xml:space="preserve">41</text><text id="text16484" style="font-size:13.80647564px;font-style:normal;font-weight:700;text-align:start;text-anchor:start;fill:#000;font-family:Calibri" x="86.591" y="116.345" xml:space="preserve">F</text><text id="text16486" style="font-size:8.70408249px;font-style:normal;font-weight:700;text-align:start;text-anchor:start;fill:#000;font-family:Calibri" x="92.894" y="118.297" xml:space="preserve">1</text><text id="text16490" style="font-size:13.80647564px;font-style:normal;font-weight:700;text-align:start;text-anchor:start;fill:#000;font-family:Calibri" x="96.795" y="167.988" xml:space="preserve">C</text><text id="text16492" style="font-size:8.70408249px;font-style:normal;font-weight:700;text-align:start;text-anchor:start;fill:#000;font-family:Calibri" x="104.149" y="169.939" xml:space="preserve">12</text><text id="text16496" style="font-size:13.80647564px;font-style:normal;font-weight:700;text-align:start;text-anchor:start;fill:#000;font-family:Calibri" x="156.373" y="26.272" xml:space="preserve">E</text><text id="text16498" style="font-size:8.70408249px;font-style:normal;font-weight:700;text-align:start;text-anchor:start;fill:#000;font-family:Calibri" x="163.127" y="28.223" xml:space="preserve">34</text><text id="text16502" style="font-size:13.80647564px;font-style:normal;font-weight:700;text-align:start;text-anchor:start;fill:#000;font-family:Calibri" x="48.623" y="14.562" xml:space="preserve">V</text><text id="text16504" style="font-size:8.70408249px;font-style:normal;font-weight:700;text-align:start;text-anchor:start;fill:#000;font-family:Calibri" x="56.727" y="16.514" xml:space="preserve">4</text><text id="text16508" style="font-size:13.80647564px;font-style:normal;font-weight:700;text-align:start;text-anchor:start;fill:#000;font-family:Calibri" x="324.752" y="169.789" xml:space="preserve">F</text><text id="text16510" style="font-size:8.70408249px;font-style:normal;font-weight:700;text-align:start;text-anchor:start;fill:#000;font-family:Calibri" x="331.055" y="171.741" xml:space="preserve">2</text><text id="text16514" style="font-size:13.80647564px;font-style:normal;font-weight:700;text-align:start;text-anchor:start;fill:#000;font-family:Calibri" x="191.64" y="168.889" xml:space="preserve">EC</text><text id="text16516" style="font-size:8.70408249px;font-style:normal;font-weight:700;text-align:start;text-anchor:start;fill:#000;font-family:Calibri" x="205.746" y="170.84" xml:space="preserve">12</text><text id="text16520" style="font-size:13.80647564px;font-style:normal;font-weight:700;text-align:start;text-anchor:start;fill:#000;font-family:Calibri" x="65.881" y="201.315" xml:space="preserve">V</text><text id="text16522" style="font-size:8.70408249px;font-style:normal;font-weight:700;text-align:start;text-anchor:start;fill:#000;font-family:Calibri" x="73.985" y="203.267" xml:space="preserve">1</text><text id="text16526" style="font-size:13.80647564px;font-style:normal;font-weight:700;text-align:start;text-anchor:start;fill:#000;font-family:Calibri" x="264.724" y="228.938" xml:space="preserve">Tol(V</text><text id="text16528" style="font-size:8.70408249px;font-style:normal;font-weight:700;text-align:start;text-anchor:start;fill:#000;font-family:Calibri" x="294.888" y="230.889" xml:space="preserve">2</text><text id="text16530" style="font-size:13.80647564px;font-style:normal;font-weight:700;text-align:start;text-anchor:start;fill:#000;font-family:Calibri" x="299.24" y="228.938" xml:space="preserve">)</text></g></g></svg>