<svg xmlns="http://www.w3.org/2000/svg" xmlns:svg="http://www.w3.org/2000/svg" id="svg4700" width="615.35" height="352.212" version="1.1"><defs id="defs4702"><marker id="Arrow2Mend" orient="auto" refX="0" refY="0" style="overflow:visible"><path id="path4172" style="fill-rule:evenodd;stroke-width:.625;stroke-linejoin:round" d="M 8.7185878,4.0337352 L -2.2072895,0.016013256 L 8.7185884,-4.0017078 C 6.9730900,-1.6296469 6.9831476,1.6157441 8.7185878,4.0337352 z" transform="scale(0.6) rotate(180) translate(0,0)"/></marker><clipPath id="clipEmfPath1" clipPathUnits="userSpaceOnUse"><rect id="rect4713" width="26.598" height="15.954" x="10.819" y="158.786"/></clipPath><clipPath id="clipEmfPath2" clipPathUnits="userSpaceOnUse"><rect id="rect4716" width="58.154" height="15.954" x="79.192" y="208.755"/></clipPath><clipPath id="clipEmfPath3" clipPathUnits="userSpaceOnUse"><rect id="rect4719" width="26.598" height="15.803" x="185.882" y="80.221"/></clipPath><clipPath id="clipEmfPath4" clipPathUnits="userSpaceOnUse"><rect id="rect4722" width="47.635" height="15.803" x="202.863" y="200.628"/></clipPath><clipPath id="clipEmfPath5" clipPathUnits="userSpaceOnUse"><rect id="rect4725" width="26.598" height="15.803" x="327.135" y="157.733"/></clipPath><clipPath id="clipEmfPath6" clipPathUnits="userSpaceOnUse"><rect id="rect4728" width="26.598" height="15.954" x="502.198" y="79.017"/></clipPath><clipPath id="clipEmfPath7" clipPathUnits="userSpaceOnUse"><rect id="rect4731" width="21.338" height="15.803" x="389.496" y="205.895"/></clipPath><clipPath id="clipEmfPath8" clipPathUnits="userSpaceOnUse"><rect id="rect4734" width="28.852" height="15.954" x="595.364" y="181.362"/></clipPath><clipPath id="clipEmfPath9" clipPathUnits="userSpaceOnUse"><rect id="rect4737" width="26.598" height="15.954" x="440.287" y="112.881"/></clipPath><clipPath id="clipEmfPath10" clipPathUnits="userSpaceOnUse"><rect id="rect4740" width="53.646" height="15.954" x="360.645" y="106.861"/></clipPath><clipPath id="clipEmfPath11" clipPathUnits="userSpaceOnUse"><rect id="rect4743" width="28.852" height="15.954" x="487.622" y="0"/></clipPath><clipPath id="clipEmfPath12" clipPathUnits="userSpaceOnUse"><rect id="rect4746" width="21.338" height="15.803" x="527.743" y="251.048"/></clipPath></defs><metadata id="metadata4705"/><g id="layer1" transform="translate(233.3893,-241.99703)"><g id="g4748" transform="translate(-232.63796,240.96578)"><path id="path4752" d="m 13.768363,215.21744 c 22.596645,-19.3121 45.202682,-38.56775 71.377598,-48.9152 26.165529,-10.34744 56.538569,-13.61159 85.653119,-13.16947 29.11455,0.44212 71.99746,12.53922 89.03416,15.80337" style="fill:none;stroke:#000;stroke-width:2.81753683px;stroke-linecap:butt;stroke-linejoin:round;stroke-opacity:1;stroke-dasharray:none"/><text id="text4754" style="font-size:13.82471371px;font-style:normal;font-weight:700;text-align:start;text-anchor:start;fill:#000;font-family:Calibri" x="19.685" y="171.88" xml:space="preserve">E</text><text id="text4756" style="font-size:8.71557999px;font-style:normal;font-weight:700;text-align:start;text-anchor:start;fill:#000;font-family:Calibri" x="26.447" y="173.837" xml:space="preserve">j</text><path id="path4760" d="m 259.23217,165.10758 c -1.9535,0 -3.53132,1.58975 -3.53132,3.54636 0,1.9566 1.57782,3.54635 3.53132,3.54635 1.96288,0 3.5407,-1.58975 3.5407,-3.54635 0,-1.95661 -1.57782,-3.54636 -3.5407,-3.54636" clip-path="url(#clipEmfPath1)" style="fill:#fff;fill-opacity:1;fill-rule:evenodd;stroke:none"/><path id="path4762" d="m 263.16161,166.67936 c -1.9535,0 -3.53132,1.58975 -3.53132,3.54636 0,1.9566 1.57782,3.54635 3.53132,3.54635 1.96288,0 3.5407,-1.58975 3.5407,-3.54635 0,-1.95661 -1.57782,-3.54636 -3.5407,-3.54636" style="fill:none;stroke:#000;stroke-width:2.81753683px;stroke-linecap:round;stroke-linejoin:round;stroke-opacity:1;stroke-dasharray:none"/><path id="path4764" d="m 13.167289,211.70871 c -1.953493,0 -3.5313132,1.58034 -3.5313132,3.53695 0,1.96601 1.5778202,3.54635 3.5313132,3.54635 1.962883,0 3.540704,-1.58034 3.540704,-3.54635 0,-1.95661 -1.577821,-3.53695 -3.540704,-3.53695" style="fill:#fff;fill-opacity:1;fill-rule:evenodd;stroke:none"/><path id="path4766" d="m 13.167289,211.70871 c -1.953493,0 -3.5313132,1.58034 -3.5313132,3.53695 0,1.96601 1.5778202,3.54635 3.5313132,3.54635 1.962883,0 3.540704,-1.58034 3.540704,-3.54635 0,-1.95661 -1.577821,-3.53695 -3.540704,-3.53695" style="fill:none;stroke:#000;stroke-width:2.81753683px;stroke-linecap:round;stroke-linejoin:round;stroke-opacity:1;stroke-dasharray:none"/><path id="path4768" d="m 26.165525,224.18209 c 21.047,-17.90108 42.093999,-35.73631 66.475084,-45.33122 24.371691,-9.58549 52.650371,-12.61447 79.764471,-12.20058 27.11409,0.4045 67.05737,11.61736 82.9201,14.64634" style="fill:none;stroke:#000;stroke-width:.93917894px;stroke-linecap:round;stroke-linejoin:round;stroke-opacity:1;stroke-dasharray:none"/><path id="path4770" d="M 5.1279169,202.35838 C 28.832793,182.02095 52.537669,161.74937 79.989869,150.84693 c 27.452201,-10.89304 59.299761,-14.33592 89.841861,-13.86558 30.5327,0.46093 75.51937,13.2071 93.38256,16.64057" style="fill:none;stroke:#000;stroke-width:.93917894px;stroke-linecap:round;stroke-linejoin:round;stroke-opacity:1;stroke-dasharray:none"/><path id="path4772" d="m 4.8273797,202.31135 c -4.42353276,4.09194 -3.3340852,12.48278 2.4324734,18.73828 5.7759499,6.26491 14.0313329,8.02397 18.4548659,3.94144 4.423533,-4.09195 3.334085,-12.48278 -2.441865,-18.73828 -5.766559,-6.26491 -14.0313334,-8.02398 -18.4454743,-3.94144" style="fill:none;stroke:#000;stroke-width:.93917894px;stroke-linecap:round;stroke-linejoin:round;stroke-opacity:1;stroke-dasharray:none"/><path id="path4774" d="m 266.73903,153.72792 c -6.74815,-1.08766 -13.59254,4.99552 -15.29294,13.58128 -1.70041,8.57612 2.38484,16.4111 9.12228,17.49876 6.74815,1.08766 13.59255,-4.99552 15.30364,-13.58128 1.70041,-8.57613 -2.38483,-16.41111 -9.13298,-17.49876" style="fill:none;stroke:#000;stroke-width:1.01376712px;stroke-linecap:round;stroke-linejoin:round;stroke-opacity:1;stroke-dasharray:none"/><path id="path4776" d="m 58.060041,161.44835 c -5.240618,2.95373 -6.114055,11.36338 -1.9441,18.79472 4.160562,7.42194 11.796087,11.05296 17.036706,8.09923 5.25001,-2.95372 6.123446,-11.36337 1.953492,-18.79472 -4.169955,-7.43135 -11.796088,-11.05295 -17.046098,-8.09923" style="fill:none;stroke:#000;stroke-width:.30992904px;stroke-linecap:round;stroke-linejoin:round;stroke-opacity:1;stroke-dasharray:none"/><path id="path4778" d="m 87.775662,224.55836 45.831928,0" style="fill:none;stroke:#000;stroke-width:.30992904px;stroke-linecap:round;stroke-linejoin:round;stroke-opacity:1;stroke-dasharray:none"/><path id="path4780" d="M 87.193371,224.42666 74.946478,194.85178 c -0.131485,-0.31983 0.01878,-0.68669 0.338105,-0.81838 0.319321,-0.1317 0.6856,0.0188 0.817085,0.33864 l 12.246894,29.57488 c 0.131485,0.31983 -0.01878,0.68669 -0.338105,0.81839 -0.319321,0.13169 -0.6856,-0.0188 -0.817086,-0.33865 z m -14.660583,-27.21378 0.591683,-8.40024 6.34885,5.51237 z" style="fill:#000;fill-opacity:1;fill-rule:nonzero;stroke:#000;stroke-width:.15026863px;stroke-linecap:butt;stroke-linejoin:bevel;stroke-opacity:1;stroke-dasharray:none"/><path id="path4782" d="M 73.124471,188.81264 67.113726,176.39571" style="fill:none;stroke:#000;stroke-width:.30992904px;stroke-linecap:round;stroke-linejoin:round;stroke-opacity:1;stroke-dasharray:none"/><text id="text4784" style="font-size:13.82471371px;font-style:normal;font-weight:700;text-align:start;text-anchor:start;fill:#000;font-family:Calibri" x="90.762" y="221.849" xml:space="preserve">Tol(E</text><text id="text4786" style="font-size:8.71557999px;font-style:normal;font-weight:700;text-align:start;text-anchor:start;fill:#000;font-family:Calibri" x="119.464" y="223.806" xml:space="preserve">j</text><text id="text4788" style="font-size:13.82471371px;font-style:normal;font-weight:700;text-align:start;text-anchor:start;fill:#000;font-family:Calibri" x="121.718" y="221.849" xml:space="preserve">)</text><path id="path4792" d="m 168.54505,48.087396 0.75134,210.335324" clip-path="url(#clipEmfPath2)" style="fill:none;stroke:#000;stroke-width:2.81753683px;stroke-linecap:butt;stroke-linejoin:round;stroke-opacity:1;stroke-dasharray:none"/><path id="path4794" d="m 183.57191,48.839937 0.75135,210.335323" style="fill:none;stroke:#000;stroke-width:.30992904px;stroke-linecap:round;stroke-linejoin:round;stroke-opacity:1;stroke-dasharray:none"/><path id="path4796" d="M 152.76684,49.592479 153.51819,259.9278" style="fill:none;stroke:#000;stroke-width:.30992904px;stroke-linecap:round;stroke-linejoin:round;stroke-opacity:1;stroke-dasharray:none"/><path id="path4798" d="m 184.32326,257.57611 c -0.0376,-6.02974 -6.96871,-10.86482 -15.47767,-10.81778 -8.49957,0.0564 -15.36497,4.98558 -15.3274,11.01532 0.0376,6.02974 6.9687,10.86482 15.46827,10.80838 8.50897,-0.047 15.37436,-4.97618 15.3368,-11.00592" style="fill:none;stroke:#000;stroke-width:.93917894px;stroke-linecap:round;stroke-linejoin:round;stroke-opacity:1;stroke-dasharray:none"/><path id="path4800" d="m 183.57191,51.379765 c -0.0376,-6.029738 -6.9687,-10.864817 -15.47767,-10.817783 -8.49957,0.05644 -15.36496,4.985587 -15.3274,11.015325 0.0376,6.029738 6.96871,10.864816 15.46828,10.808376 8.50896,-0.04703 15.37436,-4.97618 15.33679,-11.005918" style="fill:none;stroke:#000;stroke-width:.93917894px;stroke-linecap:round;stroke-linejoin:round;stroke-opacity:1;stroke-dasharray:none"/><path id="path4802" d="m 168.76106,46.958584 c -1.95349,0 -3.5407,1.589744 -3.5407,3.546351 0,1.956608 1.58721,3.546352 3.5407,3.546352 1.95349,0 3.54071,-1.589744 3.54071,-3.546352 0,-1.956607 -1.58722,-3.546351 -3.54071,-3.546351" style="fill:#fff;fill-opacity:1;fill-rule:evenodd;stroke:none"/><path id="path4804" d="m 168.76106,46.958584 c -1.95349,0 -3.5407,1.589744 -3.5407,3.546351 0,1.956608 1.58721,3.546352 3.5407,3.546352 1.95349,0 3.54071,-1.589744 3.54071,-3.546352 0,-1.956607 -1.58722,-3.546351 -3.54071,-3.546351" style="fill:none;stroke:#000;stroke-width:2.81753683px;stroke-linecap:round;stroke-linejoin:round;stroke-opacity:1;stroke-dasharray:none"/><path id="path4806" d="m 169.13673,254.66001 c -1.95349,0 -3.5407,1.58975 -3.5407,3.54635 0,1.95661 1.58721,3.54636 3.5407,3.54636 1.95349,0 3.54071,-1.58975 3.54071,-3.54636 0,-1.9566 -1.58722,-3.54635 -3.54071,-3.54635" style="fill:#fff;fill-opacity:1;fill-rule:evenodd;stroke:none"/><path id="path4808" d="m 169.13673,254.66001 c -1.95349,0 -3.5407,1.58975 -3.5407,3.54635 0,1.95661 1.58721,3.54636 3.5407,3.54636 1.95349,0 3.54071,-1.58975 3.54071,-3.54636 0,-1.9566 -1.58722,-3.54635 -3.54071,-3.54635" style="fill:none;stroke:#000;stroke-width:2.81753683px;stroke-linecap:round;stroke-linejoin:round;stroke-opacity:1;stroke-dasharray:none"/><path id="path4810" d="m 184.32326,218.06769 c -0.0376,-6.02974 -6.96871,-10.86482 -15.47767,-10.81779 -8.49957,0.0564 -15.36497,4.98559 -15.3274,11.01533 0.0376,6.02974 6.9687,10.86482 15.46827,10.80837 8.50897,-0.047 15.37436,-4.97618 15.3368,-11.00591" style="fill:none;stroke:#000;stroke-width:.30992904px;stroke-linecap:round;stroke-linejoin:round;stroke-opacity:1;stroke-dasharray:none"/><text id="text4812" style="font-size:13.82471371px;font-style:normal;font-weight:700;text-align:start;text-anchor:start;fill:#000;font-family:Calibri" x="194.748" y="93.315" xml:space="preserve">E</text><text id="text4814" style="font-size:8.71557999px;font-style:normal;font-weight:700;text-align:start;text-anchor:start;fill:#000;font-family:Calibri" x="201.51" y="95.272" xml:space="preserve">i</text><path id="path4818" d="m 169.67206,218.53802 15.02687,0" clip-path="url(#clipEmfPath3)" style="fill:none;stroke:#000;stroke-width:.30992904px;stroke-linecap:round;stroke-linejoin:round;stroke-opacity:1;stroke-dasharray:none"/><path id="path4820" d="m 191.32953,217.91718 55.35521,0 c 0.34749,0 0.61985,0.2822 0.61985,0.62084 0,0.34806 -0.27236,0.63026 -0.61985,0.63026 l -55.35521,0 c -0.3381,0 -0.61986,-0.2822 -0.61986,-0.63026 0,-0.33864 0.28176,-0.62084 0.61986,-0.62084 z m 1.2585,4.38355 -7.51343,-3.76271 7.51343,-3.7627 z" style="fill:#000;fill-opacity:1;fill-rule:nonzero;stroke:#000;stroke-width:.15026863px;stroke-linecap:butt;stroke-linejoin:bevel;stroke-opacity:1;stroke-dasharray:none"/><text id="text4822" style="font-size:13.82471371px;font-style:normal;font-weight:700;text-align:start;text-anchor:start;fill:#000;font-family:Calibri" x="209.174" y="213.722" xml:space="preserve">Tol(E</text><text id="text4824" style="font-size:8.71557999px;font-style:normal;font-weight:700;text-align:start;text-anchor:start;fill:#000;font-family:Calibri" x="237.875" y="215.678" xml:space="preserve">i</text><text id="text4826" style="font-size:13.82471371px;font-style:normal;font-weight:700;text-align:start;text-anchor:start;fill:#000;font-family:Calibri" x="239.979" y="213.722" xml:space="preserve">)</text><path id="path4830" d="m 481.23528,278.64727 0.60108,0.71491 c 0.0564,0.0753 0.0376,0.16933 -0.0188,0.22577 -0.0751,0.0564 -0.16905,0.0564 -0.2254,-0.0188 l -0.60107,-0.71491 c -0.0564,-0.0753 -0.0564,-0.16932 0.0188,-0.22576 0.0564,-0.0564 0.16905,-0.0376 0.2254,0.0188 z m 1.40877,1.6744 0.60107,0.73373 c 0.0564,0.0564 0.0376,0.15051 -0.0188,0.20695 -0.0751,0.0564 -0.16905,0.0564 -0.2254,-0.0188 l -0.60108,-0.71492 c -0.0564,-0.0564 -0.0564,-0.16932 0.0188,-0.22576 0.0564,-0.0564 0.16905,-0.0376 0.2254,0.0188 z m 1.40877,1.69322 0.60107,0.71492 c 0.0564,0.0753 0.0376,0.16932 -0.0188,0.22576 -0.0751,0.0564 -0.16905,0.0376 -0.2254,-0.0188 l -0.60108,-0.73373 c -0.0564,-0.0564 -0.0564,-0.15051 0.0188,-0.20695 0.0564,-0.0564 0.16905,-0.0564 0.2254,0.0188 z m 1.40877,1.67441 0.60107,0.71491 c 0.0564,0.0753 0.0376,0.16932 -0.0188,0.22576 -0.0751,0.0564 -0.16905,0.0564 -0.22541,-0.0188 l -0.60107,-0.71491 c -0.0564,-0.0753 -0.0564,-0.16933 0.0188,-0.22577 0.0564,-0.0564 0.16906,-0.0376 0.22541,0.0188 z m 1.40877,1.6744 0.60107,0.73373 c 0.0564,0.0564 0.0376,0.15051 -0.0188,0.20695 -0.0751,0.0564 -0.16906,0.0564 -0.22541,-0.0188 l -0.60107,-0.71492 c -0.0564,-0.0564 -0.0564,-0.16932 0.0188,-0.22576 0.0751,-0.0564 0.16905,-0.0376 0.22541,0.0188 z m 1.40876,1.69322 0.60108,0.71491 c 0.0564,0.0564 0.0564,0.16933 -0.0188,0.22577 -0.0751,0.0564 -0.16905,0.0376 -0.2254,-0.0188 l -0.60107,-0.73372 c -0.0564,-0.0565 -0.0376,-0.15051 0.0188,-0.20695 0.0751,-0.0564 0.16905,-0.0564 0.2254,0.0188 z m 1.40877,1.6744 0.60108,0.71492 c 0.0564,0.0752 0.0564,0.16932 -0.0188,0.22576 -0.0564,0.0564 -0.16905,0.0376 -0.2254,-0.0188 l -0.60107,-0.71492 c -0.0564,-0.0752 -0.0376,-0.16932 0.0188,-0.22576 0.0751,-0.0564 0.16905,-0.0564 0.2254,0.0188 z m 1.40877,1.67441 0.60107,0.73373 c 0.0564,0.0564 0.0564,0.15051 -0.0188,0.20695 -0.0564,0.0564 -0.16905,0.0564 -0.2254,-0.0188 l -0.60108,-0.71491 c -0.0564,-0.0753 -0.0376,-0.16932 0.0188,-0.22576 0.0751,-0.0564 0.16905,-0.0376 0.2254,0.0188 z m 1.40877,1.69322 0.60107,0.71491 c 0.0564,0.0564 0.0564,0.16932 -0.0188,0.22576 -0.0564,0.0564 -0.16905,0.0376 -0.2254,-0.0188 l -0.60108,-0.73373 c -0.0564,-0.0564 -0.0376,-0.15051 0.0188,-0.20695 0.0751,-0.0564 0.16905,-0.0564 0.2254,0.0188 z m 1.40877,1.6744 0.60107,0.71492 c 0.0564,0.0752 0.0564,0.16932 -0.0188,0.22576 -0.0564,0.0564 -0.16905,0.0376 -0.2254,-0.0188 l -0.60108,-0.71492 c -0.0564,-0.0752 -0.0376,-0.16932 0.0188,-0.22576 0.0751,-0.0564 0.16906,-0.0564 0.22541,0.0188 z m 1.40877,1.67441 0.60107,0.71491 c 0.0564,0.0753 0.0564,0.16932 -0.0188,0.22576 -0.0564,0.0564 -0.15027,0.0564 -0.20662,-0.0188 l -0.61986,-0.71491 c -0.0564,-0.0753 -0.0376,-0.16933 0.0188,-0.22577 0.0751,-0.0564 0.16905,-0.0376 0.22541,0.0188 z m 1.40876,1.69322 0.60108,0.71491 c 0.0564,0.0564 0.0564,0.16932 -0.0188,0.22576 -0.0564,0.0376 -0.15026,0.0376 -0.20661,-0.0188 l -0.61986,-0.73373 c -0.0564,-0.0564 -0.0376,-0.16932 0.0188,-0.22576 0.0751,-0.0376 0.16905,-0.0376 0.2254,0.0376 z m 1.40877,1.6744 0.60108,0.71491 c 0.0564,0.0753 0.0564,0.16933 -0.0188,0.22577 -0.0563,0.0564 -0.15027,0.0376 -0.20662,-0.0188 l -0.60107,-0.71491 c -0.0564,-0.0753 -0.0564,-0.16932 0.0188,-0.22576 0.0564,-0.0564 0.15027,-0.0564 0.20662,0.0188 z m 1.40877,1.6744 0.61986,0.71492 c 0.0376,0.0752 0.0376,0.16932 -0.0376,0.22576 -0.0563,0.0564 -0.15027,0.0564 -0.20662,-0.0188 l -0.60107,-0.71492 c -0.0564,-0.0752 -0.0564,-0.16932 0.0188,-0.22576 0.0564,-0.0564 0.15027,-0.0376 0.20662,0.0188 z m 1.40877,1.67441 0.61986,0.73373 c 0.0564,0.0564 0.0376,0.15051 -0.0188,0.20695 -0.0751,0.0564 -0.16905,0.0564 -0.2254,-0.0188 l -0.60107,-0.71491 c -0.0564,-0.0564 -0.0564,-0.16932 0.0188,-0.22576 0.0564,-0.0564 0.15027,-0.0376 0.20662,0.0188 z m 1.40877,1.69322 0.61986,0.71491 c 0.0564,0.0753 0.0376,0.16932 -0.0188,0.22576 -0.0751,0.0564 -0.16905,0.0376 -0.2254,-0.0188 l -0.60108,-0.73373 c -0.0563,-0.0564 -0.0563,-0.15051 0.0188,-0.20695 0.0564,-0.0564 0.16905,-0.0564 0.20662,0.0188 z m 1.42755,1.6744 0.60107,0.71492 c 0.0564,0.0752 0.0376,0.16932 -0.0188,0.22576 -0.0751,0.0564 -0.16905,0.0564 -0.2254,-0.0188 l -0.60108,-0.71492 c -0.0563,-0.0753 -0.0563,-0.16932 0.0188,-0.22576 0.0564,-0.0564 0.16905,-0.0376 0.2254,0.0188 z m 1.40877,1.67441 0.60107,0.73372 c 0.0564,0.0564 0.0376,0.15051 -0.0188,0.20695 -0.0751,0.0564 -0.16905,0.0564 -0.2254,-0.0188 l -0.60108,-0.71491 c -0.0564,-0.0564 -0.0564,-0.16933 0.0188,-0.22577 0.0564,-0.0564 0.16906,-0.0376 0.22541,0.0188 z m 1.40877,1.69321 0.60107,0.71492 c 0.0564,0.0564 0.0376,0.16932 -0.0188,0.22576 -0.0751,0.0564 -0.16906,0.0376 -0.22541,-0.0188 l -0.60107,-0.73373 c -0.0564,-0.0564 -0.0564,-0.15051 0.0188,-0.20695 0.0564,-0.0564 0.16906,-0.0564 0.22541,0.0188 z m 1.40876,1.67441 0.60108,0.71491 c 0.0564,0.0753 0.0376,0.16933 -0.0188,0.22577 -0.0751,0.0564 -0.16906,0.0564 -0.22541,-0.0188 l -0.60107,-0.71491 c -0.0564,-0.0753 -0.0564,-0.16932 0.0188,-0.22576 0.0751,-0.0564 0.16905,-0.0564 0.2254,0.0188 z m 1.40877,1.6744 0.60108,0.73373 c 0.0564,0.0564 0.0376,0.15051 -0.0188,0.20695 -0.0751,0.0564 -0.16905,0.0564 -0.2254,-0.0188 l -0.60107,-0.71492 c -0.0564,-0.0564 -0.0376,-0.16932 0.0188,-0.22576 0.0751,-0.0564 0.16905,-0.0376 0.2254,0.0188 z m 1.40877,1.69322 0.60108,0.71492 c 0.0564,0.0564 0.0564,0.16932 -0.0188,0.22576 -0.0751,0.0564 -0.16905,0.0376 -0.2254,-0.0188 l -0.60108,-0.73373 c -0.0564,-0.0564 -0.0376,-0.15051 0.0188,-0.20695 0.0751,-0.0564 0.16905,-0.0564 0.2254,0.0188 z m 1.40877,1.67441 0.60107,0.71491 c 0.0564,0.0753 0.0564,0.16932 -0.0188,0.22576 -0.0563,0.0564 -0.16905,0.0376 -0.2254,-0.0188 l -0.60108,-0.71491 c -0.0564,-0.0753 -0.0376,-0.16933 0.0188,-0.22577 0.0751,-0.0564 0.16905,-0.0564 0.2254,0.0188 z m 1.40877,1.6744 0.60107,0.73373 c 0.0564,0.0564 0.0564,0.15051 -0.0188,0.20695 -0.0563,0.0564 -0.16905,0.0564 -0.2254,-0.0188 l -0.60108,-0.71491 c -0.0564,-0.0753 -0.0376,-0.16932 0.0188,-0.22576 0.0751,-0.0564 0.16905,-0.0376 0.2254,0.0188 z m 1.40877,1.69322 0.60107,0.71491 c 0.0564,0.0564 0.0564,0.16933 -0.0188,0.22577 -0.0563,0.0564 -0.16905,0.0376 -0.22541,-0.0188 l -0.60107,-0.73373 c -0.0564,-0.0564 -0.0376,-0.16932 0.0188,-0.20694 0.0751,-0.0564 0.16906,-0.0564 0.22541,0.0188 z m 1.40876,1.6744 0.60108,0.71492 c 0.0564,0.0752 0.0564,0.16932 -0.0188,0.22576 -0.0563,0.0564 -0.16906,0.0376 -0.20662,-0.0188 l -0.61986,-0.71492 c -0.0564,-0.0753 -0.0376,-0.16932 0.0188,-0.22576 0.0751,-0.0564 0.16905,-0.0564 0.2254,0.0188 z m 1.40877,1.67441 0.60108,0.71491 c 0.0564,0.0753 0.0564,0.16932 -0.0188,0.22577 -0.0564,0.0564 -0.15026,0.0564 -0.20662,-0.0188 l -0.61985,-0.71491 c -0.0564,-0.0753 -0.0376,-0.16932 0.0188,-0.22576 0.0751,-0.0564 0.16905,-0.0376 0.2254,0.0188 z m 1.40877,1.6744 0.60108,0.73373 c 0.0564,0.0564 0.0564,0.16932 -0.0188,0.20695 -0.0564,0.0564 -0.15027,0.0564 -0.20662,-0.0188 l -0.61985,-0.71492 c -0.0376,-0.0564 -0.0376,-0.16932 0.0188,-0.22576 0.0751,-0.0564 0.16905,-0.0376 0.2254,0.0188 z m 1.40877,1.69322 0.60107,0.71492 c 0.0564,0.0752 0.0564,0.16932 -0.0188,0.22576 -0.0564,0.0564 -0.15027,0.0376 -0.20662,-0.0188 l -0.60107,-0.71491 c -0.0564,-0.0753 -0.0564,-0.16932 0.0188,-0.22576 0.0563,-0.0564 0.15027,-0.0564 0.20662,0.0188 z m 1.40877,1.67441 0.61986,0.71491 c 0.0564,0.0752 0.0376,0.16932 -0.0188,0.22576 -0.0751,0.0564 -0.16905,0.0564 -0.2254,-0.0188 l -0.60107,-0.71491 c -0.0564,-0.0753 -0.0564,-0.16933 0.0188,-0.22577 0.0563,-0.0564 0.15027,-0.0376 0.20662,0.0188 z m 1.40877,1.6744 0.61985,0.73373 c 0.0564,0.0564 0.0376,0.15051 -0.0188,0.20695 -0.0751,0.0564 -0.16905,0.0564 -0.2254,-0.0188 l -0.60108,-0.71491 c -0.0563,-0.0564 -0.0563,-0.16932 0.0188,-0.22576 0.0563,-0.0564 0.15027,-0.0376 0.20662,0.0188 z m 1.42755,1.69322 0.60107,0.71491 c 0.0563,0.0753 0.0376,0.16933 -0.0188,0.22577 -0.0751,0.0564 -0.16905,0.0376 -0.2254,-0.0188 l -0.60108,-0.73373 c -0.0563,-0.0564 -0.0563,-0.1505 0.0188,-0.20694 0.0563,-0.0564 0.16905,-0.0564 0.2254,0.0188 z m 1.40877,1.6744 0.60107,0.71492 c 0.0563,0.0753 0.0376,0.16932 -0.0188,0.22576 -0.0751,0.0564 -0.16905,0.0564 -0.2254,-0.0188 l -0.60108,-0.71492 c -0.0563,-0.0752 -0.0563,-0.16932 0.0188,-0.22576 0.0564,-0.0564 0.16906,-0.0376 0.22541,0.0188 z m 1.40877,1.67441 0.60107,0.73373 c 0.0563,0.0564 0.0376,0.1505 -0.0188,0.20694 -0.0751,0.0564 -0.16906,0.0564 -0.22541,-0.0188 l -0.60107,-0.71491 c -0.0563,-0.0564 -0.0563,-0.16932 0.0188,-0.22577 0.0564,-0.0564 0.16905,-0.0376 0.22541,0.0188 z m 1.40876,1.69322 0.60108,0.71491 c 0.0563,0.0564 0.0376,0.16932 -0.0188,0.22576 -0.0751,0.0564 -0.16905,0.0376 -0.2254,-0.0188 l -0.60107,-0.73373 c -0.0563,-0.0564 -0.0563,-0.15051 0.0188,-0.20695 0.0564,-0.0564 0.16905,-0.0564 0.2254,0.0188 z m 1.40877,1.6744 0.60108,0.71492 c 0.0563,0.0753 0.0376,0.16932 -0.0188,0.22576 -0.0751,0.0564 -0.16905,0.0376 -0.2254,-0.0188 l -0.60107,-0.71491 c -0.0563,-0.0752 -0.0376,-0.16932 0.0188,-0.22576 0.0751,-0.0564 0.16905,-0.0564 0.2254,0.0188 z m 1.40877,1.67441 0.60108,0.73372 c 0.0563,0.0564 0.0563,0.15051 -0.0188,0.20695 -0.0751,0.0564 -0.16905,0.0564 -0.2254,-0.0188 l -0.60108,-0.71492 c -0.0564,-0.0752 -0.0376,-0.16932 0.0188,-0.22576 0.0751,-0.0564 0.16905,-0.0376 0.2254,0.0188 z" clip-path="url(#clipEmfPath4)" style="fill:#000;fill-opacity:1;fill-rule:nonzero;stroke:#000;stroke-width:.15026863px;stroke-linecap:butt;stroke-linejoin:bevel;stroke-opacity:1;stroke-dasharray:none"/><path id="path4832" d="m 526.78546,210.65515 -0.31932,110.43546 c 0,0.33864 -0.28176,0.62084 -0.61986,0.62084 -0.35689,0 -0.63864,-0.2822 -0.63864,-0.63966 l 0.31932,-110.43545 c 0,-0.33864 0.28175,-0.62085 0.63864,-0.62085 0.33811,0 0.61986,0.28221 0.61986,0.63966 z m -3.13686,1.2417 2.53578,-12.54863 2.47944,12.56744 z m 4.6959,107.93325 -2.53579,12.52981 -2.46065,-12.54862 z" style="fill:#000;fill-opacity:1;fill-rule:nonzero;stroke:#000;stroke-width:.15026863px;stroke-linecap:butt;stroke-linejoin:bevel;stroke-opacity:1;stroke-dasharray:none"/><path id="path4834" d="m 319.64016,98.77106 -0.0376,6.30253 -34.37395,-0.18813 -0.0751,12.60507 34.37394,0.18813 -0.0188,6.30254 11.51433,-12.54863 z" style="fill:#fff;fill-opacity:1;fill-rule:evenodd;stroke:none"/><path id="path4836" d="m 319.64016,98.77106 -0.0376,6.30253 -34.37395,-0.18813 -0.0751,12.60507 34.37394,0.18813 -0.0188,6.30254 11.51433,-12.54863 z" style="fill:none;stroke:#000;stroke-width:.93917894px;stroke-linecap:round;stroke-linejoin:round;stroke-opacity:1;stroke-dasharray:none"/><path id="path4838" d="m 329.44518,215.28328 -0.71377,0.60204 c -0.0751,0.0564 -0.16905,0.0564 -0.22541,-0.0188 -0.0563,-0.0564 -0.0376,-0.15051 0.0188,-0.20695 l 0.71377,-0.62084 c 0.0751,-0.0564 0.16906,-0.0376 0.22541,0.0188 0.0564,0.0753 0.0376,0.16932 -0.0188,0.22576 z m -1.67173,1.41102 -0.71378,0.62085 c -0.0564,0.0564 -0.16905,0.0376 -0.2254,-0.0188 -0.0564,-0.0753 -0.0376,-0.16932 0.0188,-0.22576 l 0.71378,-0.60203 c 0.0751,-0.0564 0.16905,-0.0564 0.2254,0.0188 0.0564,0.0564 0.0564,0.15051 -0.0188,0.20695 z m -1.67174,1.42983 -0.71378,0.62084 c -0.0564,0.0564 -0.16905,0.0376 -0.2254,-0.0188 -0.0564,-0.0752 -0.0376,-0.16932 0.0188,-0.22576 l 0.71378,-0.62085 c 0.0751,-0.0564 0.16905,-0.0376 0.2254,0.0188 0.0564,0.0753 0.0564,0.16933 -0.0188,0.22577 z m -1.67174,1.42983 -0.18784,0.16932 -0.50715,0.43271 c -0.0751,0.0753 -0.16906,0.0564 -0.22541,0 -0.0564,-0.0753 -0.0564,-0.16932 0.0188,-0.22576 l 0.50715,-0.45153 0.20662,-0.16932 c 0.0564,-0.0564 0.15027,-0.0376 0.20662,0.0188 0.0564,0.0753 0.0564,0.16933 -0.0188,0.22577 z m -1.63417,1.42982 -0.71378,0.62085 c -0.0751,0.0564 -0.16905,0.0564 -0.2254,-0.0188 -0.0564,-0.0564 -0.0564,-0.15051 0.0188,-0.20695 l 0.71378,-0.62085 c 0.0564,-0.0564 0.15027,-0.0564 0.20662,0.0188 0.0564,0.0564 0.0564,0.1505 0,0.20694 z m -1.65296,1.44865 -0.71377,0.62084 c -0.0564,0.0564 -0.16906,0.0564 -0.22541,-0.0188 -0.0564,-0.0564 -0.0376,-0.16932 0.0188,-0.22576 l 0.71377,-0.62085 c 0.0564,-0.0564 0.15027,-0.0376 0.20662,0.0188 0.0564,0.0753 0.0564,0.16933 0,0.22577 z m -1.65295,1.44864 -0.43203,0.35746 -0.28175,0.26339 c -0.0564,0.0564 -0.15027,0.0564 -0.20662,-0.0188 -0.0563,-0.0564 -0.0563,-0.16932 0,-0.22576 l 0.28176,-0.24458 0.43202,-0.37627 c 0.0564,-0.0564 0.16905,-0.0376 0.2254,0.0188 0.0564,0.0564 0.0376,0.16932 -0.0188,0.22576 z m -1.63417,1.44864 -0.695,0.63966 c -0.0751,0.0564 -0.16905,0.0564 -0.2254,-0.0188 -0.0564,-0.0564 -0.0564,-0.15051 0.0188,-0.22576 l 0.695,-0.62085 c 0.0564,-0.0564 0.15026,-0.0564 0.20662,0.0188 0.0751,0.0564 0.0564,0.15051 0,0.20695 z m -1.63418,1.46746 -0.69499,0.63966 c -0.0564,0.0564 -0.16905,0.0564 -0.2254,-0.0188 -0.0564,-0.0564 -0.0564,-0.1505 0.0188,-0.22576 l 0.69499,-0.62085 c 0.0564,-0.0564 0.16906,-0.0564 0.22541,0.0188 0.0564,0.0564 0.0564,0.15051 -0.0188,0.20695 z m -1.63417,1.46745 -0.67621,0.62085 -0.0188,0.0188 c -0.0564,0.0564 -0.15027,0.0564 -0.20662,-0.0188 -0.0751,-0.0564 -0.0564,-0.15051 0,-0.20695 l 0.0188,-0.0188 0.67621,-0.62085 c 0.0751,-0.0564 0.16906,-0.0564 0.22541,0.0188 0.0564,0.0564 0.0564,0.15051 -0.0188,0.20695 z m -1.5966,1.48627 -0.69499,0.63966 c -0.0563,0.0564 -0.16906,0.0564 -0.22541,0 -0.0564,-0.0564 -0.0564,-0.16932 0.0188,-0.22576 l 0.67621,-0.63966 c 0.0751,-0.0564 0.16905,-0.0564 0.2254,0 0.0564,0.0753 0.0564,0.16932 0,0.22576 z m -1.61539,1.50508 -0.0188,0.0188 -0.65743,0.62084 c -0.0564,0.0564 -0.16905,0.0564 -0.2254,0 -0.0564,-0.0753 -0.0564,-0.16932 0,-0.22576 l 0.65742,-0.62084 0.0376,-0.0188 c 0.0563,-0.0753 0.15027,-0.0564 0.2254,0 0.0564,0.0564 0.0376,0.16932 -0.0188,0.22576 z m -1.57782,1.50509 -0.69499,0.63966 c -0.0564,0.0752 -0.15027,0.0564 -0.2254,0 -0.0564,-0.0564 -0.0564,-0.16932 0.0188,-0.22576 l 0.67621,-0.63966 c 0.0564,-0.0565 0.16905,-0.0565 0.2254,0 0.0564,0.0752 0.0564,0.16932 0,0.22576 z m -1.5966,1.52389 -0.67621,0.63966 c -0.0564,0.0753 -0.15027,0.0753 -0.20662,0 -0.0751,-0.0564 -0.0564,-0.1505 0,-0.22576 l 0.67621,-0.63966 c 0.0563,-0.0753 0.15027,-0.0753 0.20662,0 0.0751,0.0564 0.0751,0.15051 0,0.22576 z m -1.55904,1.5239 -0.54472,0.54559 -0.11271,0.11288 c -0.0564,0.0753 -0.16905,0.0753 -0.2254,0.0188 -0.0564,-0.0753 -0.0564,-0.16932 0,-0.22576 l 0.1127,-0.11289 0.54473,-0.5644 c 0.0751,-0.0564 0.16905,-0.0564 0.2254,0 0.0563,0.0753 0.0563,0.16932 0,0.22576 z m -1.54025,1.56152 -0.43203,0.43272 -0.2254,0.24457 c -0.0563,0.0564 -0.16905,0.0564 -0.2254,0 -0.0564,-0.0753 -0.0564,-0.16932 0,-0.22576 l 0.24418,-0.24458 0.41324,-0.43271 c 0.0564,-0.0564 0.16906,-0.0564 0.22541,0 0.0564,0.0564 0.0564,0.16932 0,0.22576 z m -1.54026,1.56153 -0.35689,0.35745 -0.30053,0.31983 c -0.0564,0.0564 -0.15027,0.0564 -0.22541,0 -0.0564,-0.0564 -0.0564,-0.16932 0,-0.22576 l 0.31933,-0.31983 0.3381,-0.35746 c 0.0564,-0.0564 0.16905,-0.0564 0.2254,0 0.0563,0.0565 0.0563,0.16933 0,0.22577 z m -1.52147,1.58033 -0.65742,0.67729 c -0.0564,0.0564 -0.15027,0.0564 -0.22541,0 -0.0564,-0.0564 -0.0564,-0.16932 0,-0.22576 l 0.65743,-0.67729 c 0.0563,-0.0564 0.15027,-0.0564 0.2254,0 0.0564,0.0564 0.0564,0.15051 0,0.22576 z m -1.52147,1.58034 -0.26297,0.24458 -0.39445,0.43271 c -0.0563,0.0564 -0.15027,0.0564 -0.22541,0 -0.0564,-0.0564 -0.0564,-0.16932 0,-0.22576 l 0.39446,-0.4139 0.26297,-0.26339 c 0.0564,-0.0564 0.15027,-0.0564 0.2254,0 0.0564,0.0564 0.0564,0.15051 0,0.22576 z m -1.52147,1.58034 -0.63864,0.67729 c -0.0751,0.0564 -0.16905,0.0564 -0.2254,0 -0.0564,-0.0565 -0.0751,-0.15051 0,-0.22577 l 0.63864,-0.67728 c 0.0564,-0.0564 0.16905,-0.0564 0.2254,0 0.0564,0.0564 0.0564,0.1505 0,0.22576 z m -1.50268,1.58033 -0.15027,0.15051 -0.50716,0.52678 c -0.0564,0.0753 -0.15027,0.0753 -0.2254,0.0188 -0.0564,-0.0564 -0.0564,-0.16933 0,-0.22577 l 0.50715,-0.54559 0.15027,-0.13169 c 0.0564,-0.0753 0.15027,-0.0753 0.20662,-0.0188 0.0751,0.0753 0.0751,0.16932 0.0188,0.22576 z m -1.52147,1.59916 -0.0188,0.0188 -0.61985,0.65847 c -0.0564,0.0753 -0.15027,0.0753 -0.22541,0.0188 -0.0563,-0.0753 -0.0563,-0.16933 0,-0.22577 l 0.61986,-0.65847 0.0188,-0.0376 c 0.0564,-0.0564 0.16906,-0.0564 0.22541,0 0.0564,0.0564 0.0564,0.15051 0,0.22577 z m -1.50269,1.59915 -0.63864,0.67728 c -0.0564,0.0564 -0.15027,0.0753 -0.2254,0 -0.0563,-0.0564 -0.0563,-0.15051 0,-0.20695 l 0.63864,-0.6961 c 0.0564,-0.0564 0.16905,-0.0564 0.2254,0 0.0563,0.0564 0.0751,0.15051 0,0.22577 z m -1.50269,1.59915 -0.63864,0.67728 c -0.0564,0.0564 -0.15027,0.0753 -0.2254,0 -0.0564,-0.0564 -0.0564,-0.1505 0,-0.20695 l 0.63864,-0.6961 c 0.0564,-0.0564 0.16905,-0.0564 0.2254,0 0.0564,0.0564 0.0564,0.15051 0,0.22577 z m -1.4839,1.59915 -0.43202,0.45152 -0.2254,0.22576 c -0.0564,0.0564 -0.15027,0.0753 -0.22541,0 -0.0563,-0.0564 -0.0563,-0.1505 0,-0.20694 l 0.22541,-0.24458 0.41323,-0.45153 c 0.0564,-0.0564 0.16906,-0.0564 0.22541,0 0.0564,0.0564 0.0751,0.15051 0.0188,0.22577 z m -1.52147,1.58033 -0.63864,0.6961 c -0.0564,0.0565 -0.15027,0.0565 -0.2254,0 -0.0563,-0.0564 -0.0563,-0.1505 0,-0.22576 l 0.63864,-0.67728 c 0.0564,-0.0564 0.15027,-0.0753 0.2254,0 0.0563,0.0564 0.0563,0.1505 0,0.20694 z" style="fill:#000;fill-opacity:1;fill-rule:nonzero;stroke:#000;stroke-width:.15026863px;stroke-linecap:butt;stroke-linejoin:bevel;stroke-opacity:1;stroke-dasharray:none"/><path id="path4840" d="m 330.08383,214.09803 c 22.59664,-19.3215 45.21207,-38.56775 71.37759,-48.91519 26.16553,-10.34745 56.53857,-13.621 85.65312,-13.16948 29.11455,0.43272 71.99746,12.52982 89.03416,15.80337" style="fill:none;stroke:#000;stroke-width:2.81753683px;stroke-linecap:butt;stroke-linejoin:round;stroke-opacity:1;stroke-dasharray:none"/><text id="text4842" style="font-size:13.82471371px;font-style:normal;font-weight:700;text-align:start;text-anchor:start;fill:#000;font-family:Calibri" x="336.001" y="170.827" xml:space="preserve">E</text><text id="text4844" style="font-size:8.71557999px;font-style:normal;font-weight:700;text-align:start;text-anchor:start;fill:#000;font-family:Calibri" x="342.763" y="172.784" xml:space="preserve">j</text><path id="path4848" d="m 575.54763,163.97877 c -1.95349,0 -3.53131,1.59915 -3.53131,3.55576 0,1.95661 1.57782,3.53695 3.53131,3.53695 1.95349,0 3.5501,-1.58034 3.5501,-3.53695 0,-1.95661 -1.59661,-3.55576 -3.5501,-3.55576" clip-path="url(#clipEmfPath5)" style="fill:#fff;fill-opacity:1;fill-rule:evenodd;stroke:none"/><path id="path4850" d="m 579.47707,164.76466 c -1.95349,0 -3.53131,1.59915 -3.53131,3.55576 0,1.95661 1.57782,3.53695 3.53131,3.53695 1.95349,0 3.5501,-1.58034 3.5501,-3.53695 0,-1.95661 -1.59661,-3.55576 -3.5501,-3.55576" style="fill:none;stroke:#000;stroke-width:2.81753683px;stroke-linecap:round;stroke-linejoin:round;stroke-opacity:1;stroke-dasharray:none"/><path id="path4852" d="m 329.48275,210.5799 c -1.95349,0 -3.53131,1.58034 -3.53131,3.53694 0,1.95661 1.57782,3.55576 3.53131,3.55576 1.95349,0 3.5501,-1.59915 3.5501,-3.55576 0,-1.9566 -1.59661,-3.53694 -3.5501,-3.53694" style="fill:#fff;fill-opacity:1;fill-rule:evenodd;stroke:none"/><path id="path4854" d="m 329.48275,210.5799 c -1.95349,0 -3.53131,1.58034 -3.53131,3.53694 0,1.95661 1.57782,3.55576 3.53131,3.55576 1.95349,0 3.5501,-1.59915 3.5501,-3.55576 0,-1.9566 -1.59661,-3.53694 -3.5501,-3.53694" style="fill:none;stroke:#000;stroke-width:2.81753683px;stroke-linecap:round;stroke-linejoin:round;stroke-opacity:1;stroke-dasharray:none"/><path id="path4856" d="m 342.48099,223.05327 c 21.05639,-17.89167 42.094,-35.7269 66.47508,-45.3218 24.38109,-9.59491 52.65037,-12.62389 79.77386,-12.20999 27.1047,0.4139 67.05737,11.62677 82.91072,14.65575" style="fill:none;stroke:#000;stroke-width:.93917894px;stroke-linecap:round;stroke-linejoin:round;stroke-opacity:1;stroke-dasharray:none"/><path id="path4858" d="m 321.44338,201.22957 c 23.70488,-20.33743 47.40975,-40.61842 74.87134,-51.51146 27.44281,-10.89303 59.29976,-14.33591 89.84186,-13.86557 30.52331,0.47034 75.50998,13.2071 93.37317,16.64998" style="fill:none;stroke:#000;stroke-width:.93917894px;stroke-linecap:round;stroke-linejoin:round;stroke-opacity:1;stroke-dasharray:none"/><path id="path4860" d="m 321.14284,201.19195 c -4.41414,4.08253 -3.32469,12.47337 2.44187,18.73828 5.76656,6.2649 14.03133,8.01456 18.44547,3.93203 4.43293,-4.08254 3.34348,-12.47338 -2.44186,-18.73829 -5.76656,-6.2649 -14.03134,-8.01456 -18.44548,-3.93202" style="fill:none;stroke:#000;stroke-width:.93917894px;stroke-linecap:round;stroke-linejoin:round;stroke-opacity:1;stroke-dasharray:none"/><path id="path4862" d="m 582.56698,152.59144 c -6.53143,-1.07856 -13.16651,5.00758 -14.82529,13.57825 -1.63804,8.58993 2.32228,16.42872 8.8537,17.52654 6.53143,1.07855 13.16652,-5.00758 14.82529,-13.59752 1.65877,-8.57066 -2.30155,-16.40946 -8.8537,-17.50727" style="fill:none;stroke:#000;stroke-width:.99838936px;stroke-linecap:round;stroke-linejoin:round;stroke-opacity:1;stroke-dasharray:none"/><path id="path4864" d="m 484.86051,46.958584 0.75135,210.335326" style="fill:none;stroke:#000;stroke-width:2.81753683px;stroke-linecap:butt;stroke-linejoin:round;stroke-opacity:1;stroke-dasharray:none"/><path id="path4866" d="m 499.88738,47.711125 0.75134,210.335325" style="fill:none;stroke:#000;stroke-width:.31932083px;stroke-linecap:round;stroke-linejoin:round;stroke-opacity:1;stroke-dasharray:none"/><path id="path4868" d="m 469.08231,48.463667 0.75134,210.335323" style="fill:none;stroke:#000;stroke-width:.31932083px;stroke-linecap:round;stroke-linejoin:round;stroke-opacity:1;stroke-dasharray:none"/><path id="path4870" d="m 500.63872,256.4473 c -0.0376,-6.02033 -6.96871,-10.85541 -15.47767,-10.81778 -8.49018,0.0564 -15.36497,4.98558 -15.3274,11.02473 0.0376,6.02033 6.96871,10.85541 15.47767,10.79897 8.50896,-0.0376 15.36497,-4.96678 15.3274,-11.00592" style="fill:none;stroke:#000;stroke-width:.93917894px;stroke-linecap:round;stroke-linejoin:round;stroke-opacity:1;stroke-dasharray:none"/><path id="path4872" d="m 499.88738,50.250953 c -0.0376,-6.020332 -6.96871,-10.85541 -15.47767,-10.817783 -8.49018,0.05644 -15.36497,4.985587 -15.3274,11.024731 0.0376,6.020332 6.9687,10.85541 15.47767,10.79897 8.50896,-0.03763 15.36496,-4.966774 15.3274,-11.005918" style="fill:none;stroke:#000;stroke-width:.93917894px;stroke-linecap:round;stroke-linejoin:round;stroke-opacity:1;stroke-dasharray:none"/><path id="path4874" d="m 485.08592,45.829772 c -1.9535,0 -3.5501,1.59915 -3.5501,3.555758 0,1.956608 1.5966,3.536945 3.5501,3.536945 1.95349,0 3.53131,-1.580337 3.53131,-3.536945 0,-1.956608 -1.57782,-3.555758 -3.53131,-3.555758" style="fill:#fff;fill-opacity:1;fill-rule:evenodd;stroke:none"/><path id="path4876" d="m 485.08592,45.829772 c -1.9535,0 -3.5501,1.59915 -3.5501,3.555758 0,1.956608 1.5966,3.536945 3.5501,3.536945 1.95349,0 3.53131,-1.580337 3.53131,-3.536945 0,-1.956608 -1.57782,-3.555758 -3.53131,-3.555758" style="fill:none;stroke:#000;stroke-width:2.81753683px;stroke-linecap:round;stroke-linejoin:round;stroke-opacity:1;stroke-dasharray:none"/><path id="path4878" d="m 485.46159,253.5312 c -1.9535,0 -3.5501,1.59915 -3.5501,3.55576 0,1.95661 1.5966,3.53694 3.5501,3.53694 1.95349,0 3.53131,-1.58033 3.53131,-3.53694 0,-1.95661 -1.57782,-3.55576 -3.53131,-3.55576" style="fill:#fff;fill-opacity:1;fill-rule:evenodd;stroke:none"/><path id="path4880" d="m 485.46159,253.5312 c -1.9535,0 -3.5501,1.59915 -3.5501,3.55576 0,1.95661 1.5966,3.53694 3.5501,3.53694 1.95349,0 3.53131,-1.58033 3.53131,-3.53694 0,-1.95661 -1.57782,-3.55576 -3.53131,-3.55576" style="fill:none;stroke:#000;stroke-width:2.81753683px;stroke-linecap:round;stroke-linejoin:round;stroke-opacity:1;stroke-dasharray:none"/><text id="text4882" style="font-size:13.82471371px;font-style:normal;font-weight:700;text-align:start;text-anchor:start;fill:#000;font-family:Calibri" x="511.064" y="92.111" xml:space="preserve">E</text><text id="text4884" style="font-size:8.71557999px;font-style:normal;font-weight:700;text-align:start;text-anchor:start;fill:#000;font-family:Calibri" x="517.826" y="94.068" xml:space="preserve">i</text><path id="path4888" d="m 485.14227,152.27675 -0.20662,0.92187 c -0.0188,0.0752 -0.0939,0.13169 -0.18784,0.11288 -0.0751,-0.0188 -0.13148,-0.0941 -0.1127,-0.18814 l 0.20662,-0.92186 c 0.0188,-0.0753 0.0939,-0.13169 0.18783,-0.11288 0.0751,0.0188 0.13149,0.0941 0.11271,0.18813 z m -0.46959,2.14475 -0.20662,0.92186 c -0.0188,0.0753 -0.0939,0.13169 -0.18784,0.11288 -0.0751,-0.0188 -0.13148,-0.0941 -0.1127,-0.18813 l 0.20662,-0.92187 c 0.0188,-0.0752 0.0939,-0.13169 0.16905,-0.11288 0.0939,0.0188 0.15027,0.0941 0.13149,0.18814 z m -0.46959,2.14474 -0.20662,0.92186 c -0.0188,0.0753 -0.1127,0.1317 -0.18784,0.11288 -0.0939,-0.0188 -0.15027,-0.11288 -0.13148,-0.18813 l 0.20662,-0.92186 c 0.0188,-0.0753 0.1127,-0.1317 0.18783,-0.11289 0.0939,0.0188 0.15027,0.0941 0.13149,0.18814 z m -0.48838,2.14474 -0.20662,0.90305 c -0.0188,0.0941 -0.0939,0.15051 -0.18783,0.1317 -0.0751,-0.0188 -0.13149,-0.11288 -0.1127,-0.18814 l 0.20662,-0.92186 c 0.0188,-0.0753 0.0939,-0.1317 0.18783,-0.11288 0.0751,0.0188 0.13149,0.0941 0.1127,0.18813 z m -0.46959,2.14475 -0.20661,0.90305 c -0.0188,0.0941 -0.0939,0.1505 -0.18784,0.13169 -0.0751,-0.0188 -0.13149,-0.11288 -0.1127,-0.18813 l 0.20662,-0.92187 c 0.0188,-0.0941 0.0939,-0.13169 0.18783,-0.11288 0.0751,0.0188 0.13149,0.0941 0.1127,0.18814 z m -0.46958,2.12593 -0.20662,0.92186 c -0.0188,0.0941 -0.11271,0.15051 -0.18784,0.13169 -0.0939,-0.0188 -0.13149,-0.11288 -0.1127,-0.18813 l 0.18783,-0.92187 c 0.0188,-0.0941 0.11271,-0.1505 0.18784,-0.13169 0.0939,0.0188 0.15027,0.11288 0.13149,0.18814 z m -0.48838,2.14474 -0.18783,0.92186 c -0.0188,0.0941 -0.11271,0.1317 -0.18784,0.11288 -0.0939,-0.0188 -0.15027,-0.0941 -0.13148,-0.18813 l 0.20661,-0.90305 c 0.0188,-0.0941 0.11271,-0.15051 0.18784,-0.1317 0.0939,0.0188 0.13149,0.11288 0.1127,0.18814 z m -0.46959,2.14474 -0.20662,0.92186 c -0.0188,0.0753 -0.0939,0.1317 -0.18783,0.11289 -0.0751,-0.0188 -0.13149,-0.0941 -0.1127,-0.18814 l 0.20662,-0.90305 c 0.0188,-0.0941 0.0939,-0.15051 0.18783,-0.13169 0.0751,0.0188 0.13149,0.11288 0.1127,0.18813 z m -0.46959,2.14474 -0.20662,0.92187 c -0.0188,0.0753 -0.1127,0.13169 -0.18783,0.11288 -0.0751,-0.0188 -0.13149,-0.0941 -0.1127,-0.18814 l 0.20662,-0.92186 c 0.0188,-0.0753 0.0939,-0.13169 0.16905,-0.11288 0.0939,0.0188 0.15027,0.11288 0.13148,0.18813 z m -0.48837,2.14475 -0.18784,0.92186 c -0.0188,0.0752 -0.1127,0.1317 -0.18783,0.11288 -0.0939,-0.0188 -0.15027,-0.0941 -0.13149,-0.18813 l 0.20662,-0.92187 c 0.0188,-0.0752 0.1127,-0.13169 0.18784,-0.11288 0.0939,0.0188 0.13148,0.0941 0.1127,0.18814 z m -0.46959,2.14474 -0.20662,0.92186 c -0.0188,0.0753 -0.0939,0.1317 -0.18783,0.11289 -0.0751,-0.0188 -0.13149,-0.0941 -0.11271,-0.18814 l 0.20662,-0.92186 c 0.0188,-0.0753 0.0939,-0.1317 0.18784,-0.11288 0.0751,0.0188 0.13148,0.0941 0.1127,0.18813 z m -0.46959,2.14474 -0.20662,0.92187 c -0.0188,0.0752 -0.0939,0.13169 -0.18783,0.11288 -0.0751,-0.0188 -0.13149,-0.11288 -0.11271,-0.18814 l 0.20662,-0.92186 c 0.0188,-0.0752 0.0939,-0.1317 0.18784,-0.11288 0.0751,0.0188 0.13148,0.0941 0.1127,0.18813 z m -0.46959,2.14475 -0.20662,0.90305 c -0.0188,0.0941 -0.1127,0.1505 -0.18783,0.13169 -0.0939,-0.0188 -0.15027,-0.11288 -0.13149,-0.18813 l 0.20662,-0.92187 c 0.0188,-0.0753 0.1127,-0.13169 0.18784,-0.11288 0.0939,0.0188 0.15027,0.0941 0.13148,0.18814 z m -0.48837,2.14474 -0.20662,0.90305 c -0.0188,0.0941 -0.0939,0.15051 -0.16905,0.13169 -0.0939,-0.0188 -0.15027,-0.11288 -0.13149,-0.18813 l 0.20662,-0.92186 c 0.0188,-0.0941 0.0939,-0.1317 0.18784,-0.11289 0.0751,0.0188 0.13148,0.0941 0.1127,0.18814 z m -0.46959,2.12593 -0.20662,0.92186 c -0.0188,0.0941 -0.0939,0.15051 -0.18784,0.1317 -0.0751,-0.0188 -0.13148,-0.11288 -0.1127,-0.18814 l 0.20662,-0.92186 c 0.0188,-0.0941 0.0939,-0.15051 0.18784,-0.1317 0.0751,0.0188 0.13148,0.11288 0.1127,0.18814 z m -0.46959,2.14474 -0.20662,0.92187 c -0.0188,0.0941 -0.1127,0.13169 -0.18784,0.11288 -0.0939,-0.0188 -0.13148,-0.0941 -0.1127,-0.16933 l 0.18784,-0.92186 c 0.0188,-0.0941 0.1127,-0.15051 0.18783,-0.13169 0.0939,0.0188 0.15027,0.11288 0.13149,0.18813 z m -0.48837,2.14475 -0.18784,0.92186 c -0.0188,0.0941 -0.1127,0.13169 -0.18783,0.11288 -0.0939,-0.0188 -0.15027,-0.0941 -0.13149,-0.18814 l 0.20662,-0.90305 c 0.0188,-0.0941 0.1127,-0.1505 0.18784,-0.13169 0.0939,0.0188 0.13148,0.11288 0.1127,0.18814 z m -0.46959,2.14474 -0.20662,0.92186 c -0.0188,0.0753 -0.0939,0.1317 -0.18784,0.11288 -0.0751,-0.0188 -0.13148,-0.0941 -0.1127,-0.18813 l 0.20662,-0.92187 c 0.0188,-0.0753 0.0939,-0.13169 0.18784,-0.11288 0.0751,0.0188 0.13148,0.11288 0.1127,0.18814 z m -0.46959,2.14474 -0.20662,0.92186 c -0.0188,0.0753 -0.0939,0.1317 -0.18784,0.11289 -0.0751,-0.0188 -0.13148,-0.0941 -0.1127,-0.18814 l 0.20662,-0.92186 c 0.0188,-0.0753 0.0939,-0.1317 0.18784,-0.11288 0.0751,0.0188 0.13148,0.11288 0.1127,0.18813 z m -0.46959,2.14474 -0.20662,0.92187 c -0.0188,0.0752 -0.1127,0.13169 -0.18784,0.11288 -0.0939,-0.0188 -0.15027,-0.0941 -0.13148,-0.18814 l 0.20662,-0.92186 c 0.0188,-0.0753 0.1127,-0.13169 0.18783,-0.11288 0.0939,0.0188 0.15027,0.0941 0.13149,0.18813 z m -0.48837,2.14475 -0.20662,0.92186 c -0.0188,0.0753 -0.0939,0.1317 -0.18784,0.11288 -0.0751,-0.0188 -0.13148,-0.11288 -0.1127,-0.18813 l 0.20662,-0.92187 c 0.0188,-0.0753 0.0939,-0.13169 0.18783,-0.11288 0.0751,0.0188 0.13149,0.0941 0.11271,0.18814 z m -0.46959,2.14474 -0.20662,0.90305 c -0.0188,0.0941 -0.0939,0.15051 -0.18784,0.13169 -0.0751,-0.0188 -0.13148,-0.11288 -0.1127,-0.18813 l 0.20662,-0.92186 c 0.0188,-0.0753 0.0939,-0.1317 0.18783,-0.11289 0.0751,0.0188 0.13149,0.0941 0.11271,0.18814 z m -0.46959,2.14474 -0.20662,0.90305 c -0.0188,0.0941 -0.1127,0.15051 -0.18784,0.1317 -0.0939,-0.0188 -0.13148,-0.11288 -0.1127,-0.18814 l 0.18784,-0.92186 c 0.0188,-0.0941 0.1127,-0.1317 0.18783,-0.11288 0.0939,0.0188 0.15027,0.0941 0.13149,0.18813 z m -0.48838,2.12593 -0.18783,0.92187 c -0.0188,0.0941 -0.1127,0.1505 -0.18784,0.13169 -0.0939,-0.0188 -0.15027,-0.11288 -0.13148,-0.18813 l 0.20662,-0.92187 c 0.0188,-0.0941 0.1127,-0.13169 0.18783,-0.11288 0.0939,0.0188 0.13149,0.0941 0.1127,0.16932 z m -0.46959,2.14475 -0.20662,0.92186 c -0.0188,0.0941 -0.0939,0.13169 -0.18783,0.11288 -0.0751,-0.0188 -0.13149,-0.0941 -0.1127,-0.16932 l 0.20662,-0.92186 c 0.0188,-0.0941 0.0939,-0.15051 0.18783,-0.1317 0.0751,0.0188 0.13149,0.11288 0.1127,0.18814 z m -0.46959,2.14474 -0.20662,0.92186 c -0.0188,0.0941 -0.0939,0.1317 -0.18783,0.11288 -0.0751,-0.0188 -0.13149,-0.0941 -0.1127,-0.18813 l 0.20662,-0.90305 c 0.0188,-0.0941 0.0939,-0.15051 0.16905,-0.1317 0.0939,0.0188 0.15027,0.11288 0.13148,0.18814 z" clip-path="url(#clipEmfPath6)" style="fill:#000;fill-opacity:1;fill-rule:nonzero;stroke:#000;stroke-width:.15026863px;stroke-linecap:butt;stroke-linejoin:bevel;stroke-opacity:1;stroke-dasharray:none"/><path id="path4890" d="m 353.86384,264.38661 3.1932,-3.12305 5.59751,-5.39948 5.59751,-5.26779 2.79875,-2.57746 2.77997,-2.5022 2.77997,-2.44576 2.76119,-2.40813 2.76118,-2.31406 2.7424,-2.23881 2.74241,-2.18237 2.72362,-2.06949 2.70483,-1.99424 2.68605,-1.93779 2.66727,-1.86254 2.68605,-1.8061 2.64849,-1.73085 2.64848,-1.69321 2.64849,-1.59915 2.6297,-1.56153 2.6297,-1.50508 2.61092,-1.42983 2.61091,-1.37339 2.61092,-1.31694 2.61092,-1.27933 2.61091,-1.20406 5.22184,-2.23881 2.6297,-1.03475 2.61092,-0.94067 2.59213,-0.88424 2.59214,-0.79017 2.59213,-0.73373 2.59213,-0.67728 5.16549,-1.20407 5.1467,-1.01593 4.24509,-0.71491 c 0.3381,-0.0564 0.65742,0.18813 0.71377,0.52677 0.0564,0.33865 -0.16905,0.65848 -0.50715,0.71492 l -4.20753,0.71491 -5.10913,0.99712 -5.12792,1.18525 -2.57335,0.67729 -2.55456,0.71491 -2.57335,0.80899 -2.57335,0.84661 -2.57335,0.94067 -2.57335,1.01593 -5.20305,2.23881 -2.59214,1.18526 -2.57335,1.2605 -2.61092,1.31695 -2.59213,1.37339 -2.61092,1.41101 -2.61092,1.48627 -2.61091,1.54271 -2.61092,1.61797 -2.6297,1.65559 -2.64849,1.73084 -2.64848,1.78729 -2.66727,1.86254 -2.68605,1.91898 -2.68605,1.99424 -2.70484,2.06948 -2.70483,2.14475 -2.7424,2.23881 -2.74241,2.31406 -2.76118,2.37051 -2.76119,2.46457 -2.77997,2.5022 -2.77997,2.55864 -5.57872,5.24898 -5.61629,5.38067 -3.19321,3.12305 c -0.24419,0.24457 -0.63864,0.24457 -0.88283,0 -0.24418,-0.24458 -0.24418,-0.65848 0.0188,-0.88424 z m 3.0805,1.35457 -10.70664,6.97983 7.19411,-10.5544 z m 104.26765,-68.06737 12.75405,0.5456 -11.98393,4.40236 z" style="fill:#000;fill-opacity:1;fill-rule:nonzero;stroke:#000;stroke-width:.15026863px;stroke-linecap:butt;stroke-linejoin:bevel;stroke-opacity:1;stroke-dasharray:none"/><path id="path4892" d="m 301.73033,240.7585 0.75135,0.54559 c 0.0751,0.0564 0.0939,0.15051 0.0376,0.22576 -0.0564,0.0753 -0.15026,0.0941 -0.2254,0.0376 l -0.75134,-0.5644 c -0.0751,-0.0564 -0.0751,-0.15051 -0.0376,-0.20695 0.0564,-0.0753 0.15027,-0.0941 0.2254,-0.0376 z m 1.76566,1.29813 0.75134,0.56441 c 0.0751,0.0564 0.0939,0.15051 0.0376,0.20695 -0.0564,0.0753 -0.15027,0.0941 -0.2254,0.0376 l -0.75135,-0.56441 c -0.0751,-0.0376 -0.0751,-0.1317 -0.0376,-0.20695 0.0564,-0.0752 0.15027,-0.0941 0.2254,-0.0376 z m 1.76566,1.29814 0.75134,0.5644 c 0.0751,0.0564 0.0751,0.15051 0.0376,0.22577 -0.0564,0.0564 -0.15027,0.0753 -0.22541,0.0376 l -0.75134,-0.5644 c -0.0751,-0.0564 -0.0939,-0.15051 -0.0376,-0.22577 0.0564,-0.0753 0.15027,-0.0753 0.22541,-0.0376 z m 1.76565,1.31695 0.75135,0.54559 c 0.0564,0.0564 0.0751,0.15051 0.0376,0.22576 -0.0564,0.0753 -0.15026,0.0941 -0.2254,0.0376 l -0.75134,-0.56441 c -0.0751,-0.0564 -0.0939,-0.15051 -0.0376,-0.20695 0.0564,-0.0752 0.15027,-0.0941 0.2254,-0.0376 z m 1.74688,1.29813 0.77012,0.5644 c 0.0564,0.0564 0.0751,0.15051 0.0188,0.20695 -0.0376,0.0753 -0.15027,0.0941 -0.20662,0.0376 l -0.75135,-0.56441 c -0.0751,-0.0376 -0.0939,-0.13169 -0.0376,-0.20694 0.0376,-0.0753 0.15027,-0.0941 0.20662,-0.0376 z m 1.76565,1.29813 0.75135,0.56441 c 0.0751,0.0564 0.0939,0.15051 0.0376,0.22576 -0.0563,0.0564 -0.15027,0.0753 -0.20662,0.0376 l -0.77012,-0.56441 c -0.0564,-0.0564 -0.0751,-0.15051 -0.0188,-0.22576 0.0376,-0.0752 0.15027,-0.0752 0.20662,-0.0376 z m 1.76566,1.31695 0.75134,0.54559 c 0.0751,0.0564 0.0939,0.15051 0.0376,0.22577 -0.0564,0.0753 -0.15027,0.0941 -0.2254,0.0376 l -0.75135,-0.5644 c -0.0751,-0.0564 -0.0751,-0.15051 -0.0376,-0.22577 0.0564,-0.0564 0.15026,-0.0753 0.2254,-0.0188 z m 1.76566,1.29813 0.75134,0.56441 c 0.0751,0.0564 0.0939,0.15051 0.0376,0.20695 -0.0564,0.0752 -0.15027,0.0941 -0.22541,0.0376 l -0.75134,-0.56441 c -0.0751,-0.0376 -0.0751,-0.13169 -0.0376,-0.20695 0.0563,-0.0753 0.15027,-0.0941 0.22541,-0.0376 z m 1.76565,1.29814 0.75135,0.5644 c 0.0751,0.0564 0.0751,0.15051 0.0376,0.22577 -0.0564,0.0564 -0.15027,0.0753 -0.2254,0.0376 l -0.75134,-0.5644 c -0.0751,-0.0564 -0.0939,-0.15051 -0.0376,-0.22576 0.0564,-0.0753 0.15027,-0.0753 0.2254,-0.0376 z m 1.76566,1.31695 0.75134,0.54559 c 0.0563,0.0564 0.0751,0.15051 0.0376,0.22576 -0.0564,0.0753 -0.15027,0.0941 -0.2254,0.0376 l -0.75135,-0.56441 c -0.0751,-0.0564 -0.0939,-0.15051 -0.0376,-0.22576 0.0564,-0.0564 0.15026,-0.0753 0.2254,-0.0188 z m 1.74687,1.29813 0.77013,0.56441 c 0.0564,0.0376 0.0751,0.1505 0.0188,0.20694 -0.0376,0.0753 -0.15027,0.0941 -0.20662,0.0376 l -0.77012,-0.5644 c -0.0564,-0.0376 -0.0751,-0.15051 -0.0188,-0.20695 0.0376,-0.0753 0.15027,-0.0941 0.20662,-0.0376 z m 1.76566,1.29813 0.75134,0.56441 c 0.0751,0.0564 0.0939,0.15051 0.0376,0.22576 -0.0564,0.0564 -0.15027,0.0753 -0.20662,0.0188 l -0.77013,-0.5456 c -0.0563,-0.0564 -0.0751,-0.15051 -0.0188,-0.22576 0.0376,-0.0753 0.15027,-0.0753 0.20662,-0.0376 z m 1.76565,1.31695 0.75135,0.54559 c 0.0751,0.0564 0.0939,0.15051 0.0376,0.22577 -0.0564,0.0752 -0.15026,0.0941 -0.2254,0.0376 l -0.75134,-0.5644 c -0.0751,-0.0564 -0.0751,-0.15051 -0.0376,-0.22577 0.0564,-0.0564 0.15027,-0.0753 0.2254,-0.0188 z m 1.76566,1.29813 0.75134,0.56441 c 0.0751,0.0376 0.0939,0.15051 0.0376,0.20695 -0.0563,0.0753 -0.15027,0.0941 -0.2254,0.0376 l -0.75135,-0.56441 c -0.0751,-0.0376 -0.0751,-0.15051 -0.0376,-0.20695 0.0564,-0.0752 0.15027,-0.0941 0.2254,-0.0376 z m 1.76566,1.29814 0.75134,0.5644 c 0.0751,0.0565 0.0751,0.15051 0.0376,0.22577 -0.0564,0.0564 -0.15027,0.0752 -0.22541,0.0188 l -0.75134,-0.54559 c -0.0751,-0.0564 -0.0939,-0.15051 -0.0376,-0.22576 0.0564,-0.0753 0.15027,-0.0753 0.22541,-0.0376 z m 1.76565,1.31695 0.75135,0.54559 c 0.0564,0.0564 0.0751,0.15051 0.0376,0.22576 -0.0564,0.0753 -0.15027,0.0941 -0.2254,0.0376 l -0.75134,-0.56441 c -0.0751,-0.0564 -0.0939,-0.15051 -0.0376,-0.22576 0.0563,-0.0564 0.15027,-0.0752 0.2254,-0.0188 z m 1.74688,1.29813 0.77012,0.56441 c 0.0564,0.0376 0.0751,0.1505 0.0188,0.20695 -0.0376,0.0752 -0.15027,0.0941 -0.20662,0.0376 l -0.77013,-0.5644 c -0.0564,-0.0376 -0.0751,-0.15051 -0.0188,-0.20695 0.0376,-0.0753 0.15027,-0.0941 0.20662,-0.0376 z m 1.76565,1.29813 0.75135,0.56441 c 0.0751,0.0564 0.0939,0.15051 0.0376,0.22576 -0.0564,0.0564 -0.15027,0.0753 -0.20662,0.0188 l -0.77012,-0.5456 c -0.0564,-0.0564 -0.0751,-0.1505 -0.0188,-0.22576 0.0376,-0.0752 0.15027,-0.0752 0.20662,-0.0376 z m 1.76566,1.31695 0.75134,0.54559 c 0.0751,0.0564 0.0939,0.15051 0.0376,0.22577 -0.0564,0.0753 -0.15027,0.0941 -0.2254,0.0376 l -0.75135,-0.5644 c -0.0751,-0.0564 -0.0751,-0.15051 -0.0376,-0.22576 0.0563,-0.0565 0.15026,-0.0753 0.2254,-0.0188 z m 1.76565,1.29814 0.75135,0.5644 c 0.0751,0.0376 0.0939,0.15051 0.0376,0.20695 -0.0564,0.0753 -0.15027,0.0941 -0.22541,0.0376 l -0.75134,-0.56441 c -0.0751,-0.0376 -0.0751,-0.15051 -0.0376,-0.20695 0.0564,-0.0752 0.15027,-0.0941 0.2254,-0.0376 z m 1.76566,1.29813 0.75134,0.56441 c 0.0751,0.0564 0.0751,0.1505 0.0376,0.22576 -0.0564,0.0564 -0.15027,0.0752 -0.2254,0.0188 l -0.75134,-0.54559 c -0.0751,-0.0564 -0.0939,-0.15051 -0.0376,-0.22576 0.0564,-0.0753 0.15027,-0.0753 0.2254,-0.0376 z m 1.76566,1.31695 0.75134,0.54559 c 0.0564,0.0564 0.0751,0.15051 0.0376,0.22576 -0.0563,0.0753 -0.15027,0.0941 -0.2254,0.0376 l -0.75135,-0.56441 c -0.0751,-0.0564 -0.0939,-0.15051 -0.0376,-0.22576 0.0564,-0.0564 0.15027,-0.0752 0.22541,-0.0188 z m 1.74687,1.29813 0.77013,0.56441 c 0.0564,0.0376 0.0751,0.15051 0.0188,0.20695 -0.0376,0.0752 -0.15027,0.0941 -0.20662,0.0376 l -0.77013,-0.5644 c -0.0564,-0.0376 -0.0751,-0.15051 -0.0188,-0.20695 0.0376,-0.0753 0.15027,-0.0941 0.20662,-0.0376 z m 1.76566,1.29813 0.75134,0.56441 c 0.0751,0.0564 0.0939,0.15051 0.0376,0.22576 -0.0564,0.0564 -0.15027,0.0753 -0.20662,0.0188 l -0.77013,-0.5456 c -0.0564,-0.0564 -0.0751,-0.1505 -0.0188,-0.22576 0.0376,-0.0752 0.15027,-0.0752 0.20662,-0.0376 z m 1.76565,1.31695 0.75135,0.54559 c 0.0751,0.0565 0.0939,0.15051 0.0376,0.22577 -0.0564,0.0753 -0.15027,0.0753 -0.2254,0.0376 l -0.75134,-0.5644 c -0.0751,-0.0564 -0.0751,-0.15051 -0.0376,-0.22576 0.0564,-0.0564 0.15027,-0.0753 0.2254,-0.0188 z m 1.76566,1.29814 0.75134,0.5644 c 0.0751,0.0376 0.0939,0.15051 0.0376,0.20695 -0.0564,0.0753 -0.15027,0.0941 -0.2254,0.0376 l -0.75135,-0.56441 c -0.0751,-0.0376 -0.0751,-0.15051 -0.0376,-0.20695 0.0564,-0.0753 0.15027,-0.0941 0.2254,-0.0376 z m 1.76566,1.29813 0.75134,0.56441 c 0.0751,0.0564 0.0751,0.1505 0.0376,0.22576 -0.0564,0.0564 -0.15027,0.0752 -0.22541,0.0188 l -0.75134,-0.54559 c -0.0751,-0.0564 -0.0939,-0.15051 -0.0376,-0.22576 0.0564,-0.0753 0.15027,-0.0753 0.22541,-0.0376 z m 1.76565,1.31695 0.75135,0.54559 c 0.0564,0.0564 0.0751,0.15051 0.0376,0.22576 -0.0564,0.0753 -0.15027,0.0753 -0.2254,0.0376 l -0.75134,-0.56441 c -0.0751,-0.0564 -0.0939,-0.1505 -0.0376,-0.22576 0.0564,-0.0564 0.15027,-0.0753 0.2254,-0.0188 z m 1.74688,1.29813 0.77012,0.56441 c 0.0564,0.0376 0.0751,0.15051 0.0188,0.20695 -0.0376,0.0752 -0.15027,0.0941 -0.20662,0.0376 l -0.77013,-0.5644 c -0.0563,-0.0376 -0.0751,-0.15051 -0.0188,-0.20695 0.0376,-0.0753 0.15026,-0.0941 0.20662,-0.0376 z m 1.76565,1.29814 0.75134,0.5644 c 0.0751,0.0564 0.0939,0.15051 0.0376,0.22576 -0.0564,0.0564 -0.15027,0.0753 -0.20662,0.0188 l -0.77012,-0.5456 c -0.0564,-0.0564 -0.0751,-0.1505 -0.0188,-0.22576 0.0376,-0.0752 0.15027,-0.0752 0.20662,-0.0376 z m 1.76566,1.31694 0.75134,0.5456 c 0.0751,0.0564 0.0939,0.1505 0.0376,0.22576 -0.0563,0.0752 -0.15027,0.0752 -0.2254,0.0376 l -0.75135,-0.5644 c -0.0751,-0.0564 -0.0751,-0.15051 -0.0376,-0.22576 0.0564,-0.0564 0.15027,-0.0753 0.22541,-0.0188 z m 1.76565,1.29814 0.75135,0.5644 c 0.0751,0.0376 0.0939,0.15051 0.0376,0.20695 -0.0563,0.0753 -0.15026,0.0941 -0.2254,0.0376 l -0.75134,-0.56441 c -0.0751,-0.0376 -0.0751,-0.15051 -0.0376,-0.20695 0.0564,-0.0752 0.15027,-0.0941 0.2254,-0.0376 z m 1.76566,1.29813 0.75134,0.56441 c 0.0751,0.0564 0.0751,0.15051 0.0376,0.22576 -0.0564,0.0564 -0.15027,0.0753 -0.2254,0.0188 l -0.75135,-0.54559 c -0.0751,-0.0564 -0.0939,-0.15051 -0.0376,-0.22576 0.0564,-0.0753 0.15027,-0.0753 0.2254,-0.0376 z m 1.76566,1.31695 0.75134,0.54559 c 0.0564,0.0564 0.0751,0.15051 0.0376,0.22576 -0.0564,0.0753 -0.15027,0.0753 -0.22541,0.0376 l -0.75134,-0.56441 c -0.0751,-0.0564 -0.0939,-0.1505 -0.0376,-0.22576 0.0563,-0.0564 0.15027,-0.0752 0.22541,-0.0188 z" style="fill:#000;fill-opacity:1;fill-rule:nonzero;stroke:#000;stroke-width:.15026863;stroke-linecap:butt;stroke-linejoin:bevel;stroke-opacity:1;stroke-dasharray:.30053726,.15026863;stroke-miterlimit:4;stroke-dashoffset:0"/><text id="text4894" style="font-size:13.82471371px;font-style:normal;font-weight:700;text-align:start;text-anchor:start;fill:#000;font-family:Calibri" x="396.709" y="218.99" xml:space="preserve">t</text><text id="text4896" style="font-size:8.71557999px;font-style:normal;font-weight:700;text-align:start;text-anchor:start;fill:#000;font-family:Calibri" x="401.518" y="220.946" xml:space="preserve">j</text><path id="path4900" d="m 485.01078,148.1754 c -1.95349,0 -3.53131,1.59915 -3.53131,3.55576 0,1.95661 1.57782,3.53695 3.53131,3.53695 1.95349,0 3.5501,-1.58034 3.5501,-3.53695 0,-1.95661 -1.59661,-3.55576 -3.5501,-3.55576" clip-path="url(#clipEmfPath7)" style="fill:#fff;fill-opacity:1;fill-rule:evenodd;stroke:none"/><path id="path4902" d="m 485.01078,148.1754 c -1.95349,0 -3.53131,1.59915 -3.53131,3.55576 0,1.95661 1.57782,3.53695 3.53131,3.53695 1.95349,0 3.5501,-1.58034 3.5501,-3.53695 0,-1.95661 -1.59661,-3.55576 -3.5501,-3.55576" style="fill:none;stroke:#000;stroke-width:2.81753683px;stroke-linecap:round;stroke-linejoin:round;stroke-opacity:1;stroke-dasharray:none"/><text id="text4904" style="font-size:12.95654583px;font-style:normal;font-weight:700;text-align:start;text-anchor:start;fill:#000;font-family:Calibri" x="625.623" y="180.036" transform="scale(0.93720176,1.0670061)" xml:space="preserve">C</text><text id="text4906" style="font-size:8.71557999px;font-style:normal;font-weight:700;text-align:start;text-anchor:start;fill:#000;font-family:Calibri" x="594.419" y="194.842" xml:space="preserve">j</text><path id="path4910" d="m 521.84538,154.72251 3.64401,0.8278 c 0.33811,0.0753 0.56351,0.4139 0.48838,0.75254 -0.0751,0.33864 -0.41324,0.52678 -0.75135,0.45153 l -3.68158,-0.79017 c -0.3381,-0.0753 -0.52594,-0.4139 -0.4508,-0.75254 0.0751,-0.33865 0.41323,-0.56441 0.75134,-0.48916 z m 8.52774,1.88136 3.68158,0.82779 c 0.33811,0.0753 0.56351,0.4139 0.48838,0.75254 -0.0751,0.33865 -0.41324,0.56441 -0.75135,0.48916 l -3.68158,-0.8278 c -0.3381,-0.0753 -0.52594,-0.4139 -0.4508,-0.75254 0.0751,-0.33864 0.37567,-0.56441 0.71377,-0.48915 z m 8.56531,1.91898 3.68159,0.79017 c 0.3381,0.0753 0.5635,0.41389 0.48837,0.75254 -0.0751,0.33864 -0.41324,0.5644 -0.75134,0.48915 l -3.68159,-0.8278 c -0.3381,-0.0753 -0.5635,-0.41389 -0.48837,-0.75254 0.0751,-0.33864 0.41324,-0.52678 0.75134,-0.45152 z m 8.56532,1.88135 3.68158,0.8278 c 0.3381,0.0753 0.52594,0.41389 0.4508,0.71491 -0.0751,0.33864 -0.37567,0.56441 -0.71377,0.48915 l -3.68158,-0.79017 c -0.33811,-0.0753 -0.56351,-0.41389 -0.48838,-0.75254 0.0751,-0.33864 0.41324,-0.5644 0.75135,-0.48915 z m 8.56531,1.88135 2.29159,0.52678 1.38999,0.30102 c 0.3381,0.0753 0.52594,0.4139 0.45081,0.75254 -0.0751,0.33865 -0.41324,0.52678 -0.75135,0.45153 l -1.35242,-0.30102 -2.29159,-0.48915 c -0.33811,-0.0753 -0.56351,-0.4139 -0.48837,-0.75254 0.0751,-0.33865 0.41323,-0.56441 0.75134,-0.48916 z m 8.56531,1.91899 0.67621,0.11288 2.9678,0.67728 c 0.33811,0.0753 0.56351,0.4139 0.48838,0.75255 -0.0751,0.33864 -0.41324,0.52677 -0.75135,0.45152 l -3.00537,-0.63966 -0.63864,-0.15051 c -0.3381,-0.0753 -0.56351,-0.4139 -0.48837,-0.75254 0.0751,-0.33864 0.41324,-0.52678 0.75134,-0.45152 z m 8.56531,1.88135 2.0662,0.45152 1.57782,0.33865 c 0.3381,0.0753 0.5635,0.4139 0.48837,0.75254 -0.0751,0.33864 -0.41324,0.5644 -0.75134,0.48915 l -1.57782,-0.37627 -2.0662,-0.45152 c -0.3381,-0.0753 -0.56351,-0.4139 -0.48837,-0.75255 0.0751,-0.33864 0.41324,-0.52678 0.75134,-0.45152 z m 8.56531,1.88135 2.89267,0.63966 0.75135,0.18814 c 0.3381,0.0753 0.56351,0.37627 0.48837,0.71491 -0.0751,0.33865 -0.41324,0.56441 -0.75134,0.48915 l -0.75135,-0.1505 -2.93023,-0.63966 c -0.33811,-0.0753 -0.52594,-0.4139 -0.45081,-0.75255 0.0751,-0.33864 0.41324,-0.5644 0.75134,-0.48915 z m 8.52775,1.88136 0.26297,0.0752 2.81754,0.60203 0.60107,0.15051 c 0.3381,0.0753 0.56351,0.4139 0.48837,0.75254 -0.0751,0.33865 -0.41324,0.52678 -0.75134,0.45153 l -0.63864,-0.11288 -2.77997,-0.63966 -0.26297,-0.0376 c -0.33811,-0.0753 -0.52594,-0.4139 -0.45081,-0.75254 0.0751,-0.33865 0.37567,-0.56441 0.71378,-0.48915 z m 8.56531,1.88135 2.36673,0.52678 1.31485,0.30101 c 0.33811,0.0753 0.56351,0.4139 0.48837,0.75255 -0.0751,0.33864 -0.41323,0.5644 -0.75134,0.48915 l -1.31485,-0.30102 -2.36673,-0.52678 c -0.3381,-0.0753 -0.56351,-0.4139 -0.48837,-0.75254 0.0751,-0.33864 0.41324,-0.5644 0.75134,-0.48915 z m 8.56531,1.91898 0.71378,0.15051 2.9678,0.63966 c 0.33811,0.0753 0.52594,0.4139 0.48838,0.75254 -0.0751,0.33864 -0.41324,0.56441 -0.75135,0.48915 l -2.9678,-0.67729 -0.71378,-0.1505 c -0.3381,-0.0753 -0.56351,-0.4139 -0.48837,-0.75255 0.0751,-0.33864 0.41324,-0.52677 0.75134,-0.45152 z m 3.15564,-2.52101 6.53669,5.26779 -8.15207,2.06948 z" clip-path="url(#clipEmfPath8)" style="fill:#000;fill-opacity:1;fill-rule:nonzero;stroke:#000;stroke-width:.15026863px;stroke-linecap:butt;stroke-linejoin:bevel;stroke-opacity:1;stroke-dasharray:none"/><text id="text4912" style="font-size:13.82471371px;font-style:normal;font-weight:700;text-align:start;text-anchor:start;fill:#000;font-family:Calibri" x="447.199" y="125.975" xml:space="preserve">V</text><text id="text4914" style="font-size:8.71557999px;font-style:normal;font-weight:700;text-align:start;text-anchor:start;fill:#000;font-family:Calibri" x="455.314" y="127.932" xml:space="preserve">n</text><path id="path4918" d="m 485.01078,129.36187 c -12.73527,0 -23.06623,10.34744 -23.06623,23.12183 0,12.75558 10.33096,23.10302 23.06623,23.10302 12.75405,0 23.08502,-10.34744 23.08502,-23.10302 0,-12.77439 -10.33097,-23.12183 -23.08502,-23.12183" clip-path="url(#clipEmfPath9)" style="fill:none;stroke:#000;stroke-width:.31932083px;stroke-linecap:round;stroke-linejoin:round;stroke-opacity:1;stroke-dasharray:none"/><path id="path4920" d="m 483.35783,150.05676 -18.78358,-7.52542" style="fill:none;stroke:#000;stroke-width:.31932083px;stroke-linecap:round;stroke-linejoin:round;stroke-opacity:1;stroke-dasharray:none"/><path id="path4922" d="m 458.52594,140.8005 -42.26306,-16.87574 c -0.31932,-0.11288 -0.48837,-0.48916 -0.35688,-0.80899 0.13148,-0.31983 0.48837,-0.47033 0.80769,-0.33864 l 42.28183,16.85693 c 0.31933,0.13169 0.46959,0.48915 0.33811,0.80898 -0.1127,0.33864 -0.48837,0.48915 -0.80769,0.35746 z m 0.46958,-4.53406 5.57873,6.2649 -8.35869,0.71492 z" style="fill:#000;fill-opacity:1;fill-rule:nonzero;stroke:#000;stroke-width:.15026863px;stroke-linecap:butt;stroke-linejoin:bevel;stroke-opacity:1;stroke-dasharray:none"/><path id="path4924" d="m 416.48829,123.34154 -55.97507,0" style="fill:none;stroke:#000;stroke-width:.31932083px;stroke-linecap:round;stroke-linejoin:round;stroke-opacity:1;stroke-dasharray:none"/><text id="text4926" style="font-size:13.82471371px;font-style:normal;font-weight:700;text-align:start;text-anchor:start;fill:#000;font-family:Calibri" x="367.858" y="119.955" xml:space="preserve">Tol(V</text><text id="text4928" style="font-size:8.71557999px;font-style:normal;font-weight:700;text-align:start;text-anchor:start;fill:#000;font-family:Calibri" x="398.062" y="121.912" xml:space="preserve">n</text><text id="text4930" style="font-size:13.82471371px;font-style:normal;font-weight:700;text-align:start;text-anchor:start;fill:#000;font-family:Calibri" x="402.72" y="119.955" xml:space="preserve">)</text><path id="path4934" d="m 485.76212,255.03628 0,0.94068 c 0,0.0941 -0.0564,0.16932 -0.15026,0.16932 -0.0751,0 -0.15027,-0.0752 -0.15027,-0.16932 l 0,-0.94068 c 0,-0.0753 0.0751,-0.1505 0.15027,-0.1505 0.0939,0 0.15026,0.0752 0.15026,0.1505 z m 0,2.20119 0,0.94067 c 0,0.0941 -0.0564,0.15051 -0.15026,0.15051 -0.0751,0 -0.15027,-0.0564 -0.15027,-0.15051 l 0,-0.94067 c 0,-0.0753 0.0751,-0.15051 0.15027,-0.15051 0.0939,0 0.15026,0.0753 0.15026,0.15051 z m 0,2.20118 0,0.94068 c 0,0.0753 -0.0564,0.15051 -0.15026,0.15051 -0.0751,0 -0.15027,-0.0753 -0.15027,-0.15051 l 0,-0.94068 c 0,-0.0941 0.0751,-0.16932 0.15027,-0.16932 0.0939,0 0.15026,0.0752 0.15026,0.16932 z m 0,2.18237 0,0.94068 c 0,0.0941 -0.0564,0.16932 -0.15026,0.16932 -0.0751,0 -0.15027,-0.0752 -0.15027,-0.16932 l 0,-0.94068 c 0,-0.0752 0.0751,-0.15051 0.15027,-0.15051 0.0939,0 0.15026,0.0753 0.15026,0.15051 z m 0,2.20118 0,0.94068 c 0,0.0941 -0.0564,0.15051 -0.15026,0.15051 -0.0751,0 -0.15027,-0.0564 -0.15027,-0.15051 l 0,-0.94068 c 0,-0.0752 0.0751,-0.1505 0.15027,-0.1505 0.0939,0 0.15026,0.0753 0.15026,0.1505 z m 0,2.20119 0,0.94067 c 0,0.0753 -0.0564,0.15051 -0.15026,0.15051 -0.0751,0 -0.15027,-0.0753 -0.15027,-0.15051 l 0,-0.94067 c 0,-0.0941 0.0751,-0.16932 0.15027,-0.16932 0.0939,0 0.15026,0.0753 0.15026,0.16932 z m 0,2.18237 0,0.94067 c 0,0.0941 -0.0564,0.16933 -0.15026,0.16933 -0.0751,0 -0.15027,-0.0753 -0.15027,-0.16933 l 0,-0.94067 c 0,-0.0753 0.0751,-0.15051 0.15027,-0.15051 0.0939,0 0.15026,0.0752 0.15026,0.15051 z m 0,2.20118 0,0.94068 c 0,0.0941 -0.0564,0.15051 -0.15026,0.15051 -0.0751,0 -0.15027,-0.0564 -0.15027,-0.15051 l 0,-0.94068 c 0,-0.0753 0.0751,-0.15051 0.15027,-0.15051 0.0939,0 0.15026,0.0753 0.15026,0.15051 z m 0,2.20119 0,0.94067 c 0,0.0753 -0.0564,0.15051 -0.15026,0.15051 -0.0751,0 -0.15027,-0.0753 -0.15027,-0.15051 l 0,-0.94067 c 0,-0.0941 0.0751,-0.16933 0.15027,-0.16933 0.0939,0 0.15026,0.0753 0.15026,0.16933 z m 0,2.18237 0,0.94067 c 0,0.0941 -0.0564,0.16932 -0.15026,0.16932 -0.0751,0 -0.15027,-0.0752 -0.15027,-0.16932 l 0,-0.94067 c 0,-0.0753 0.0751,-0.15051 0.15027,-0.15051 0.0939,0 0.15026,0.0752 0.15026,0.15051 z m 0,2.20118 0,0.94068 c 0,0.0941 -0.0564,0.1505 -0.15026,0.1505 -0.0751,0 -0.15027,-0.0564 -0.15027,-0.1505 l 0,-0.94068 c 0,-0.0753 0.0751,-0.15051 0.15027,-0.15051 0.0939,0 0.15026,0.0753 0.15026,0.15051 z m 0,2.20118 0,0.94068 c 0,0.0753 -0.0564,0.15051 -0.15026,0.15051 -0.0751,0 -0.15027,-0.0753 -0.15027,-0.15051 l 0,-0.94068 c 0,-0.0941 0.0751,-0.16932 0.15027,-0.16932 0.0939,0 0.15026,0.0752 0.15026,0.16932 z m 0,2.18237 0,0.94068 c 0,0.0941 -0.0564,0.16932 -0.15026,0.16932 -0.0751,0 -0.15027,-0.0752 -0.15027,-0.16932 l 0,-0.94068 c 0,-0.0752 0.0751,-0.15051 0.15027,-0.15051 0.0939,0 0.15026,0.0753 0.15026,0.15051 z m 0,2.20119 0,0.94067 c 0,0.0941 -0.0564,0.15051 -0.15026,0.15051 -0.0751,0 -0.15027,-0.0564 -0.15027,-0.15051 l 0,-0.94067 c 0,-0.0753 0.0751,-0.15051 0.15027,-0.15051 0.0939,0 0.15026,0.0753 0.15026,0.15051 z m 0,2.20118 0,0.94068 c 0,0.0752 -0.0564,0.1505 -0.15026,0.1505 -0.0751,0 -0.15027,-0.0753 -0.15027,-0.1505 l 0,-0.94068 c 0,-0.0941 0.0751,-0.16932 0.15027,-0.16932 0.0939,0 0.15026,0.0753 0.15026,0.16932 z m 0,2.18237 0,0.94068 c 0,0.0941 -0.0564,0.16932 -0.15026,0.16932 -0.0751,0 -0.15027,-0.0753 -0.15027,-0.16932 l 0,-0.94068 c 0,-0.0752 0.0751,-0.15051 0.15027,-0.15051 0.0939,0 0.15026,0.0753 0.15026,0.15051 z m 0,2.20118 0,0.94068 c 0,0.0941 -0.0564,0.15051 -0.15026,0.15051 -0.0751,0 -0.15027,-0.0564 -0.15027,-0.15051 l 0,-0.94068 c 0,-0.0753 0.0751,-0.1505 0.15027,-0.1505 0.0939,0 0.15026,0.0752 0.15026,0.1505 z m 0,2.20119 0,0.94067 c 0,0.0753 -0.0564,0.15051 -0.15026,0.15051 -0.0751,0 -0.15027,-0.0753 -0.15027,-0.15051 l 0,-0.94067 c 0,-0.0941 0.0751,-0.16932 0.15027,-0.16932 0.0939,0 0.15026,0.0752 0.15026,0.16932 z m 0,2.18237 0,0.94067 c 0,0.0941 -0.0564,0.16933 -0.15026,0.16933 -0.0751,0 -0.15027,-0.0753 -0.15027,-0.16933 l 0,-0.94067 c 0,-0.0753 0.0751,-0.15051 0.15027,-0.15051 0.0939,0 0.15026,0.0752 0.15026,0.15051 z m 0,2.20118 0,0.94068 c 0,0.0941 -0.0564,0.15051 -0.15026,0.15051 -0.0751,0 -0.15027,-0.0564 -0.15027,-0.15051 l 0,-0.94068 c 0,-0.0752 0.0751,-0.15051 0.15027,-0.15051 0.0939,0 0.15026,0.0753 0.15026,0.15051 z m 0,2.20118 0,0.11289 c 0,0.0941 -0.0564,0.16932 -0.15026,0.16932 -0.0751,0 -0.15027,-0.0753 -0.15027,-0.16932 l 0,-0.11289 c 0,-0.0941 0.0751,-0.16932 0.15027,-0.16932 0.0939,0 0.15026,0.0753 0.15026,0.16932 z" clip-path="url(#clipEmfPath10)" style="fill:#000;fill-opacity:1;fill-rule:nonzero;stroke:#000;stroke-width:.15026863px;stroke-linecap:butt;stroke-linejoin:bevel;stroke-opacity:1;stroke-dasharray:none"/><path id="path4936" d="m 484.61633,51.850103 0,-3.762707 c 0,-0.338644 0.28175,-0.620847 0.61985,-0.620847 0.35689,0 0.61986,0.282203 0.61986,0.620847 l 0,3.762707 c 0,0.357457 -0.26297,0.63966 -0.61986,0.63966 -0.3381,0 -0.61985,-0.282203 -0.61985,-0.63966 z m 0,-8.767107 0,-3.762707 c 0,-0.357458 0.28175,-0.639661 0.61985,-0.639661 0.35689,0 0.61986,0.282203 0.61986,0.639661 l 0,3.762707 c 0,0.338643 -0.26297,0.620846 -0.61986,0.620846 -0.3381,0 -0.61985,-0.282203 -0.61985,-0.620846 z m 0,-8.785921 0,-3.762707 c 0,-0.338644 0.28175,-0.620847 0.61985,-0.620847 0.35689,0 0.61986,0.282203 0.61986,0.620847 l 0,3.762707 c 0,0.357457 -0.26297,0.620846 -0.61986,0.620846 -0.3381,0 -0.61985,-0.263389 -0.61985,-0.620846 z m 0,-8.785921 0,-3.762707 c 0,-0.338644 0.28175,-0.620847 0.61985,-0.620847 0.35689,0 0.61986,0.282203 0.61986,0.620847 l 0,3.762707 c 0,0.357457 -0.26297,0.63966 -0.61986,0.63966 -0.3381,0 -0.61985,-0.282203 -0.61985,-0.63966 z m 0,-8.767108 0,-3.762707 c 0,-0.357457 0.28175,-0.63966 0.61985,-0.63966 0.35689,0 0.61986,0.282203 0.61986,0.63966 l 0,3.762707 c 0,0.338644 -0.26297,0.620847 -0.61986,0.620847 -0.3381,0 -0.61985,-0.282203 -0.61985,-0.620847 z m 0,-8.7859206 0,-0.6208467 c 0,-0.3574571 0.28175,-0.6396602 0.61985,-0.6396602 0.35689,0 0.61986,0.2822031 0.61986,0.6396602 l 0,0.6208467 c 0,0.3574572 -0.26297,0.6208467 -0.61986,0.6208467 -0.3381,0 -0.61985,-0.2633895 -0.61985,-0.6208467 z m -3.13686,0.6208467 3.75671,-7.5254141 3.75672,7.5254141 z" style="fill:#000;fill-opacity:1;fill-rule:nonzero;stroke:#000;stroke-width:.15026863px;stroke-linecap:butt;stroke-linejoin:bevel;stroke-opacity:1;stroke-dasharray:none"/><text id="text4938" style="font-size:13.82471371px;font-style:normal;font-weight:700;text-align:start;text-anchor:start;fill:#000;font-family:Calibri" x="496.788" y="13.094" xml:space="preserve">Ci</text><path id="path4958" d="m 487.24603,154.10167 0.60107,0.71491 c 0.0564,0.0753 0.0376,0.16932 -0.0188,0.22576 -0.0751,0.0564 -0.16905,0.0564 -0.22541,-0.0188 l -0.60107,-0.71491 c -0.0564,-0.0753 -0.0564,-0.16933 0.0188,-0.22577 0.0564,-0.0564 0.16906,-0.0376 0.22541,0.0188 z m 1.40877,1.6744 0.60107,0.73373 c 0.0564,0.0564 0.0376,0.15051 -0.0188,0.20695 -0.0751,0.0564 -0.16906,0.0564 -0.22541,-0.0188 l -0.60107,-0.71491 c -0.0564,-0.0564 -0.0564,-0.16932 0.0188,-0.22576 0.0564,-0.0564 0.16905,-0.0376 0.22541,0.0188 z m 1.40876,1.69322 0.60108,0.71491 c 0.0563,0.0753 0.0376,0.16933 -0.0188,0.22577 -0.0751,0.0564 -0.16905,0.0376 -0.2254,-0.0188 l -0.60107,-0.73372 c -0.0564,-0.0565 -0.0564,-0.15051 0.0188,-0.20695 0.0564,-0.0564 0.16905,-0.0564 0.2254,0.0188 z m 1.40877,1.6744 0.60108,0.71492 c 0.0563,0.0753 0.0376,0.16932 -0.0188,0.22576 -0.0751,0.0564 -0.16905,0.0564 -0.2254,-0.0188 l -0.60107,-0.71492 c -0.0564,-0.0753 -0.0564,-0.16932 0.0188,-0.22576 0.0563,-0.0564 0.16905,-0.0376 0.2254,0.0188 z m 1.40877,1.67441 0.60107,0.73373 c 0.0564,0.0564 0.0376,0.15051 -0.0188,0.20695 -0.0751,0.0564 -0.16905,0.0564 -0.2254,-0.0188 l -0.60108,-0.71491 c -0.0564,-0.0564 -0.0564,-0.16932 0.0188,-0.22576 0.0751,-0.0565 0.16905,-0.0376 0.2254,0.0188 z m 1.40877,1.69322 0.60107,0.71491 c 0.0564,0.0564 0.0564,0.16932 -0.0188,0.22576 -0.0751,0.0564 -0.16905,0.0376 -0.2254,-0.0188 l -0.60108,-0.73373 c -0.0564,-0.0564 -0.0376,-0.15051 0.0188,-0.20695 0.0751,-0.0564 0.16905,-0.0564 0.2254,0.0188 z m 1.40877,1.6744 0.60107,0.71492 c 0.0564,0.0752 0.0564,0.16932 -0.0188,0.22576 -0.0564,0.0564 -0.16905,0.0376 -0.2254,-0.0188 l -0.60108,-0.71491 c -0.0564,-0.0753 -0.0376,-0.16932 0.0188,-0.22576 0.0751,-0.0564 0.16906,-0.0564 0.22541,0.0188 z m 1.40877,1.67441 0.60107,0.73372 c 0.0564,0.0564 0.0564,0.15051 -0.0188,0.20695 -0.0564,0.0564 -0.16906,0.0564 -0.22541,-0.0188 l -0.60107,-0.71491 c -0.0564,-0.0753 -0.0376,-0.16933 0.0188,-0.22577 0.0751,-0.0564 0.16905,-0.0376 0.22541,0.0188 z m 1.40876,1.69321 0.60108,0.71492 c 0.0564,0.0564 0.0564,0.16932 -0.0188,0.22576 -0.0564,0.0564 -0.16905,0.0376 -0.2254,-0.0188 l -0.60107,-0.73373 c -0.0564,-0.0564 -0.0376,-0.15051 0.0188,-0.20695 0.0751,-0.0564 0.16905,-0.0564 0.2254,0.0188 z m 1.40877,1.67441 0.60108,0.71491 c 0.0564,0.0753 0.0564,0.16933 -0.0188,0.22577 -0.0564,0.0564 -0.16905,0.0376 -0.2254,-0.0188 l -0.60107,-0.71491 c -0.0564,-0.0753 -0.0376,-0.16932 0.0188,-0.22576 0.0751,-0.0564 0.16905,-0.0564 0.2254,0.0188 z m 1.40877,1.6744 0.60108,0.71492 c 0.0563,0.0752 0.0563,0.16932 -0.0188,0.22576 -0.0564,0.0564 -0.15027,0.0564 -0.20662,-0.0188 l -0.61986,-0.71492 c -0.0564,-0.0753 -0.0376,-0.16932 0.0188,-0.22576 0.0751,-0.0564 0.16905,-0.0376 0.2254,0.0188 z m 1.40877,1.69322 0.60107,0.71492 c 0.0564,0.0564 0.0564,0.16932 -0.0188,0.22576 -0.0564,0.0376 -0.15027,0.0376 -0.20662,-0.0188 l -0.61986,-0.73373 c -0.0564,-0.0564 -0.0376,-0.16932 0.0188,-0.22577 0.0751,-0.0376 0.16905,-0.0376 0.2254,0.0376 z m 1.40877,1.67441 0.60107,0.71491 c 0.0564,0.0753 0.0564,0.16932 -0.0188,0.22576 -0.0564,0.0564 -0.15027,0.0376 -0.20662,-0.0188 l -0.60108,-0.71491 c -0.0564,-0.0753 -0.0564,-0.16933 0.0188,-0.22577 0.0564,-0.0564 0.15027,-0.0564 0.20662,0.0188 z m 1.40877,1.6744 0.61985,0.71492 c 0.0376,0.0753 0.0376,0.16932 -0.0376,0.22576 -0.0564,0.0564 -0.15027,0.0564 -0.20662,-0.0188 l -0.60108,-0.71491 c -0.0564,-0.0752 -0.0564,-0.16932 0.0188,-0.22576 0.0563,-0.0564 0.15027,-0.0376 0.20662,0.0188 z m 1.40876,1.67441 0.61986,0.73372 c 0.0564,0.0564 0.0376,0.15051 -0.0188,0.20695 -0.0751,0.0564 -0.16905,0.0564 -0.2254,-0.0188 l -0.60108,-0.71492 c -0.0564,-0.0564 -0.0564,-0.16932 0.0188,-0.22576 0.0564,-0.0564 0.15027,-0.0376 0.20662,0.0188 z m 1.40877,1.69321 0.61986,0.71492 c 0.0564,0.0752 0.0376,0.16932 -0.0188,0.22576 -0.0751,0.0564 -0.16906,0.0376 -0.22541,-0.0188 l -0.60107,-0.73373 c -0.0564,-0.0564 -0.0564,-0.15051 0.0188,-0.20695 0.0564,-0.0564 0.16906,-0.0564 0.20662,0.0188 z m 1.42755,1.67441 0.60108,0.71491 c 0.0564,0.0753 0.0376,0.16932 -0.0188,0.22577 -0.0751,0.0564 -0.16906,0.0564 -0.22541,-0.0188 l -0.60107,-0.71491 c -0.0564,-0.0753 -0.0564,-0.16932 0.0188,-0.22576 0.0564,-0.0564 0.16905,-0.0376 0.2254,0.0188 z m 1.40877,1.6744 0.60108,0.73373 c 0.0564,0.0564 0.0376,0.15051 -0.0188,0.20695 -0.0751,0.0564 -0.16905,0.0564 -0.2254,-0.0188 l -0.60107,-0.71492 c -0.0564,-0.0564 -0.0564,-0.16932 0.0188,-0.22576 0.0564,-0.0564 0.16905,-0.0376 0.2254,0.0188 z m 1.40877,1.69322 0.60108,0.71492 c 0.0564,0.0564 0.0376,0.16932 -0.0188,0.22576 -0.0751,0.0564 -0.16905,0.0376 -0.2254,-0.0188 l -0.60108,-0.73372 c -0.0564,-0.0564 -0.0564,-0.15051 0.0188,-0.20695 0.0563,-0.0564 0.16905,-0.0564 0.2254,0.0188 z m 1.40877,1.67441 0.60107,0.71491 c 0.0564,0.0752 0.0376,0.16932 -0.0188,0.22576 -0.0751,0.0564 -0.16905,0.0564 -0.2254,-0.0188 l -0.60108,-0.71491 c -0.0564,-0.0753 -0.0564,-0.16933 0.0188,-0.22577 0.0751,-0.0564 0.16905,-0.0564 0.2254,0.0188 z m 1.40877,1.6744 0.60107,0.73373 c 0.0564,0.0564 0.0376,0.15051 -0.0188,0.20695 -0.0751,0.0564 -0.16905,0.0564 -0.2254,-0.0188 l -0.60108,-0.71491 c -0.0564,-0.0564 -0.0376,-0.16932 0.0188,-0.22576 0.0751,-0.0564 0.16905,-0.0376 0.2254,0.0188 z m 1.40877,1.69322 0.60107,0.71491 c 0.0563,0.0564 0.0563,0.16933 -0.0188,0.22577 -0.0751,0.0564 -0.16905,0.0376 -0.22541,-0.0188 l -0.60107,-0.73373 c -0.0564,-0.0564 -0.0376,-0.1505 0.0188,-0.20694 0.0751,-0.0564 0.16906,-0.0564 0.22541,0.0188 z m 1.40876,1.6744 0.60108,0.71492 c 0.0563,0.0753 0.0563,0.16932 -0.0188,0.22576 -0.0563,0.0564 -0.16906,0.0376 -0.22541,-0.0188 l -0.60107,-0.71492 c -0.0563,-0.0752 -0.0376,-0.16932 0.0188,-0.22576 0.0751,-0.0564 0.16905,-0.0564 0.2254,0.0188 z m 1.40877,1.67441 0.60108,0.73373 c 0.0563,0.0564 0.0563,0.1505 -0.0188,0.20694 -0.0564,0.0565 -0.16905,0.0565 -0.2254,-0.0188 l -0.60107,-0.71491 c -0.0563,-0.0753 -0.0376,-0.16932 0.0188,-0.22577 0.0751,-0.0564 0.16905,-0.0376 0.2254,0.0188 z m 1.40877,1.69322 0.60108,0.71491 c 0.0563,0.0564 0.0563,0.16932 -0.0188,0.22576 -0.0564,0.0564 -0.16905,0.0376 -0.2254,-0.0188 l -0.60107,-0.73373 c -0.0564,-0.0564 -0.0376,-0.16932 0.0188,-0.20695 0.0751,-0.0564 0.16905,-0.0564 0.2254,0.0188 z m 1.40877,1.6744 0.60107,0.71492 c 0.0564,0.0752 0.0564,0.16932 -0.0188,0.22576 -0.0564,0.0564 -0.16905,0.0376 -0.20662,-0.0188 l -0.61986,-0.71491 c -0.0563,-0.0753 -0.0376,-0.16932 0.0188,-0.22576 0.0751,-0.0564 0.16905,-0.0564 0.2254,0.0188 z m 1.40877,1.67441 0.60107,0.71491 c 0.0563,0.0753 0.0563,0.16932 -0.0188,0.22576 -0.0564,0.0564 -0.15027,0.0564 -0.20662,-0.0188 l -0.61986,-0.71492 c -0.0563,-0.0753 -0.0376,-0.16932 0.0188,-0.22576 0.0751,-0.0564 0.16905,-0.0376 0.2254,0.0188 z m 1.40877,1.6744 0.60107,0.73373 c 0.0563,0.0564 0.0563,0.16932 -0.0188,0.22576 -0.0564,0.0376 -0.15027,0.0376 -0.20662,-0.0376 l -0.61986,-0.71491 c -0.0376,-0.0564 -0.0376,-0.16932 0.0188,-0.22576 0.0751,-0.0376 0.16906,-0.0376 0.22541,0.0188 z m 1.40877,1.69322 0.60107,0.71491 c 0.0563,0.0753 0.0563,0.16932 -0.0188,0.22577 -0.0564,0.0564 -0.15027,0.0376 -0.20662,-0.0188 l -0.60108,-0.71491 c -0.0563,-0.0753 -0.0563,-0.16932 0.0188,-0.22577 0.0564,-0.0564 0.15026,-0.0564 0.20662,0.0188 z m 1.40876,1.6744 0.61986,0.71492 c 0.0563,0.0752 0.0376,0.16932 -0.0188,0.22576 -0.0751,0.0564 -0.16905,0.0564 -0.2254,-0.0188 l -0.60108,-0.71492 c -0.0563,-0.0753 -0.0563,-0.16932 0.0188,-0.22576 0.0564,-0.0564 0.15027,-0.0376 0.20662,0.0188 z m 1.40877,1.67441 0.61986,0.73373 c 0.0563,0.0564 0.0376,0.1505 -0.0188,0.20694 -0.0751,0.0564 -0.16906,0.0564 -0.22541,-0.0188 l -0.60107,-0.71491 c -0.0563,-0.0564 -0.0563,-0.16933 0.0188,-0.22577 0.0564,-0.0564 0.15027,-0.0376 0.20662,0.0188 z m 1.42755,1.69322 0.60108,0.71491 c 0.0563,0.0753 0.0376,0.16932 -0.0188,0.22576 -0.0751,0.0564 -0.16905,0.0376 -0.2254,-0.0188 l -0.60107,-0.73373 c -0.0563,-0.0564 -0.0563,-0.15051 0.0188,-0.20695 0.0563,-0.0564 0.16905,-0.0564 0.2254,0.0188 z m 1.40877,1.6744 0.60108,0.71491 c 0.0564,0.0753 0.0376,0.16933 -0.0188,0.22577 -0.0751,0.0564 -0.16905,0.0564 -0.2254,-0.0188 L 532.12,208.0777 c -0.0563,-0.0752 -0.0563,-0.16932 0.0188,-0.22576 0.0563,-0.0564 0.16905,-0.0376 0.2254,0.0188 z m 1.40877,1.67441 0.60108,0.73372 c 0.0564,0.0564 0.0376,0.15051 -0.0188,0.20695 -0.0751,0.0564 -0.16905,0.0564 -0.2254,-0.0188 l -0.60108,-0.71492 c -0.0564,-0.0564 -0.0564,-0.16932 0.0188,-0.22576 0.0563,-0.0564 0.16905,-0.0376 0.2254,0.0188 z m 1.40877,1.69321 0.60107,0.71492 c 0.0564,0.0564 0.0376,0.16932 -0.0188,0.22576 -0.0751,0.0564 -0.16905,0.0376 -0.2254,-0.0188 l -0.60108,-0.73373 c -0.0564,-0.0564 -0.0564,-0.15051 0.0188,-0.20695 0.0563,-0.0564 0.16905,-0.0564 0.2254,0.0188 z m 1.40877,1.67441 0.60107,0.71491 c 0.0564,0.0753 0.0376,0.16932 -0.0188,0.22576 -0.0751,0.0564 -0.16905,0.0564 -0.2254,-0.0188 l -0.60108,-0.71491 c -0.0564,-0.0753 -0.0376,-0.16932 0.0188,-0.22577 0.0751,-0.0564 0.16906,-0.0564 0.22541,0.0188 z m 1.40877,1.6744 0.60107,0.73373 c 0.0564,0.0564 0.0564,0.15051 -0.0188,0.20695 -0.0751,0.0564 -0.16906,0.0564 -0.22541,-0.0188 l -0.60107,-0.71492 c -0.0564,-0.0752 -0.0376,-0.16932 0.0188,-0.22576 0.0751,-0.0564 0.16906,-0.0376 0.22541,0.0188 z" clip-path="url(#clipEmfPath11)" style="fill:#000;fill-opacity:1;fill-rule:nonzero;stroke:#000;stroke-width:.15026863px;stroke-linecap:butt;stroke-linejoin:bevel;stroke-opacity:1;stroke-dasharray:none"/><text id="text4960" style="font-size:13.82471371px;font-style:normal;font-weight:700;text-align:start;text-anchor:start;fill:#000;font-family:Calibri" x="534.956" y="264.142" xml:space="preserve">t</text><text id="text4962" style="font-size:8.71557999px;font-style:normal;font-weight:700;text-align:start;text-anchor:start;fill:#000;font-family:Calibri" x="539.765" y="266.099" xml:space="preserve">i</text><path style="fill:none;stroke:#000;stroke-width:3;stroke-linecap:butt;stroke-linejoin:miter;stroke-opacity:1;stroke-miterlimit:4;stroke-dasharray:none" id="path5284" d="m 168.96585,53.57439 0,201.18724" transform="translate(-0.75134,1.03125)"/><path style="fill:none;stroke:#000;stroke-width:1px;stroke-linecap:butt;stroke-linejoin:miter;stroke-opacity:1" id="path5798" d="m 586.27219,95.226433 a 19.647192,18.861303 0 1 1 -39.29438,0 19.647192,18.861303 0 1 1 39.29438,0 z" transform="matrix(1.1170219,0,0,1.1170219,-148.00531,45.593728)"/><path style="fill:none;stroke:#000;stroke-width:1.39742303;stroke-linecap:butt;stroke-linejoin:miter;stroke-miterlimit:4;stroke-opacity:1;stroke-dasharray:2.7948461,2.7948461;stroke-dashoffset:0" id="path5800" d="M 488.26949,154.61208 537.383,210.79857"/><path style="fill:none;stroke:#000;stroke-width:1.553;stroke-linecap:butt;stroke-linejoin:miter;stroke-miterlimit:4;stroke-opacity:1;stroke-dasharray:3.106,3.106;stroke-dashoffset:0" id="path5800-9" d="m 479.70256,285.83973 57.6026,59.17436"/><path style="fill:none;stroke:#000;stroke-width:1;stroke-linecap:butt;stroke-linejoin:miter;stroke-opacity:1;stroke-miterlimit:4;stroke-dasharray:2,2;stroke-dashoffset:0" id="path5827" d="m 485.67857,260.26284 0,49.51093" transform="translate(-0.75134,1.03125)"/><path style="fill:none;stroke:#000;stroke-width:1;stroke-linecap:butt;stroke-linejoin:miter;stroke-opacity:1;stroke-miterlimit:4;stroke-dasharray:2,2;stroke-dashoffset:0;marker-end:url(#Arrow2Mend)" id="path5829" d="m 583.91453,169.09988 28.29196,7.85887" transform="translate(-0.75134,1.03125)"/><path style="fill:none;stroke:#000;stroke-width:1;stroke-linecap:butt;stroke-linejoin:miter;stroke-opacity:1;marker-start:none;stroke-miterlimit:4;stroke-dasharray:2,2;stroke-dashoffset:0" id="path6015" d="m 484.1068,152.59624 -11.78832,58.15568" transform="translate(-0.75134,1.03125)"/></g></g></svg>