<svg xmlns="http://www.w3.org/2000/svg" xmlns:svg="http://www.w3.org/2000/svg" id="svg13509" width="370.382" height="149.969" version="1.1"><defs id="defs13511"><clipPath id="clipEmfPath1" clipPathUnits="userSpaceOnUse"><rect id="rect13522" width="26.541" height="15.92" x="317.595" y="42.054"/></clipPath><clipPath id="clipEmfPath2" clipPathUnits="userSpaceOnUse"><rect id="rect13525" width="26.541" height="15.92" x="270.661" y="17.272"/></clipPath></defs><metadata id="metadata13514"/><g id="layer1" transform="translate(50.912646,-337.38273)"><g id="g13527" transform="matrix(1.0077431,0,0,1,-53.920901,330.85157)"><path id="path13531" d="M 207.26912,66.722663 364.71718,66.32841" style="fill:none;stroke:#000;stroke-width:2.81157255px;stroke-linecap:butt;stroke-linejoin:round;stroke-opacity:1;stroke-dasharray:none"/><path id="path13533" d="m 200.95246,67.304656 c 0,1.952492 1.58385,3.529505 3.53321,3.529505 1.94935,-0.0094 3.53321,-1.595787 3.52383,-3.548279 0,-1.952492 -1.58385,-3.529505 -3.5332,-3.529505 -1.95873,0.0094 -3.53321,1.595787 -3.52384,3.548279" style="fill:#fff;fill-opacity:1;fill-rule:evenodd;stroke:none"/><path id="path13535" d="m 200.95246,67.304656 c 0,1.952492 1.58385,3.529505 3.53321,3.529505 1.94935,-0.0094 3.53321,-1.595787 3.52383,-3.548279 0,-1.952492 -1.58385,-3.529505 -3.5332,-3.529505 -1.95873,0.0094 -3.53321,1.595787 -3.52384,3.548279" style="fill:none;stroke:#000;stroke-width:2.81157255px;stroke-linecap:round;stroke-linejoin:round;stroke-opacity:1;stroke-dasharray:none"/><path id="path13537" d="m 362.09305,66.497376 c 0,1.952492 1.59322,3.529505 3.54258,3.529505 1.94936,0 3.52384,-1.595787 3.50509,-3.548279 0,-1.952492 -1.57448,-3.529505 -3.52383,-3.529505 -1.94936,0 -3.52384,1.595787 -3.52384,3.548279" style="fill:#fff;fill-opacity:1;fill-rule:evenodd;stroke:none"/><path id="path13539" d="m 362.09305,66.497376 c 0,1.952492 1.59322,3.529505 3.54258,3.529505 1.94936,0 3.52384,-1.595787 3.50509,-3.548279 0,-1.952492 -1.57448,-3.529505 -3.52383,-3.529505 -1.94936,0 -3.52384,1.595787 -3.52384,3.548279" style="fill:none;stroke:#000;stroke-width:2.81157255px;stroke-linecap:round;stroke-linejoin:round;stroke-opacity:1;stroke-dasharray:none"/><path id="path13541" d="M 217.75454,123.3676 330.18345,12.023013" style="fill:none;stroke:#000;stroke-width:2.82686734px;stroke-linecap:butt;stroke-linejoin:round;stroke-opacity:1;stroke-dasharray:none"/><path id="path13543" d="m 213.57642,126.99647 c 1.34955,1.38927 3.58007,1.39866 4.96711,0.0375 1.39641,-1.3705 1.4339,-3.59522 0.0844,-4.98449 -1.34956,-1.37988 -3.58007,-1.39866 -4.97649,-0.0282 -1.38704,1.36111 -1.42453,3.59521 -0.075,4.9751" style="fill:#fff;fill-opacity:1;fill-rule:evenodd;stroke:none"/><path id="path13545" d="m 213.57642,126.99647 c 1.34955,1.38927 3.58007,1.39866 4.96711,0.0375 1.39641,-1.3705 1.4339,-3.59522 0.0844,-4.98449 -1.34956,-1.37988 -3.58007,-1.39866 -4.97649,-0.0282 -1.38704,1.36111 -1.42453,3.59521 -0.075,4.9751" style="fill:none;stroke:#000;stroke-width:2.81157255px;stroke-linecap:round;stroke-linejoin:round;stroke-opacity:1;stroke-dasharray:none"/><path id="path13547" d="m 328.59785,13.911506 c 1.3683,1.389274 3.58007,1.408048 4.98585,0.03755 1.38705,-1.351725 1.42453,-3.585827 0.075,-4.9750998 -1.34956,-1.3892733 -3.58007,-1.3892733 -4.96711,-0.037548 -1.40579,1.3704998 -1.44328,3.6046008 -0.0937,4.9750998" style="fill:#fff;fill-opacity:1;fill-rule:evenodd;stroke:none"/><path id="path13549" d="m 328.59785,13.911506 c 1.3683,1.389274 3.58007,1.408048 4.98585,0.03755 1.38705,-1.351725 1.42453,-3.585827 0.075,-4.9750998 -1.34956,-1.3892733 -3.58007,-1.3892733 -4.96711,-0.037548 -1.40579,1.3704998 -1.44328,3.6046008 -0.0937,4.9750998" style="fill:none;stroke:#000;stroke-width:2.81157255px;stroke-linecap:round;stroke-linejoin:round;stroke-opacity:1;stroke-dasharray:none"/><path id="path13551" d="m 317.48277,41.922259 0,15.957868 26.61622,0 0,-15.957868 -26.61622,0 z" style="fill:#fff;fill-opacity:1;fill-rule:evenodd;stroke:none"/><text id="text13553" style="font-size:13.79544926px;font-style:normal;font-weight:700;text-align:start;text-anchor:start;fill:#000;font-family:Calibri" x="325.393" y="55.12" xml:space="preserve">E</text><text id="text13555" style="font-size:8.69713116px;font-style:normal;font-weight:700;text-align:start;text-anchor:start;fill:#000;font-family:Calibri" x="332.14" y="57.073" xml:space="preserve">1</text><path id="path13559" d="m 270.61385,17.140628 0,16.079899 26.55062,0 0,-16.079899 -26.55062,0 z" clip-path="url(#clipEmfPath1)" style="fill:#fff;fill-opacity:1;fill-rule:evenodd;stroke:none"/><text id="text13561" style="font-size:13.79544926px;font-style:normal;font-weight:700;text-align:start;text-anchor:start;fill:#000;font-family:Calibri" x="278.308" y="30.339" xml:space="preserve">E</text><text id="text13563" style="font-size:8.69713116px;font-style:normal;font-weight:700;text-align:start;text-anchor:start;fill:#000;font-family:Calibri" x="285.056" y="32.291" xml:space="preserve">2</text></g></g></svg>