<svg xmlns="http://www.w3.org/2000/svg" xmlns:svg="http://www.w3.org/2000/svg" xmlns:xlink="http://www.w3.org/1999/xlink" id="svg6026" width="305.438" height="252.331" version="1.1"><defs id="defs6028"><marker id="Arrow2Mend" orient="auto" refX="0" refY="0" style="overflow:visible"><path id="path4172" style="fill-rule:evenodd;stroke-width:.625;stroke-linejoin:round" d="M 8.7185878,4.0337352 L -2.2072895,0.016013256 L 8.7185884,-4.0017078 C 6.9730900,-1.6296469 6.9831476,1.6157441 8.7185878,4.0337352 z" transform="scale(0.6) rotate(180) translate(0,0)"/></marker><marker id="Arrow2Lend" orient="auto" refX="0" refY="0" style="overflow:visible"><path id="path4166" style="fill-rule:evenodd;stroke-width:.625;stroke-linejoin:round" d="M 8.7185878,4.0337352 L -2.2072895,0.016013256 L 8.7185884,-4.0017078 C 6.9730900,-1.6296469 6.9831476,1.6157441 8.7185878,4.0337352 z" transform="scale(1.1) rotate(180) translate(1,0)"/></marker><marker id="Arrow1Lstart" orient="auto" refX="0" refY="0" style="overflow:visible"><path id="path4145" d="M 0.0,0.0 L 5.0,-5.0 L -12.5,0.0 L 5.0,5.0 L 0.0,0.0 z" style="fill-rule:evenodd;stroke:#000;stroke-width:1pt" transform="scale(0.8) translate(12.5,0)"/></marker><marker id="TriangleInL" orient="auto" refX="0" refY="0" style="overflow:visible"><path id="path4278" d="M 5.77,0.0 L -2.88,5.0 L -2.88,-5.0 L 5.77,0.0 z" style="fill-rule:evenodd;stroke:#000;stroke-width:1pt" transform="scale(-0.8)"/></marker><marker id="Arrow2Lstart" orient="auto" refX="0" refY="0" style="overflow:visible"><path id="path4163" style="fill-rule:evenodd;stroke-width:.625;stroke-linejoin:round" d="M 8.7185878,4.0337352 L -2.2072895,0.016013256 L 8.7185884,-4.0017078 C 6.9730900,-1.6296469 6.9831476,1.6157441 8.7185878,4.0337352 z" transform="scale(1.1) translate(1,0)"/></marker><clipPath id="clipEmfPath1" clipPathUnits="userSpaceOnUse"><rect id="rect6039" width="56.62" height="20.26" x="227.837" y="156.229"/></clipPath><clipPath id="clipEmfPath2" clipPathUnits="userSpaceOnUse"><rect id="rect6042" width="14.193" height="15.458" x="190.091" y="69.935"/></clipPath><clipPath id="clipEmfPath3" clipPathUnits="userSpaceOnUse"><rect id="rect6045" width="70.51" height="20.41" x="54.204" y="222.413"/></clipPath><clipPath id="clipEmfPath4" clipPathUnits="userSpaceOnUse"><rect id="rect6048" width="52.694" height="15.608" x="249.428" y=".15"/></clipPath><clipPath id="clipEmfPath5" clipPathUnits="userSpaceOnUse"><rect id="rect6051" width="14.193" height="15.458" x="36.84" y="165.234"/></clipPath><clipPath id="clipEmfPath6" clipPathUnits="userSpaceOnUse"><rect id="rect6054" width="29.744" height="15.608" x="135.434" y="117.509"/></clipPath><linearGradient id="linearGradient8429" x1="110.769" x2="361.977" y1="67.881" y2="67.881" gradientUnits="userSpaceOnUse" spreadMethod="reflect" xlink:href="#linearGradient8423"/><linearGradient id="linearGradient8423"><stop style="stop-color:#e6e6e6;stop-opacity:1" id="stop8425" offset="0"/><stop style="stop-color:#e6e6e6;stop-opacity:0" id="stop8427" offset="1"/></linearGradient><linearGradient id="linearGradient10403" x1="110.769" x2="361.977" y1="67.881" y2="67.881" gradientTransform="translate(-110.24646,81.10175)" gradientUnits="userSpaceOnUse" spreadMethod="reflect" xlink:href="#linearGradient8423"/></defs><metadata id="metadata6031"/><g id="layer1" transform="translate(52.724304,-303.33949)"><g id="g6056" transform="translate(-51.81839,299.79117)"><path id="path6098" d="m 64.131139,109.94937 -62.8477613,99.80048 188.5432823,0 62.84776,-99.80048 z" style="fill:none;stroke:#000;stroke-width:.31140783px;stroke-linecap:round;stroke-linejoin:round;stroke-opacity:1;stroke-dasharray:none"/><path id="path5188-8" d="m 63.404544,99.0782 -62.72197958,99.80919 188.16589558,0 62.72197,-99.80919 z" style="fill:url(#linearGradient10403);fill-opacity:1;stroke:#000;stroke-width:.32020226px;stroke-linecap:round;stroke-linejoin:round;stroke-opacity:1;stroke-dasharray:none"/><path id="path6090" d="m 64.131139,87.682861 -62.8477613,99.800489 188.5432823,0 62.84776,-99.800489 z" style="fill:none;stroke:#000;stroke-width:.94366008px;stroke-linecap:round;stroke-linejoin:round;stroke-opacity:1;stroke-dasharray:none"/><text id="text6060" style="font-size:13.89067554px;font-style:normal;font-weight:700;text-align:start;text-anchor:start;fill:#000;font-family:Calibri" x="227.837" y="169.286" xml:space="preserve">Tol(Vijm)</text><path id="path6064" d="m 64.131139,98.693673 -62.8477613,99.800487 188.5432823,0 62.84776,-99.800487 z" style="fill:none;stroke:none"/><text id="text6092" style="font-size:13.89067554px;font-style:normal;font-weight:700;text-align:start;text-anchor:start;fill:#000;font-family:Calibri" x="190.091" y="82.992" xml:space="preserve">Fi</text><path id="path6096" d="m 64.508603,88.188359 -62.8477613,99.800481 188.5432783,0 62.84777,-99.800481 z" clip-path="url(#clipEmfPath2)" style="fill:none;stroke:#000;stroke-width:.31140783px;stroke-linecap:round;stroke-linejoin:round;stroke-opacity:1;stroke-dasharray:none"/><path id="path6100" d="m 32.235428,171.85568 0,68.28454" style="fill:none;stroke:#000;stroke-width:.31140783px;stroke-linecap:round;stroke-linejoin:round;stroke-opacity:1;stroke-dasharray:none"/><path id="path6102" d="m 33.245144,173.3752 -0.207605,8.00092 c -0.0094,0.34705 -0.301971,0.61907 -0.651125,0.60969 -0.349154,-0.009 -0.622816,-0.30016 -0.613379,-0.63783 l 0.217042,-8.0103 c 0.0094,-0.34705 0.292534,-0.61906 0.641688,-0.60968 0.349155,0.009 0.622816,0.30015 0.613379,0.6472 z m 2.963093,6.83783 -3.972809,7.40062 -3.567035,-7.59759 z" style="fill:#000;fill-opacity:1;fill-rule:nonzero;stroke:#000;stroke-width:.15098561px;stroke-linecap:butt;stroke-linejoin:bevel;stroke-opacity:1;stroke-dasharray:none"/><path id="path6104" d="m 31.990077,221.38073 0,-5.75916 c 0,-0.33767 0.283098,-0.61906 0.622815,-0.61906 0.349154,0 0.632252,0.28139 0.632252,0.61906 l 0,5.75916 c 0,0.34705 -0.283098,0.61907 -0.632252,0.61907 -0.339717,0 -0.622815,-0.27202 -0.622815,-0.61907 z m -3.151825,-4.50227 3.77464,-7.5038 3.77464,7.5038 z" style="fill:#000;fill-opacity:1;fill-rule:nonzero;stroke:#000;stroke-width:.15098561px;stroke-linecap:butt;stroke-linejoin:bevel;stroke-opacity:1;stroke-dasharray:none"/><path id="path6106" d="m 105.84091,240.75929 -73.982946,0" style="fill:none;stroke:#000;stroke-width:.31140783px;stroke-linecap:round;stroke-linejoin:round;stroke-opacity:1;stroke-dasharray:none"/><text id="text6108" style="font-size:13.89067554px;font-style:normal;font-weight:700;text-align:start;text-anchor:start;fill:#000;font-family:Calibri" x="54.204" y="235.469" xml:space="preserve">2·Tol(Fj)</text><text id="text6112" style="font-size:13.89067554px;font-style:normal;font-weight:700;text-align:start;text-anchor:start;fill:#000;font-family:Calibri" x="249.428" y="13.207" xml:space="preserve">2·Tol(Fi)</text><text id="text6116" style="font-size:13.89067554px;font-style:normal;font-weight:700;text-align:start;text-anchor:start;fill:#000;font-family:Calibri" x="36.84" y="178.29" xml:space="preserve">Fj</text><path id="path6120" d="m 124.75186,137.71341 c -6.89815,0 -12.49406,5.55281 -12.49406,12.4094 0,6.8566 5.59591,12.40941 12.49406,12.40941 6.89816,0 12.48462,-5.55281 12.48462,-12.40941 0,-6.85659 -5.58646,-12.4094 -12.48462,-12.4094" clip-path="url(#clipEmfPath5)" style="fill:none;stroke:#000;stroke-width:.31140783px;stroke-linecap:round;stroke-linejoin:round;stroke-opacity:1;stroke-dasharray:none"/><path id="path6122" d="m 124.90285,39.038497 c -54.515245,0 -98.706846,6.209391 -98.706846,13.882022 0,7.663252 44.191601,13.882023 98.706846,13.882023 54.52468,0 98.70684,-6.218771 98.70684,-13.882023 0,-7.672631 -44.18216,-13.882022 -98.70684,-13.882022" style="fill:none;stroke:#000;stroke-width:1.25506794px;stroke-linecap:round;stroke-linejoin:round;stroke-opacity:1;stroke-dasharray:none"/><path id="path6124" d="m 124.72355,150.09467 c -54.203833,0 -98.150082,-43.33442 -98.150082,-96.798961" style="fill:none;stroke:#000;stroke-width:1.25506794px;stroke-linecap:butt;stroke-linejoin:round;stroke-opacity:1;stroke-dasharray:none"/><path id="path6126" d="m 123.59116,141.8405 c -48.579621,0 -87.958556,-39.97647 -87.958556,-89.29517" style="fill:none;stroke:#000;stroke-width:.31140783px;stroke-linecap:round;stroke-linejoin:round;stroke-opacity:1;stroke-dasharray:none"/><path id="path6128" d="m 125.10102,159.09923 c -58.997632,0 -106.831761,-47.70538 -106.831761,-106.5539" style="fill:none;stroke:#000;stroke-width:.31140783px;stroke-linecap:round;stroke-linejoin:round;stroke-opacity:1;stroke-dasharray:none"/><path id="path6130" d="M 230.93249,53.436405 C 230.77207,112.07857 182.64541,159.4838 123.44017,159.32434" style="fill:none;stroke:#000;stroke-width:.31140783px;stroke-linecap:round;stroke-linejoin:round;stroke-opacity:1;stroke-dasharray:none"/><path id="path6132" d="M 223.39265,54.205544 C 222.3735,108.07342 177.95542,150.92947 124.18567,149.92584" style="fill:none;stroke:#000;stroke-width:1.25506794px;stroke-linecap:butt;stroke-linejoin:round;stroke-opacity:1;stroke-dasharray:none"/><path id="path6134" d="m 212.91802,52.789203 c 0.96254,48.277547 -38.46358,88.197737 -88.07179,89.173237" style="fill:none;stroke:#000;stroke-width:.31140783px;stroke-linecap:round;stroke-linejoin:round;stroke-opacity:1;stroke-dasharray:none"/><path id="path6136" d="m 124.71412,36.036979 c -58.582422,0 -106.067397,7.560074 -106.067397,16.88354 0,9.323467 47.484975,16.883541 106.067397,16.883541 58.58241,0 106.06739,-7.560074 106.06739,-16.883541 0,-9.323466 -47.48498,-16.88354 -106.06739,-16.88354" style="fill:none;stroke:#000;stroke-width:.31140783px;stroke-linecap:round;stroke-linejoin:round;stroke-opacity:1;stroke-dasharray:none"/><path id="path6138" d="m 124.33665,44.291154 c -48.985393,0 -88.704046,3.780037 -88.704046,8.441771 0,4.661733 39.718653,8.44177 88.704046,8.44177 48.99483,0 88.70405,-3.780037 88.70405,-8.44177 0,-4.661734 -39.70922,-8.441771 -88.70405,-8.441771" style="fill:none;stroke:#000;stroke-width:.31140783px;stroke-linecap:round;stroke-linejoin:round;stroke-opacity:1;stroke-dasharray:none"/><path id="path6140" d="m 213.0407,52.54533 0,-46.8987237" style="fill:none;stroke:#000;stroke-width:.31140783px;stroke-linecap:round;stroke-linejoin:round;stroke-opacity:1;stroke-dasharray:none"/><path id="path6142" d="m 230.78151,55.171658 0,-46.8987232" style="fill:none;stroke:#000;stroke-width:.31140783px;stroke-linecap:round;stroke-linejoin:round;stroke-opacity:1;stroke-dasharray:none"/><path id="path6144" d="m 201.71678,17.27749 102.67021,0" style="fill:none;stroke:#000;stroke-width:.31140783px;stroke-linecap:round;stroke-linejoin:round;stroke-opacity:1;stroke-dasharray:none"/><path id="path6146" d="m 191.14778,16.649047 15.23068,0 c 0.34915,0 0.62281,0.281392 0.62281,0.628443 0,0.34705 -0.27366,0.619063 -0.62281,0.619063 l -15.23068,0 c -0.33971,0 -0.62281,-0.272013 -0.62281,-0.619063 0,-0.347051 0.2831,-0.628443 0.62281,-0.628443 z m 13.96617,-3.123455 7.54928,3.751898 -7.54928,3.751898 z" style="fill:#000;fill-opacity:1;fill-rule:nonzero;stroke:#000;stroke-width:.15098561px;stroke-linecap:butt;stroke-linejoin:bevel;stroke-opacity:1;stroke-dasharray:none"/><path id="path6148" d="m 244.74768,17.896553 -7.67196,0 c -0.34915,0 -0.63225,-0.272013 -0.63225,-0.619063 0,-0.347051 0.2831,-0.628443 0.63225,-0.628443 l 7.67196,0 c 0.34915,0 0.63225,0.281392 0.63225,0.628443 0,0.34705 -0.2831,0.619063 -0.63225,0.619063 z m -6.41689,3.132835 -7.54928,-3.751898 7.54928,-3.751898 z" style="fill:#000;fill-opacity:1;fill-rule:nonzero;stroke:#000;stroke-width:.15098561px;stroke-linecap:butt;stroke-linejoin:bevel;stroke-opacity:1;stroke-dasharray:none"/><path id="path6150" d="m 124.87454,146.34278 c -1.96282,0 -3.5576,1.57579 -3.5576,3.52678 0,1.96037 1.59478,3.53616 3.5576,3.53616 1.96281,0 3.5576,-1.57579 3.5576,-3.53616 0,-1.95099 -1.59479,-3.52678 -3.5576,-3.52678" style="fill:#fff;fill-opacity:1;fill-rule:evenodd;stroke:none"/><path id="path6152" d="m 124.87454,146.34278 c -1.96282,0 -3.5576,1.57579 -3.5576,3.52678 0,1.96037 1.59478,3.53616 3.5576,3.53616 1.96281,0 3.5576,-1.57579 3.5576,-3.53616 0,-1.95099 -1.59479,-3.52678 -3.5576,-3.52678" style="fill:none;stroke:#000;stroke-width:2.07605219px;stroke-linecap:round;stroke-linejoin:round;stroke-opacity:1;stroke-dasharray:none"/><text id="text6154" style="font-size:13.89067554px;font-style:normal;font-weight:700;text-align:start;text-anchor:start;fill:#000;font-family:Calibri" x="135.434" y="130.566" xml:space="preserve">Vijm</text><path id="path6158" d="m 138.89733,178.16825 -6.33196,-11.07748 c -0.16986,-0.30015 -0.0661,-0.67534 0.23591,-0.85356 0.30197,-0.16883 0.68887,-0.0657 0.85873,0.24388 l 6.32253,11.0681 c 0.17929,0.30015 0.066,0.68472 -0.23592,0.85355 -0.30197,0.16884 -0.67943,0.0657 -0.84929,-0.23449 z m -8.44576,-8.44177 -0.45296,-8.37611 7.0114,4.67111 z" clip-path="url(#clipEmfPath6)" style="fill:#000;fill-opacity:1;fill-rule:nonzero;stroke:#000;stroke-width:.15098561px;stroke-linecap:butt;stroke-linejoin:bevel;stroke-opacity:1;stroke-dasharray:none"/><path style="fill:none;stroke:#000;stroke-width:1px;stroke-linecap:butt;stroke-linejoin:miter;stroke-opacity:1" id="path5798" d="m 586.27219,95.226433 a 19.647192,18.861303 0 1 1 -39.29438,0 19.647192,18.861303 0 1 1 39.29438,0 z" transform="matrix(0.66789194,0,0,0.66789194,-253.05765,86.320541)"/><path style="fill:none;stroke:#000;stroke-width:.5;stroke-linecap:butt;stroke-linejoin:miter;stroke-miterlimit:4;stroke-opacity:1;stroke-dasharray:none;marker-end:none" id="path12357" d="m 287.63172,175.13347 -143.98334,0 -17.47117,-22.02163"/><path style="fill:none;stroke:#000;stroke-width:1px;stroke-linecap:butt;stroke-linejoin:miter;stroke-opacity:1;marker-end:url(#Arrow2Mend)" id="path13497" d="M 144.05812,171.12636 132.58853,156.44528" transform="translate(-0.905914,3.54832)"/></g></g></svg>