<svg xmlns="http://www.w3.org/2000/svg" xmlns:svg="http://www.w3.org/2000/svg" id="svg3429" width="440.741" height="141.615" version="1.1"><defs id="defs3431"><clipPath id="clipEmfPath1" clipPathUnits="userSpaceOnUse"><rect id="rect3442" width="48.766" height="15.393" x="153.65" y="43.312"/></clipPath><clipPath id="clipEmfPath2" clipPathUnits="userSpaceOnUse"><rect id="rect3445" width="46.515" height="15.393" x="-.15" y="39.54"/></clipPath><clipPath id="clipEmfPath3" clipPathUnits="userSpaceOnUse"><rect id="rect3448" width="13.654" height="15.393" x="50.566" y="65.949"/></clipPath><clipPath id="clipEmfPath4" clipPathUnits="userSpaceOnUse"><rect id="rect3451" width="13.804" height="15.393" x="124.24" y="67.006"/></clipPath><clipPath id="clipEmfPath5" clipPathUnits="userSpaceOnUse"><rect id="rect3454" width="12.604" height="15.393" x="97.682" y="20.222"/></clipPath><clipPath id="clipEmfPath6" clipPathUnits="userSpaceOnUse"><rect id="rect3457" width="6.752" height="10.866" x="105.334" y="25.504"/></clipPath><clipPath id="clipEmfPath7" clipPathUnits="userSpaceOnUse"><rect id="rect3460" width="16.955" height="18.261" x="99.182" y="70.175"/></clipPath><clipPath id="clipEmfPath8" clipPathUnits="userSpaceOnUse"><rect id="rect3463" width="8.853" height="13.582" x="109.835" y="76.061"/></clipPath><clipPath id="clipEmfPath9" clipPathUnits="userSpaceOnUse"><rect id="rect3466" width="13.804" height="15.393" x="134.293" y="108.055"/></clipPath><clipPath id="clipEmfPath10" clipPathUnits="userSpaceOnUse"><rect id="rect3469" width="45.915" height="15.393" x="400.179" y="0"/></clipPath><clipPath id="clipEmfPath11" clipPathUnits="userSpaceOnUse"><rect id="rect3472" width="27.459" height="18.412" x="372.27" y="71.382"/></clipPath><clipPath id="clipEmfPath12" clipPathUnits="userSpaceOnUse"><rect id="rect3475" width="18.606" height="18.412" x="378.122" y="52.518"/></clipPath></defs><metadata id="metadata3434"/><g id="layer1" transform="translate(211.79919,-330.12631)"><g id="g3477" transform="translate(-211.75025,326.56149)"><path id="path3481" d="m 71.601243,38.615157 c -15.229917,0 -27.571402,11.705278 -27.571402,26.155307 0,14.45003 12.341485,26.155308 27.571402,26.155308 15.229917,0 27.571402,-11.705278 27.571402,-26.155308 0,-14.450029 -12.341485,-26.155307 -27.571402,-26.155307" style="fill:none;stroke:#000;stroke-width:.87215662px;stroke-linecap:round;stroke-linejoin:round;stroke-opacity:1;stroke-dasharray:none"/><path id="path3483" d="m 118.51952,36.474062 c -18.89673,0 -34.229805,14.129337 -34.229805,31.569353 0,17.430583 15.333075,31.55992 34.229805,31.55992 18.9061,0 34.2298,-14.129337 34.2298,-31.55992 0,-17.440016 -15.3237,-31.569353 -34.2298,-31.569353" style="fill:none;stroke:#000;stroke-width:.87215662px;stroke-linecap:round;stroke-linejoin:round;stroke-opacity:1;stroke-dasharray:none"/><path id="path3485" d="m 117.99435,61.629564 c -1.69743,0 -3.06662,1.556302 -3.06662,3.489889 0,1.924156 1.36919,3.48989 3.06662,3.48989 1.68804,0 3.05723,-1.565734 3.05723,-3.48989 0,-1.933587 -1.36919,-3.489889 -3.05723,-3.489889" style="fill:#fff;fill-opacity:1;fill-rule:evenodd;stroke:none"/><path id="path3487" d="m 117.99435,61.629564 c -1.69743,0 -3.06662,1.556302 -3.06662,3.489889 0,1.924156 1.36919,3.48989 3.06662,3.48989 1.68804,0 3.05723,-1.565734 3.05723,-3.48989 0,-1.933587 -1.36919,-3.489889 -3.05723,-3.489889" style="fill:none;stroke:#000;stroke-width:1.80995941px;stroke-linecap:round;stroke-linejoin:round;stroke-opacity:1;stroke-dasharray:none"/><path id="path3489" d="m 70.447746,61.629564 c -1.678667,0 -3.038481,1.556302 -3.038481,3.489889 0,1.924156 1.359814,3.48989 3.038481,3.48989 1.669289,0 3.029103,-1.565734 3.029103,-3.48989 0,-1.933587 -1.359814,-3.489889 -3.029103,-3.489889" style="fill:#fff;fill-opacity:1;fill-rule:evenodd;stroke:none"/><path id="path3491" d="m 70.447746,61.629564 c -1.678667,0 -3.038481,1.556302 -3.038481,3.489889 0,1.924156 1.359814,3.48989 3.038481,3.48989 1.669289,0 3.029103,-1.565734 3.029103,-3.48989 0,-1.933587 -1.359814,-3.489889 -3.029103,-3.489889" style="fill:none;stroke:#000;stroke-width:1.80995941px;stroke-linecap:round;stroke-linejoin:round;stroke-opacity:1;stroke-dasharray:none"/><path id="path3493" d="M 121.61427,63.572583 140.18276,58.16797" style="fill:none;stroke:#000;stroke-width:.87215662px;stroke-linecap:round;stroke-linejoin:round;stroke-opacity:1;stroke-dasharray:none"/><path id="path3495" d="m 141.46755,62.318109 7.66185,-6.885457 -10.63468,-1.348796 2.97283,8.234253 z" style="fill:#000;fill-opacity:1;fill-rule:evenodd;stroke:none"/><path id="path3497" d="M 65.974426,62.884038 54.533232,56.404161" style="fill:none;stroke:#000;stroke-width:.87215662px;stroke-linecap:round;stroke-linejoin:round;stroke-opacity:1;stroke-dasharray:none"/><path id="path3499" d="m 57.468555,52.857679 -10.812866,-0.792299 5.626817,8.243685 5.186049,-7.451386 z" style="fill:#000;fill-opacity:1;fill-rule:evenodd;stroke:none"/><path id="path3501" d="m 70.410233,68.986628 0.06565,62.940632" style="fill:none;stroke:#000;stroke-width:.30947492px;stroke-linecap:round;stroke-linejoin:round;stroke-opacity:1;stroke-dasharray:none"/><path id="path3503" d="m 117.9287,68.28865 0.0656,62.25208" style="fill:none;stroke:#000;stroke-width:.30947492px;stroke-linecap:round;stroke-linejoin:round;stroke-opacity:1;stroke-dasharray:none"/><path id="path3505" d="m 79.788261,123.12708 28.012169,0.18864" style="fill:none;stroke:#000;stroke-width:.30947492px;stroke-linecap:round;stroke-linejoin:round;stroke-opacity:1;stroke-dasharray:none"/><path id="path3507" d="m 80.107114,118.65625 -9.696881,4.4614 9.696881,4.34821 0,-8.80961 z" style="fill:#000;fill-opacity:1;fill-rule:evenodd;stroke:none"/><path id="path3509" d="m 107.49096,127.77712 9.6875,-4.4614 -9.6875,-4.33878 0,8.80018 z" style="fill:#000;fill-opacity:1;fill-rule:evenodd;stroke:none"/><path id="path3511" d="m 96.143542,62.318109 c -1.922496,0 -3.46987,1.433685 -3.46987,3.206926 0,1.773241 1.547374,3.206926 3.46987,3.206926 1.913118,0 3.46987,-1.433685 3.46987,-3.206926 0,-1.773241 -1.556752,-3.206926 -3.46987,-3.206926" style="fill:#000;fill-opacity:1;fill-rule:evenodd;stroke:none"/><path id="path3513" d="m 96.143542,62.318109 c -1.922496,0 -3.46987,1.433685 -3.46987,3.206926 0,1.773241 1.547374,3.206926 3.46987,3.206926 1.913118,0 3.46987,-1.433685 3.46987,-3.206926 0,-1.773241 -1.556752,-3.206926 -3.46987,-3.206926" style="fill:none;stroke:#000;stroke-width:1.80995941px;stroke-linecap:round;stroke-linejoin:round;stroke-opacity:1;stroke-dasharray:none"/><path id="path3515" d="m 98.703744,14.280251 c -29.990934,0 -54.298782,23.212482 -54.298782,51.839008 0,28.635959 24.307848,51.848441 54.298782,51.848441 29.990936,0 54.298786,-23.212482 54.298786,-51.848441 0,-28.626526 -24.30785,-51.839008 -54.298786,-51.839008" style="fill:none;stroke:#000;stroke-width:.87215662px;stroke-linecap:round;stroke-linejoin:round;stroke-opacity:1;stroke-dasharray:none"/><path id="path3517" d="m 117.9287,123.12708 43.07328,0.18864" style="fill:none;stroke:#000;stroke-width:.30947492px;stroke-linecap:round;stroke-linejoin:round;stroke-opacity:1;stroke-dasharray:none"/><path id="path3519" d="m 75.727575,64.515797 -0.121914,0 -0.187561,0.113185 -0.131292,0.160347 -0.187561,0.103753 0.187561,0.113186 0.131292,0.160346 0.187561,0.103753 0.121914,-0.103753 0.121915,-0.160346 0.18756,-0.113186 -0.18756,-0.103753 -0.121915,-0.160347 0,-0.113185 z" style="fill:#000;fill-opacity:1;fill-rule:evenodd;stroke:none"/><path id="path3521" d="m 77.349974,64.515797 -0.121914,0 -0.121915,0.113185 -0.18756,0.160347 0,0.103753 0,0.113186 0,0.160346 0.18756,0.103753 0.121915,0 0.121914,0 0.187561,-0.103753 0.131292,-0.160346 0.187561,-0.113186 -0.187561,-0.103753 -0.131292,-0.160347 0,-0.113185 -0.187561,0 z" style="fill:#000;fill-opacity:1;fill-rule:evenodd;stroke:none"/><path id="path3523" d="m 79.103665,64.515797 -0.121914,0 -0.187561,0.113185 -0.131292,0.160347 0,0.103753 0,0.113186 0,0.160346 0.131292,0.103753 0.187561,0 0.121914,0 0.187561,0 0.121914,0 0.131293,-0.103753 0,-0.160346 0,-0.113186 0,-0.103753 -0.131293,-0.160347 -0.121914,-0.113185 -0.187561,0 z" style="fill:#000;fill-opacity:1;fill-rule:evenodd;stroke:none"/><path id="path3525" d="m 80.913625,64.515797 -0.121915,0 -0.18756,0.113185 -0.121915,0.160347 0,0.103753 0,0.113186 0,0.160346 0.121915,0.103753 0.18756,0 0.121915,0 0.131292,0 0.187561,0 0.121914,-0.103753 0,-0.160346 0,-0.113186 0,-0.103753 -0.121914,-0.160347 -0.187561,-0.113185 -0.131292,0 z" style="fill:#000;fill-opacity:1;fill-rule:evenodd;stroke:none"/><path id="path3527" d="m 82.732962,64.515797 -0.18756,0 -0.131293,0.113185 -0.121914,0.160347 0,0.103753 0,0.113186 0,0.160346 0.121914,0.103753 0.131293,0 0.18756,0 0.121914,0 0.187561,0 0.121914,-0.103753 0,-0.160346 0,-0.113186 0,-0.103753 -0.121914,-0.160347 -0.187561,-0.113185 -0.121914,0 z" style="fill:#000;fill-opacity:1;fill-rule:evenodd;stroke:none"/><path id="path3529" d="m 84.542922,64.515797 -0.187561,0 -0.121914,0.113185 -0.187561,0.160347 0,0.103753 0,0.113186 0,0.160346 0.187561,0.103753 0.121914,0 0.187561,0 0.121914,0 0.131292,0 0.187561,-0.103753 0,-0.160346 0,-0.113186 0,-0.103753 -0.187561,-0.160347 -0.131292,-0.113185 -0.121914,0 z" style="fill:#000;fill-opacity:1;fill-rule:evenodd;stroke:none"/><path id="path3531" d="m 86.230967,64.515797 -0.121915,0 -0.131292,0.113185 -0.187561,0.160347 0,0.103753 0,0.113186 0,0.160346 0.187561,0.103753 0.131292,0 0.121915,0 0.18756,0 0.121914,0 0.187561,-0.103753 0,-0.160346 0,-0.113186 0,-0.103753 -0.187561,-0.160347 -0.121914,-0.113185 -0.18756,0 z" style="fill:#000;fill-opacity:1;fill-rule:evenodd;stroke:none"/><path id="path3533" d="m 88.040926,64.515797 -0.121914,0 -0.187561,0.113185 -0.121914,0.160347 0,0.103753 0,0.113186 0,0.160346 0.121914,0.103753 0.187561,0 0.121914,0 0.18756,0 0.131293,0 0.121914,-0.103753 0,-0.160346 0,-0.113186 0,-0.103753 -0.121914,-0.160347 -0.131293,-0.113185 -0.18756,0 z" style="fill:#000;fill-opacity:1;fill-rule:evenodd;stroke:none"/><path id="path3535" d="m 89.860263,64.515797 -0.131292,0 -0.187561,0.113185 -0.121914,0.160347 0,0.103753 0,0.113186 0,0.160346 0.121914,0.103753 0.187561,0 0.131292,0 0.121915,0 0.18756,0 0.121915,-0.103753 0,-0.160346 0,-0.113186 0,-0.103753 -0.121915,-0.160347 -0.18756,-0.113185 -0.121915,0 z" style="fill:#000;fill-opacity:1;fill-rule:evenodd;stroke:none"/><path id="path3537" d="m 91.642089,64.515797 -0.178183,0 -0.121914,0.113185 -0.168805,0.160347 0,0.103753 0,0.113186 0,0.160346 0.168805,0.103753 0.121914,0 0.178183,0 0.112536,0 0.112536,0 0.178183,-0.103753 0,-0.160346 0,-0.113186 0,-0.103753 -0.178183,-0.160347 -0.112536,-0.113185 -0.112536,0 z" style="fill:#000;fill-opacity:1;fill-rule:evenodd;stroke:none"/><path id="path3539" d="m 93.358268,64.515797 -0.121915,0 -0.131292,0.113185 -0.187561,0.160347 0,0.103753 0,0.113186 0,0.160346 0.187561,0.103753 0.131292,0 0.121915,0 0.18756,0 0.121915,0 0.18756,-0.103753 0,-0.160346 0,-0.113186 0,-0.103753 -0.18756,-0.160347 -0.121915,-0.113185 -0.18756,0 z" style="fill:#000;fill-opacity:1;fill-rule:evenodd;stroke:none"/><path id="path3541" d="m 95.168227,64.515797 -0.121914,0 -0.187561,0.113185 -0.121914,0.160347 0,0.103753 0,0.113186 0,0.160346 0.121914,0.103753 0.187561,0 0.121914,0 0.187561,0 0.131292,0 0.121914,-0.103753 0,-0.160346 0,-0.113186 0,-0.103753 -0.121914,-0.160347 -0.131292,-0.113185 -0.187561,0 z" style="fill:#000;fill-opacity:1;fill-rule:evenodd;stroke:none"/><path id="path3543" d="m 96.987565,64.647847 -0.131293,0 -0.18756,0 -0.121915,0.160346 0,0.113185 0,0.103754 0,0.169778 0.121915,0.103754 0.18756,0.160346 0.131293,0 0.121914,0 0.18756,-0.160346 0.121915,-0.103754 0,-0.169778 0,-0.103754 0,-0.113185 -0.121915,-0.160346 -0.18756,0 -0.121914,0 z" style="fill:#000;fill-opacity:1;fill-rule:evenodd;stroke:none"/><path id="path3545" d="m 98.76939,64.647847 -0.178183,0 -0.112536,0 -0.121914,0.160346 0,0.113185 0,0.103754 0,0.169778 0.121914,0.103754 0.112536,0.160346 0.178183,0 0.112536,0 0.178183,-0.160346 0.112536,-0.103754 0,-0.169778 0,-0.103754 0,-0.113185 -0.112536,-0.160346 -0.178183,0 -0.112536,0 z" style="fill:#000;fill-opacity:1;fill-rule:evenodd;stroke:none"/><path id="path3547" d="m 100.55122,64.647847 -0.18757,0 -0.13129,0 -0.18756,0.160346 0,0.113185 0,0.103754 0,0.169778 0.18756,0.103754 0.13129,0.160346 0.18757,0 0.12191,0 0.12191,-0.160346 0.18756,-0.103754 0,-0.169778 0,-0.103754 0,-0.113185 -0.18756,-0.160346 -0.12191,0 -0.12191,0 z" style="fill:#000;fill-opacity:1;fill-rule:evenodd;stroke:none"/><path id="path3549" d="m 102.29553,64.647847 -0.12192,0 -0.12191,0 -0.18756,0.160346 0,0.113185 0,0.103754 0,0.169778 0.18756,0.103754 0.12191,0.160346 0.12192,0 0.18756,0 0.13129,-0.160346 0.18756,-0.103754 0,-0.169778 0,-0.103754 0,-0.113185 -0.18756,-0.160346 -0.13129,0 -0.18756,0 z" style="fill:#000;fill-opacity:1;fill-rule:evenodd;stroke:none"/><path id="path3551" d="m 104.11487,64.647847 -0.1313,0 -0.18756,0 -0.12191,0.160346 0,0.113185 0,0.103754 0,0.169778 0.12191,0.103754 0.18756,0.160346 0.1313,0 0.18756,0 0.12191,-0.160346 0.12192,-0.103754 0,-0.169778 0,-0.103754 0,-0.113185 -0.12192,-0.160346 -0.12191,0 -0.18756,0 z" style="fill:#000;fill-opacity:1;fill-rule:evenodd;stroke:none"/><path id="path3553" d="m 105.85918,64.647847 -0.12192,0 -0.18756,0 -0.12191,0.160346 0,0.113185 0,0.103754 0,0.169778 0.12191,0.103754 0.18756,0.160346 0.12192,0 0.13129,0 0.18756,-0.160346 0.12192,-0.103754 0,-0.169778 0,-0.103754 0,-0.113185 -0.12192,-0.160346 -0.18756,0 -0.13129,0 z" style="fill:#000;fill-opacity:1;fill-rule:evenodd;stroke:none"/><path id="path3555" d="m 107.67852,64.647847 -0.18756,0 -0.1313,0 -0.12191,0.160346 0,0.113185 0,0.103754 0,0.169778 0.12191,0.103754 0.1313,0.160346 0.18756,0 0.12191,0 0.18756,-0.160346 0.12192,-0.103754 0,-0.169778 0,-0.103754 0,-0.113185 -0.12192,-0.160346 -0.18756,0 -0.12191,0 z" style="fill:#000;fill-opacity:1;fill-rule:evenodd;stroke:none"/><path id="path3557" d="m 109.48848,64.647847 -0.18756,0 -0.12192,0 -0.18756,0.160346 0,0.113185 0,0.103754 0,0.169778 0.18756,0.103754 0.12192,0.160346 0.18756,0 0.12191,0 0.13129,-0.160346 0.18756,-0.103754 0,-0.169778 0,-0.103754 0,-0.113185 -0.18756,-0.160346 -0.13129,0 -0.12191,0 z" style="fill:#000;fill-opacity:1;fill-rule:evenodd;stroke:none"/><path id="path3559" d="m 111.24217,64.647847 -0.1313,0 -0.12191,0 -0.18756,0.160346 0,0.113185 0,0.103754 0,0.169778 0.18756,0.103754 0.12191,0.160346 0.1313,0 0.18756,0 0.12191,-0.160346 0.18756,-0.103754 0,-0.169778 0,-0.103754 0,-0.113185 -0.18756,-0.160346 -0.12191,0 -0.18756,0 z" style="fill:#000;fill-opacity:1;fill-rule:evenodd;stroke:none"/><path id="path3561" d="m 112.98648,64.647847 -0.12191,0 -0.18756,0 -0.12192,0.160346 0,0.113185 0,0.103754 0,0.169778 0.12192,0.103754 0.18756,0.160346 0.12191,0 0.18756,0 0.13129,-0.160346 0.12192,-0.103754 0,-0.169778 0,-0.103754 0,-0.113185 -0.12192,-0.160346 -0.13129,0 -0.18756,0 z" style="fill:#000;fill-opacity:1;fill-rule:evenodd;stroke:none"/><path id="path3563" d="m 114.80582,64.647847 -0.13129,0 -0.18757,0 -0.12191,0.160346 0,0.113185 0,0.103754 0,0.169778 0.12191,0.103754 0.18757,0.160346 0.13129,0 0.12191,0 0.18756,-0.160346 0.12192,-0.103754 0,-0.169778 0,-0.103754 0,-0.113185 -0.12192,-0.160346 -0.18756,0 -0.12191,0 z" style="fill:#000;fill-opacity:1;fill-rule:evenodd;stroke:none"/><path id="path3565" d="M 97.109479,62.195492 116.61578,25.787454" style="fill:none;stroke:#000;stroke-width:.87215662px;stroke-linecap:round;stroke-linejoin:round;stroke-opacity:1;stroke-dasharray:none"/><path id="path3567" d="m 120.86402,28.107759 0,-9.866012 -8.62778,5.92338 8.62778,3.942632 z" style="fill:#000;fill-opacity:1;fill-rule:evenodd;stroke:none"/><text id="text3569" style="font-size:13.80445671px;font-style:normal;font-weight:400;text-align:start;text-anchor:start;fill:#000;font-family:Calibri" x="153.65" y="56.442" xml:space="preserve">Tol(Vi)</text><text id="text3573" style="font-size:13.80445671px;font-style:normal;font-weight:400;text-align:start;text-anchor:start;fill:#000;font-family:Calibri" x="-.15" y="52.669" xml:space="preserve">Tol</text><text id="text3575" style="font-size:13.80445671px;font-style:normal;font-weight:400;text-align:start;text-anchor:start;fill:#000;font-family:Calibri" x="17.106" y="52.669" xml:space="preserve">(</text><text id="text3577" style="font-size:13.80445671px;font-style:normal;font-weight:400;text-align:start;text-anchor:start;fill:#000;font-family:Calibri" x="21.307" y="52.669" xml:space="preserve">Vj)</text><text id="text3581" style="font-size:13.80445671px;font-style:normal;font-weight:700;text-align:start;text-anchor:start;fill:#000;font-family:Calibri" x="50.566" y="79.079" xml:space="preserve">Vj</text><text id="text3585" style="font-size:13.80445671px;font-style:normal;font-weight:700;text-align:start;text-anchor:start;fill:#000;font-family:Calibri" x="124.24" y="80.135" xml:space="preserve">Vi</text><text id="text3589" style="font-size:13.80445671px;font-style:normal;font-weight:400;text-align:start;text-anchor:start;fill:#000;font-family:Calibri" x="97.682" y="33.352" xml:space="preserve">T</text><text id="text3593" style="font-size:8.70281029px;font-style:normal;font-weight:400;text-align:start;text-anchor:start;fill:#000;font-family:Calibri" x="105.334" y="33.805" xml:space="preserve">s</text><text id="text3601" style="font-size:13.80445671px;font-style:normal;font-weight:400;text-align:start;text-anchor:start;fill:#000;font-family:Calibri" x="134.293" y="121.184" xml:space="preserve">D</text><path id="path3605" d="m 257.72696,55.781641 0,6.319529 -34.32358,0 0,12.63906 34.32358,0 0,6.31953 11.4412,-12.63906 z" clip-path="url(#clipEmfPath9)" style="fill:#fff;fill-opacity:1;fill-rule:evenodd;stroke:none"/><path id="path3607" d="m 257.72696,55.781641 0,6.319529 -34.32358,0 0,12.63906 34.32358,0 0,6.31953 11.4412,-12.63906 z" style="fill:none;stroke:#000;stroke-width:.93780279px;stroke-linecap:round;stroke-linejoin:round;stroke-opacity:1;stroke-dasharray:none"/><path id="path3609" d="m 369.28798,63.51599 c -1.91312,0 -3.46987,1.433685 -3.46987,3.206926 0,1.773241 1.55675,3.206926 3.46987,3.206926 1.93188,0 3.46987,-1.433685 3.46987,-3.206926 0,-1.773241 -1.53799,-3.206926 -3.46987,-3.206926" style="fill:#000;fill-opacity:1;fill-rule:evenodd;stroke:none"/><path id="path3611" d="m 369.28798,63.51599 c -1.91312,0 -3.46987,1.433685 -3.46987,3.206926 0,1.773241 1.55675,3.206926 3.46987,3.206926 1.93188,0 3.46987,-1.433685 3.46987,-3.206926 0,-1.773241 -1.53799,-3.206926 -3.46987,-3.206926" style="fill:none;stroke:#000;stroke-width:1.81933737px;stroke-linecap:round;stroke-linejoin:round;stroke-opacity:1;stroke-dasharray:none"/><path id="path3613" d="m 371.85756,15.4687 c -29.99093,0 -54.29878,23.221914 -54.29878,51.857873 0,28.635959 24.30785,51.839007 54.29878,51.839007 29.99094,0 54.29878,-23.203048 54.29878,-51.839007 0,-28.635959 -24.30784,-51.857873 -54.29878,-51.857873" style="fill:none;stroke:#000;stroke-width:.88153464px;stroke-linecap:round;stroke-linejoin:round;stroke-opacity:1;stroke-dasharray:none"/><path id="path3615" d="M 370.2633,63.383941 389.7696,26.975903" style="fill:none;stroke:#000;stroke-width:.88153464px;stroke-linecap:round;stroke-linejoin:round;stroke-opacity:1;stroke-dasharray:none"/><path id="path3617" d="m 394.02722,29.315073 0,-9.884877 -8.62779,5.92338 8.62779,3.961497 z" style="fill:#000;fill-opacity:1;fill-rule:evenodd;stroke:none"/><text id="text3619" style="font-size:13.80445671px;font-style:normal;font-weight:400;text-align:start;text-anchor:start;fill:#000;font-family:Calibri" x="400.179" y="13.13" xml:space="preserve">Tol(Vn)</text><text id="text3623" style="font-size:15.00484467px;font-style:normal;font-weight:700;text-align:start;text-anchor:start;fill:#000;font-family:Calibri" x="372.27" y="85.719" xml:space="preserve">Vn</text><text id="text3627" style="font-size:15.00484467px;font-style:normal;font-weight:700;text-align:start;text-anchor:start;fill:#000;font-family:Calibri" x="378.122" y="66.855" xml:space="preserve">Pn</text></g></g></svg>