<svg xmlns="http://www.w3.org/2000/svg" xmlns:svg="http://www.w3.org/2000/svg" id="svg6016" width="469.813" height="190.374" version="1.1"><defs id="defs6018"><clipPath id="clipEmfPath1" clipPathUnits="userSpaceOnUse"><rect id="rect6029" width="20.234" height="17.797" x="67.447" y="82.403"/></clipPath><clipPath id="clipEmfPath2" clipPathUnits="userSpaceOnUse"><rect id="rect6032" width="20.084" height="17.946" x="193.798" y="131.754"/></clipPath><clipPath id="clipEmfPath3" clipPathUnits="userSpaceOnUse"><rect id="rect6035" width="20.084" height="17.946" x="445.9" y="179.162"/></clipPath><clipPath id="clipEmfPath4" clipPathUnits="userSpaceOnUse"><rect id="rect6038" width="20.084" height="17.946" x="445.9" y="99.9"/></clipPath><clipPath id="clipEmfPath5" clipPathUnits="userSpaceOnUse"><rect id="rect6041" width="20.234" height="17.946" x="401.235" y="9.422"/></clipPath><clipPath id="clipEmfPath6" clipPathUnits="userSpaceOnUse"><rect id="rect6044" width="20.084" height="17.946" x="403.933" y="126.52"/></clipPath><clipPath id="clipEmfPath7" clipPathUnits="userSpaceOnUse"><rect id="rect6047" width="20.234" height="17.946" x="318.8" y="9.422"/></clipPath><clipPath id="clipEmfPath8" clipPathUnits="userSpaceOnUse"><rect id="rect6050" width="20.084" height="17.946" x="480.373" y="10.469"/></clipPath></defs><metadata id="metadata6021"/><g id="layer1" transform="translate(-193.659,-574.31924)"><g id="g6052" transform="translate(145.56525,560.5991)"><path id="path6054" d="m 106.26666,48.604066 0,14.955098 111.36267,0 0,-14.955098 -111.36267,0 z" style="fill:#fff;fill-opacity:1;fill-rule:evenodd;stroke:none"/><path id="path6056" d="m 106.26666,63.559164 0,9.571262 111.36267,0 0,-9.571262 -111.36267,0 z" style="fill:#fdfdfd;fill-opacity:1;fill-rule:evenodd;stroke:none"/><path id="path6058" d="m 106.26666,73.130426 0,6.729794 111.36267,0 0,-6.729794 -111.36267,0 z" style="fill:#fbfbfb;fill-opacity:1;fill-rule:evenodd;stroke:none"/><path id="path6060" d="m 106.26666,79.86022 0,5.832488 111.36267,0 0,-5.832488 -111.36267,0 z" style="fill:#f9f9f9;fill-opacity:1;fill-rule:evenodd;stroke:none"/><path id="path6062" d="m 106.26666,85.692708 0,4.63608 111.36267,0 0,-4.63608 -111.36267,0 z" style="fill:#f7f7f7;fill-opacity:1;fill-rule:evenodd;stroke:none"/><path id="path6064" d="m 106.26666,90.328788 0,4.63608 111.36267,0 0,-4.63608 -111.36267,0 z" style="fill:#f5f5f5;fill-opacity:1;fill-rule:evenodd;stroke:none"/><path id="path6066" d="m 106.26666,94.964868 0,4.63608 111.36267,0 0,-4.63608 -111.36267,0 z" style="fill:#f3f3f3;fill-opacity:1;fill-rule:evenodd;stroke:none"/><path id="path6068" d="m 106.26666,99.600948 0,3.738772 111.36267,0 0,-3.738772 -111.36267,0 z" style="fill:#f1f1f1;fill-opacity:1;fill-rule:evenodd;stroke:none"/><path id="path6070" d="m 106.26666,103.33972 0,4.63608 111.36267,0 0,-4.63608 -111.36267,0 z" style="fill:#efefef;fill-opacity:1;fill-rule:evenodd;stroke:none"/><path id="path6072" d="m 106.26666,107.9758 0,4.18743 111.36267,0 0,-4.18743 -111.36267,0 z" style="fill:#ededed;fill-opacity:1;fill-rule:evenodd;stroke:none"/><path id="path6074" d="m 106.26666,112.16323 0,4.18743 111.36267,0 0,-4.18743 -111.36267,0 z" style="fill:#ebebeb;fill-opacity:1;fill-rule:evenodd;stroke:none"/><path id="path6076" d="m 106.26666,116.35066 0,5.08473 111.36267,0 0,-5.08473 -111.36267,0 z" style="fill:#e9e9e9;fill-opacity:1;fill-rule:evenodd;stroke:none"/><path id="path6078" d="m 106.26666,121.43539 0,5.38384 111.36267,0 0,-5.38384 -111.36267,0 z" style="fill:#e7e7e7;fill-opacity:1;fill-rule:evenodd;stroke:none"/><path id="path6080" d="m 106.26666,126.81923 0,6.72979 111.36267,0 0,-6.72979 -111.36267,0 z" style="fill:#e5e5e5;fill-opacity:1;fill-rule:evenodd;stroke:none"/><path id="path6082" d="m 106.26666,133.54902 0,9.27216 111.36267,0 0,-9.27216 -111.36267,0 z" style="fill:#e3e3e3;fill-opacity:1;fill-rule:evenodd;stroke:none"/><path id="path6084" d="m 106.26666,142.82118 0,13.16049 111.36267,0 0,-13.16049 -111.36267,0 z" style="fill:#e0e0e0;fill-opacity:1;fill-rule:evenodd;stroke:none"/><path id="path6086" d="m 106.36034,48.604066 0,107.368254 111.28772,0 0,-107.368254 z" style="fill:none;stroke:#000;stroke-width:1.24589789px;stroke-linecap:round;stroke-linejoin:miter;stroke-miterlimit:4;stroke-opacity:1;stroke-dasharray:none"/><path id="path6088" d="m 51.278535,103.93793 203.840145,0" style="fill:none;stroke:#000;stroke-width:1.87353075px;stroke-linecap:butt;stroke-linejoin:round;stroke-opacity:1;stroke-dasharray:none"/><path id="path6090" d="m 256.05544,100.94691 c -1.55503,0 -2.81029,1.27118 -2.81029,2.84147 0,1.56093 1.25526,2.83212 2.81029,2.83212 1.54566,0 2.8103,-1.27119 2.8103,-2.83212 0,-1.57029 -1.26464,-2.84147 -2.8103,-2.84147" style="fill:#fff;fill-opacity:1;fill-rule:evenodd;stroke:none"/><path id="path6092" d="m 256.05544,100.94691 c -1.55503,0 -2.81029,1.27118 -2.81029,2.84147 0,1.56093 1.25526,2.83212 2.81029,2.83212 1.54566,0 2.8103,-1.27119 2.8103,-2.83212 0,-1.57029 -1.26464,-2.84147 -2.8103,-2.84147" style="fill:none;stroke:#000;stroke-width:1.87353075px;stroke-linecap:round;stroke-linejoin:round;stroke-opacity:1;stroke-dasharray:none"/><path id="path6094" d="m 51.840595,100.94691 c -1.555031,0 -2.810296,1.27118 -2.810296,2.84147 0,1.56093 1.255265,2.83212 2.810296,2.83212 1.545662,0 2.810296,-1.27119 2.810296,-2.83212 0,-1.57029 -1.264634,-2.84147 -2.810296,-2.84147" style="fill:#fff;fill-opacity:1;fill-rule:evenodd;stroke:none"/><path id="path6096" d="m 51.840595,100.94691 c -1.555031,0 -2.810296,1.27118 -2.810296,2.84147 0,1.56093 1.255265,2.83212 2.810296,2.83212 1.545662,0 2.810296,-1.27119 2.810296,-2.83212 0,-1.57029 -1.264634,-2.84147 -2.810296,-2.84147" style="fill:none;stroke:#000;stroke-width:1.87353075px;stroke-linecap:round;stroke-linejoin:round;stroke-opacity:1;stroke-dasharray:none"/><text id="text6098" style="font-size:13.78918552px;font-style:normal;font-weight:700;text-align:start;text-anchor:start;fill:#000;font-family:Calibri" x="67.447" y="95.414" xml:space="preserve">E</text><text id="text6100" style="font-size:8.69318295px;font-style:normal;font-weight:700;text-align:start;text-anchor:start;fill:#000;font-family:Calibri" x="74.192" y="97.358" xml:space="preserve">1</text><text id="text6104" style="font-size:13.78918552px;font-style:normal;font-weight:700;text-align:start;text-anchor:start;fill:#000;font-family:Calibri" x="193.798" y="144.765" xml:space="preserve">F</text><text id="text6106" style="font-size:8.69318295px;font-style:normal;font-weight:700;text-align:start;text-anchor:start;fill:#000;font-family:Calibri" x="200.093" y="146.709" xml:space="preserve">2</text><path id="path6110" d="m 300.70168,95.338746 0,5.907264 -26.09828,0 0,11.81453 26.09828,0 0,5.90726 8.69318,-11.81453 z" clip-path="url(#clipEmfPath2)" style="fill:#fff;fill-opacity:1;fill-rule:evenodd;stroke:none"/><path id="path6112" d="m 300.70168,95.338746 0,5.907264 -26.09828,0 0,11.81453 26.09828,0 0,5.90726 8.69318,-11.81453 z" style="fill:none;stroke:#000;stroke-width:.93676537px;stroke-linecap:round;stroke-linejoin:round;stroke-opacity:1;stroke-dasharray:none"/><path id="path6114" d="m 358.06919,96.011725 0,14.955095 111.36266,0 0,-14.955095 -111.36266,0 z" style="fill:#fff;fill-opacity:1;fill-rule:evenodd;stroke:none"/><path id="path6116" d="m 358.06919,110.96682 0,9.72082 111.36266,0 0,-9.72082 -111.36266,0 z" style="fill:#fdfdfd;fill-opacity:1;fill-rule:evenodd;stroke:none"/><path id="path6118" d="m 358.06919,120.68764 0,6.58024 111.36266,0 0,-6.58024 -111.36266,0 z" style="fill:#fbfbfb;fill-opacity:1;fill-rule:evenodd;stroke:none"/><path id="path6120" d="m 358.06919,127.26788 0,5.98204 111.36266,0 0,-5.98204 -111.36266,0 z" style="fill:#f9f9f9;fill-opacity:1;fill-rule:evenodd;stroke:none"/><path id="path6122" d="m 358.06919,133.24992 0,4.63608 111.36266,0 0,-4.63608 -111.36266,0 z" style="fill:#f7f7f7;fill-opacity:1;fill-rule:evenodd;stroke:none"/><path id="path6124" d="m 358.06919,137.886 0,4.48653 111.36266,0 0,-4.48653 -111.36266,0 z" style="fill:#f5f5f5;fill-opacity:1;fill-rule:evenodd;stroke:none"/><path id="path6126" d="m 358.06919,142.37253 0,4.63608 111.36266,0 0,-4.63608 -111.36266,0 z" style="fill:#f3f3f3;fill-opacity:1;fill-rule:evenodd;stroke:none"/><path id="path6128" d="m 358.06919,147.00861 0,3.73877 111.36266,0 0,-3.73877 -111.36266,0 z" style="fill:#f1f1f1;fill-opacity:1;fill-rule:evenodd;stroke:none"/><path id="path6130" d="m 358.06919,150.74738 0,4.63608 111.36266,0 0,-4.63608 -111.36266,0 z" style="fill:#efefef;fill-opacity:1;fill-rule:evenodd;stroke:none"/><path id="path6132" d="m 358.06919,155.38346 0,4.18743 111.36266,0 0,-4.18743 -111.36266,0 z" style="fill:#ededed;fill-opacity:1;fill-rule:evenodd;stroke:none"/><path id="path6134" d="m 358.06919,159.57089 0,4.18743 111.36266,0 0,-4.18743 -111.36266,0 z" style="fill:#ebebeb;fill-opacity:1;fill-rule:evenodd;stroke:none"/><path id="path6136" d="m 358.06919,163.75832 0,5.08473 111.36266,0 0,-5.08473 -111.36266,0 z" style="fill:#e9e9e9;fill-opacity:1;fill-rule:evenodd;stroke:none"/><path id="path6138" d="m 358.06919,168.84305 0,5.53338 111.36266,0 0,-5.53338 -111.36266,0 z" style="fill:#e7e7e7;fill-opacity:1;fill-rule:evenodd;stroke:none"/><path id="path6140" d="m 358.06919,174.37643 0,6.58025 111.36266,0 0,-6.58025 -111.36266,0 z" style="fill:#e5e5e5;fill-opacity:1;fill-rule:evenodd;stroke:none"/><path id="path6142" d="m 358.06919,180.95668 0,9.27216 111.36266,0 0,-9.27216 -111.36266,0 z" style="fill:#e3e3e3;fill-opacity:1;fill-rule:evenodd;stroke:none"/><path id="path6144" d="m 358.06919,190.22884 0,13.16048 111.36266,0 0,-13.16048 -111.36266,0 z" style="fill:#e0e0e0;fill-opacity:1;fill-rule:evenodd;stroke:none"/><path id="path6146" d="m 358.10666,96.0865 0,107.3776 111.28772,0 0,-107.3776 z" style="fill:none;stroke:#000;stroke-width:1.25526559px;stroke-linecap:round;stroke-linejoin:miter;stroke-miterlimit:4;stroke-opacity:1;stroke-dasharray:none"/><path id="path6148" d="m 357.91931,149.25187 c -1.55503,0 -2.8103,1.25249 -2.8103,2.80408 0,1.55159 1.25527,2.80408 2.8103,2.80408 1.55503,0 2.81029,-1.25249 2.81029,-2.80408 0,-1.55159 -1.25526,-2.80408 -2.81029,-2.80408" style="fill:#fff;fill-opacity:1;fill-rule:evenodd;stroke:none"/><path id="path6150" d="m 357.91931,149.25187 c -1.55503,0 -2.8103,1.25249 -2.8103,2.80408 0,1.55159 1.25527,2.80408 2.8103,2.80408 1.55503,0 2.81029,-1.25249 2.81029,-2.80408 0,-1.55159 -1.25526,-2.80408 -2.81029,-2.80408" style="fill:none;stroke:#000;stroke-width:1.87353075px;stroke-linecap:round;stroke-linejoin:round;stroke-opacity:1;stroke-dasharray:none"/><text id="text6152" style="font-size:13.78918552px;font-style:normal;font-weight:700;text-align:start;text-anchor:start;fill:#000;font-family:Calibri" x="445.9" y="192.173" xml:space="preserve">F</text><text id="text6154" style="font-size:8.69318295px;font-style:normal;font-weight:700;text-align:start;text-anchor:start;fill:#000;font-family:Calibri" x="452.195" y="194.117" xml:space="preserve">21</text><path id="path6158" d="m 309.02015,34.022846 203.84015,0" clip-path="url(#clipEmfPath3)" style="fill:none;stroke:#000;stroke-width:1.87353075px;stroke-linecap:butt;stroke-linejoin:round;stroke-opacity:1;stroke-dasharray:none"/><path id="path6160" d="m 306.20986,30.65795 c -1.55503,0 -2.8103,1.271183 -2.8103,2.80408 0,1.551592 1.25527,2.804081 2.8103,2.804081 1.55503,0 2.81029,-1.252489 2.81029,-2.804081 0,-1.532897 -1.25526,-2.80408 -2.81029,-2.80408" style="fill:#fff;fill-opacity:1;fill-rule:evenodd;stroke:none"/><path id="path6162" d="m 306.20986,30.65795 c -1.55503,0 -2.8103,1.271183 -2.8103,2.80408 0,1.551592 1.25527,2.804081 2.8103,2.804081 1.55503,0 2.81029,-1.252489 2.81029,-2.804081 0,-1.532897 -1.25526,-2.80408 -2.81029,-2.80408" style="fill:none;stroke:#000;stroke-width:1.87353075px;stroke-linecap:round;stroke-linejoin:round;stroke-opacity:1;stroke-dasharray:none"/><path id="path6164" d="m 514.17177,30.65795 c -1.55503,0 -2.8103,1.271183 -2.8103,2.80408 0,1.551592 1.25527,2.804081 2.8103,2.804081 1.55503,0 2.81029,-1.252489 2.81029,-2.804081 0,-1.532897 -1.25526,-2.80408 -2.81029,-2.80408" style="fill:#fff;fill-opacity:1;fill-rule:evenodd;stroke:none"/><path id="path6166" d="m 514.17177,30.65795 c -1.55503,0 -2.8103,1.271183 -2.8103,2.80408 0,1.551592 1.25527,2.804081 2.8103,2.804081 1.55503,0 2.81029,-1.252489 2.81029,-2.804081 0,-1.532897 -1.25526,-2.80408 -2.81029,-2.80408" style="fill:none;stroke:#000;stroke-width:1.87353075px;stroke-linecap:round;stroke-linejoin:round;stroke-opacity:1;stroke-dasharray:none"/><path id="path6168" d="m 356.79519,31.031827 c -1.55503,0 -2.8103,1.271183 -2.8103,2.804081 0,1.551591 1.25527,2.80408 2.8103,2.80408 1.55503,0 2.81029,-1.252489 2.81029,-2.80408 0,-1.532898 -1.25526,-2.804081 -2.81029,-2.804081" style="fill:#fff;fill-opacity:1;fill-rule:evenodd;stroke:none"/><path id="path6170" d="m 356.79519,31.031827 c -1.55503,0 -2.8103,1.271183 -2.8103,2.804081 0,1.551591 1.25527,2.80408 2.8103,2.80408 1.55503,0 2.81029,-1.252489 2.81029,-2.80408 0,-1.532898 -1.25526,-2.804081 -2.81029,-2.804081" style="fill:none;stroke:#000;stroke-width:1.87353075px;stroke-linecap:round;stroke-linejoin:round;stroke-opacity:1;stroke-dasharray:none"/><path id="path6172" d="m 468.08291,31.031827 c -1.55503,0 -2.81029,1.271183 -2.81029,2.804081 0,1.551591 1.25526,2.80408 2.81029,2.80408 1.55503,0 2.8103,-1.252489 2.8103,-2.80408 0,-1.532898 -1.25527,-2.804081 -2.8103,-2.804081" style="fill:#fff;fill-opacity:1;fill-rule:evenodd;stroke:none"/><path id="path6174" d="m 468.08291,31.031827 c -1.55503,0 -2.81029,1.271183 -2.81029,2.804081 0,1.551591 1.25526,2.80408 2.81029,2.80408 1.55503,0 2.8103,-1.252489 2.8103,-2.80408 0,-1.532898 -1.25527,-2.804081 -2.8103,-2.804081" style="fill:none;stroke:#000;stroke-width:1.87353075px;stroke-linecap:round;stroke-linejoin:round;stroke-opacity:1;stroke-dasharray:none"/><path id="path6176" d="m 361.10431,153.36452 106.79125,0" style="fill:none;stroke:#000;stroke-width:1.87353075px;stroke-linecap:butt;stroke-linejoin:round;stroke-opacity:1;stroke-dasharray:none"/><path id="path6178" d="m 468.08291,150.3735 c -1.55503,0 -2.81029,1.25249 -2.81029,2.80408 0,1.5516 1.25526,2.80409 2.81029,2.80409 1.55503,0 2.8103,-1.25249 2.8103,-2.80409 0,-1.55159 -1.25527,-2.80408 -2.8103,-2.80408" style="fill:#fff;fill-opacity:1;fill-rule:evenodd;stroke:none"/><path id="path6180" d="m 468.08291,150.3735 c -1.55503,0 -2.81029,1.25249 -2.81029,2.80408 0,1.5516 1.25526,2.80409 2.81029,2.80409 1.55503,0 2.8103,-1.25249 2.8103,-2.80409 0,-1.55159 -1.25527,-2.80408 -2.8103,-2.80408" style="fill:none;stroke:#000;stroke-width:1.87353075px;stroke-linecap:round;stroke-linejoin:round;stroke-opacity:1;stroke-dasharray:none"/><text id="text6182" style="font-size:13.78918552px;font-style:normal;font-weight:700;text-align:start;text-anchor:start;fill:#000;font-family:Calibri" x="445.9" y="112.911" xml:space="preserve">F</text><text id="text6184" style="font-size:8.69318295px;font-style:normal;font-weight:700;text-align:start;text-anchor:start;fill:#000;font-family:Calibri" x="452.195" y="114.855" xml:space="preserve">22</text><text id="text6188" style="font-size:13.78918552px;font-style:normal;font-weight:700;text-align:start;text-anchor:start;fill:#000;font-family:Calibri" x="401.235" y="22.433" xml:space="preserve">E</text><text id="text6190" style="font-size:8.69318295px;font-style:normal;font-weight:700;text-align:start;text-anchor:start;fill:#000;font-family:Calibri" x="407.98" y="24.377" xml:space="preserve">12</text><text id="text6194" style="font-size:13.78918552px;font-style:normal;font-weight:700;text-align:start;text-anchor:start;fill:#000;font-family:Calibri" x="403.933" y="139.531" xml:space="preserve">E</text><text id="text6196" style="font-size:8.69318295px;font-style:normal;font-weight:700;text-align:start;text-anchor:start;fill:#000;font-family:Calibri" x="410.678" y="141.475" xml:space="preserve">12</text><text id="text6200" style="font-size:13.78918552px;font-style:normal;font-weight:700;text-align:start;text-anchor:start;fill:#000;font-family:Calibri" x="318.8" y="22.433" xml:space="preserve">E</text><text id="text6202" style="font-size:8.69318295px;font-style:normal;font-weight:700;text-align:start;text-anchor:start;fill:#000;font-family:Calibri" x="325.545" y="24.377" xml:space="preserve">11</text><text id="text6206" style="font-size:13.78918552px;font-style:normal;font-weight:700;text-align:start;text-anchor:start;fill:#000;font-family:Calibri" x="480.373" y="23.48" xml:space="preserve">E</text><text id="text6208" style="font-size:8.69318295px;font-style:normal;font-weight:700;text-align:start;text-anchor:start;fill:#000;font-family:Calibri" x="487.118" y="25.424" xml:space="preserve">13</text></g><path style="fill:none;stroke:#000;stroke-width:3;stroke-linecap:butt;stroke-linejoin:miter;stroke-opacity:1;stroke-miterlimit:4;stroke-dasharray:none" id="path6312" d="m 260.60622,20.306644 44.65787,-0.611752" transform="translate(193.659,574.31924)"/><path style="fill:none;stroke:#000;stroke-width:3;stroke-linecap:butt;stroke-linejoin:miter;stroke-opacity:1;stroke-miterlimit:4;stroke-dasharray:none" id="path6314" d="M 312.60511,20.306644 416.6029,19.694892" transform="translate(193.659,574.31924)"/><path style="fill:none;stroke:#000;stroke-width:3;stroke-linecap:butt;stroke-linejoin:miter;stroke-opacity:1;stroke-miterlimit:4;stroke-dasharray:none" id="path6316" d="m 422.72041,19.083141 40.98736,0" transform="translate(193.659,574.31924)"/></g></svg>