<svg xmlns="http://www.w3.org/2000/svg" xmlns:svg="http://www.w3.org/2000/svg" id="svg16703" width="515.287" height="106.2" version="1.1"><defs id="defs16705"><clipPath id="clipEmfPath1" clipPathUnits="userSpaceOnUse"><rect id="rect16716" width="26.709" height="16.069" x="41.564" y="3.184"/></clipPath><clipPath id="clipEmfPath2" clipPathUnits="userSpaceOnUse"><rect id="rect16719" width="26.709" height="15.918" x="39.313" y="50.634"/></clipPath><clipPath id="clipEmfPath3" clipPathUnits="userSpaceOnUse"><rect id="rect16722" width="55.219" height="15.918" x="192.365" y="83.228"/></clipPath><clipPath id="clipEmfPath4" clipPathUnits="userSpaceOnUse"><rect id="rect16725" width="26.559" height="16.069" x="0" y="14.553"/></clipPath><clipPath id="clipEmfPath5" clipPathUnits="userSpaceOnUse"><rect id="rect16728" width="26.709" height="16.069" x="495.468" y="19.101"/></clipPath><clipPath id="clipEmfPath6" clipPathUnits="userSpaceOnUse"><rect id="rect16731" width="26.559" height="15.918" x="432.897" y="62.762"/></clipPath><clipPath id="clipEmfPath7" clipPathUnits="userSpaceOnUse"><rect id="rect16734" width="26.559" height="16.069" x="448.652" y="19.101"/></clipPath></defs><metadata id="metadata16708"/><g id="layer1" transform="translate(249.10351,-333.54787)"><g id="g16736" transform="translate(-249.25356,325.89754)"><path id="path16740" d="M 7.3900076,41.803252 513.81185,43.698232" clip-path="url(#clipEmfPath0)" style="fill:none;stroke:#00f;stroke-width:1.87563646px;stroke-linecap:butt;stroke-linejoin:round;stroke-opacity:1;stroke-dasharray:none"/><path id="path16742" d="M 8.8905167,41.158959 C 24.777157,34.147534 40.663798,27.136109 59.532701,27.136109 c 18.887659,0 42.333119,9.607547 62.646259,14.02285 20.3319,4.434253 38.26298,12.506866 59.27011,12.506866 21.00713,0 45.5217,-8.39476 66.77266,-12.506866 21.26971,-4.093156 37.21262,-12.317368 60.77062,-12.12787 23.57675,0.189498 56.77551,8.906405 80.65236,13.264858 23.89561,4.358453 41.8267,12.639515 62.64626,12.885862 20.81957,0.265297 41.52659,-5.552291 62.27113,-11.369878" style="fill:none;stroke:#000;stroke-width:1.87563646px;stroke-linecap:butt;stroke-linejoin:round;stroke-opacity:1;stroke-dasharray:none"/><path id="path16744" d="m 9.0499458,37.624822 c -1.9506619,0 -3.5355747,1.601258 -3.5355747,3.572037 0,1.970779 1.5849128,3.562562 3.5355747,3.562562 1.9506622,0 3.5355752,-1.591783 3.5355752,-3.562562 0,-1.970779 -1.584913,-3.572037 -3.5355752,-3.572037" style="fill:#fff;fill-opacity:1;fill-rule:evenodd;stroke:none"/><path id="path16746" d="m 9.0499458,37.624822 c -1.9506619,0 -3.5355747,1.601258 -3.5355747,3.572037 0,1.970779 1.5849128,3.562562 3.5355747,3.562562 1.9506622,0 3.5355752,-1.591783 3.5355752,-3.562562 0,-1.970779 -1.584913,-3.572037 -3.5355752,-3.572037" style="fill:none;stroke:#000;stroke-width:1.87563646px;stroke-linecap:round;stroke-linejoin:round;stroke-opacity:1;stroke-dasharray:none"/><path id="path16748" d="m 510.97964,40.287269 c -1.95067,0 -3.54496,1.591782 -3.54496,3.562561 0,1.970779 1.59429,3.562562 3.54496,3.562562 1.95066,0 3.52619,-1.591783 3.52619,-3.562562 0,-1.970779 -1.57553,-3.562561 -3.52619,-3.562561" style="fill:#fff;fill-opacity:1;fill-rule:evenodd;stroke:none"/><path id="path16750" d="m 510.97964,40.287269 c -1.95067,0 -3.54496,1.591782 -3.54496,3.562561 0,1.970779 1.59429,3.562562 3.54496,3.562562 1.95066,0 3.52619,-1.591783 3.52619,-3.562562 0,-1.970779 -1.57553,-3.562561 -3.52619,-3.562561" style="fill:none;stroke:#000;stroke-width:1.87563646px;stroke-linecap:round;stroke-linejoin:round;stroke-opacity:1;stroke-dasharray:none"/><text id="text16752" style="font-size:13.80468464px;font-style:normal;font-weight:700;text-align:start;text-anchor:start;fill:#000;font-family:Calibri" x="49.367" y="16.373" xml:space="preserve">E</text><text id="text16754" style="font-size:8.70295334px;font-style:normal;font-weight:700;text-align:start;text-anchor:start;fill:#000;font-family:Calibri" x="56.119" y="18.343" xml:space="preserve">1</text><path id="path16758" d="m 39.275827,50.510684 0,16.107328 26.634038,0 0,-16.107328 -26.634038,0 z" clip-path="url(#clipEmfPath1)" style="fill:#fff;fill-opacity:1;fill-rule:evenodd;stroke:none"/><text id="text16760" style="font-size:13.80468464px;font-style:normal;font-weight:700;text-align:start;text-anchor:start;fill:#00f;font-family:Calibri" x="47.116" y="63.823" xml:space="preserve">E</text><text id="text16762" style="font-size:8.70295334px;font-style:normal;font-weight:700;text-align:start;text-anchor:start;fill:#00f;font-family:Calibri" x="53.868" y="65.794" xml:space="preserve">2</text><path id="path16766" d="m 185.18159,60.610926 0.64709,39.917744 c 0.009,0.35057 -0.27197,0.63482 -0.60958,0.6443 -0.34699,0 -0.63772,-0.27478 -0.63772,-0.62535 l -0.64709,-39.917744 c -0.009,-0.350572 0.26259,-0.634819 0.60958,-0.644293 0.34699,-0.0095 0.62834,0.274772 0.63772,0.625343 z m -4.35148,1.335961 3.61998,-7.646244 3.88256,7.513595 z" clip-path="url(#clipEmfPath2)" style="fill:#000;fill-opacity:1;fill-rule:nonzero;stroke:#000;stroke-width:.15005091px;stroke-linecap:butt;stroke-linejoin:bevel;stroke-opacity:1;stroke-dasharray:none"/><path id="path16768" d="m 185.20034,100.53815 61.896,0" style="fill:none;stroke:#000;stroke-width:.93781823px;stroke-linecap:round;stroke-linejoin:round;stroke-opacity:1;stroke-dasharray:none"/><text id="text16770" style="font-size:13.80468464px;font-style:normal;font-weight:700;text-align:start;text-anchor:start;fill:#000;font-family:Calibri" x="203.469" y="96.417" xml:space="preserve">Dmax</text><path id="path16774" d="m 184.32817,0.47374493 0.63772,35.74879207 c 0.009,0.350571 -0.27197,0.644293 -0.60958,0.644293 -0.347,0.0095 -0.63772,-0.265297 -0.63772,-0.615868 L 183.08087,0.49269472 c -0.009,-0.34109634 0.26259,-0.6348182 0.60958,-0.6442931 0.347,0 0.62834,0.27477206 0.63772,0.62534331 z m 3.7419,34.43178107 -3.61998,7.646243 -3.88257,-7.513594 z" clip-path="url(#clipEmfPath3)" style="fill:#000;fill-opacity:1;fill-rule:nonzero;stroke:#000;stroke-width:.15005091px;stroke-linecap:butt;stroke-linejoin:bevel;stroke-opacity:1;stroke-dasharray:none"/><path id="path16776" d="m 184.07496,43.309761 0.75025,42.06855" style="fill:none;stroke:#000;stroke-width:.93781823px;stroke-linecap:round;stroke-linejoin:round;stroke-opacity:1;stroke-dasharray:none"/><text id="text16778" style="font-size:13.80468464px;font-style:normal;font-weight:700;text-align:start;text-anchor:start;fill:#000;font-family:Calibri" x="7.052" y="27.743" xml:space="preserve">V</text><text id="text16780" style="font-size:8.70295334px;font-style:normal;font-weight:700;text-align:start;text-anchor:start;fill:#000;font-family:Calibri" x="15.155" y="29.713" xml:space="preserve">1</text><text id="text16784" style="font-size:13.80468464px;font-style:normal;font-weight:700;text-align:start;text-anchor:start;fill:#000;font-family:Calibri" x="502.521" y="32.29" xml:space="preserve">V</text><text id="text16786" style="font-size:8.70295334px;font-style:normal;font-weight:700;text-align:start;text-anchor:start;fill:#000;font-family:Calibri" x="510.623" y="34.261" xml:space="preserve">2</text><path id="path16790" d="m 433.23451,52.926783 5.0267,0.492695 c 0.33762,0.0379 0.6002,0.360046 0.56269,0.701142 -0.0375,0.341097 -0.33761,0.606394 -0.69398,0.568494 l -5.02671,-0.511644 c -0.33761,-0.0379 -0.6002,-0.341097 -0.56269,-0.701143 0.0375,-0.341096 0.33761,-0.587443 0.69399,-0.549544 z m 4.08888,-2.76667 7.08991,4.529001 -7.82141,3.013018 z" clip-path="url(#clipEmfPath5)" style="fill:#000;fill-opacity:1;fill-rule:nonzero;stroke:#000;stroke-width:.15005091px;stroke-linecap:butt;stroke-linejoin:bevel;stroke-opacity:1;stroke-dasharray:none"/><path id="path16792" d="m 454.95438,42.295947 3.50744,0.151598 c 0.33761,0 0.6002,0.303197 0.6002,0.644293 -0.0188,0.360047 -0.31886,0.625344 -0.65647,0.606394 l -3.50744,-0.132649 c -0.33762,-0.01895 -0.61896,-0.303196 -0.60021,-0.644293 0.0188,-0.360046 0.3001,-0.625343 0.65648,-0.625343 z m 2.3633,-3.050917 7.35249,4.074206 -7.63384,3.486763 z" style="fill:#00f;fill-opacity:1;fill-rule:nonzero;stroke:#00f;stroke-width:.15005091px;stroke-linecap:butt;stroke-linejoin:bevel;stroke-opacity:1;stroke-dasharray:none"/><text id="text16794" style="font-size:13.80468464px;font-style:normal;font-weight:700;text-align:start;text-anchor:start;fill:#000;font-family:Calibri" x="440.399" y="75.951" xml:space="preserve">C</text><text id="text16796" style="font-size:8.70295334px;font-style:normal;font-weight:700;text-align:start;text-anchor:start;fill:#000;font-family:Calibri" x="447.752" y="77.922" xml:space="preserve">1</text><text id="text16800" style="font-size:13.80468464px;font-style:normal;font-weight:700;text-align:start;text-anchor:start;fill:#00f;font-family:Calibri" x="456.155" y="32.29" xml:space="preserve">C</text><text id="text16802" style="font-size:8.70295334px;font-style:normal;font-weight:700;text-align:start;text-anchor:start;fill:#00f;font-family:Calibri" x="463.507" y="34.261" xml:space="preserve">2</text></g></g></svg>