<svg xmlns="http://www.w3.org/2000/svg" xmlns:svg="http://www.w3.org/2000/svg" id="svg13597" width="288.237" height="252.823" version="1.1"><defs id="defs13599"><clipPath id="clipEmfPath1" clipPathUnits="userSpaceOnUse"><rect id="rect13610" width="572.988" height="158.988" x="0" y="0"/></clipPath><clipPath id="clipEmfPath2" clipPathUnits="userSpaceOnUse"><rect id="rect13613" width="26.849" height="15.899" x="278.244" y="9.749"/></clipPath></defs><metadata id="metadata13602"/><g id="layer1" transform="translate(-365.77588,-801.79657)"><g id="g5306" transform="matrix(3.4462301,0,0,3.9096982,-894.73939,-2333.0398)"><path id="path13698" d="m 437.16701,835.62152 c 0,0 -105.05809,-3.59054 -58.53984,-27.69848 46.51827,-24.10793 12.02158,44.62532 12.02158,44.62532 l 0,0 0,0 0,0" style="fill:none;stroke:#000;stroke-width:1.96154821;stroke-linecap:butt;stroke-linejoin:miter;stroke-miterlimit:4;stroke-opacity:1;stroke-dasharray:none"/><flowRoot transform="translate(300.0609,745.07267)" style="font-size:16px;font-style:normal;font-weight:700;line-height:125%;letter-spacing:0;word-spacing:0;fill:#000;fill-opacity:1;stroke:none;font-family:Sans;-inkscape-font-specification:Sans Bold" id="flowRoot4766" xml:space="preserve"><flowRegion id="flowRegion4768"><rect id="rect4770" width="48.53" height="29.118" x="114.231" y="64.282"/></flowRegion><flowPara id="flowPara4772">E</flowPara></flowRoot><path id="path4776" d="m 147.82876,93.025993 c 0,3.09256 -2.50701,5.599575 -5.59957,5.599575 -3.09256,0 -5.59958,-2.507015 -5.59958,-5.599575 0,-3.092559 2.50702,-5.599574 5.59958,-5.599574 3.09256,0 5.59957,2.507015 5.59957,5.599574 z" transform="translate(300.0609,745.07267)" style="fill:none;stroke:#000;stroke-width:3;stroke-miterlimit:4;stroke-opacity:1;stroke-dasharray:none"/><path id="path4776-8" d="m 147.82876,93.025993 c 0,3.09256 -2.50701,5.599575 -5.59957,5.599575 -3.09256,0 -5.59958,-2.507015 -5.59958,-5.599575 0,-3.092559 2.50702,-5.599574 5.59958,-5.599574 3.09256,0 5.59957,2.507015 5.59957,5.599574 z" style="fill:none;stroke:#000;stroke-width:3;stroke-miterlimit:4;stroke-opacity:1;stroke-dasharray:none" transform="translate(247.4249,766.35105)"/></g></g></svg>