<svg xmlns="http://www.w3.org/2000/svg" xmlns:svg="http://www.w3.org/2000/svg" id="svg3301" width="505.002" height="235.737" version="1.1"><defs id="defs3303"><clipPath id="clipEmfPath1" clipPathUnits="userSpaceOnUse"><rect id="rect3314" width="33.706" height="22.583" x="23.173" y="12.496"/></clipPath><clipPath id="clipEmfPath2" clipPathUnits="userSpaceOnUse"><rect id="rect3317" width="33.857" height="22.583" x="176.506" y="193.162"/></clipPath><clipPath id="clipEmfPath3" clipPathUnits="userSpaceOnUse"><rect id="rect3320" width="33.706" height="22.583" x="316.598" y="12.496"/></clipPath><clipPath id="clipEmfPath4" clipPathUnits="userSpaceOnUse"><rect id="rect3323" width="33.857" height="22.583" x="469.931" y="193.162"/></clipPath><clipPath id="clipEmfPath5" clipPathUnits="userSpaceOnUse"><rect id="rect3326" width="33.857" height="22.583" x="382.355" y="97.258"/></clipPath></defs><metadata id="metadata3306"/><g id="layer1" transform="translate(-13.218455,-277.35672)"><g id="g3328" transform="translate(13.970826,277.32547)"><path id="path3332" d="m 68.146037,80.208013 0,142.274187 142.198193,0 0,-142.274187 -142.198193,0 z" style="fill:silver;fill-opacity:1;fill-rule:evenodd;stroke:none"/><path id="path3334" d="m 68.146037,80.208013 0,142.274187 142.198193,0 0,-142.274187 z" style="fill:none;stroke:#000;stroke-width:.9404642px;stroke-linecap:round;stroke-linejoin:miter;stroke-miterlimit:4;stroke-opacity:1;stroke-dasharray:none"/><path id="path3336" d="m 0.43261354,1.1667989 0,142.2741811 142.19818646,0 0,-142.2741811 z" style="fill:none;stroke:#000;stroke-width:.9404642px;stroke-linecap:round;stroke-linejoin:miter;stroke-miterlimit:4;stroke-opacity:1;stroke-dasharray:none"/><text id="text3338" style="font-size:13.84363365px;font-style:normal;font-weight:700;text-align:start;text-anchor:start;fill:#000;font-family:Calibri" x="23.173" y="25.594" xml:space="preserve">S</text><text id="text3340" style="font-size:8.72750759px;font-style:normal;font-weight:700;text-align:start;text-anchor:start;fill:#000;font-family:Calibri" x="29.643" y="27.552" xml:space="preserve">1</text><text id="text3344" style="font-size:13.84363365px;font-style:normal;font-weight:700;text-align:start;text-anchor:start;fill:#000;font-family:Calibri" x="176.506" y="206.26" xml:space="preserve">S</text><text id="text3346" style="font-size:8.72750759px;font-style:normal;font-weight:700;text-align:start;text-anchor:start;fill:#000;font-family:Calibri" x="182.977" y="208.217" xml:space="preserve">2</text><path id="path3350" d="m 361.57087,79.586975 0,142.274185 142.19819,0 0,-142.274185 -142.19819,0 z" clip-path="url(#clipEmfPath2)" style="fill:silver;fill-opacity:1;fill-rule:evenodd;stroke:none"/><path id="path3352" d="m 361.57087,79.586975 0,142.274185 142.19819,0 0,-142.274185 z" style="fill:none;stroke:#000;stroke-width:.9404642px;stroke-linecap:round;stroke-linejoin:miter;stroke-miterlimit:4;stroke-opacity:1;stroke-dasharray:none"/><path id="path3354" d="m 361.57087,80.28329 0,142.27418 142.19819,0 0,-142.27418 -142.19819,0 z" style="fill:silver;fill-opacity:1;fill-rule:evenodd;stroke:none"/><path id="path3356" d="m 361.57087,80.28329 0,142.27418 142.19819,0 0,-142.27418 z" style="fill:none;stroke:#000;stroke-width:.9404642px;stroke-linecap:round;stroke-linejoin:miter;stroke-miterlimit:4;stroke-opacity:1;stroke-dasharray:none"/><path id="path3358" d="m 293.85745,1.1667989 0,142.2741811 142.19819,0 0,-142.2741811 z" style="fill:none;stroke:#000;stroke-width:.9404642px;stroke-linecap:round;stroke-linejoin:miter;stroke-miterlimit:4;stroke-opacity:1;stroke-dasharray:none"/><text id="text3360" style="font-size:13.84363365px;font-style:normal;font-weight:700;text-align:start;text-anchor:start;fill:#000;font-family:Calibri" x="316.598" y="25.594" xml:space="preserve">S</text><text id="text3362" style="font-size:8.72750759px;font-style:normal;font-weight:700;text-align:start;text-anchor:start;fill:#000;font-family:Calibri" x="323.068" y="27.552" xml:space="preserve">p1</text><text id="text3366" style="font-size:13.84363365px;font-style:normal;font-weight:700;text-align:start;text-anchor:start;fill:#000;font-family:Calibri" x="469.931" y="206.26" xml:space="preserve">S</text><text id="text3368" style="font-size:8.72750759px;font-style:normal;font-weight:700;text-align:start;text-anchor:start;fill:#000;font-family:Calibri" x="476.402" y="208.217" xml:space="preserve">p2</text><path id="path3372" d="m 361.57087,80.28329 0,63.28943 74.48477,0 0,-63.28943 -74.48477,0 z" clip-path="url(#clipEmfPath4)" style="fill:gray;fill-opacity:1;fill-rule:evenodd;stroke:none"/><path id="path3374" d="m 361.57087,80.28329 0,63.28943 74.48477,0 0,-63.28943 z" style="fill:none;stroke:#000;stroke-width:1.8809284px;stroke-linecap:round;stroke-linejoin:miter;stroke-miterlimit:4;stroke-opacity:1;stroke-dasharray:none"/><path id="path3376" d="m 293.85745,0.48930275 0,142.27418725 142.19819,0 0,-142.27418725 z" style="fill:none;stroke:#000;stroke-width:.9404642px;stroke-linecap:round;stroke-linejoin:miter;stroke-miterlimit:4;stroke-opacity:1;stroke-dasharray:none"/><text id="text3378" style="font-size:13.84363365px;font-style:normal;font-weight:700;text-align:start;text-anchor:start;fill:#000;font-family:Calibri" x="382.355" y="110.357" xml:space="preserve">S</text><text id="text3380" style="font-size:8.72750759px;font-style:normal;font-weight:700;text-align:start;text-anchor:start;fill:#000;font-family:Calibri" x="388.826" y="112.314" xml:space="preserve">p12</text><path id="path3384" d="m 237.80578,95.018831 26.333,0 0,1.251486 -26.333,0 0,-1.251486 z m 0,2.502971 26.333,0 0,1.260896 -26.333,0 0,-1.260896 z m 24.45207,-6.266839 11.28557,5.645801 -11.28557,5.645806 0,-11.291607 z" clip-path="url(#clipEmfPath5)" style="fill:#000;fill-opacity:1;fill-rule:nonzero;stroke:#000;stroke-width:.15047428px;stroke-linecap:butt;stroke-linejoin:bevel;stroke-opacity:1;stroke-dasharray:none"/></g></g></svg>