<svg xmlns="http://www.w3.org/2000/svg" xmlns:svg="http://www.w3.org/2000/svg" id="svg7082" width="341.689" height="202.804" version="1.1"><defs id="defs7084"><clipPath id="clipEmfPath1" clipPathUnits="userSpaceOnUse"><rect id="rect7095" width="14.25" height="15.587" x="44.549" y="37.019"/></clipPath><clipPath id="clipEmfPath2" clipPathUnits="userSpaceOnUse"><rect id="rect7098" width="20.999" height="15.437" x="292.49" y="73.138"/></clipPath><clipPath id="clipEmfPath3" clipPathUnits="userSpaceOnUse"><rect id="rect7101" width="20.549" height="15.587" x="0" y="38.517"/></clipPath><clipPath id="clipEmfPath4" clipPathUnits="userSpaceOnUse"><rect id="rect7104" width="20.549" height="15.437" x="230.692" y="35.67"/></clipPath><clipPath id="clipEmfPath5" clipPathUnits="userSpaceOnUse"><rect id="rect7107" width="20.699" height="15.437" x="93.297" y="76.885"/></clipPath><clipPath id="clipEmfPath6" clipPathUnits="userSpaceOnUse"><rect id="rect7110" width="20.549" height="15.587" x="324.739" y="71.19"/></clipPath><clipPath id="clipEmfPath7" clipPathUnits="userSpaceOnUse"><rect id="rect7113" width="22.049" height="15.437" x="157.645" y="154.069"/></clipPath><clipPath id="clipEmfPath8" clipPathUnits="userSpaceOnUse"><rect id="rect7116" width="25.349" height="15.587" x="157.345" y="108.208"/></clipPath><clipPath id="clipEmfPath9" clipPathUnits="userSpaceOnUse"><rect id="rect7119" width="25.799" height="15.587" x="154.345" y="7.494"/></clipPath></defs><metadata id="metadata7087"/><g id="layer1" transform="translate(-74.870017,-293.81725)"><g id="g7121" transform="translate(74.870017,282.00374)"><path id="path7125" d="m 24.458556,54.328841 c -1.949935,0 -3.534257,1.58303 -3.534257,3.531375 0,1.948345 1.584322,3.531375 3.534257,3.531375 1.949934,0 3.534256,-1.58303 3.534256,-3.531375 0,-1.948345 -1.584322,-3.531375 -3.534256,-3.531375" style="fill:#fff;fill-opacity:1;fill-rule:evenodd;stroke:none"/><path id="path7127" d="m 24.458556,54.328841 c -1.949935,0 -3.534257,1.58303 -3.534257,3.531375 0,1.948345 1.584322,3.531375 3.534257,3.531375 1.949934,0 3.534256,-1.58303 3.534256,-3.531375 0,-1.948345 -1.584322,-3.531375 -3.534256,-3.531375" style="fill:none;stroke:#000;stroke-width:2.06243086px;stroke-linecap:round;stroke-linejoin:round;stroke-opacity:1;stroke-dasharray:none"/><text id="text7129" style="font-size:13.79953766px;font-style:normal;font-weight:700;text-align:start;text-anchor:start;fill:#000;font-family:Calibri" x="44.549" y="50.057" xml:space="preserve">E</text><text id="text7131" style="font-size:8.69970894px;font-style:normal;font-weight:700;text-align:start;text-anchor:start;fill:#000;font-family:Calibri" x="51.298" y="52.006" xml:space="preserve">1</text><path id="path7135" d="m 27.674073,58.019456 195.687197,0" clip-path="url(#clipEmfPath1)" style="fill:none;stroke:#000;stroke-width:2.81240582px;stroke-linecap:butt;stroke-linejoin:round;stroke-opacity:1;stroke-dasharray:none"/><path id="path7137" d="m 108.29637,66.262452 212.61788,0" style="fill:none;stroke:#000;stroke-width:2.812;stroke-linecap:butt;stroke-linejoin:round;stroke-opacity:1;stroke-dasharray:none;stroke-miterlimit:4"/><path id="path7139" d="m 225.45182,53.897957 c -1.94993,0 -3.53426,1.573663 -3.53426,3.522008 0,1.957712 1.58433,3.531375 3.53426,3.531375 1.94994,0 3.53426,-1.573663 3.53426,-3.531375 0,-1.948345 -1.58432,-3.522008 -3.53426,-3.522008" style="fill:#fff;fill-opacity:1;fill-rule:evenodd;stroke:none"/><path id="path7141" d="m 225.45182,53.897957 c -1.94993,0 -3.53426,1.573663 -3.53426,3.522008 0,1.957712 1.58433,3.531375 3.53426,3.531375 1.94994,0 3.53426,-1.573663 3.53426,-3.531375 0,-1.948345 -1.58432,-3.522008 -3.53426,-3.522008" style="fill:none;stroke:#000;stroke-width:2.06243086px;stroke-linecap:round;stroke-linejoin:round;stroke-opacity:1;stroke-dasharray:none"/><path id="path7143" d="m 107.70577,62.890317 c -1.94994,0 -3.53426,1.573663 -3.53426,3.522008 0,1.957712 1.58432,3.531375 3.53426,3.531375 1.94993,0 3.53425,-1.573663 3.53425,-3.531375 0,-1.948345 -1.58432,-3.522008 -3.53425,-3.522008" style="fill:#fff;fill-opacity:1;fill-rule:evenodd;stroke:none"/><path id="path7145" d="m 107.70577,62.890317 c -1.94994,0 -3.53426,1.573663 -3.53426,3.522008 0,1.957712 1.58432,3.531375 3.53426,3.531375 1.94993,0 3.53425,-1.573663 3.53425,-3.531375 0,-1.948345 -1.58432,-3.522008 -3.53425,-3.522008" style="fill:none;stroke:#000;stroke-width:2.06243086px;stroke-linecap:round;stroke-linejoin:round;stroke-opacity:1;stroke-dasharray:none"/><path id="path7147" d="m 322.58294,62.140954 c -1.94993,0 -3.54363,1.573663 -3.54363,3.522008 0,1.948344 1.5937,3.540741 3.54363,3.540741 1.94994,0 3.52488,-1.592397 3.52488,-3.540741 0,-1.948345 -1.57494,-3.522008 -3.52488,-3.522008" style="fill:#fff;fill-opacity:1;fill-rule:evenodd;stroke:none"/><path id="path7149" d="m 322.58294,62.140954 c -1.94993,0 -3.54363,1.573663 -3.54363,3.522008 0,1.948344 1.5937,3.540741 3.54363,3.540741 1.94994,0 3.52488,-1.592397 3.52488,-3.540741 0,-1.948345 -1.57494,-3.522008 -3.52488,-3.522008" style="fill:none;stroke:#000;stroke-width:2.06243086px;stroke-linecap:round;stroke-linejoin:round;stroke-opacity:1;stroke-dasharray:none"/><text id="text7151" style="font-size:13.79953766px;font-style:normal;font-weight:700;text-align:start;text-anchor:start;fill:#000;font-family:Calibri" x="292.49" y="86.177" xml:space="preserve">E</text><text id="text7153" style="font-size:8.69970894px;font-style:normal;font-weight:700;text-align:start;text-anchor:start;fill:#000;font-family:Calibri" x="299.24" y="88.125" xml:space="preserve">2</text><text id="text7157" style="font-size:13.79953766px;font-style:normal;font-weight:700;text-align:start;text-anchor:start;fill:#000;font-family:Calibri" x="0" y="51.556" xml:space="preserve">V</text><text id="text7159" style="font-size:8.69970894px;font-style:normal;font-weight:700;text-align:start;text-anchor:start;fill:#000;font-family:Calibri" x="8.1" y="53.505" xml:space="preserve">1</text><text id="text7161" style="font-size:8.69970894px;font-style:normal;font-weight:700;text-align:start;text-anchor:start;fill:#000;font-family:Calibri" x="12.45" y="53.505" xml:space="preserve">1</text><text id="text7165" style="font-size:13.79953766px;font-style:normal;font-weight:700;text-align:start;text-anchor:start;fill:#000;font-family:Calibri" x="230.692" y="48.709" xml:space="preserve">V</text><text id="text7167" style="font-size:8.69970894px;font-style:normal;font-weight:700;text-align:start;text-anchor:start;fill:#000;font-family:Calibri" x="238.792" y="50.657" xml:space="preserve">1</text><text id="text7169" style="font-size:8.69970894px;font-style:normal;font-weight:700;text-align:start;text-anchor:start;fill:#000;font-family:Calibri" x="243.142" y="50.657" xml:space="preserve">2</text><text id="text7173" style="font-size:13.79953766px;font-style:normal;font-weight:700;text-align:start;text-anchor:start;fill:#000;font-family:Calibri" x="93.297" y="89.924" xml:space="preserve">V</text><text id="text7175" style="font-size:8.69970894px;font-style:normal;font-weight:700;text-align:start;text-anchor:start;fill:#000;font-family:Calibri" x="101.397" y="91.872" xml:space="preserve">21</text><text id="text7179" style="font-size:13.79953766px;font-style:normal;font-weight:700;text-align:start;text-anchor:start;fill:#000;font-family:Calibri" x="324.739" y="84.228" xml:space="preserve">V</text><text id="text7181" style="font-size:8.69970894px;font-style:normal;font-weight:700;text-align:start;text-anchor:start;fill:#000;font-family:Calibri" x="332.839" y="86.177" xml:space="preserve">22</text><path id="path7185" d="m 156.66975,48.652414 c -3.10302,0 -5.62481,5.620225 -5.62481,12.551836 0,6.931611 2.52179,12.551836 5.62481,12.551836 3.1124,0 5.62481,-5.620225 5.62481,-12.551836 0,-6.931611 -2.51241,-12.551836 -5.62481,-12.551836" clip-path="url(#clipEmfPath6)" style="fill:none;stroke:#000;stroke-width:.93746859px;stroke-linecap:round;stroke-linejoin:round;stroke-opacity:1;stroke-dasharray:none"/><path id="path7187" d="m 108.08075,38.536009 0,0.936704 c 0,0.0843 -0.0656,0.149873 -0.15937,0.149873 -0.0844,0 -0.14999,-0.06557 -0.14999,-0.149873 l 0,-0.936704 c 0,-0.0843 0.0656,-0.15924 0.14999,-0.15924 0.0937,0 0.15937,0.07494 0.15937,0.15924 z m 0,2.182521 0,0.936704 c 0,0.0843 -0.075,0.15924 -0.15937,0.15924 -0.0844,0 -0.15937,-0.07494 -0.15937,-0.15924 l 0,-0.936704 c 0.009,-0.0843 0.075,-0.15924 0.15937,-0.15924 0.0844,0 0.15937,0.07494 0.15937,0.15924 z m 0,2.182521 -0.009,0.936704 c 0,0.09367 -0.0656,0.159239 -0.15,0.159239 -0.0844,0 -0.15937,-0.06557 -0.15937,-0.159239 l 0,-0.936704 c 0,-0.0843 0.075,-0.149873 0.15937,-0.149873 0.0844,0 0.15937,0.06557 0.15937,0.149873 z m -0.009,2.191887 0,0.936704 c 0,0.0843 -0.0656,0.149873 -0.15937,0.149873 -0.0844,0 -0.15,-0.06557 -0.15,-0.149873 l 0,-0.936704 c 0,-0.0843 0.0656,-0.159239 0.15937,-0.159239 0.0844,0 0.15,0.07494 0.15,0.159239 z m 0,2.182521 0,0.936704 c 0,0.0843 -0.075,0.15924 -0.15937,0.15924 -0.0844,0 -0.15937,-0.07494 -0.15937,-0.15924 l 0.009,-0.936704 c 0,-0.0843 0.0656,-0.15924 0.15,-0.15924 0.0844,0 0.15937,0.07494 0.15937,0.15924 z m 0,2.182521 -0.009,0.936704 c 0,0.09367 -0.0656,0.15924 -0.14999,0.15924 -0.0844,0 -0.15937,-0.06557 -0.15937,-0.15924 l 0,-0.936704 c 0,-0.0843 0.075,-0.149873 0.15937,-0.149873 0.0844,0 0.15937,0.06557 0.15937,0.149873 z m -0.009,2.191887 0,0.936705 c 0,0.0843 -0.0656,0.149872 -0.15937,0.149872 -0.0844,0 -0.14999,-0.06557 -0.14999,-0.149872 l 0,-0.936705 c 0,-0.0843 0.0656,-0.159239 0.15937,-0.159239 0.0844,0 0.14999,0.07494 0.14999,0.159239 z m 0,2.182521 0,0.936704 c 0,0.0843 -0.075,0.15924 -0.15937,0.15924 -0.0844,0 -0.14999,-0.07494 -0.14999,-0.15924 l 0,-0.936704 c 0,-0.0843 0.0656,-0.15924 0.14999,-0.15924 0.0937,0 0.15937,0.07494 0.15937,0.15924 z m 0,2.182521 0,0.936704 c 0,0.09367 -0.075,0.15924 -0.15937,0.15924 -0.0844,0 -0.15936,-0.06557 -0.15936,-0.15924 l 0,-0.936704 c 0,-0.0843 0.075,-0.149873 0.15936,-0.149873 0.0844,0 0.15937,0.06557 0.15937,0.149873 z m -0.009,2.191888 0,0.936704 c 0,0.0843 -0.0656,0.149872 -0.15,0.149872 -0.0937,0 -0.15936,-0.06557 -0.15936,-0.149872 l 0,-0.936704 c 0,-0.0843 0.075,-0.15924 0.15936,-0.15924 0.0844,0 0.15,0.07494 0.15,0.15924 z m 0,2.18252 0,0.936704 c 0,0.0843 -0.075,0.15924 -0.15937,0.15924 -0.0844,0 -0.14999,-0.07494 -0.14999,-0.15924 l 0,-0.936704 c 0,-0.0843 0.0656,-0.159239 0.14999,-0.159239 0.0937,0 0.15937,0.07494 0.15937,0.159239 z m 0,2.182521 0,0.936704 c 0,0.09367 -0.075,0.15924 -0.15937,0.15924 -0.0844,0 -0.15937,-0.06557 -0.15937,-0.15924 l 0,-0.936704 c 0,-0.0843 0.075,-0.149873 0.15937,-0.149873 0.0844,0 0.15937,0.06557 0.15937,0.149873 z m -0.009,2.191888 0,0.936704 c 0,0.0843 -0.0656,0.149872 -0.14999,0.149872 -0.0937,0 -0.15937,-0.06557 -0.15937,-0.149872 l 0,-0.936704 c 0,-0.0843 0.075,-0.15924 0.15937,-0.15924 0.0844,0 0.14999,0.07494 0.14999,0.15924 z m 0,2.18252 0,0.936705 c 0,0.0843 -0.0656,0.159239 -0.15936,0.159239 -0.0844,0 -0.15,-0.07494 -0.15,-0.159239 l 0,-0.936705 c 0,-0.0843 0.0656,-0.159239 0.15937,-0.159239 0.0844,0 0.14999,0.07494 0.14999,0.159239 z m 0,2.182521 0,0.936704 c 0,0.09367 -0.075,0.15924 -0.15936,0.15924 -0.0844,0 -0.15937,-0.06557 -0.15937,-0.15924 l 0.009,-0.936704 c 0,-0.0843 0.0656,-0.149873 0.15,-0.149873 0.0844,0 0.15936,0.06557 0.15936,0.149873 z m 0,2.191888 -0.009,0.936704 c 0,0.0843 -0.0656,0.149873 -0.14999,0.149873 -0.0844,0 -0.15937,-0.06557 -0.15937,-0.149873 l 0,-0.936704 c 0,-0.0843 0.075,-0.15924 0.15937,-0.15924 0.0844,0 0.15936,0.07494 0.15936,0.15924 z m -0.009,2.18252 0,0.936705 c 0,0.0843 -0.0656,0.159239 -0.15937,0.159239 -0.0844,0 -0.14999,-0.07494 -0.14999,-0.159239 l 0,-0.936705 c 0,-0.0843 0.0656,-0.159239 0.15937,-0.159239 0.0844,0 0.14999,0.07494 0.14999,0.159239 z m 0,2.182521 0,0.936704 c 0,0.09367 -0.075,0.15924 -0.15937,0.15924 -0.0844,0 -0.15937,-0.06557 -0.15937,-0.15924 l 0.009,-0.936704 c 0,-0.0843 0.0656,-0.149872 0.14999,-0.149872 0.0844,0 0.15937,0.06557 0.15937,0.149872 z m 0,2.191888 0,0.936704 c -0.009,0.0843 -0.075,0.149873 -0.15937,0.149873 -0.0844,0 -0.15937,-0.06557 -0.15937,-0.149873 l 0,-0.936704 c 0,-0.0843 0.075,-0.15924 0.15937,-0.15924 0.0844,0 0.15937,0.07494 0.15937,0.15924 z m -0.009,2.182521 0,0.936704 c 0,0.0843 -0.0656,0.159239 -0.15,0.159239 -0.0937,0 -0.15937,-0.07494 -0.15937,-0.159239 l 0,-0.936704 c 0,-0.0843 0.0656,-0.15924 0.15937,-0.15924 0.0844,0 0.15,0.07494 0.15,0.15924 z m 0,2.18252 0,0.936704 c 0,0.09367 -0.075,0.15924 -0.15937,0.15924 -0.0844,0 -0.15,-0.06557 -0.15,-0.15924 l 0,-0.936704 c 0,-0.0843 0.0656,-0.149872 0.15,-0.149872 0.0937,0 0.15937,0.06557 0.15937,0.149872 z m 0,2.191888 0,0.936704 c 0,0.0843 -0.075,0.149873 -0.15937,0.149873 -0.0844,0 -0.15937,-0.06557 -0.15937,-0.149873 l 0,-0.936704 c 0,-0.0843 0.075,-0.15924 0.15937,-0.15924 0.0844,0 0.15937,0.07494 0.15937,0.15924 z m -0.009,2.182521 0,0.936704 c 0,0.0843 -0.0656,0.15924 -0.14999,0.15924 -0.0937,0 -0.15937,-0.07494 -0.15937,-0.15924 l 0,-0.936704 c 0,-0.0843 0.075,-0.15924 0.15937,-0.15924 0.0844,0 0.14999,0.07494 0.14999,0.15924 z m 0,2.18252 0,0.936705 c 0,0.09367 -0.075,0.159239 -0.15937,0.159239 -0.0844,0 -0.14999,-0.06557 -0.14999,-0.159239 l 0,-0.936705 c 0,-0.0843 0.0656,-0.149872 0.14999,-0.149872 0.0937,0 0.15937,0.06557 0.15937,0.149872 z m 0,2.191888 0,0.936704 c 0,0.0843 -0.075,0.149873 -0.15937,0.149873 -0.0844,0 -0.15937,-0.06557 -0.15937,-0.149873 l 0,-0.936704 c 0,-0.0843 0.075,-0.15924 0.15937,-0.15924 0.0844,0 0.15937,0.07494 0.15937,0.15924 z m -0.009,2.182521 0,0.936704 c 0,0.0843 -0.0656,0.15924 -0.15,0.15924 -0.0937,0 -0.15937,-0.07494 -0.15937,-0.15924 l 0,-0.936704 c 0,-0.0843 0.075,-0.15924 0.15937,-0.15924 0.0844,0 0.15937,0.07494 0.15,0.15924 z m 0,2.182521 0,0.936704 c 0,0.09367 -0.0656,0.159239 -0.15937,0.159239 -0.0844,0 -0.15,-0.06557 -0.15,-0.159239 l 0,-0.936704 c 0,-0.0843 0.0656,-0.149873 0.15937,-0.149873 0.0844,0 0.15,0.06557 0.15,0.149873 z m 0,2.191887 0,0.936704 c 0,0.0843 -0.075,0.149873 -0.15937,0.149873 -0.0844,0 -0.15937,-0.06557 -0.15937,-0.149873 l 0.009,-0.936704 c 0,-0.0843 0.0656,-0.159239 0.15,-0.159239 0.0844,0 0.15937,0.07494 0.15937,0.159239 z m 0,2.182521 -0.009,0.936708 c 0,0.0843 -0.0656,0.15924 -0.14999,0.15924 -0.0844,0 -0.15937,-0.0749 -0.15937,-0.15924 l 0,-0.936708 c 0,-0.0843 0.075,-0.15924 0.15937,-0.15924 0.0844,0 0.15937,0.07494 0.15937,0.15924 z m -0.009,2.182518 0,0.93671 c 0,0.0937 -0.0656,0.15924 -0.15937,0.15924 -0.0844,0 -0.14999,-0.0656 -0.14999,-0.15924 l 0,-0.93671 c 0,-0.0843 0.0656,-0.14987 0.15937,-0.14987 0.0844,0 0.14999,0.0656 0.14999,0.14987 z m 0,2.19189 0,0.9367 c 0,0.0843 -0.075,0.14988 -0.15937,0.14988 -0.0844,0 -0.14999,-0.0656 -0.14999,-0.14988 l 0,-0.9367 c 0,-0.0843 0.0656,-0.15924 0.14999,-0.15924 0.0937,0 0.15937,0.0749 0.15937,0.15924 z m 0,2.18252 0,0.93671 c 0,0.0843 -0.075,0.15923 -0.15937,0.15923 -0.0844,0 -0.15937,-0.0749 -0.15937,-0.15923 l 0,-0.93671 c 0,-0.0843 0.075,-0.15924 0.15937,-0.15924 0.0844,0 0.15937,0.0749 0.15937,0.15924 z m -0.009,2.18252 0,0.93671 c 0,0.0937 -0.0656,0.15924 -0.15,0.15924 -0.0937,0 -0.15937,-0.0656 -0.15937,-0.15924 l 0,-0.93671 c 0,-0.0843 0.075,-0.14987 0.15937,-0.14987 0.0844,0 0.15,0.0656 0.15,0.14987 z m 0,2.19189 0,0.9367 c 0,0.0843 -0.075,0.14988 -0.15937,0.14988 -0.0844,0 -0.15,-0.0656 -0.15,-0.14988 l 0,-0.9367 c 0,-0.0843 0.0656,-0.15924 0.15,-0.15924 0.0937,0 0.15937,0.0749 0.15937,0.15924 z m 0,2.18252 0,0.9367 c 0,0.0843 -0.075,0.15924 -0.15937,0.15924 -0.0844,0 -0.15937,-0.0749 -0.15937,-0.15924 l 0,-0.9367 c 0,-0.0843 0.075,-0.15924 0.15937,-0.15924 0.0844,0 0.15937,0.0749 0.15937,0.15924 z m -0.009,2.18252 0,0.93671 c 0,0.0937 -0.0656,0.15923 -0.14999,0.15923 -0.0937,0 -0.15937,-0.0656 -0.15937,-0.15923 l 0,-0.93671 c 0,-0.0843 0.075,-0.14987 0.15937,-0.14987 0.0844,0 0.14999,0.0656 0.14999,0.14987 z m 0,2.19189 0,0.9367 c 0,0.0843 -0.0656,0.14988 -0.15937,0.14988 -0.0844,0 -0.14999,-0.0656 -0.14999,-0.14988 l 0,-0.9367 c 0,-0.0843 0.0656,-0.15924 0.15937,-0.15924 0.0844,0 0.14999,0.0749 0.14999,0.15924 z m 0,2.18252 0,0.9367 c 0,0.0843 -0.075,0.15924 -0.15937,0.15924 -0.0844,0 -0.15937,-0.0749 -0.15937,-0.15924 l 0.009,-0.9367 c 0,-0.0843 0.0656,-0.15924 0.14999,-0.15924 0.0844,0 0.15937,0.0749 0.15937,0.15924 z m 0,2.18252 -0.009,0.9367 c 0,0.0937 -0.0656,0.15924 -0.15,0.15924 -0.0844,0 -0.15937,-0.0656 -0.15937,-0.15924 l 0,-0.9367 c 0,-0.0843 0.075,-0.14987 0.15937,-0.14987 0.0844,0 0.15937,0.0656 0.15937,0.14987 z m -0.009,2.19189 0,0.9367 c 0,0.0843 -0.0656,0.14987 -0.15937,0.14987 -0.0844,0 -0.15,-0.0656 -0.15,-0.14987 l 0,-0.9367 c 0,-0.0843 0.0656,-0.15924 0.15937,-0.15924 0.0844,0 0.15,0.0749 0.15,0.15924 z m 0,2.18252 0,0.9367 c 0,0.0843 -0.075,0.15924 -0.15937,0.15924 -0.0844,0 -0.15937,-0.0749 -0.15937,-0.15924 l 0.009,-0.9367 c 0,-0.0843 0.0656,-0.15924 0.15,-0.15924 0.0844,0 0.15937,0.0749 0.15937,0.15924 z m 0,2.18252 -0.009,0.9367 c 0,0.0937 -0.0656,0.15924 -0.14999,0.15924 -0.0844,0 -0.15937,-0.0656 -0.15937,-0.15924 l 0,-0.9367 c 0,-0.0843 0.075,-0.14987 0.15937,-0.14987 0.0844,0 0.15937,0.0656 0.15937,0.14987 z m -0.009,2.19189 0,0.9367 c 0,0.0843 -0.0656,0.14987 -0.14999,0.14987 -0.0937,0 -0.15937,-0.0656 -0.15937,-0.14987 l 0,-0.9367 c 0,-0.0843 0.0656,-0.15924 0.15937,-0.15924 0.0844,0 0.14999,0.0749 0.14999,0.15924 z m 0,2.18252 0,0.9367 c 0,0.0843 -0.075,0.15924 -0.15937,0.15924 -0.0844,0 -0.14999,-0.0749 -0.14999,-0.15924 l 0,-0.9367 c 0,-0.0843 0.0656,-0.15924 0.14999,-0.15924 0.0937,0 0.15937,0.0749 0.15937,0.15924 z m 0,2.18252 0,0.9367 c 0,0.0937 -0.075,0.15924 -0.15937,0.15924 -0.0844,0 -0.15937,-0.0656 -0.15937,-0.15924 l 0,-0.9367 c 0,-0.0843 0.075,-0.14987 0.15937,-0.14987 0.0844,0 0.15937,0.0656 0.15937,0.14987 z m -0.009,2.19189 0,0.9367 c 0,0.0843 -0.0656,0.14987 -0.15,0.14987 -0.0937,0 -0.15937,-0.0656 -0.15937,-0.14987 l 0,-0.9367 c 0,-0.0843 0.075,-0.15924 0.15937,-0.15924 0.0844,0 0.15,0.0749 0.15,0.15924 z m 0,2.18252 0,0.9367 c 0,0.0843 -0.075,0.15924 -0.15937,0.15924 -0.0844,0 -0.15,-0.0749 -0.15,-0.15924 l 0,-0.9367 c 0,-0.0843 0.0656,-0.15924 0.15,-0.15924 0.0937,0 0.15937,0.0749 0.15937,0.15924 z m 0,2.18252 0,0.9367 c 0,0.0937 -0.075,0.15924 -0.15937,0.15924 -0.0844,0 -0.15937,-0.0656 -0.15937,-0.15924 l 0,-0.9367 c 0,-0.0843 0.075,-0.14988 0.15937,-0.14988 0.0844,0 0.15937,0.0656 0.15937,0.14988 z m -0.009,2.19189 0,0.9367 c 0,0.0843 -0.0656,0.14987 -0.14999,0.14987 -0.0937,0 -0.15937,-0.0656 -0.15937,-0.14987 l 0,-0.9367 c 0,-0.0843 0.075,-0.15924 0.15937,-0.15924 0.0844,0 0.15937,0.0749 0.14999,0.15924 z m 0,2.18252 0,0.9367 c 0,0.0843 -0.0656,0.15924 -0.15937,0.15924 -0.0844,0 -0.14999,-0.0749 -0.14999,-0.15924 l 0,-0.9367 c 0,-0.0843 0.0656,-0.15924 0.15937,-0.15924 0.0844,0 0.14999,0.0749 0.14999,0.15924 z m 0,2.18252 0,0.9367 c 0,0.0937 -0.075,0.15924 -0.15937,0.15924 -0.0844,0 -0.15937,-0.0656 -0.15937,-0.15924 l 0.009,-0.9367 c 0,-0.0843 0.0656,-0.14988 0.14999,-0.14988 0.0844,0 0.15937,0.0656 0.15937,0.14988 z m 0,2.19188 -0.009,0.93671 c 0,0.0843 -0.0656,0.14987 -0.15,0.14987 -0.0844,0 -0.15937,-0.0656 -0.15937,-0.14987 l 0,-0.93671 c 0,-0.0843 0.075,-0.15924 0.15937,-0.15924 0.0844,0 0.15937,0.0749 0.15937,0.15924 z m -0.009,2.18252 0,0.93671 c 0,0.0843 -0.0656,0.15924 -0.15937,0.15924 -0.0844,0 -0.15,-0.0749 -0.15,-0.15924 l 0,-0.93671 c 0,-0.0843 0.0656,-0.15923 0.15937,-0.15923 0.0844,0 0.15,0.0749 0.15,0.15923 z m 0,2.18253 0,0.9367 c 0,0.0937 -0.075,0.15924 -0.15937,0.15924 -0.0844,0 -0.15937,-0.0656 -0.15,-0.15924 l 0,-0.9367 c 0,-0.0843 0.0656,-0.14988 0.15,-0.14988 0.0937,0 0.15937,0.0656 0.15937,0.14988 z m 0,2.19188 0,0.93671 c 0,0.0843 -0.075,0.14987 -0.15937,0.14987 -0.0844,0 -0.15937,-0.0656 -0.15937,-0.14987 l 0,-0.93671 c 0,-0.0843 0.075,-0.15924 0.15937,-0.15924 0.0844,0 0.15937,0.0749 0.15937,0.15924 z m -0.009,2.18252 0,0.93671 c 0,0.0843 -0.0656,0.15924 -0.14999,0.15924 -0.0937,0 -0.15937,-0.0749 -0.15937,-0.15924 l 0,-0.93671 c 0,-0.0843 0.075,-0.15924 0.15937,-0.15924 0.0844,0 0.14999,0.0749 0.14999,0.15924 z m 0,2.18252 0,0.93671 c 0,0.0937 -0.075,0.15924 -0.15937,0.15924 -0.0844,0 -0.14999,-0.0656 -0.14999,-0.15924 l 0,-0.93671 c 0,-0.0843 0.0656,-0.14987 0.14999,-0.14987 0.0937,0 0.15937,0.0656 0.15937,0.14987 z m 0,2.19189 0,0.93671 c 0,0.0843 -0.075,0.14987 -0.15937,0.14987 -0.0844,0 -0.15937,-0.0656 -0.15937,-0.14987 l 0,-0.93671 c 0,-0.0843 0.075,-0.15924 0.15937,-0.15924 0.0844,0 0.15937,0.0749 0.15937,0.15924 z m -0.009,2.18252 0,0.93671 c 0,0.0843 -0.0656,0.15924 -0.15,0.15924 -0.0937,0 -0.15937,-0.0749 -0.15937,-0.15924 l 0,-0.93671 c 0,-0.0843 0.075,-0.15924 0.15937,-0.15924 0.0844,0 0.15,0.0749 0.15,0.15924 z m 0,2.18252 0,0.93671 c 0,0.0937 -0.0656,0.15924 -0.15937,0.15924 -0.0844,0 -0.15,-0.0656 -0.15,-0.15924 l 0,-0.93671 c 0,-0.0843 0.0656,-0.14987 0.15937,-0.14987 0.0844,0 0.15,0.0656 0.15,0.14987 z m 0,2.19189 0,0.93671 c 0,0.0843 -0.075,0.14987 -0.15937,0.14987 -0.0844,0 -0.15937,-0.0656 -0.15937,-0.14987 l 0.009,-0.93671 c 0,-0.0843 0.0656,-0.15924 0.15,-0.15924 0.0844,0 0.15937,0.0749 0.15937,0.15924 z m 0,2.18252 -0.009,0.93671 c 0,0.0843 -0.0656,0.15924 -0.14999,0.15924 -0.0844,0 -0.15937,-0.0749 -0.15937,-0.15924 l 0,-0.93671 c 0,-0.0843 0.075,-0.15924 0.15937,-0.15924 0.0844,0 0.15937,0.0749 0.15937,0.15924 z m -0.009,2.18252 0,0.93671 c 0,0.0937 -0.0656,0.15924 -0.15936,0.15924 -0.0844,0 -0.15,-0.0656 -0.15,-0.15924 l 0,-0.93671 c 0,-0.0843 0.0656,-0.14987 0.15937,-0.14987 0.0844,0 0.14999,0.0656 0.14999,0.14987 z m 0,2.19189 0,0.9367 c 0,0.0843 -0.075,0.14988 -0.15936,0.14988 -0.0844,0 -0.15937,-0.0656 -0.15937,-0.14988 l 0.009,-0.9367 c 0,-0.0843 0.0656,-0.15924 0.15,-0.15924 0.0844,0 0.15936,0.0749 0.15936,0.15924 z m 0,2.18252 0,0.93671 c -0.009,0.0843 -0.075,0.15924 -0.15936,0.15924 -0.0844,0 -0.15937,-0.0749 -0.15937,-0.15924 l 0,-0.93671 c 0,-0.0843 0.075,-0.15924 0.15937,-0.15924 0.0844,0 0.15936,0.0749 0.15936,0.15924 z m -0.009,2.18252 0,0.93671 c 0,0.0937 -0.0656,0.15924 -0.14999,0.15924 -0.0937,0 -0.15937,-0.0656 -0.15937,-0.15924 l 0,-0.93671 c 0,-0.0843 0.0656,-0.14987 0.15937,-0.14987 0.0844,0 0.14999,0.0656 0.14999,0.14987 z" style="fill:#000;fill-opacity:1;fill-rule:nonzero;stroke:#000;stroke-width:.14999497px;stroke-linecap:butt;stroke-linejoin:bevel;stroke-opacity:1;stroke-dasharray:none"/><path id="path7189" d="m 226.2018,37.037283 0,0.936704 c 0,0.0843 -0.075,0.159239 -0.15937,0.149872 -0.0844,0 -0.15937,-0.06557 -0.15937,-0.149872 l 0.009,-0.936704 c 0,-0.0843 0.0656,-0.15924 0.15937,-0.15924 0.0844,0 0.15,0.07494 0.15,0.15924 z m -0.009,2.18252 0,0.936704 c 0,0.0843 -0.075,0.15924 -0.15937,0.15924 -0.0844,0 -0.15937,-0.07494 -0.15937,-0.15924 l 0.009,-0.936704 c 0,-0.0843 0.0656,-0.15924 0.15937,-0.15924 0.0844,0.0094 0.14999,0.07494 0.14999,0.15924 z m -0.009,2.191888 0,0.936704 c 0,0.0843 -0.075,0.149873 -0.15937,0.149873 -0.0844,0 -0.15,-0.06557 -0.15,-0.15924 l 0,-0.936704 c 0,-0.0843 0.0656,-0.149873 0.15937,-0.149873 0.0844,0 0.15,0.06557 0.15,0.15924 z m -0.009,2.182521 0,0.936704 c 0,0.0843 -0.075,0.149872 -0.15937,0.149872 -0.0844,0 -0.14999,-0.06557 -0.14999,-0.149872 l 0,-0.936704 c 0,-0.0843 0.075,-0.15924 0.15937,-0.15924 0.0844,0 0.14999,0.07494 0.14999,0.15924 z m -0.009,2.18252 0,0.936704 c 0,0.0843 -0.0656,0.15924 -0.15937,0.15924 -0.0844,0 -0.15,-0.07494 -0.15,-0.15924 l 0,-0.936704 c 0,-0.0843 0.075,-0.159239 0.15937,-0.159239 0.0844,0 0.15937,0.07494 0.15,0.159239 z m 0,2.191888 -0.009,0.936704 c 0,0.0843 -0.0656,0.149873 -0.15937,0.149873 -0.0844,0 -0.14999,-0.06557 -0.14999,-0.15924 l 0,-0.936704 c 0,-0.0843 0.075,-0.149873 0.15937,-0.149873 0.0844,0 0.15937,0.06557 0.15937,0.15924 z m -0.009,2.182521 -0.009,0.936704 c 0,0.0843 -0.0656,0.149873 -0.15,0.149873 -0.0937,0 -0.15937,-0.06557 -0.15937,-0.149873 l 0,-0.936704 c 0,-0.0843 0.075,-0.15924 0.15937,-0.15924 0.0844,0 0.15937,0.07494 0.15937,0.15924 z m -0.009,2.18252 -0.009,0.936705 c 0,0.0843 -0.0656,0.159239 -0.14999,0.159239 -0.0937,0 -0.15937,-0.07494 -0.15937,-0.159239 l 0,-0.936705 c 0,-0.0843 0.075,-0.159239 0.15937,-0.159239 0.0844,0 0.15937,0.07494 0.15937,0.159239 z m -0.009,2.191888 -0.009,0.936704 c 0,0.0843 -0.0656,0.149873 -0.15,0.149873 -0.0937,0 -0.15937,-0.06557 -0.15937,-0.15924 l 0,-0.936704 c 0.009,-0.0843 0.075,-0.149873 0.15937,-0.149873 0.0844,0 0.15937,0.06557 0.15937,0.15924 z m -0.009,2.182521 -0.009,0.936704 c 0,0.0843 -0.0656,0.149873 -0.14999,0.149873 -0.0844,0 -0.15937,-0.06557 -0.15937,-0.149873 l 0.009,-0.936704 c 0,-0.0843 0.0656,-0.15924 0.15,-0.15924 0.0844,0 0.15937,0.07494 0.15937,0.15924 z m -0.009,2.182521 0,0.936704 c 0,0.0843 -0.075,0.159239 -0.15937,0.159239 -0.0844,0 -0.15937,-0.07494 -0.15937,-0.159239 l 0.009,-0.936704 c 0,-0.0843 0.0656,-0.15924 0.14999,-0.15924 0.0937,0 0.15937,0.07494 0.15937,0.15924 z m -0.009,2.191887 0,0.936704 c 0,0.0843 -0.075,0.149873 -0.15937,0.149873 -0.0844,0 -0.15937,-0.06557 -0.15937,-0.15924 l 0.009,-0.936704 c 0,-0.0843 0.0656,-0.149872 0.15,-0.149872 0.0937,0 0.15937,0.06557 0.15937,0.159239 z m -0.009,2.182521 0,0.936704 c 0,0.0843 -0.075,0.149873 -0.15937,0.149873 -0.0844,0 -0.15936,-0.06557 -0.15936,-0.149873 l 0.009,-0.936704 c 0,-0.0843 0.0656,-0.15924 0.15937,-0.15924 0.0844,0 0.14999,0.07494 0.14999,0.15924 z m -0.009,2.182521 0,0.936704 c 0,0.0843 -0.075,0.15924 -0.15937,0.15924 -0.0844,0 -0.15937,-0.07494 -0.14999,-0.15924 l 0,-0.936704 c 0,-0.0843 0.0656,-0.15924 0.15936,-0.15924 0.0844,0 0.15,0.07494 0.15,0.15924 z m -0.009,2.191887 0,0.936705 c 0,0.0843 -0.075,0.149872 -0.15937,0.149872 -0.0844,0 -0.15,-0.06557 -0.15,-0.159239 l 0,-0.936705 c 0,-0.0843 0.075,-0.149872 0.15937,-0.149872 0.0844,0 0.15,0.06557 0.15,0.159239 z m -0.009,2.182521 0,0.936704 c 0,0.0843 -0.075,0.149873 -0.15937,0.149873 -0.0844,0 -0.14999,-0.06557 -0.14999,-0.149873 l 0,-0.936704 c 0,-0.09367 0.075,-0.15924 0.15937,-0.15924 0.0844,0 0.14999,0.07494 0.14999,0.15924 z m -0.009,2.182521 0,0.936704 c 0,0.0843 -0.0656,0.15924 -0.15937,0.15924 -0.0844,0 -0.15,-0.07494 -0.15,-0.15924 l 0,-0.936704 c 0,-0.0843 0.075,-0.15924 0.15937,-0.15924 0.0844,0 0.15937,0.07494 0.15,0.15924 z m 0,2.182521 -0.009,0.936704 c 0,0.09367 -0.0656,0.159239 -0.15937,0.159239 -0.0844,0 -0.14999,-0.06557 -0.14999,-0.159239 l 0,-0.936704 c 0,-0.0843 0.075,-0.149873 0.15937,-0.149873 0.0844,0 0.15937,0.06557 0.15937,0.149873 z m -0.009,2.191887 -0.009,0.936704 c 0,0.0843 -0.0656,0.149873 -0.15,0.149873 -0.0937,0 -0.15937,-0.06557 -0.15937,-0.149873 l 0,-0.936704 c 0,-0.09367 0.075,-0.159239 0.15937,-0.159239 0.0844,0 0.15937,0.07494 0.15937,0.159239 z m -0.009,2.182521 -0.009,0.936704 c 0,0.0843 -0.0656,0.15924 -0.14999,0.15924 -0.0937,0 -0.15937,-0.07494 -0.15937,-0.15924 l 0,-0.936704 c 0,-0.0843 0.075,-0.15924 0.15937,-0.15924 0.0844,0 0.15937,0.07494 0.15937,0.15924 z m -0.009,2.182521 -0.009,0.936704 c 0,0.09367 -0.0656,0.15924 -0.15,0.15924 -0.0937,0 -0.15937,-0.06557 -0.15937,-0.15924 l 0,-0.936704 c 0.009,-0.0843 0.075,-0.149873 0.15937,-0.149873 0.0844,0 0.15937,0.06557 0.15937,0.149873 z m -0.009,2.191887 0,0.936705 c -0.009,0.0843 -0.075,0.149872 -0.15937,0.149872 -0.0844,0 -0.15937,-0.06557 -0.15937,-0.149872 l 0.009,-0.936705 c 0,-0.09367 0.0656,-0.159239 0.15,-0.159239 0.0937,0 0.15937,0.07494 0.15937,0.159239 z m -0.009,2.182521 0,0.936704 c 0,0.0843 -0.075,0.15924 -0.15937,0.15924 -0.0844,0 -0.15937,-0.07494 -0.15937,-0.15924 l 0.009,-0.936704 c 0,-0.0843 0.0656,-0.15924 0.14999,-0.15924 0.0937,0 0.15937,0.07494 0.15937,0.15924 z m -0.009,2.182521 0,0.936704 c 0,0.09367 -0.075,0.15924 -0.15937,0.15924 -0.0844,0 -0.15937,-0.06557 -0.15937,-0.15924 l 0.009,-0.936704 c 0,-0.0843 0.0656,-0.149873 0.15,-0.149873 0.0937,0 0.15937,0.06557 0.15937,0.149873 z m -0.009,2.191887 0,0.936705 c 0,0.0843 -0.075,0.149872 -0.15937,0.149872 -0.0844,0 -0.15937,-0.06557 -0.15937,-0.149872 l 0.009,-0.936705 c 0,-0.09367 0.0656,-0.159239 0.15937,-0.159239 0.0844,0 0.14999,0.07494 0.14999,0.159239 z m -0.009,2.182521 0,0.936704 c 0,0.0843 -0.075,0.15924 -0.15937,0.15924 -0.0844,0 -0.15937,-0.07494 -0.15,-0.15924 l 0,-0.936704 c 0,-0.0843 0.0656,-0.15924 0.15937,-0.15924 0.0844,0 0.15,0.07494 0.15,0.15924 z m -0.009,2.182521 0,0.936704 c 0,0.09367 -0.075,0.15924 -0.15937,0.15924 -0.0844,0 -0.14999,-0.06557 -0.14999,-0.15924 l 0,-0.936704 c 0,-0.0843 0.075,-0.149873 0.15937,-0.149873 0.0844,0 0.14999,0.06557 0.14999,0.149873 z m -0.009,2.191888 0,0.936704 c 0,0.0843 -0.075,0.149872 -0.15937,0.149872 -0.0844,0 -0.15,-0.06557 -0.15,-0.149872 l 0,-0.936704 c 0,-0.09367 0.075,-0.15924 0.15937,-0.15924 0.0844,0 0.15,0.07494 0.15,0.15924 z m -0.009,2.18252 0,0.936704 c 0,0.0843 -0.0656,0.15924 -0.15937,0.15924 -0.0844,0 -0.14999,-0.07494 -0.14999,-0.15924 l 0,-0.936704 c 0,-0.0843 0.075,-0.159239 0.15937,-0.159239 0.0844,0 0.15937,0.07494 0.14999,0.159239 z m 0,2.182525 -0.009,0.9367 c 0,0.0937 -0.0656,0.15924 -0.15937,0.15924 -0.0844,0 -0.15,-0.0656 -0.15,-0.15924 l 0,-0.9367 c 0,-0.0843 0.075,-0.14988 0.15937,-0.14988 0.0844,0 0.15937,0.0656 0.15937,0.14988 z m -0.009,2.19188 -0.009,0.93671 c 0,0.0843 -0.0656,0.14987 -0.14999,0.14987 -0.0937,0 -0.15937,-0.0656 -0.15937,-0.14987 l 0,-0.93671 c 0,-0.0937 0.075,-0.15924 0.15937,-0.15924 0.0844,0 0.15937,0.0749 0.15937,0.15924 z m -0.009,2.18252 -0.009,0.93671 c 0,0.0843 -0.0656,0.15924 -0.14999,0.15924 -0.0937,0 -0.15937,-0.0749 -0.15937,-0.15924 l 0,-0.93671 c 0,-0.0843 0.075,-0.15924 0.15937,-0.15924 0.0844,0 0.15936,0.0749 0.15936,0.15924 z m -0.009,2.18253 -0.009,0.9367 c 0,0.0937 -0.0656,0.15924 -0.15,0.15924 -0.0844,0 -0.15937,-0.0656 -0.15937,-0.15924 l 0.009,-0.9367 c 0,-0.0843 0.0656,-0.14988 0.14999,-0.14988 0.0844,0 0.15937,0.0656 0.15937,0.14988 z m -0.009,2.19188 0,0.93671 c -0.009,0.0843 -0.075,0.14987 -0.15937,0.14987 -0.0844,0 -0.15937,-0.0656 -0.15937,-0.14987 l 0.009,-0.93671 c 0,-0.0937 0.0656,-0.15924 0.15,-0.15924 0.0937,0 0.15937,0.0749 0.15937,0.15924 z m -0.009,2.18252 0,0.93671 c 0,0.0843 -0.075,0.15924 -0.15937,0.15924 -0.0844,0 -0.15937,-0.0749 -0.15937,-0.15924 l 0.009,-0.93671 c 0,-0.0843 0.0656,-0.15924 0.14999,-0.15924 0.0937,0 0.15937,0.0749 0.15937,0.15924 z m -0.009,2.18252 0,0.93671 c 0,0.0937 -0.075,0.15924 -0.15937,0.15924 -0.0844,0 -0.15937,-0.0656 -0.15937,-0.15924 l 0.009,-0.93671 c 0,-0.0843 0.0656,-0.14987 0.15,-0.14987 0.0937,0 0.15937,0.0656 0.15937,0.14987 z m -0.009,2.19189 0,0.93671 c 0,0.0843 -0.075,0.14987 -0.15937,0.14987 -0.0844,0 -0.15937,-0.0656 -0.15937,-0.14987 l 0.009,-0.93671 c 0,-0.0937 0.0656,-0.15924 0.15937,-0.15924 0.0844,0 0.14999,0.0749 0.14999,0.15924 z m -0.009,2.18252 0,0.93671 c 0,0.0843 -0.075,0.15924 -0.15937,0.15924 -0.0844,0 -0.15,-0.0749 -0.15,-0.15924 l 0,-0.93671 c 0,-0.0843 0.0656,-0.15924 0.15937,-0.15924 0.0844,0 0.15,0.0749 0.15,0.15924 z m -0.009,2.18252 0,0.93671 c 0,0.0937 -0.075,0.15924 -0.15937,0.15924 -0.0844,0 -0.14999,-0.0656 -0.14999,-0.15924 l 0,-0.93671 c 0,-0.0843 0.075,-0.14987 0.15937,-0.14987 0.0844,0 0.14999,0.0656 0.14999,0.14987 z m -0.009,2.19189 0,0.93671 c 0,0.0843 -0.0656,0.14987 -0.15937,0.14987 -0.0844,0 -0.15,-0.0656 -0.15,-0.14987 l 0,-0.93671 c 0,-0.0937 0.075,-0.15924 0.15937,-0.15924 0.0844,0 0.15,0.0749 0.15,0.15924 z m 0,2.18252 -0.009,0.93671 c 0,0.0843 -0.0656,0.15924 -0.15937,0.15924 -0.0844,0 -0.14999,-0.0749 -0.14999,-0.15924 l 0,-0.93671 c 0,-0.0843 0.075,-0.15924 0.15937,-0.15924 0.0844,0 0.15937,0.0749 0.15937,0.15924 z m -0.009,2.18252 -0.009,0.93671 c 0,0.0937 -0.0656,0.15924 -0.15937,0.15924 -0.0844,0 -0.15,-0.0656 -0.15,-0.15924 l 0,-0.93671 c 0,-0.0843 0.075,-0.14987 0.15937,-0.14987 0.0844,0 0.15937,0.0656 0.15937,0.14987 z m -0.009,2.19189 -0.009,0.9367 c 0,0.0843 -0.0656,0.14988 -0.14999,0.14988 -0.0937,0 -0.15937,-0.0656 -0.15937,-0.14988 l 0,-0.9367 c 0,-0.0937 0.075,-0.15924 0.15937,-0.15924 0.0844,0 0.15937,0.0749 0.15937,0.15924 z m -0.009,2.18252 -0.009,0.93671 c 0,0.0843 -0.0656,0.15923 -0.15,0.15923 -0.0937,0 -0.15937,-0.0749 -0.15937,-0.15923 l 0,-0.93671 c 0,-0.0843 0.075,-0.15924 0.15937,-0.15924 0.0844,0 0.15937,0.0749 0.15937,0.15924 z m -0.009,2.18252 -0.009,0.93671 c 0,0.0937 -0.0656,0.15924 -0.14999,0.15924 -0.0844,0 -0.15937,-0.0656 -0.15937,-0.15924 l 0.009,-0.93671 c 0,-0.0843 0.0656,-0.14987 0.15,-0.14987 0.0844,0 0.15937,0.0656 0.15937,0.14987 z m -0.009,2.19189 0,0.9367 c 0,0.0843 -0.075,0.14988 -0.15937,0.14988 -0.0844,0 -0.15937,-0.0656 -0.15937,-0.14988 l 0.009,-0.9367 c 0,-0.0937 0.0656,-0.15924 0.14999,-0.15924 0.0937,0 0.15937,0.0749 0.15937,0.15924 z m -0.009,2.18252 0,0.9367 c 0,0.0843 -0.075,0.15924 -0.15937,0.15924 -0.0844,0 -0.15937,-0.0749 -0.15937,-0.15924 l 0.009,-0.9367 c 0,-0.0843 0.0656,-0.15924 0.15,-0.15924 0.0937,0 0.15937,0.0749 0.15937,0.15924 z m -0.009,2.18252 0,0.9367 c 0,0.0937 -0.075,0.15924 -0.15937,0.15924 -0.0844,0 -0.15936,-0.0656 -0.15936,-0.15924 l 0.009,-0.9367 c 0,-0.0843 0.0656,-0.14987 0.15937,-0.14987 0.0844,0 0.14999,0.0656 0.14999,0.14987 z m -0.009,2.19189 0,0.9367 c 0,0.0843 -0.075,0.14988 -0.15937,0.14988 -0.0844,0 -0.15937,-0.0656 -0.14999,-0.14988 l 0,-0.9367 c 0,-0.0937 0.0656,-0.15924 0.15936,-0.15924 0.0844,0 0.15,0.0749 0.15,0.15924 z m -0.009,2.18252 0,0.9367 c 0,0.0843 -0.075,0.15924 -0.15937,0.15924 -0.0844,0 -0.15,-0.0749 -0.15,-0.15924 l 0,-0.9367 c 0,-0.0843 0.075,-0.15924 0.15937,-0.15924 0.0844,0 0.15,0.0749 0.15,0.15924 z m -0.009,2.18252 0,0.9367 c 0,0.0937 -0.075,0.15924 -0.15937,0.15924 -0.0844,0 -0.14999,-0.0656 -0.14999,-0.15924 l 0,-0.9367 c 0,-0.0843 0.075,-0.14987 0.15937,-0.14987 0.0844,0 0.14999,0.0656 0.14999,0.14987 z m -0.009,2.19189 0,0.9367 c 0,0.0843 -0.0656,0.14987 -0.15937,0.14987 -0.0844,0 -0.15,-0.0656 -0.15,-0.14987 l 0,-0.9367 c 0,-0.0937 0.075,-0.15924 0.15937,-0.15924 0.0844,0 0.15937,0.0749 0.15,0.15924 z m 0,2.18252 -0.009,0.9367 c 0,0.0843 -0.0656,0.15924 -0.15937,0.15924 -0.0844,0 -0.14999,-0.0749 -0.14999,-0.15924 l 0,-0.9367 c 0,-0.0843 0.075,-0.15924 0.15937,-0.15924 0.0844,0 0.15937,0.0749 0.15937,0.15924 z m -0.009,2.18252 -0.009,0.9367 c 0,0.0937 -0.0656,0.15924 -0.15,0.15924 -0.0937,0 -0.15937,-0.0656 -0.15937,-0.15924 l 0,-0.9367 c 0,-0.0843 0.075,-0.14987 0.15937,-0.14987 0.0844,0 0.15937,0.0656 0.15937,0.14987 z m -0.009,2.19189 -0.009,0.9367 c 0,0.0843 -0.0656,0.14987 -0.14999,0.14987 -0.0937,0 -0.15937,-0.0656 -0.15937,-0.14987 l 0,-0.9367 c 0,-0.0937 0.075,-0.15924 0.15937,-0.15924 0.0844,0 0.15937,0.0749 0.15937,0.15924 z m -0.009,2.18252 -0.009,0.9367 c 0,0.0843 -0.0656,0.15924 -0.15,0.15924 -0.0844,0 -0.15937,-0.0749 -0.15937,-0.15924 l 0.009,-0.9367 c 0,-0.0843 0.0656,-0.15924 0.14999,-0.15924 0.0844,0 0.15937,0.0749 0.15937,0.15924 z m -0.009,2.18252 0,0.9367 c 0,0.0937 -0.075,0.15924 -0.15937,0.15924 -0.0844,0 -0.15937,-0.0656 -0.15937,-0.15924 l 0.009,-0.9367 c 0,-0.0843 0.0656,-0.14987 0.15,-0.14987 0.0937,0 0.15937,0.0656 0.15937,0.14987 z m -0.009,2.19189 0,0.9367 c 0,0.0843 -0.075,0.14987 -0.15937,0.14987 -0.0844,0 -0.15937,-0.0656 -0.15937,-0.14987 l 0.009,-0.9367 c 0,-0.0937 0.0656,-0.15924 0.14999,-0.15924 0.0937,0 0.15937,0.0749 0.15937,0.15924 z m -0.009,2.18252 0,0.9367 c 0,0.0843 -0.075,0.15924 -0.15937,0.15924 -0.0844,0 -0.15937,-0.0749 -0.15937,-0.15924 l 0.009,-0.9367 c 0,-0.0843 0.0656,-0.15924 0.15937,-0.15924 0.0844,0 0.15,0.0749 0.15,0.15924 z m -0.009,2.18252 0,0.9367 c 0,0.0937 -0.075,0.15924 -0.15937,0.15924 -0.0844,0 -0.15937,-0.0656 -0.15937,-0.15924 l 0.009,-0.9367 c 0,-0.0843 0.0656,-0.14988 0.15937,-0.14988 0.0844,0 0.14999,0.0656 0.14999,0.14988 z m -0.009,2.19188 0,0.93671 c 0,0.0843 -0.075,0.14987 -0.15937,0.14987 -0.0844,0 -0.15,-0.0656 -0.15,-0.14987 l 0,-0.93671 c 0,-0.0937 0.0656,-0.15923 0.15937,-0.15923 0.0844,0 0.15,0.0749 0.15,0.15923 z m -0.009,2.18253 0,0.9367 c 0,0.0843 -0.075,0.15924 -0.15937,0.15924 -0.0844,0 -0.14999,-0.0749 -0.14999,-0.15924 l 0,-0.9367 c 0,-0.0843 0.075,-0.15924 0.15937,-0.15924 0.0844,0 0.14999,0.0749 0.14999,0.15924 z m -0.009,2.18252 0,0.9367 c 0,0.0937 -0.0656,0.15924 -0.15937,0.15924 -0.0844,0 -0.15,-0.0656 -0.15,-0.15924 l 0,-0.9367 c 0,-0.0843 0.075,-0.14988 0.15937,-0.14988 0.0844,0 0.15,0.0656 0.15,0.14988 z m 0,2.19188 -0.009,0.93671 c 0,0.0843 -0.0656,0.14987 -0.15937,0.14987 -0.0844,0 -0.14999,-0.0656 -0.14999,-0.14987 l 0,-0.93671 c 0,-0.0937 0.075,-0.15924 0.15937,-0.15924 0.0844,0 0.15937,0.0749 0.15937,0.15924 z m -0.009,2.18252 -0.009,0.93671 c 0,0.0843 -0.0656,0.15924 -0.15,0.15924 -0.0937,0 -0.15937,-0.0749 -0.15937,-0.15924 l 0,-0.93671 c 0,-0.0843 0.075,-0.15923 0.15937,-0.15923 0.0844,0 0.15937,0.0749 0.15937,0.15923 z m -0.009,2.18253 -0.009,0.9367 c 0,0.0937 -0.0656,0.15924 -0.14999,0.15924 -0.0937,0 -0.15937,-0.0656 -0.15937,-0.15924 l 0,-0.9367 c 0,-0.0843 0.075,-0.14988 0.15937,-0.14988 0.0844,0 0.15937,0.0656 0.15937,0.14988 z" style="fill:#000;fill-opacity:1;fill-rule:nonzero;stroke:#000;stroke-width:.14999497px;stroke-linecap:butt;stroke-linejoin:bevel;stroke-opacity:1;stroke-dasharray:none"/><path id="path7191" d="m 113.98681,172.41913 104.12463,0.0562 c 0.34687,0 0.61873,0.28101 0.61873,0.62759 0,0.34658 -0.27186,0.62759 -0.61873,0.62759 l -104.12463,-0.0562 c -0.34687,0 -0.62811,-0.28101 -0.62811,-0.62759 0,-0.34658 0.28124,-0.6276 0.62811,-0.6276 z m 1.24683,4.37441 -7.49975,-3.74681 7.50912,-3.74682 z m 101.63097,-7.43743 7.49037,3.74682 -7.49975,3.74682 z" style="fill:#000;fill-opacity:1;fill-rule:nonzero;stroke:#000;stroke-width:.14999497px;stroke-linecap:butt;stroke-linejoin:bevel;stroke-opacity:1;stroke-dasharray:none"/><text id="text7193" style="font-size:13.79953766px;font-style:normal;font-weight:700;text-align:start;text-anchor:start;fill:#000;font-family:Calibri" x="157.645" y="167.108" xml:space="preserve">CB</text><path id="path7197" d="m 111.48376,52.773912 c 0,-7.34376 4.17174,-13.301199 9.31844,-13.301199 l 37.24563,0 c 5.1467,0 9.30906,-5.957438 9.30906,-13.301199 0,7.343761 4.17174,13.301199 9.31844,13.301199 l 37.24563,0 c 5.1467,0 9.30906,5.957439 9.30906,13.301199" clip-path="url(#clipEmfPath7)" style="fill:none;stroke:#000;stroke-width:.93746859px;stroke-linecap:round;stroke-linejoin:round;stroke-opacity:1;stroke-dasharray:none"/><path id="path7199" d="m 223.23002,74.505449 c 0,7.343761 -4.16236,13.301199 -9.30906,13.301199 l -37.24563,0 c -5.1467,0 -9.31844,5.957438 -9.31844,13.301202 0,-7.343764 -4.16236,-13.301202 -9.30906,-13.301202 l -37.24563,0 c -5.1467,0 -9.31844,-5.957438 -9.31844,-13.301199" style="fill:none;stroke:#000;stroke-width:.93746859px;stroke-linecap:round;stroke-linejoin:round;stroke-opacity:1;stroke-dasharray:none"/><text id="text7201" style="font-size:13.79953766px;font-style:normal;font-weight:700;text-align:start;text-anchor:start;fill:#000;font-family:Calibri" x="157.345" y="121.247" xml:space="preserve">PB</text><text id="text7203" style="font-size:8.69970894px;font-style:normal;font-weight:700;text-align:start;text-anchor:start;fill:#000;font-family:Calibri" x="172.494" y="123.195" xml:space="preserve">2</text><text id="text7207" style="font-size:13.79953766px;font-style:normal;font-weight:700;text-align:start;text-anchor:start;fill:#000;font-family:Calibri" x="154.345" y="20.533" xml:space="preserve">PB</text><text id="text7209" style="font-size:8.69970894px;font-style:normal;font-weight:700;text-align:start;text-anchor:start;fill:#000;font-family:Calibri" x="169.494" y="22.481" xml:space="preserve">1</text><path style="fill:none;stroke:#000;stroke-width:2.8;stroke-linecap:butt;stroke-linejoin:miter;stroke-opacity:1;stroke-miterlimit:4;stroke-dasharray:none" id="path21692" d="m 27.76974,45.844755 194.08633,0" transform="translate(0,11.81351)"/><path id="path7199-8" d="m 223.11242,51.586576 c 0,-6.81354 -4.16364,-12.34086 -9.31192,-12.34086 l -37.25707,0 c -5.14828,0 -9.3213,-5.52732 -9.3213,-12.34086 0,6.81354 -4.16364,12.34086 -9.31192,12.34086 l -37.25707,0 c -5.14829,0 -9.32131,5.52732 -9.32131,12.34086" style="fill:none;stroke:#000;stroke-width:.90313101px;stroke-linecap:round;stroke-linejoin:round;stroke-opacity:1;stroke-dasharray:none"/><path id="path4774" d="m 154.06037,50.279728 c 2.38368,-0.769947 4.80135,3.536295 5.40199,9.614098 0.60064,6.070978 -0.84241,11.617308 -3.2223,12.387255 -2.38368,0.769948 -4.80135,-3.536295 -5.40577,-9.614097 -0.60064,-6.070985 0.8424,-11.617316 3.22608,-12.387256" style="fill:none;stroke:#000;stroke-width:.50693631px;stroke-linecap:round;stroke-linejoin:round;stroke-opacity:1;stroke-dasharray:none"/></g></g></svg>