<svg xmlns="http://www.w3.org/2000/svg" xmlns:svg="http://www.w3.org/2000/svg" id="svg4195" width="592.412" height="250.548" version="1.1"><defs id="defs4197"><clipPath id="clipEmfPath1" clipPathUnits="userSpaceOnUse"><rect id="rect4208" width="26.526" height="15.74" x="137.875" y="178.835"/></clipPath><clipPath id="clipEmfPath2" clipPathUnits="userSpaceOnUse"><rect id="rect4211" width="26.526" height="15.74" x="63.692" y="176.586"/></clipPath><clipPath id="clipEmfPath3" clipPathUnits="userSpaceOnUse"><rect id="rect4214" width="26.526" height="15.89" x="76.73" y="54.415"/></clipPath><clipPath id="clipEmfPath4" clipPathUnits="userSpaceOnUse"><rect id="rect4217" width="41.512" height="15.89" x="35.967" y="78.699"/></clipPath><clipPath id="clipEmfPath5" clipPathUnits="userSpaceOnUse"><rect id="rect4220" width="37.466" height="15.89" x="159.455" y="106.881"/></clipPath><clipPath id="clipEmfPath6" clipPathUnits="userSpaceOnUse"><rect id="rect4223" width="33.27" height="15.89" x="223.147" y="59.212"/></clipPath><clipPath id="clipEmfPath7" clipPathUnits="userSpaceOnUse"><rect id="rect4226" width="41.662" height="15.74" x="20.531" y="163.095"/></clipPath><clipPath id="clipEmfPath8" clipPathUnits="userSpaceOnUse"><rect id="rect4229" width="32.82" height="15.74" x="95.164" y="133.864"/></clipPath><clipPath id="clipEmfPath9" clipPathUnits="userSpaceOnUse"><rect id="rect4232" width="32.82" height="15.74" x="210.559" y="159.347"/></clipPath><clipPath id="clipEmfPath10" clipPathUnits="userSpaceOnUse"><rect id="rect4235" width="26.376" height="15.89" x="431.908" y="179.884"/></clipPath><clipPath id="clipEmfPath11" clipPathUnits="userSpaceOnUse"><rect id="rect4238" width="26.526" height="15.89" x="357.725" y="177.636"/></clipPath><clipPath id="clipEmfPath12" clipPathUnits="userSpaceOnUse"><rect id="rect4241" width="26.676" height="15.89" x="370.763" y="55.464"/></clipPath><clipPath id="clipEmfPath13" clipPathUnits="userSpaceOnUse"><rect id="rect4244" width="35.218" height="15.74" x="325.804" y="153.051"/></clipPath><clipPath id="clipEmfPath14" clipPathUnits="userSpaceOnUse"><rect id="rect4247" width="34.768" height="15.89" x="499.946" y="156.649"/></clipPath><clipPath id="clipEmfPath15" clipPathUnits="userSpaceOnUse"><rect id="rect4250" width="39.564" height="16.04" x="334.946" y="68.956"/></clipPath><clipPath id="clipEmfPath16" clipPathUnits="userSpaceOnUse"><rect id="rect4253" width="35.518" height="15.89" x="519.878" y="52.166"/></clipPath><clipPath id="clipEmfPath17" clipPathUnits="userSpaceOnUse"><rect id="rect4256" width="26.526" height="15.89" x="433.706" y="61.91"/></clipPath><clipPath id="clipEmfPath18" clipPathUnits="userSpaceOnUse"><rect id="rect4259" width="26.526" height="16.04" x="385.45" y="235.498"/></clipPath><clipPath id="clipEmfPath19" clipPathUnits="userSpaceOnUse"><rect id="rect4262" width="26.526" height="15.89" x="413.474" y="236.098"/></clipPath><clipPath id="clipEmfPath20" clipPathUnits="userSpaceOnUse"><rect id="rect4265" width="26.526" height="15.89" x="443.897" y="236.098"/></clipPath><clipPath id="clipEmfPath21" clipPathUnits="userSpaceOnUse"><rect id="rect4268" width="26.526" height="15.89" x="570.082" y="234.599"/></clipPath><clipPath id="clipEmfPath22" clipPathUnits="userSpaceOnUse"><rect id="rect4271" width="26.526" height="16.04" x="478.216" y="68.506"/></clipPath></defs><metadata id="metadata4200"/><g id="layer1" transform="translate(-78.794018,-407.0862)"><g id="g4273" transform="translate(78.644154,360.52587)"><text id="text4277" style="font-size:13.78747845px;font-style:normal;font-weight:700;text-align:start;text-anchor:start;fill:#000;font-family:Calibri" x="145.668" y="191.876" xml:space="preserve">E</text><text id="text4279" style="font-size:8.69210529px;font-style:normal;font-weight:700;text-align:start;text-anchor:start;fill:#000;font-family:Calibri" x="152.412" y="193.825" xml:space="preserve">1</text><text id="text4283" style="font-size:13.78747845px;font-style:normal;font-weight:700;text-align:start;text-anchor:start;fill:#000;font-family:Calibri" x="68.488" y="189.628" xml:space="preserve">W</text><text id="text4285" style="font-size:8.69210529px;font-style:normal;font-weight:700;text-align:start;text-anchor:start;fill:#000;font-family:Calibri" x="80.926" y="191.577" xml:space="preserve">1</text><text id="text4289" style="font-size:13.78747845px;font-style:normal;font-weight:700;text-align:start;text-anchor:start;fill:#000;font-family:Calibri" x="81.526" y="67.457" xml:space="preserve">W</text><text id="text4291" style="font-size:8.69210529px;font-style:normal;font-weight:700;text-align:start;text-anchor:start;fill:#000;font-family:Calibri" x="93.965" y="69.405" xml:space="preserve">2</text><text id="text4295" style="font-size:13.78747845px;font-style:normal;font-weight:700;text-align:start;text-anchor:start;fill:#000;font-family:Calibri" x="43.91" y="91.741" xml:space="preserve">Ew</text><text id="text4297" style="font-size:8.69210529px;font-style:normal;font-weight:700;text-align:start;text-anchor:start;fill:#000;font-family:Calibri" x="60.995" y="93.69" xml:space="preserve">21</text><text id="text4301" style="font-size:13.78747845px;font-style:normal;font-weight:700;text-align:start;text-anchor:start;fill:#000;font-family:Calibri" x="165.3" y="119.923" xml:space="preserve">Ew</text><text id="text4303" style="font-size:8.69210529px;font-style:normal;font-weight:700;text-align:start;text-anchor:start;fill:#000;font-family:Calibri" x="182.384" y="121.871" xml:space="preserve">22</text><text id="text4307" style="font-size:13.78747845px;font-style:normal;font-weight:700;text-align:start;text-anchor:start;fill:#000;font-family:Calibri" x="226.894" y="72.253" xml:space="preserve">Ew</text><text id="text4309" style="font-size:8.69210529px;font-style:normal;font-weight:700;text-align:start;text-anchor:start;fill:#000;font-family:Calibri" x="243.978" y="74.202" xml:space="preserve">23</text><text id="text4313" style="font-size:13.78747845px;font-style:normal;font-weight:700;text-align:start;text-anchor:start;fill:#000;font-family:Calibri" x="28.474" y="176.136" xml:space="preserve">Ew</text><text id="text4315" style="font-size:8.69210529px;font-style:normal;font-weight:700;text-align:start;text-anchor:start;fill:#000;font-family:Calibri" x="45.559" y="178.085" xml:space="preserve">11</text><text id="text4319" style="font-size:13.78747845px;font-style:normal;font-weight:700;text-align:start;text-anchor:start;fill:#000;font-family:Calibri" x="98.76" y="146.905" xml:space="preserve">Ew</text><text id="text4321" style="font-size:8.69210529px;font-style:normal;font-weight:700;text-align:start;text-anchor:start;fill:#000;font-family:Calibri" x="115.845" y="148.854" xml:space="preserve">12</text><text id="text4325" style="font-size:13.78747845px;font-style:normal;font-weight:700;text-align:start;text-anchor:start;fill:#000;font-family:Calibri" x="214.155" y="172.389" xml:space="preserve">Ew</text><text id="text4327" style="font-size:8.69210529px;font-style:normal;font-weight:700;text-align:start;text-anchor:start;fill:#000;font-family:Calibri" x="231.24" y="174.338" xml:space="preserve">13</text><path id="path4331" d="m 44.84677,206.43571 45.652288,-74.9517" clip-path="url(#clipEmfPath9)" style="fill:none;stroke:#000;stroke-width:2.80994797px;stroke-linecap:butt;stroke-linejoin:round;stroke-opacity:1;stroke-dasharray:none"/><path id="path4333" d="m 91.623037,130.35974 90.667653,0" style="fill:none;stroke:#000;stroke-width:2.80994797px;stroke-linecap:butt;stroke-linejoin:round;stroke-opacity:1;stroke-dasharray:none"/><path id="path4335" d="m 183.41467,130.35974 44.8936,76.07597" style="fill:none;stroke:#000;stroke-width:2.80994797px;stroke-linecap:butt;stroke-linejoin:round;stroke-opacity:1;stroke-dasharray:none"/><path id="path4337" d="m 43.132702,204.18716 c -1.948231,0 -3.531168,1.57398 -3.531168,3.52273 0,1.95811 1.582937,3.53209 3.531168,3.53209 1.94823,0 3.531167,-1.57398 3.531167,-3.53209 0,-1.94875 -1.582937,-3.52273 -3.531167,-3.52273" style="fill:#fff;fill-opacity:1;fill-rule:evenodd;stroke:none"/><path id="path4339" d="m 43.132702,204.18716 c -1.948231,0 -3.531168,1.57398 -3.531168,3.52273 0,1.95811 1.582937,3.53209 3.531168,3.53209 1.94823,0 3.531167,-1.57398 3.531167,-3.53209 0,-1.94875 -1.582937,-3.52273 -3.531167,-3.52273" style="fill:none;stroke:#000;stroke-width:2.80994797px;stroke-linecap:round;stroke-linejoin:round;stroke-opacity:1;stroke-dasharray:none"/><path id="path4341" d="m 225.47023,199.69005 c -1.94823,0 -3.53117,1.57399 -3.53117,3.52273 0,1.95812 1.58294,3.5321 3.53117,3.5321 1.94823,0 3.5218,-1.57398 3.5218,-3.5321 0,-1.94874 -1.57357,-3.52273 -3.5218,-3.52273" style="fill:#fff;fill-opacity:1;fill-rule:evenodd;stroke:none"/><path id="path4343" d="m 225.47023,199.69005 c -1.94823,0 -3.53117,1.57399 -3.53117,3.52273 0,1.95812 1.58294,3.5321 3.53117,3.5321 1.94823,0 3.5218,-1.57398 3.5218,-3.5321 0,-1.94874 -1.57357,-3.52273 -3.5218,-3.52273" style="fill:none;stroke:#000;stroke-width:2.80994797px;stroke-linecap:round;stroke-linejoin:round;stroke-opacity:1;stroke-dasharray:none"/><path id="path4345" d="m 110.73068,125.91885 117.20293,0" style="fill:none;stroke:#000;stroke-width:2.80994797px;stroke-linecap:butt;stroke-linejoin:round;stroke-opacity:1;stroke-dasharray:none"/><path id="path4347" d="M 229.05759,126.66836 274.76608,52.091428" style="fill:none;stroke:#000;stroke-width:2.80994797px;stroke-linecap:butt;stroke-linejoin:round;stroke-opacity:1;stroke-dasharray:none"/><path id="path4349" d="M 111.10534,125.91885 63.205097,51.71667" style="fill:none;stroke:#000;stroke-width:2.80994797px;stroke-linecap:butt;stroke-linejoin:round;stroke-opacity:1;stroke-dasharray:none"/><path id="path4351" d="m 63.364327,48.718602 c -1.948231,0 -3.531168,1.583354 -3.531168,3.532099 0,1.948744 1.582937,3.532098 3.531168,3.532098 1.948231,0 3.531168,-1.583354 3.531168,-3.532098 0,-1.948745 -1.582937,-3.532099 -3.531168,-3.532099" style="fill:#fff;fill-opacity:1;fill-rule:evenodd;stroke:none"/><path id="path4353" d="m 63.364327,48.718602 c -1.948231,0 -3.531168,1.583354 -3.531168,3.532099 0,1.948744 1.582937,3.532098 3.531168,3.532098 1.948231,0 3.531168,-1.583354 3.531168,-3.532098 0,-1.948745 -1.582937,-3.532099 -3.531168,-3.532099" style="fill:none;stroke:#000;stroke-width:2.80994797px;stroke-linecap:round;stroke-linejoin:round;stroke-opacity:1;stroke-dasharray:none"/><path id="path4355" d="m 276.04929,47.969085 c -1.94823,0 -3.53117,1.583355 -3.53117,3.532099 0,1.948744 1.58294,3.532098 3.53117,3.532098 1.94823,0 3.5218,-1.583354 3.5218,-3.532098 0,-1.948744 -1.57357,-3.532099 -3.5218,-3.532099" style="fill:#fff;fill-opacity:1;fill-rule:evenodd;stroke:none"/><path id="path4357" d="m 276.04929,47.969085 c -1.94823,0 -3.53117,1.583355 -3.53117,3.532099 0,1.948744 1.58294,3.532098 3.53117,3.532098 1.94823,0 3.5218,-1.583354 3.5218,-3.532098 0,-1.948744 -1.57357,-3.532099 -3.5218,-3.532099" style="fill:none;stroke:#000;stroke-width:2.80994797px;stroke-linecap:round;stroke-linejoin:round;stroke-opacity:1;stroke-dasharray:none"/><path id="path4359" d="m 139.20482,53.965221 0,151.346209" style="fill:none;stroke:#000;stroke-width:2.80994797px;stroke-linecap:butt;stroke-linejoin:round;stroke-opacity:1;stroke-dasharray:none"/><path id="path4361" d="m 138.60537,202.31336 c -1.94823,0 -3.5218,1.57399 -3.5218,3.52273 0,1.95812 1.57357,3.5321 3.5218,3.5321 1.95759,0 3.53117,-1.57398 3.53117,-3.5321 0,-1.94874 -1.57358,-3.52273 -3.53117,-3.52273" style="fill:#fff;fill-opacity:1;fill-rule:evenodd;stroke:none"/><path id="path4363" d="m 138.60537,202.31336 c -1.94823,0 -3.5218,1.57399 -3.5218,3.52273 0,1.95812 1.57357,3.5321 3.5218,3.5321 1.95759,0 3.53117,-1.57398 3.53117,-3.5321 0,-1.94874 -1.57358,-3.52273 -3.53117,-3.52273" style="fill:none;stroke:#000;stroke-width:2.80994797px;stroke-linecap:round;stroke-linejoin:round;stroke-opacity:1;stroke-dasharray:none"/><path id="path4365" d="m 138.98003,48.718602 c -1.94823,0 -3.5218,1.583354 -3.5218,3.532099 0,1.948744 1.57357,3.532098 3.5218,3.532098 1.95759,0 3.53117,-1.583354 3.53117,-3.532098 0,-1.948745 -1.57358,-3.532099 -3.53117,-3.532099" style="fill:#fff;fill-opacity:1;fill-rule:evenodd;stroke:none"/><path id="path4367" d="m 138.98003,48.718602 c -1.94823,0 -3.5218,1.583354 -3.5218,3.532099 0,1.948744 1.57357,3.532098 3.5218,3.532098 1.95759,0 3.53117,-1.583354 3.53117,-3.532098 0,-1.948745 -1.57358,-3.532099 -3.53117,-3.532099" style="fill:none;stroke:#000;stroke-width:2.80994797px;stroke-linecap:round;stroke-linejoin:round;stroke-opacity:1;stroke-dasharray:none"/><path id="path4369" d="m 90.648922,127.79264 c -1.948231,0 -3.521802,1.57399 -3.521802,3.50399 0,1.93001 1.573571,3.49462 3.521802,3.49462 1.957597,0 3.531168,-1.56461 3.531168,-3.49462 0,-1.93 -1.573571,-3.50399 -3.531168,-3.50399" style="fill:#fff;fill-opacity:1;fill-rule:evenodd;stroke:none"/><path id="path4371" d="m 90.648922,127.79264 c -1.948231,0 -3.521802,1.57399 -3.521802,3.50399 0,1.93001 1.573571,3.49462 3.521802,3.49462 1.957597,0 3.531168,-1.56461 3.531168,-3.49462 0,-1.93 -1.573571,-3.50399 -3.531168,-3.50399" style="fill:none;stroke:#000;stroke-width:2.80994797px;stroke-linecap:round;stroke-linejoin:round;stroke-opacity:1;stroke-dasharray:none"/><path id="path4373" d="m 113.12851,121.7965 c -1.94823,0 -3.52181,1.58336 -3.52181,3.5321 0,1.94875 1.57358,3.5321 3.52181,3.5321 1.95759,0 3.53116,-1.58335 3.53116,-3.5321 0,-1.94874 -1.57357,-3.5321 -3.53116,-3.5321" style="fill:#fff;fill-opacity:1;fill-rule:evenodd;stroke:none"/><path id="path4375" d="m 113.12851,121.7965 c -1.94823,0 -3.52181,1.58336 -3.52181,3.5321 0,1.94875 1.57358,3.5321 3.52181,3.5321 1.95759,0 3.53116,-1.58335 3.53116,-3.5321 0,-1.94874 -1.57357,-3.5321 -3.53116,-3.5321" style="fill:none;stroke:#000;stroke-width:2.80994797px;stroke-linecap:round;stroke-linejoin:round;stroke-opacity:1;stroke-dasharray:none"/><path id="path4377" d="m 182.44056,127.41788 c -1.94823,0 -3.52181,1.57399 -3.52181,3.50399 0,1.93001 1.57358,3.49463 3.52181,3.49463 1.95759,0 3.53116,-1.56462 3.53116,-3.49463 0,-1.93 -1.57357,-3.50399 -3.53116,-3.50399" style="fill:#fff;fill-opacity:1;fill-rule:evenodd;stroke:none"/><path id="path4379" d="m 182.44056,127.41788 c -1.94823,0 -3.52181,1.57399 -3.52181,3.50399 0,1.93001 1.57358,3.49463 3.52181,3.49463 1.95759,0 3.53116,-1.56462 3.53116,-3.49463 0,-1.93 -1.57357,-3.50399 -3.53116,-3.50399" style="fill:none;stroke:#000;stroke-width:2.80994797px;stroke-linecap:round;stroke-linejoin:round;stroke-opacity:1;stroke-dasharray:none"/><path id="path4381" d="m 227.02506,122.92078 c -1.94823,0 -3.5218,1.57399 -3.5218,3.50399 0,1.93001 1.57357,3.49462 3.5218,3.49462 1.9576,0 3.53117,-1.56461 3.53117,-3.49462 0,-1.93 -1.57357,-3.50399 -3.53117,-3.50399" style="fill:#fff;fill-opacity:1;fill-rule:evenodd;stroke:none"/><path id="path4383" d="m 227.02506,122.92078 c -1.94823,0 -3.5218,1.57399 -3.5218,3.50399 0,1.93001 1.57357,3.49462 3.5218,3.49462 1.9576,0 3.53117,-1.56461 3.53117,-3.49462 0,-1.93 -1.57357,-3.50399 -3.53117,-3.50399" style="fill:none;stroke:#000;stroke-width:2.80994797px;stroke-linecap:round;stroke-linejoin:round;stroke-opacity:1;stroke-dasharray:none"/><path id="path4385" d="m 311.67943,128.1674 0,6.55827 -28.66147,0 0,13.11655 28.66147,0 0,6.55827 9.55382,-13.11654 z" style="fill:#fff;fill-opacity:1;fill-rule:evenodd;stroke:none"/><path id="path4387" d="m 311.67943,128.1674 0,6.55827 -28.66147,0 0,13.11655 28.66147,0 0,6.55827 9.55382,-13.11654 z" style="fill:none;stroke:#000;stroke-width:.93664932px;stroke-linecap:round;stroke-linejoin:round;stroke-opacity:1;stroke-dasharray:none"/><text id="text4389" style="font-size:13.78747845px;font-style:normal;font-weight:700;text-align:start;text-anchor:start;fill:#000;font-family:Calibri" x="437.303" y="192.926" xml:space="preserve">E</text><text id="text4391" style="font-size:8.69210529px;font-style:normal;font-weight:700;text-align:start;text-anchor:start;fill:#000;font-family:Calibri" x="444.047" y="194.874" xml:space="preserve">11</text><text id="text4395" style="font-size:13.78747845px;font-style:normal;font-weight:700;text-align:start;text-anchor:start;fill:#000;font-family:Calibri" x="360.273" y="190.677" xml:space="preserve">W</text><text id="text4397" style="font-size:8.69210529px;font-style:normal;font-weight:700;text-align:start;text-anchor:start;fill:#000;font-family:Calibri" x="372.711" y="192.626" xml:space="preserve">n1</text><text id="text4401" style="font-size:13.78747845px;font-style:normal;font-weight:700;text-align:start;text-anchor:start;fill:#000;font-family:Calibri" x="375.559" y="68.506" xml:space="preserve">W</text><text id="text4403" style="font-size:8.69210529px;font-style:normal;font-weight:700;text-align:start;text-anchor:start;fill:#000;font-family:Calibri" x="387.998" y="70.455" xml:space="preserve">2</text><text id="text4407" style="font-size:13.78747845px;font-style:normal;font-weight:700;text-align:start;text-anchor:start;fill:#000;font-family:Calibri" x="330.45" y="166.093" xml:space="preserve">Ew</text><text id="text4409" style="font-size:8.69210529px;font-style:normal;font-weight:700;text-align:start;text-anchor:start;fill:#000;font-family:Calibri" x="347.534" y="168.042" xml:space="preserve">11</text><text id="text4413" style="font-size:13.78747845px;font-style:normal;font-weight:700;text-align:start;text-anchor:start;fill:#000;font-family:Calibri" x="504.442" y="169.691" xml:space="preserve">Ew</text><text id="text4415" style="font-size:8.69210529px;font-style:normal;font-weight:700;text-align:start;text-anchor:start;fill:#000;font-family:Calibri" x="521.526" y="171.639" xml:space="preserve">13</text><text id="text4419" style="font-size:13.78747845px;font-style:normal;font-weight:700;text-align:start;text-anchor:start;fill:#000;font-family:Calibri" x="341.84" y="81.997" xml:space="preserve">Ew</text><text id="text4421" style="font-size:8.69210529px;font-style:normal;font-weight:700;text-align:start;text-anchor:start;fill:#000;font-family:Calibri" x="358.924" y="83.946" xml:space="preserve">21</text><text id="text4425" style="font-size:13.78747845px;font-style:normal;font-weight:700;text-align:start;text-anchor:start;fill:#000;font-family:Calibri" x="524.673" y="65.208" xml:space="preserve">Ew</text><text id="text4427" style="font-size:8.69210529px;font-style:normal;font-weight:700;text-align:start;text-anchor:start;fill:#000;font-family:Calibri" x="541.758" y="67.157" xml:space="preserve">23</text><text id="text4431" style="font-size:13.78747845px;font-style:normal;font-weight:700;text-align:start;text-anchor:start;fill:#000;font-family:Calibri" x="439.101" y="74.952" xml:space="preserve">E</text><text id="text4433" style="font-size:8.69210529px;font-style:normal;font-weight:700;text-align:start;text-anchor:start;fill:#000;font-family:Calibri" x="445.845" y="76.9" xml:space="preserve">12</text><text id="text4437" style="font-size:13.78747845px;font-style:normal;font-weight:700;text-align:start;text-anchor:start;fill:#000;font-family:Calibri" x="389.496" y="248.54" xml:space="preserve">En</text><text id="text4439" style="font-size:8.69210529px;font-style:normal;font-weight:700;text-align:start;text-anchor:start;fill:#000;font-family:Calibri" x="403.583" y="250.489" xml:space="preserve">1</text><text id="text4443" style="font-size:13.78747845px;font-style:normal;font-weight:700;text-align:start;text-anchor:start;fill:#000;font-family:Calibri" x="417.521" y="249.139" xml:space="preserve">En</text><text id="text4445" style="font-size:8.69210529px;font-style:normal;font-weight:700;text-align:start;text-anchor:start;fill:#000;font-family:Calibri" x="431.608" y="251.088" xml:space="preserve">2</text><text id="text4449" style="font-size:13.78747845px;font-style:normal;font-weight:700;text-align:start;text-anchor:start;fill:#000;font-family:Calibri" x="447.943" y="249.139" xml:space="preserve">En</text><text id="text4451" style="font-size:8.69210529px;font-style:normal;font-weight:700;text-align:start;text-anchor:start;fill:#000;font-family:Calibri" x="462.03" y="251.088" xml:space="preserve">3</text><text id="text4455" style="font-size:13.78747845px;font-style:normal;font-weight:700;text-align:start;text-anchor:start;fill:#000;font-family:Calibri" x="574.129" y="247.64" xml:space="preserve">En</text><text id="text4457" style="font-size:8.69210529px;font-style:normal;font-weight:700;text-align:start;text-anchor:start;fill:#000;font-family:Calibri" x="588.216" y="249.589" xml:space="preserve">4</text><text id="text4461" style="font-size:13.78747845px;font-style:normal;font-weight:700;text-align:start;text-anchor:start;fill:#000;font-family:Calibri" x="481.513" y="81.547" xml:space="preserve">Vn</text><text id="text4463" style="font-size:8.69210529px;font-style:normal;font-weight:700;text-align:start;text-anchor:start;fill:#000;font-family:Calibri" x="496.949" y="83.496" xml:space="preserve">1</text><path id="path4467" d="m 338.89846,207.55998 45.65229,-74.82053" clip-path="url(#clipEmfPath22)" style="fill:none;stroke:#000;stroke-width:2.80994797px;stroke-linecap:butt;stroke-linejoin:round;stroke-opacity:1;stroke-dasharray:none"/><path id="path4469" d="m 477.46636,131.54023 44.88424,76.01975" style="fill:none;stroke:#000;stroke-width:2.80994797px;stroke-linecap:butt;stroke-linejoin:round;stroke-opacity:1;stroke-dasharray:none"/><path id="path4471" d="m 337.11883,205.36765 c -1.94823,0 -3.52181,1.59272 -3.52181,3.54146 0,1.94875 1.57358,3.52273 3.52181,3.52273 1.94823,0 3.5218,-1.57398 3.5218,-3.52273 0,-1.94874 -1.57357,-3.54146 -3.5218,-3.54146" style="fill:#fff;fill-opacity:1;fill-rule:evenodd;stroke:none"/><path id="path4473" d="m 337.11883,205.36765 c -1.94823,0 -3.52181,1.59272 -3.52181,3.54146 0,1.94875 1.57358,3.52273 3.52181,3.52273 1.94823,0 3.5218,-1.57398 3.5218,-3.52273 0,-1.94874 -1.57357,-3.54146 -3.5218,-3.54146" style="fill:none;stroke:#000;stroke-width:2.80994797px;stroke-linecap:round;stroke-linejoin:round;stroke-opacity:1;stroke-dasharray:none"/><path id="path4475" d="m 519.52192,200.81433 c -1.94823,0 -3.54054,1.57399 -3.54054,3.52273 0,1.94874 1.59231,3.54147 3.54054,3.54147 1.94823,0 3.5218,-1.59273 3.5218,-3.54147 0,-1.94874 -1.57357,-3.52273 -3.5218,-3.52273" style="fill:#fff;fill-opacity:1;fill-rule:evenodd;stroke:none"/><path id="path4477" d="m 519.52192,200.81433 c -1.94823,0 -3.54054,1.57399 -3.54054,3.52273 0,1.94874 1.59231,3.54147 3.54054,3.54147 1.94823,0 3.5218,-1.59273 3.5218,-3.54147 0,-1.94874 -1.57357,-3.52273 -3.5218,-3.52273" style="fill:none;stroke:#000;stroke-width:2.80994797px;stroke-linecap:round;stroke-linejoin:round;stroke-opacity:1;stroke-dasharray:none"/><path id="path4479" d="m 385.30007,130.79071 134.80257,0" style="fill:none;stroke:#000;stroke-width:2.80994797px;stroke-linecap:butt;stroke-linejoin:round;stroke-opacity:1;stroke-dasharray:none"/><path id="path4481" d="M 523.17485,127.86759 568.8084,53.15949" style="fill:none;stroke:#000;stroke-width:2.80994797px;stroke-linecap:butt;stroke-linejoin:round;stroke-opacity:1;stroke-dasharray:none"/><path id="path4483" d="M 405.15703,127.11808 357.20059,52.840945" style="fill:none;stroke:#000;stroke-width:2.80994797px;stroke-linecap:butt;stroke-linejoin:round;stroke-opacity:1;stroke-dasharray:none"/><path id="path4485" d="m 357.35045,49.842877 c -1.94823,0 -3.5218,1.592724 -3.5218,3.541468 0,1.948744 1.57357,3.52273 3.5218,3.52273 1.94823,0 3.5218,-1.573986 3.5218,-3.52273 0,-1.948744 -1.57357,-3.541468 -3.5218,-3.541468" style="fill:#fff;fill-opacity:1;fill-rule:evenodd;stroke:none"/><path id="path4487" d="m 357.35045,49.842877 c -1.94823,0 -3.5218,1.592724 -3.5218,3.541468 0,1.948744 1.57357,3.52273 3.5218,3.52273 1.94823,0 3.5218,-1.573986 3.5218,-3.52273 0,-1.948744 -1.57357,-3.541468 -3.5218,-3.541468" style="fill:none;stroke:#000;stroke-width:2.80994797px;stroke-linecap:round;stroke-linejoin:round;stroke-opacity:1;stroke-dasharray:none"/><path id="path4489" d="m 405.73776,125.67526 c -1.94824,0 -3.52181,1.57398 -3.52181,3.52272 0,1.94875 1.57357,3.54147 3.52181,3.54147 1.94823,0 3.54053,-1.59272 3.54053,-3.54147 0,-1.94874 -1.5923,-3.52272 -3.54053,-3.52272" style="fill:#fff;fill-opacity:1;fill-rule:evenodd;stroke:none"/><path id="path4491" d="m 405.73776,125.67526 c -1.94824,0 -3.52181,1.57398 -3.52181,3.52272 0,1.94875 1.57357,3.54147 3.52181,3.54147 1.94823,0 3.54053,-1.59272 3.54053,-3.54147 0,-1.94874 -1.5923,-3.52272 -3.54053,-3.52272" style="fill:none;stroke:#000;stroke-width:2.80994797px;stroke-linecap:round;stroke-linejoin:round;stroke-opacity:1;stroke-dasharray:none"/><path id="path4493" d="m 521.13295,124.04506 c -1.94823,0 -3.5218,1.59272 -3.5218,3.54146 0,1.94875 1.57357,3.52273 3.5218,3.52273 1.94823,0 3.54054,-1.57398 3.54054,-3.52273 0,-1.94874 -1.59231,-3.54146 -3.54054,-3.54146" style="fill:#fff;fill-opacity:1;fill-rule:evenodd;stroke:none"/><path id="path4495" d="m 521.13295,124.04506 c -1.94823,0 -3.5218,1.59272 -3.5218,3.54146 0,1.94875 1.57357,3.52273 3.5218,3.52273 1.94823,0 3.54054,-1.57398 3.54054,-3.52273 0,-1.94874 -1.59231,-3.54146 -3.54054,-3.54146" style="fill:none;stroke:#000;stroke-width:2.80994797px;stroke-linecap:round;stroke-linejoin:round;stroke-opacity:1;stroke-dasharray:none"/><path id="path4497" d="m 570.10098,49.037147 c -1.94823,0 -3.54053,1.573985 -3.54053,3.522729 0,1.948744 1.5923,3.541468 3.54053,3.541468 1.94823,0 3.5218,-1.592724 3.5218,-3.541468 0,-1.948744 -1.57357,-3.522729 -3.5218,-3.522729" style="fill:#fff;fill-opacity:1;fill-rule:evenodd;stroke:none"/><path id="path4499" d="m 570.10098,49.037147 c -1.94823,0 -3.54053,1.573985 -3.54053,3.522729 0,1.948744 1.5923,3.541468 3.54053,3.541468 1.94823,0 3.5218,-1.592724 3.5218,-3.541468 0,-1.948744 -1.57357,-3.522729 -3.5218,-3.522729" style="fill:none;stroke:#000;stroke-width:2.80994797px;stroke-linecap:round;stroke-linejoin:round;stroke-opacity:1;stroke-dasharray:none"/><path id="path4501" d="m 433.25651,55.089496 0,151.346214" style="fill:none;stroke:#000;stroke-width:2.80994797px;stroke-linecap:butt;stroke-linejoin:round;stroke-opacity:1;stroke-dasharray:none"/><path id="path4503" d="m 432.69452,203.43764 c -1.92949,0 -3.50307,1.57398 -3.50307,3.52273 0,1.94874 1.57358,3.54147 3.50307,3.54147 1.9295,0 3.48434,-1.59273 3.48434,-3.54147 0,-1.94875 -1.55484,-3.52273 -3.48434,-3.52273" style="fill:#fff;fill-opacity:1;fill-rule:evenodd;stroke:none"/><path id="path4505" d="m 432.69452,203.43764 c -1.92949,0 -3.50307,1.57398 -3.50307,3.52273 0,1.94874 1.57358,3.54147 3.50307,3.54147 1.9295,0 3.48434,-1.59273 3.48434,-3.54147 0,-1.94875 -1.55484,-3.52273 -3.48434,-3.52273" style="fill:none;stroke:#000;stroke-width:2.80994797px;stroke-linecap:round;stroke-linejoin:round;stroke-opacity:1;stroke-dasharray:none"/><path id="path4507" d="m 433.03172,49.842877 c -1.94823,0 -3.5218,1.592724 -3.5218,3.541468 0,1.948744 1.57357,3.52273 3.5218,3.52273 1.94823,0 3.5218,-1.573986 3.5218,-3.52273 0,-1.948744 -1.57357,-3.541468 -3.5218,-3.541468" style="fill:#fff;fill-opacity:1;fill-rule:evenodd;stroke:none"/><path id="path4509" d="m 433.03172,49.842877 c -1.94823,0 -3.5218,1.592724 -3.5218,3.541468 0,1.948744 1.57357,3.52273 3.5218,3.52273 1.94823,0 3.5218,-1.573986 3.5218,-3.52273 0,-1.948744 -1.57357,-3.541468 -3.5218,-3.541468" style="fill:none;stroke:#000;stroke-width:2.80994797px;stroke-linecap:round;stroke-linejoin:round;stroke-opacity:1;stroke-dasharray:none"/><path id="path4511" d="m 476.43605,127.11808 c -1.94823,0 -3.54054,1.57398 -3.54054,3.52272 0,1.94875 1.59231,3.52273 3.54054,3.52273 1.94823,0 3.5218,-1.57398 3.5218,-3.52273 0,-1.94874 -1.57357,-3.52272 -3.5218,-3.52272" style="fill:#fff;fill-opacity:1;fill-rule:evenodd;stroke:none"/><path id="path4513" d="m 476.43605,127.11808 c -1.94823,0 -3.54054,1.57398 -3.54054,3.52272 0,1.94875 1.59231,3.52273 3.54054,3.52273 1.94823,0 3.5218,-1.57398 3.5218,-3.52273 0,-1.94874 -1.57357,-3.52272 -3.5218,-3.52272" style="fill:none;stroke:#000;stroke-width:2.80994797px;stroke-linecap:round;stroke-linejoin:round;stroke-opacity:1;stroke-dasharray:none"/><path id="path4515" d="m 384.75681,128.91692 c -1.94823,0 -3.5218,1.59272 -3.5218,3.54146 0,1.94875 1.57357,3.52273 3.5218,3.52273 1.94823,0 3.54054,-1.57398 3.54054,-3.52273 0,-1.94874 -1.59231,-3.54146 -3.54054,-3.54146" style="fill:#fff;fill-opacity:1;fill-rule:evenodd;stroke:none"/><path id="path4517" d="m 384.75681,128.91692 c -1.94823,0 -3.5218,1.59272 -3.5218,3.54146 0,1.94875 1.57357,3.52273 3.5218,3.52273 1.94823,0 3.54054,-1.57398 3.54054,-3.52273 0,-1.94874 -1.59231,-3.54146 -3.54054,-3.54146" style="fill:none;stroke:#000;stroke-width:2.80994797px;stroke-linecap:round;stroke-linejoin:round;stroke-opacity:1;stroke-dasharray:none"/><path id="path4519" d="m 395.22855,232.6688 0,-91.87204 c 0,-0.35602 0.28099,-0.63709 0.61819,-0.63709 0.35593,0 0.61819,0.28107 0.61819,0.63709 l 0,91.87204 c 0,0.35602 -0.26226,0.61835 -0.61819,0.61835 -0.3372,0 -0.61819,-0.26233 -0.61819,-0.61835 z m -3.12841,-90.63534 3.7466,-7.49517 3.7466,7.49517 z" style="fill:#000;fill-opacity:1;fill-rule:nonzero;stroke:#000;stroke-width:.1498639px;stroke-linecap:butt;stroke-linejoin:bevel;stroke-opacity:1;stroke-dasharray:none"/><path id="path4521" d="m 420.63048,233.04356 0,-91.87204 c 0,-0.35602 0.28099,-0.63709 0.63692,-0.63709 0.3372,0 0.61819,0.28107 0.61819,0.63709 l 0,91.87204 c 0,0.35602 -0.28099,0.61835 -0.61819,0.61835 -0.35593,0 -0.63692,-0.26233 -0.63692,-0.61835 z m -3.10968,-90.63534 3.7466,-7.49517 3.7466,7.49517 z" style="fill:#000;fill-opacity:1;fill-rule:nonzero;stroke:#000;stroke-width:.1498639px;stroke-linecap:butt;stroke-linejoin:bevel;stroke-opacity:1;stroke-dasharray:none"/><path id="path4523" d="m 456.59781,234.59881 0,-91.92826 c 0,-0.35602 0.281,-0.63709 0.63693,-0.63709 0.33719,0 0.61818,0.28107 0.61818,0.63709 l 0,91.92826 c 0,0.35602 -0.28099,0.63709 -0.61818,0.63709 -0.35593,0 -0.63693,-0.28107 -0.63693,-0.63709 z m -3.10967,-90.69156 3.7466,-7.49516 3.74659,7.49516 z" style="fill:#000;fill-opacity:1;fill-rule:nonzero;stroke:#000;stroke-width:.1498639px;stroke-linecap:butt;stroke-linejoin:bevel;stroke-opacity:1;stroke-dasharray:none"/><path id="path4525" d="m 483.06752,83.721044 -37.3723,35.714486 c -0.24353,0.24359 -0.65566,0.24359 -0.88045,-0.0187 -0.24353,-0.24359 -0.24353,-0.63709 0.0187,-0.88068 l 37.37231,-35.714487 c 0.26226,-0.243593 0.65565,-0.243593 0.89918,0.01874 0.2248,0.243593 0.2248,0.63709 -0.0375,0.880683 z m -34.31883,37.119826 -7.99898,2.45467 2.82868,-7.86993 z" style="fill:#000;fill-opacity:1;fill-rule:nonzero;stroke:#000;stroke-width:.1498639px;stroke-linecap:butt;stroke-linejoin:bevel;stroke-opacity:1;stroke-dasharray:none"/><path id="path4527" d="m 582.50222,232.29404 -71.82227,-93.4835 c -0.20607,-0.26233 -0.14987,-0.65583 0.11239,-0.86194 0.281,-0.22486 0.67439,-0.16865 0.88045,0.11242 l 71.82227,93.4835 c 0.20607,0.26234 0.14987,0.65583 -0.13113,0.88069 -0.26226,0.20611 -0.65565,0.1499 -0.86171,-0.13117 z m -73.52698,-90.57912 -1.61103,-8.22595 7.54939,3.65389 z" style="fill:#000;fill-opacity:1;fill-rule:nonzero;stroke:#000;stroke-width:.1498639px;stroke-linecap:butt;stroke-linejoin:bevel;stroke-opacity:1;stroke-dasharray:none"/><path id="path4529" d="m 433.08792,126.74332 c -1.94823,0 -3.52181,1.57398 -3.52181,3.52273 0,1.94874 1.57358,3.52273 3.52181,3.52273 1.94823,0 3.54053,-1.57399 3.54053,-3.52273 0,-1.94875 -1.5923,-3.52273 -3.54053,-3.52273" style="fill:#fff;fill-opacity:1;fill-rule:evenodd;stroke:none"/><path id="path4531" d="m 433.08792,126.74332 c -1.94823,0 -3.52181,1.57398 -3.52181,3.52273 0,1.94874 1.57358,3.52273 3.52181,3.52273 1.94823,0 3.54053,-1.57399 3.54053,-3.52273 0,-1.94875 -1.5923,-3.52273 -3.54053,-3.52273" style="fill:none;stroke:#000;stroke-width:2.80994797px;stroke-linecap:round;stroke-linejoin:round;stroke-opacity:1;stroke-dasharray:none"/></g><path style="fill:none;stroke:#000;stroke-width:3;stroke-linecap:butt;stroke-linejoin:miter;stroke-opacity:1;stroke-miterlimit:4;stroke-dasharray:none" id="path4711" d="M 87.434296,87.278022 44.609335,156.86858" transform="translate(78.794018,407.0862)"/><path style="fill:none;stroke:#000;stroke-width:3;stroke-linecap:butt;stroke-linejoin:miter;stroke-miterlimit:4;stroke-opacity:1;stroke-dasharray:none" id="path4711-4" d="m 460.64992,497.04078 -42.82496,69.59056"/></g></svg>