<svg xmlns="http://www.w3.org/2000/svg" xmlns:svg="http://www.w3.org/2000/svg" id="svg7281" width="265.071" height="178.038" version="1.1"><defs id="defs7283"><clipPath id="clipEmfPath1" clipPathUnits="userSpaceOnUse"><rect id="rect7294" width="20.548" height="15.715" x="0" y="26.595"/></clipPath><clipPath id="clipEmfPath2" clipPathUnits="userSpaceOnUse"><rect id="rect7297" width="20.548" height="15.715" x="145.635" y="9.822"/></clipPath><clipPath id="clipEmfPath3" clipPathUnits="userSpaceOnUse"><rect id="rect7300" width="14.249" height="15.715" x="196.93" y="87.795"/></clipPath><clipPath id="clipEmfPath4" clipPathUnits="userSpaceOnUse"><rect id="rect7303" width="14.249" height="15.564" x="75.742" y="69.057"/></clipPath><clipPath id="clipEmfPath5" clipPathUnits="userSpaceOnUse"><rect id="rect7306" width="14.249" height="15.715" x="34.196" y="51.528"/></clipPath><clipPath id="clipEmfPath6" clipPathUnits="userSpaceOnUse"><rect id="rect7309" width="22.048" height="15.715" x="139.486" y="134.185"/></clipPath><clipPath id="clipEmfPath7" clipPathUnits="userSpaceOnUse"><rect id="rect7312" width="13.799" height="15.715" x="73.492" y="29.92"/></clipPath><clipPath id="clipEmfPath8" clipPathUnits="userSpaceOnUse"><rect id="rect7315" width="20.548" height="15.715" x="218.228" y="53.795"/></clipPath></defs><metadata id="metadata7286"/><g id="layer1" transform="translate(26.816778,-334.77301)"><g id="g7317" transform="translate(-26.965005,334.80426)"><path id="path7321" d="m 26.734764,43.878484 c -1.949801,0 -3.534013,1.586652 -3.534013,3.551078 0,1.973871 1.584212,3.560523 3.534013,3.560523 1.9498,0 3.524639,-1.586652 3.524639,-3.560523 0,-1.964426 -1.574839,-3.551078 -3.524639,-3.551078" clip-path="url(#clipEmfPath0)" style="fill:#fff;fill-opacity:1;fill-rule:evenodd;stroke:none"/><path id="path7323" d="m 26.734764,43.878484 c -1.949801,0 -3.534013,1.586652 -3.534013,3.551078 0,1.973871 1.584212,3.560523 3.534013,3.560523 1.9498,0 3.524639,-1.586652 3.524639,-3.560523 0,-1.964426 -1.574839,-3.551078 -3.524639,-3.551078" style="fill:none;stroke:#000;stroke-width:2.062289px;stroke-linecap:round;stroke-linejoin:round;stroke-opacity:1;stroke-dasharray:none"/><path id="path7325" d="M 29.200137,48.034001 258.67665,48.222888" style="fill:none;stroke:#000;stroke-width:2.81221223px;stroke-linecap:butt;stroke-linejoin:round;stroke-opacity:1;stroke-dasharray:none"/><path id="path7327" d="m 260.6452,44.067371 c -1.9498,0 -3.53401,1.586652 -3.53401,3.551078 0,1.973871 1.58421,3.560523 3.53401,3.560523 1.9498,0 3.53401,-1.586652 3.53401,-3.560523 0,-1.964426 -1.58421,-3.551078 -3.53401,-3.551078" style="fill:#fff;fill-opacity:1;fill-rule:evenodd;stroke:none"/><path id="path7329" d="m 260.6452,44.067371 c -1.9498,0 -3.53401,1.586652 -3.53401,3.551078 0,1.973871 1.58421,3.560523 3.53401,3.560523 1.9498,0 3.53401,-1.586652 3.53401,-3.560523 0,-1.964426 -1.58421,-3.551078 -3.53401,-3.551078" style="fill:none;stroke:#000;stroke-width:2.062289px;stroke-linecap:round;stroke-linejoin:round;stroke-opacity:1;stroke-dasharray:none"/><text id="text7331" style="font-size:13.7985878px;font-style:normal;font-weight:700;text-align:start;text-anchor:start;fill:#000;font-family:Calibri" x="0" y="39.742" xml:space="preserve">V</text><text id="text7333" style="font-size:8.69911003px;font-style:normal;font-weight:700;text-align:start;text-anchor:start;fill:#000;font-family:Calibri" x="8.099" y="41.706" xml:space="preserve">1</text><text id="text7335" style="font-size:8.69911003px;font-style:normal;font-weight:700;text-align:start;text-anchor:start;fill:#000;font-family:Calibri" x="12.449" y="41.706" xml:space="preserve">1</text><text id="text7339" style="font-size:13.7985878px;font-style:normal;font-weight:700;text-align:start;text-anchor:start;fill:#000;font-family:Calibri" x="145.635" y="22.969" xml:space="preserve">PB</text><text id="text7343" style="font-size:13.7985878px;font-style:normal;font-weight:700;text-align:start;text-anchor:start;fill:#000;font-family:Calibri" x="196.93" y="100.941" xml:space="preserve">F</text><text id="text7345" style="font-size:8.69911003px;font-style:normal;font-weight:700;text-align:start;text-anchor:start;fill:#000;font-family:Calibri" x="203.229" y="102.906" xml:space="preserve">2</text><path id="path7349" d="m 105.12987,18.945381 -41.433264,66.110501 124.299774,0 41.43326,-66.110501 z" clip-path="url(#clipEmfPath3)" style="fill:none;stroke:#000;stroke-width:.93740404px;stroke-linecap:round;stroke-linejoin:round;stroke-opacity:1;stroke-dasharray:none"/><path id="path7351" d="m 89.193996,0.43444043 0,107.66566957 125.546524,0 0,-107.66566957 z" style="fill:none;stroke:#000;stroke-width:.93740404px;stroke-linecap:round;stroke-linejoin:miter;stroke-miterlimit:4;stroke-opacity:1;stroke-dasharray:none"/><path id="path7353" d="m 88.978393,44.634032 c -1.9498,0 -3.534013,1.586653 -3.534013,3.551079 0,1.97387 1.584213,3.560523 3.534013,3.560523 1.949801,0 3.52464,-1.586653 3.52464,-3.560523 0,-1.964426 -1.574839,-3.551079 -3.52464,-3.551079" style="fill:#fff;fill-opacity:1;fill-rule:evenodd;stroke:none"/><path id="path7355" d="m 88.978393,44.634032 c -1.9498,0 -3.534013,1.586653 -3.534013,3.551079 0,1.97387 1.584213,3.560523 3.534013,3.560523 1.949801,0 3.52464,-1.586653 3.52464,-3.560523 0,-1.964426 -1.574839,-3.551079 -3.52464,-3.551079" style="fill:none;stroke:#000;stroke-width:2.062289px;stroke-linecap:round;stroke-linejoin:round;stroke-opacity:1;stroke-dasharray:none"/><path id="path7357" d="m 213.84061,44.256258 c -1.9498,0 -3.53401,1.586652 -3.53401,3.551079 0,1.97387 1.58421,3.560522 3.53401,3.560522 1.9498,0 3.52464,-1.586652 3.52464,-3.560522 0,-1.964427 -1.57484,-3.551079 -3.52464,-3.551079" style="fill:#fff;fill-opacity:1;fill-rule:evenodd;stroke:none"/><path id="path7359" d="m 213.84061,44.256258 c -1.9498,0 -3.53401,1.586652 -3.53401,3.551079 0,1.97387 1.58421,3.560522 3.53401,3.560522 1.9498,0 3.52464,-1.586652 3.52464,-3.560522 0,-1.964427 -1.57484,-3.551079 -3.52464,-3.551079" style="fill:none;stroke:#000;stroke-width:2.062289px;stroke-linecap:round;stroke-linejoin:round;stroke-opacity:1;stroke-dasharray:none"/><text id="text7361" style="font-size:13.7985878px;font-style:normal;font-weight:700;text-align:start;text-anchor:start;fill:#000;font-family:Calibri" x="75.742" y="82.204" xml:space="preserve">F</text><text id="text7363" style="font-size:8.69911003px;font-style:normal;font-weight:700;text-align:start;text-anchor:start;fill:#000;font-family:Calibri" x="82.042" y="84.168" xml:space="preserve">3</text><text id="text7367" style="font-size:13.7985878px;font-style:normal;font-weight:700;text-align:start;text-anchor:start;fill:#000;font-family:Calibri" x="34.196" y="64.675" xml:space="preserve">E</text><text id="text7369" style="font-size:8.69911003px;font-style:normal;font-weight:700;text-align:start;text-anchor:start;fill:#000;font-family:Calibri" x="40.946" y="66.639" xml:space="preserve">1</text><path id="path7373" d="m 88.978393,70.700459 0,0.944435 c 0,0.085 -0.07499,0.15111 -0.159358,0.15111 -0.08437,0 -0.149985,-0.06611 -0.149985,-0.15111 l -0.0094,-0.944435 c 0,-0.085 0.07499,-0.160555 0.159359,-0.160555 0.08437,0 0.159358,0.07555 0.159358,0.160555 z m 0,2.200535 0,0.944436 c 0,0.085 -0.06562,0.160554 -0.159358,0.160554 -0.08437,0 -0.149985,-0.07555 -0.149985,-0.160554 l 0,-0.944436 c 0,-0.085 0.06562,-0.160554 0.149985,-0.160554 0.08437,0 0.159358,0.07555 0.159358,0.160554 z m 0,2.200535 0,0.944436 c 0,0.09444 -0.06562,0.160554 -0.149984,0.160554 -0.09374,0 -0.159359,-0.06611 -0.159359,-0.160554 l 0,-0.944436 c 0,-0.085 0.06562,-0.15111 0.149985,-0.15111 0.09374,0 0.159358,0.06611 0.159358,0.15111 z m 0,2.20998 0,0.944435 c 0,0.085 -0.06562,0.15111 -0.149984,0.15111 -0.09374,0 -0.159359,-0.06611 -0.159359,-0.15111 l 0,-0.944435 c 0,-0.085 0.06562,-0.160554 0.159359,-0.160554 0.08437,0 0.149984,0.07555 0.149984,0.160554 z m 0,2.200535 0,0.944436 c 0,0.085 -0.06562,0.160554 -0.149984,0.160554 -0.08437,0 -0.159359,-0.07556 -0.159359,-0.160554 l 0,-0.944436 c 0,-0.085 0.07499,-0.160554 0.159359,-0.160554 0.08437,0 0.149984,0.07556 0.149984,0.160554 z m 0.0094,2.200535 0,0.944436 c 0,0.09444 -0.07499,0.160554 -0.159359,0.160554 -0.08437,0 -0.159359,-0.06611 -0.159359,-0.160554 l 0,-0.944436 c 0,-0.085 0.07499,-0.15111 0.159359,-0.15111 0.08437,0 0.159359,0.06611 0.159359,0.15111 z m 0,2.20998 0,0.944435 c 0,0.085 -0.07499,0.15111 -0.159359,0.15111 -0.08437,0 -0.159359,-0.06611 -0.159359,-0.15111 l 0,-0.944435 c 0,-0.085 0.07499,-0.160554 0.159359,-0.160554 0.08437,0 0.159359,0.07555 0.159359,0.160554 z m 0,2.200535 0,0.944436 c 0,0.085 -0.06562,0.160554 -0.159359,0.160554 -0.08437,0 -0.149985,-0.07555 -0.149985,-0.160554 l 0,-0.944436 c 0,-0.085 0.06562,-0.160554 0.149985,-0.160554 0.08437,0 0.159359,0.07555 0.159359,0.160554 z m 0,2.200535 0,0.944436 c 0,0.09444 -0.06562,0.160554 -0.159359,0.160554 -0.08437,0 -0.149985,-0.06611 -0.149985,-0.160554 l 0,-0.944436 c 0,-0.085 0.06562,-0.151109 0.149985,-0.151109 0.09374,0 0.159359,0.06611 0.159359,0.151109 z m 0,2.20998 0,0.944436 c 0,0.085 -0.06562,0.151109 -0.149985,0.151109 -0.09374,0 -0.159359,-0.06611 -0.159359,-0.151109 l 0,-0.944436 c 0,-0.085 0.06562,-0.160554 0.159359,-0.160554 0.08437,0 0.149985,0.07556 0.149985,0.160554 z m 0,2.200535 0,0.944436 c 0,0.085 -0.06562,0.160554 -0.149985,0.160554 -0.08437,0 -0.159359,-0.07556 -0.159359,-0.160554 l 0,-0.944436 c 0,-0.085 0.06562,-0.160554 0.159359,-0.160554 0.08437,0 0.149985,0.07556 0.149985,0.160554 z m 0.0094,2.200535 0,0.944436 c 0,0.09444 -0.07499,0.160554 -0.159359,0.160554 -0.08437,0 -0.159359,-0.06611 -0.159359,-0.160554 l 0,-0.944436 c 0,-0.085 0.07499,-0.151109 0.159359,-0.151109 0.08437,0 0.159359,0.06611 0.159359,0.151109 z m 0,2.20998 0,0.944436 c 0,0.085 -0.07499,0.151109 -0.159359,0.151109 -0.08437,0 -0.159359,-0.06611 -0.159359,-0.151109 l 0,-0.944436 c 0,-0.085 0.07499,-0.160554 0.159359,-0.160554 0.08437,0 0.159359,0.07555 0.159359,0.160554 z m 0,2.200535 0,0.944436 c 0,0.085 -0.07499,0.16055 -0.159359,0.16055 -0.08437,0 -0.149985,-0.0756 -0.149985,-0.16055 l -0.0094,-0.944436 c 0,-0.085 0.07499,-0.160554 0.159359,-0.160554 0.08437,0 0.159359,0.07555 0.159359,0.160554 z m 0,2.200536 0,0.94444 c 0,0.0944 -0.06562,0.16055 -0.159359,0.16055 -0.08437,0 -0.149985,-0.0661 -0.149985,-0.16055 l 0,-0.94444 c 0,-0.085 0.06562,-0.15111 0.149985,-0.15111 0.09374,0 0.159359,0.0661 0.159359,0.15111 z m 0,2.20998 0,0.94443 c 0,0.085 -0.06562,0.15111 -0.149985,0.15111 -0.09374,0 -0.159359,-0.0661 -0.159359,-0.15111 l 0,-0.94443 c 0,-0.085 0.06562,-0.16056 0.149985,-0.16056 0.09374,0 0.159359,0.0756 0.159359,0.16056 z m 0,2.20053 0,0.94444 c 0,0.085 -0.06562,0.16055 -0.149985,0.16055 -0.09374,0 -0.159359,-0.0755 -0.159359,-0.16055 l 0,-0.94444 c 0,-0.085 0.06562,-0.16055 0.159359,-0.16055 0.08437,0 0.149985,0.0756 0.149985,0.16055 z m 0,2.20054 0.0094,0.94444 c 0,0.0944 -0.07499,0.16055 -0.159359,0.16055 -0.08437,0 -0.159359,-0.0661 -0.159359,-0.16055 l 0,-0.94444 c 0,-0.085 0.07499,-0.15111 0.159359,-0.15111 0.08437,0 0.149985,0.0661 0.149985,0.15111 z m 0.0094,2.20998 0,0.94443 c 0,0.085 -0.07499,0.15111 -0.159359,0.15111 -0.08437,0 -0.159359,-0.0661 -0.159359,-0.15111 l 0,-0.94443 c 0,-0.085 0.07499,-0.16055 0.159359,-0.16055 0.08437,0 0.159359,0.0756 0.159359,0.16055 z m 0,2.20053 0,0.94444 c 0,0.085 -0.07499,0.16055 -0.159359,0.16055 -0.08437,0 -0.159359,-0.0756 -0.159359,-0.16055 l 0,-0.94444 c 0,-0.085 0.07499,-0.16055 0.159359,-0.16055 0.08437,0 0.159359,0.0756 0.159359,0.16055 z m 0,2.20054 0,0.94444 c 0,0.0944 -0.06562,0.16055 -0.159359,0.16055 -0.08437,0 -0.149985,-0.0661 -0.149985,-0.16055 l 0,-0.94444 c 0,-0.085 0.06562,-0.15111 0.149985,-0.15111 0.08437,0 0.159359,0.0661 0.159359,0.15111 z m 0,2.20998 0,0.94443 c 0,0.085 -0.06562,0.15111 -0.159359,0.15111 -0.08437,0 -0.149985,-0.0661 -0.149985,-0.15111 l 0,-0.94443 c 0,-0.085 0.06562,-0.16055 0.149985,-0.16055 0.09374,0 0.159359,0.0755 0.159359,0.16055 z m 0,2.20053 0,0.94444 c 0,0.085 -0.06562,0.16055 -0.149985,0.16055 -0.09374,0 -0.159359,-0.0756 -0.159359,-0.16055 l 0,-0.94444 c 0,-0.085 0.06562,-0.16055 0.159359,-0.16055 0.08437,0 0.149985,0.0756 0.149985,0.16055 z m 0,2.20054 0,0.94444 c 0,0.0944 -0.06562,0.16055 -0.149985,0.16055 -0.08437,0 -0.159359,-0.0661 -0.159359,-0.16055 l 0,-0.94444 c 0,-0.085 0.06562,-0.15111 0.159359,-0.15111 0.08437,0 0.149985,0.0661 0.149985,0.15111 z m 0.0094,2.20998 0,0.94444 c 0,0.085 -0.07499,0.1511 -0.159359,0.1511 -0.08437,0 -0.159359,-0.0661 -0.159359,-0.1511 l 0,-0.94444 c 0,-0.085 0.07499,-0.16055 0.159359,-0.16055 0.08437,0 0.159359,0.0756 0.159359,0.16055 z m 0,2.20053 0,0.94444 c 0,0.085 -0.07499,0.16055 -0.159359,0.16055 -0.08437,0 -0.159359,-0.0755 -0.159359,-0.16055 l 0,-0.94444 c 0,-0.085 0.07499,-0.16055 0.159359,-0.16055 0.08437,0 0.159359,0.0756 0.159359,0.16055 z m 0,2.20054 0,0.94444 c 0,0.0944 -0.07499,0.16055 -0.159359,0.16055 -0.08437,0 -0.149985,-0.0661 -0.149985,-0.16055 l 0,-0.94444 c 0,-0.085 0.06562,-0.15111 0.149985,-0.15111 0.08437,0 0.159359,0.0661 0.159359,0.15111 z m 0,2.20998 0,0.94444 c 0,0.085 -0.06562,0.1511 -0.159359,0.1511 -0.08437,0 -0.149985,-0.0661 -0.149985,-0.1511 l 0,-0.94444 c 0,-0.085 0.06562,-0.16055 0.149985,-0.16055 0.09374,0 0.159359,0.0756 0.159359,0.16055 z m 0,2.20053 0,0.94444 c 0,0.085 -0.06562,0.16055 -0.149985,0.16055 -0.09374,0 -0.159359,-0.0755 -0.159359,-0.16055 l 0,-0.94444 c 0,-0.085 0.06562,-0.16055 0.149985,-0.16055 0.09374,0 0.159359,0.0756 0.159359,0.16055 z m 0,2.20054 0,0.94444 c 0,0.0944 -0.06562,0.16055 -0.149985,0.16055 -0.08437,0 -0.159359,-0.0661 -0.159359,-0.16055 l 0,-0.94444 c 0,-0.085 0.06562,-0.15111 0.159359,-0.15111 0.08437,0 0.149985,0.0661 0.149985,0.15111 z m 0,2.20998 0.0094,0.94444 c 0,0.085 -0.07499,0.1511 -0.159359,0.1511 -0.08437,0 -0.159359,-0.0661 -0.159359,-0.1511 l 0,-0.94444 c 0,-0.085 0.07499,-0.16055 0.159359,-0.16055 0.08437,0 0.149985,0.0755 0.149985,0.16055 z m 0.0094,2.20053 0,0.94444 c 0,0.085 -0.07499,0.16055 -0.159359,0.16055 -0.08437,0 -0.159359,-0.0755 -0.159359,-0.16055 l 0,-0.94444 c 0,-0.085 0.07499,-0.16055 0.159359,-0.16055 0.08437,0 0.159359,0.0756 0.159359,0.16055 z m 0,2.20054 0,0.94444 c 0,0.0944 -0.07499,0.16055 -0.159359,0.16055 -0.08437,0 -0.149985,-0.0661 -0.149985,-0.16055 l -0.0094,-0.94444 c 0,-0.085 0.07499,-0.15111 0.159359,-0.15111 0.08437,0 0.159359,0.0661 0.159359,0.15111 z m 0,2.20998 0,0.94444 c 0,0.085 -0.06562,0.15111 -0.159359,0.15111 -0.08437,0 -0.149985,-0.0661 -0.149985,-0.15111 l 0,-0.94444 c 0,-0.085 0.06562,-0.16055 0.149985,-0.16055 0.08437,0 0.159359,0.0755 0.159359,0.16055 z m 0,2.20053 0,0.94444 c 0,0.085 -0.06562,0.16055 -0.149985,0.16055 -0.09374,0 -0.159359,-0.0755 -0.159359,-0.16055 l 0,-0.94444 c 0,-0.085 0.06562,-0.16055 0.149985,-0.16055 0.09374,0 0.159359,0.0756 0.159359,0.16055 z m 0,2.20054 0,0.94444 c 0,0.0944 -0.06562,0.16055 -0.149985,0.16055 -0.09374,0 -0.159359,-0.0661 -0.159359,-0.16055 l 0,-0.94444 c 0,-0.085 0.06562,-0.15111 0.159359,-0.15111 0.08437,0 0.149985,0.0661 0.149985,0.15111 z m 0,2.20998 0,0.94444 c 0,0.085 -0.06562,0.15111 -0.149985,0.15111 -0.08437,0 -0.159359,-0.0661 -0.159359,-0.15111 l 0,-0.94444 c 0,-0.085 0.07499,-0.16055 0.159359,-0.16055 0.08437,0 0.149985,0.0755 0.149985,0.16055 z m 0.0094,2.20053 0,0.94444 c 0,0.085 -0.07499,0.16055 -0.159359,0.16055 -0.08437,0 -0.159359,-0.0756 -0.159359,-0.16055 l 0,-0.94444 c 0,-0.085 0.07499,-0.16055 0.159359,-0.16055 0.08437,0 0.159359,0.0756 0.159359,0.16055 z m 0,2.20054 0,0.94444 c 0,0.0944 -0.07499,0.16055 -0.159359,0.16055 -0.08437,0 -0.159359,-0.0661 -0.159359,-0.16055 l 0,-0.94444 c 0,-0.085 0.07499,-0.15111 0.159359,-0.15111 0.08437,0 0.159359,0.0661 0.159359,0.15111 z m 0,2.20998 0,0.94444 c 0,0.085 -0.06562,0.15111 -0.159359,0.15111 -0.08437,0 -0.149985,-0.0661 -0.149985,-0.15111 l 0,-0.94444 c 0,-0.085 0.06562,-0.16055 0.149985,-0.16055 0.08437,0 0.159359,0.0755 0.159359,0.16055 z m 0,2.20054 0,0.94443 c 0,0.085 -0.06562,0.16055 -0.159359,0.16055 -0.08437,0 -0.149985,-0.0756 -0.149985,-0.16055 l 0,-0.94443 c 0,-0.085 0.06562,-0.16056 0.149985,-0.16056 0.09374,0 0.159359,0.0756 0.159359,0.16056 z m 0,2.20053 0,0.94444 c 0,0.0944 -0.06562,0.16055 -0.149985,0.16055 -0.09374,0 -0.159359,-0.0661 -0.159359,-0.16055 l 0,-0.94444 c 0,-0.085 0.06562,-0.15111 0.159359,-0.15111 0.08437,0 0.149985,0.0661 0.149985,0.15111 z m 0,2.20998 0,0.94444 c 0,0.085 -0.06562,0.15111 -0.149985,0.15111 -0.08437,0 -0.159359,-0.0661 -0.159359,-0.15111 l 0,-0.94444 c 0,-0.085 0.06562,-0.16055 0.159359,-0.16055 0.08437,0 0.149985,0.0756 0.149985,0.16055 z" clip-path="url(#clipEmfPath5)" style="fill:#000;fill-opacity:1;fill-rule:nonzero;stroke:#000;stroke-width:.14998464px;stroke-linecap:butt;stroke-linejoin:bevel;stroke-opacity:1;stroke-dasharray:none"/><path id="path7375" d="m 215.34046,67.30049 0,0.944436 c 0,0.085 -0.075,0.151109 -0.15936,0.151109 -0.0844,0 -0.14998,-0.06611 -0.14998,-0.151109 l -0.009,-0.944436 c 0,-0.085 0.075,-0.160554 0.15936,-0.160554 0.0844,0 0.15936,0.07555 0.15936,0.160554 z m 0,2.200535 0,0.944436 c 0,0.085 -0.0656,0.160554 -0.15936,0.160554 -0.0844,0 -0.14998,-0.07555 -0.14998,-0.160554 l 0,-0.944436 c 0,-0.085 0.0656,-0.160554 0.14998,-0.160554 0.0844,0 0.15936,0.07556 0.15936,0.160554 z m 0,2.200535 0,0.944436 c 0,0.09444 -0.0656,0.160554 -0.14998,0.160554 -0.0937,0 -0.15936,-0.06611 -0.15936,-0.160554 l 0,-0.944436 c 0,-0.085 0.0656,-0.151109 0.14998,-0.151109 0.0937,0 0.15936,0.06611 0.15936,0.151109 z m 0,2.20998 0,0.944436 c 0,0.085 -0.0656,0.151109 -0.14998,0.151109 -0.0937,0 -0.15936,-0.06611 -0.15936,-0.151109 l 0,-0.944436 c 0,-0.085 0.0656,-0.160554 0.15936,-0.160554 0.0844,0 0.14998,0.07556 0.14998,0.160554 z m 0,2.200535 0,0.944436 c 0,0.085 -0.0656,0.160554 -0.14998,0.160554 -0.0844,0 -0.15936,-0.07556 -0.15936,-0.160554 l 0,-0.944436 c 0,-0.085 0.075,-0.160554 0.15936,-0.160554 0.0844,0 0.14998,0.07555 0.14998,0.160554 z m 0.009,2.200536 0,0.944435 c 0,0.09444 -0.075,0.160554 -0.15935,0.160554 -0.0844,0 -0.15936,-0.06611 -0.15936,-0.160554 l 0,-0.944435 c 0,-0.085 0.075,-0.15111 0.15936,-0.15111 0.0844,0 0.15935,0.06611 0.15935,0.15111 z m 0,2.209979 0,0.944436 c 0,0.085 -0.075,0.15111 -0.15935,0.15111 -0.0844,0 -0.15936,-0.06611 -0.15936,-0.15111 l 0,-0.944436 c 0,-0.085 0.075,-0.160554 0.15936,-0.160554 0.0844,0 0.15935,0.07555 0.15935,0.160554 z m 0,2.200535 0,0.944436 c 0,0.085 -0.075,0.160554 -0.15935,0.160554 -0.0844,0 -0.14999,-0.07555 -0.14999,-0.160554 l 0,-0.944436 c 0,-0.085 0.0656,-0.160554 0.14999,-0.160554 0.0844,0 0.15935,0.07555 0.15935,0.160554 z m 0,2.200536 0,0.944435 c 0,0.09444 -0.0656,0.160554 -0.15935,0.160554 -0.0844,0 -0.14999,-0.06611 -0.14999,-0.160554 l 0,-0.944435 c 0,-0.085 0.0656,-0.15111 0.14999,-0.15111 0.0937,0 0.15935,0.06611 0.15935,0.15111 z m 0,2.209979 0,0.944436 c 0,0.085 -0.0656,0.15111 -0.14998,0.15111 -0.0937,0 -0.15936,-0.06611 -0.15936,-0.15111 l 0,-0.944436 c 0,-0.085 0.0656,-0.160554 0.15936,-0.160554 0.0844,0 0.14998,0.07556 0.14998,0.160554 z m 0,2.200535 0,0.944436 c 0,0.085 -0.0656,0.160554 -0.14998,0.160554 -0.0844,0 -0.15936,-0.07556 -0.15936,-0.160554 l 0,-0.944436 c 0,-0.085 0.0656,-0.160554 0.15936,-0.160554 0.0844,0 0.14998,0.07556 0.14998,0.160554 z m 0,2.200536 0.009,0.944435 c 0,0.09444 -0.075,0.160555 -0.15936,0.160555 -0.0844,0 -0.15936,-0.06611 -0.15936,-0.160555 l 0,-0.944435 c 0,-0.085 0.075,-0.15111 0.15936,-0.15111 0.0844,0 0.14998,0.06611 0.14998,0.15111 z m 0.009,2.209979 0,0.944436 c 0,0.085 -0.075,0.15111 -0.15936,0.15111 -0.0844,0 -0.15936,-0.06611 -0.15936,-0.15111 l 0,-0.944436 c 0,-0.085 0.075,-0.160554 0.15936,-0.160554 0.0844,0 0.15936,0.07555 0.15936,0.160554 z m 0,2.200536 0,0.944435 c 0,0.085 -0.075,0.160554 -0.15936,0.160554 -0.0844,0 -0.14998,-0.07555 -0.14998,-0.160554 l -0.009,-0.944435 c 0,-0.085 0.075,-0.160555 0.15936,-0.160555 0.0844,0 0.15936,0.07555 0.15936,0.160555 z m 0,2.200535 0,0.944436 c 0,0.09444 -0.0656,0.160554 -0.15936,0.160554 -0.0844,0 -0.14998,-0.06611 -0.14998,-0.160554 l 0,-0.944436 c 0,-0.085 0.0656,-0.15111 0.14998,-0.15111 0.0844,0 0.15936,0.06611 0.15936,0.15111 z m 0,2.209979 0,0.94444 c 0,0.085 -0.0656,0.15111 -0.14999,0.15111 -0.0937,0 -0.15935,-0.0661 -0.15935,-0.15111 l 0,-0.94444 c 0,-0.085 0.0656,-0.16055 0.14998,-0.16055 0.0937,0 0.15936,0.0756 0.15936,0.16055 z m 0,2.20054 0,0.94443 c 0,0.085 -0.0656,0.16056 -0.14999,0.16056 -0.0937,0 -0.15935,-0.0756 -0.15935,-0.16056 l 0,-0.94443 c 0,-0.085 0.0656,-0.16056 0.15935,-0.16056 0.0844,0 0.14999,0.0756 0.14999,0.16056 z m 0,2.20053 0,0.94444 c 0,0.0944 -0.0656,0.16055 -0.14999,0.16055 -0.0844,0 -0.15935,-0.0661 -0.15935,-0.16055 l 0,-0.94444 c 0,-0.085 0.075,-0.15111 0.15935,-0.15111 0.0844,0 0.14999,0.0661 0.14999,0.15111 z m 0.009,2.20998 0,0.94444 c 0,0.085 -0.075,0.15111 -0.15936,0.15111 -0.0844,0 -0.15935,-0.0661 -0.15935,-0.15111 l 0,-0.94444 c 0,-0.085 0.075,-0.16055 0.15935,-0.16055 0.0844,0 0.15936,0.0755 0.15936,0.16055 z m 0,2.20054 0,0.94443 c 0,0.085 -0.075,0.16056 -0.15936,0.16056 -0.0844,0 -0.15935,-0.0756 -0.15935,-0.16056 l 0,-0.94443 c 0,-0.085 0.075,-0.16056 0.15935,-0.16056 0.0844,0 0.15936,0.0756 0.15936,0.16056 z m 0,2.20053 0,0.94444 c 0,0.0944 -0.0656,0.16055 -0.15936,0.16055 -0.0844,0 -0.14998,-0.0661 -0.14998,-0.16055 l 0,-0.94444 c 0,-0.085 0.0656,-0.15111 0.14998,-0.15111 0.0844,0 0.15936,0.0661 0.15936,0.15111 z m 0,2.20998 0,0.94444 c 0,0.085 -0.0656,0.15111 -0.15936,0.15111 -0.0844,0 -0.14998,-0.0661 -0.14998,-0.15111 l 0,-0.94444 c 0,-0.085 0.0656,-0.16055 0.14998,-0.16055 0.0937,0 0.15936,0.0756 0.15936,0.16055 z m 0,2.20054 0,0.94443 c 0,0.085 -0.0656,0.16056 -0.14998,0.16056 -0.0937,0 -0.15936,-0.0756 -0.15936,-0.16056 l 0,-0.94443 c 0,-0.085 0.0656,-0.16056 0.15936,-0.16056 0.0844,0 0.14998,0.0756 0.14998,0.16056 z m 0,2.20053 0,0.94444 c 0,0.0944 -0.0656,0.16055 -0.14998,0.16055 -0.0844,0 -0.15936,-0.0661 -0.15936,-0.16055 l 0,-0.94444 c 0,-0.085 0.0656,-0.15111 0.15936,-0.15111 0.0844,0 0.14998,0.0661 0.14998,0.15111 z m 0.009,2.20998 0,0.94444 c 0,0.085 -0.075,0.15111 -0.15936,0.15111 -0.0844,0 -0.15936,-0.0661 -0.15936,-0.15111 l 0,-0.94444 c 0,-0.085 0.075,-0.16055 0.15936,-0.16055 0.0844,0 0.14998,0.0756 0.15936,0.16055 z m 0,2.20054 0,0.94443 c 0,0.085 -0.075,0.16056 -0.15936,0.16056 -0.0844,0 -0.15936,-0.0756 -0.15936,-0.16056 l 0,-0.94443 c 0,-0.085 0.075,-0.16056 0.15936,-0.16056 0.0844,0 0.15936,0.0756 0.15936,0.16056 z m 0,2.20053 0,0.94444 c 0,0.0944 -0.075,0.16055 -0.15936,0.16055 -0.0844,0 -0.14999,-0.0661 -0.14999,-0.16055 l -0.009,-0.94444 c 0,-0.085 0.075,-0.15111 0.15936,-0.15111 0.0844,0 0.15936,0.0661 0.15936,0.15111 z m 0,2.20998 0,0.94444 c 0,0.085 -0.0656,0.15111 -0.15936,0.15111 -0.0844,0 -0.14999,-0.0661 -0.14999,-0.15111 l 0,-0.94444 c 0,-0.085 0.0656,-0.16055 0.14999,-0.16055 0.0844,0 0.15936,0.0755 0.15936,0.16055 z m 0,2.20054 0,0.94443 c 0,0.085 -0.0656,0.16056 -0.14999,0.16056 -0.0937,0 -0.15936,-0.0756 -0.15936,-0.16056 l 0,-0.94443 c 0,-0.085 0.0656,-0.16056 0.14999,-0.16056 0.0937,0 0.15936,0.0756 0.15936,0.16056 z m 0,2.20053 0,0.94444 c 0,0.0944 -0.0656,0.16055 -0.14999,0.16055 -0.0937,0 -0.15936,-0.0661 -0.15936,-0.16055 l 0,-0.94444 c 0,-0.085 0.0656,-0.15111 0.15936,-0.15111 0.0844,0 0.14999,0.0661 0.14999,0.15111 z m 0,2.20998 0,0.94444 c 0.009,0.085 -0.0656,0.15111 -0.14999,0.15111 -0.0844,0 -0.15936,-0.0661 -0.15936,-0.15111 l 0,-0.94444 c 0,-0.085 0.075,-0.16055 0.15936,-0.16055 0.0844,0 0.14999,0.0755 0.14999,0.16055 z m 0.009,2.20054 0,0.94443 c 0,0.085 -0.075,0.16056 -0.15936,0.16056 -0.0844,0 -0.15936,-0.0756 -0.15936,-0.16056 l 0,-0.94443 c 0,-0.085 0.075,-0.16056 0.15936,-0.16056 0.0844,0 0.15936,0.0756 0.15936,0.16056 z m 0,2.20053 0,0.94444 c 0,0.0944 -0.075,0.16055 -0.15936,0.16055 -0.0844,0 -0.15936,-0.0661 -0.15936,-0.16055 l 0,-0.94444 c 0,-0.085 0.075,-0.15111 0.15936,-0.15111 0.0844,0 0.15936,0.0661 0.15936,0.15111 z m 0,2.20998 0,0.94444 c 0,0.085 -0.0656,0.15111 -0.15936,0.15111 -0.0844,0 -0.14998,-0.0661 -0.14998,-0.15111 l 0,-0.94444 c 0,-0.085 0.0656,-0.16055 0.14998,-0.16055 0.0844,0 0.15936,0.0755 0.15936,0.16055 z m 0,2.20054 0,0.94443 c 0,0.085 -0.0656,0.16056 -0.15936,0.16056 -0.0844,0 -0.14998,-0.0756 -0.14998,-0.16056 l 0,-0.94443 c 0,-0.085 0.0656,-0.16056 0.14998,-0.16056 0.0937,0 0.15936,0.0756 0.15936,0.16056 z m 0,2.20053 0,0.94444 c 0,0.0944 -0.0656,0.16055 -0.14998,0.16055 -0.0937,0 -0.15936,-0.0661 -0.15936,-0.16055 l 0,-0.94444 c 0,-0.085 0.0656,-0.15111 0.15936,-0.15111 0.0844,0 0.14998,0.0661 0.14998,0.15111 z m 0,2.20998 0,0.94444 c 0,0.085 -0.0656,0.15111 -0.14998,0.15111 -0.0844,0 -0.15936,-0.0661 -0.15936,-0.15111 l 0,-0.94444 c 0,-0.085 0.0656,-0.16055 0.15936,-0.16055 0.0844,0 0.14998,0.0755 0.14998,0.16055 z m 0.009,2.20054 0,0.94443 c 0,0.085 -0.075,0.16056 -0.15936,0.16056 -0.0844,0 -0.15936,-0.0756 -0.15936,-0.16056 l 0,-0.94443 c 0,-0.085 0.075,-0.16056 0.15936,-0.16056 0.0844,0 0.15936,0.0756 0.15936,0.16056 z m 0,2.20053 0,0.94444 c 0,0.0944 -0.075,0.16055 -0.15936,0.16055 -0.0844,0 -0.15936,-0.0661 -0.15936,-0.16055 l 0,-0.94444 c 0,-0.085 0.075,-0.15111 0.15936,-0.15111 0.0844,0 0.15936,0.0661 0.15936,0.15111 z m 0,2.20998 0,0.94444 c 0,0.085 -0.075,0.15111 -0.15936,0.15111 -0.0844,0 -0.14999,-0.0661 -0.14999,-0.15111 l -0.009,-0.94444 c 0,-0.085 0.075,-0.16055 0.15936,-0.16055 0.0844,0 0.15936,0.0756 0.15936,0.16055 z m 0,2.20054 0,0.94443 c 0,0.085 -0.0656,0.16056 -0.15936,0.16056 -0.0844,0 -0.14999,-0.0756 -0.14999,-0.16056 l 0,-0.94443 c 0,-0.085 0.0656,-0.16056 0.14999,-0.16056 0.0937,0 0.15936,0.0756 0.15936,0.16056 z m 0,2.20053 0,0.94444 c 0,0.0944 -0.0656,0.16055 -0.14999,0.16055 -0.0937,0 -0.15936,-0.0661 -0.15936,-0.16055 l 0,-0.94444 c 0,-0.085 0.0656,-0.15111 0.14999,-0.15111 0.0937,0 0.15936,0.0661 0.15936,0.15111 z m 0,2.20998 0,0.94444 c 0,0.085 -0.0656,0.15111 -0.14999,0.15111 -0.0844,0 -0.15936,-0.0661 -0.15936,-0.15111 l 0,-0.94444 c 0,-0.085 0.0656,-0.16055 0.15936,-0.16055 0.0844,0 0.14999,0.0756 0.14999,0.16055 z m 0,2.20054 0,0.0661 c 0,0.085 -0.0656,0.15111 -0.14999,0.15111 -0.0844,0 -0.15936,-0.0661 -0.15936,-0.15111 l 0,-0.0661 c 0,-0.085 0.075,-0.16056 0.15936,-0.16056 0.0844,0 0.14999,0.0756 0.14999,0.16056 z" style="fill:#000;fill-opacity:1;fill-rule:nonzero;stroke:#000;stroke-width:.14998464px;stroke-linecap:butt;stroke-linejoin:bevel;stroke-opacity:1;stroke-dasharray:none"/><path id="path7377" d="m 95.07152,153.93358 112.36662,0.0567 c 0.33747,0 0.61869,0.28333 0.61869,0.63277 0,0.34944 -0.28122,0.63277 -0.62806,0.63277 l -112.35725,-0.0567 c -0.34684,0 -0.628061,-0.28333 -0.628061,-0.63277 0,-0.34944 0.281221,-0.63277 0.628061,-0.63277 z m 1.246747,4.41051 -7.499232,-3.77774 7.499232,-3.77774 z m 109.863753,-7.49882 7.49924,3.77775 -7.49924,3.77774 z" style="fill:#000;fill-opacity:1;fill-rule:nonzero;stroke:#000;stroke-width:.14998464px;stroke-linecap:butt;stroke-linejoin:bevel;stroke-opacity:1;stroke-dasharray:none"/><text id="text7379" style="font-size:13.7985878px;font-style:normal;font-weight:700;text-align:start;text-anchor:start;fill:#000;font-family:Calibri" x="139.486" y="147.332" xml:space="preserve">CB</text><text id="text7383" style="font-size:13.7985878px;font-style:normal;font-weight:700;text-align:start;text-anchor:start;fill:#000;font-family:Calibri" x="73.492" y="43.066" xml:space="preserve">V</text><text id="text7385" style="font-size:8.69911003px;font-style:normal;font-weight:700;text-align:start;text-anchor:start;fill:#000;font-family:Calibri" x="81.592" y="45.031" xml:space="preserve">i</text><text id="text7389" style="font-size:13.7985878px;font-style:normal;font-weight:700;text-align:start;text-anchor:start;fill:#000;font-family:Calibri" x="218.228" y="66.942" xml:space="preserve">V</text><text id="text7391" style="font-size:8.69911003px;font-style:normal;font-weight:700;text-align:start;text-anchor:start;fill:#000;font-family:Calibri" x="226.327" y="68.906" xml:space="preserve">j</text><path id="path7395" d="m 211.80645,43.122935 c 0,-4.278294 -4.42455,-7.744373 -9.87087,-7.744373 l -39.5022,0 c -5.44632,0 -9.87087,-3.466079 -9.87087,-7.744373 0,4.278294 -4.42455,7.744373 -9.87086,7.744373 l -39.50221,0 c -5.446319,0 -9.870866,3.466079 -9.870866,7.744373" clip-path="url(#clipEmfPath8)" style="fill:none;stroke:#000;stroke-width:.93740404px;stroke-linecap:round;stroke-linejoin:round;stroke-opacity:1;stroke-dasharray:none"/><path style="fill:none;stroke:#000;stroke-width:.592;stroke-linecap:butt;stroke-linejoin:miter;stroke-miterlimit:4;stroke-opacity:1;stroke-dasharray:1.776,1.776;stroke-dashoffset:0" id="path21911" d="m 88.979978,107.69786 0,54.05507"/></g><path id="path4208" d="m 90.537792,339.56787 -54.622644,80.83706 125.721532,-0.089 54.62264,-80.83707 z" style="fill:none;stroke:#000;stroke-width:.69150722px;stroke-linecap:round;stroke-linejoin:round;stroke-opacity:1;stroke-dasharray:none"/><path style="fill:#fff;fill-rule:evenodd;stroke:#000;stroke-width:1px;stroke-linecap:butt;stroke-linejoin:miter;stroke-opacity:1" id="path21873" d="m 94.501865,47.058914 a 2.8350558,2.8350558 0 1 1 -5.670112,0 2.8350558,2.8350558 0 1 1 5.670112,0 z" transform="translate(-29.840838,335.90703)"/><path style="fill:#fff;fill-rule:evenodd;stroke:#000;stroke-width:1px;stroke-linecap:butt;stroke-linejoin:miter;stroke-opacity:1" id="path21873-6" d="m 94.501865,47.058914 a 2.8350558,2.8350558 0 1 1 -5.670112,0 2.8350558,2.8350558 0 1 1 5.670112,0 z" transform="translate(95.090622,335.34003)"/><path id="path7199" d="m 183.31,379.90509 c 0,-6.13641 -4.43187,-11.11442 -9.91181,-11.11442 l -39.6572,0 c -5.47994,0 -9.9218,-4.97801 -9.9218,-11.11443 0,6.13642 -4.43187,11.11443 -9.9118,11.11443 l -39.657212,0 c -5.479939,0 -9.921791,4.97801 -9.921791,11.11442" style="fill:none;stroke:#000;stroke-width:.8842566px;stroke-linecap:round;stroke-linejoin:round;stroke-opacity:1;stroke-dasharray:none"/></g></svg>