<svg xmlns="http://www.w3.org/2000/svg" xmlns:svg="http://www.w3.org/2000/svg" id="svg5239" width="493.425" height="181.361" version="1.1"><defs id="defs5241"><clipPath id="clipEmfPath1" clipPathUnits="userSpaceOnUse"><rect id="rect5252" width="20.095" height="17.849" x="91.177" y="63.298"/></clipPath><clipPath id="clipEmfPath2" clipPathUnits="userSpaceOnUse"><rect id="rect5255" width="20.245" height="17.849" x="217.445" y="112.646"/></clipPath><clipPath id="clipEmfPath3" clipPathUnits="userSpaceOnUse"><rect id="rect5258" width="20.245" height="17.999" x="469.68" y="148.345"/></clipPath><clipPath id="clipEmfPath4" clipPathUnits="userSpaceOnUse"><rect id="rect5261" width="20.245" height="17.999" x="342.963" y="3.3"/></clipPath><clipPath id="clipEmfPath5" clipPathUnits="userSpaceOnUse"><rect id="rect5264" width="20.095" height="17.999" x="397.399" y="3.3"/></clipPath><clipPath id="clipEmfPath6" clipPathUnits="userSpaceOnUse"><rect id="rect5267" width="20.245" height="17.999" x="394.7" y="95.097"/></clipPath></defs><metadata id="metadata5244"/><g id="layer1" transform="translate(-361.8514,-664.53866)"><g id="g5269" transform="translate(361.40151,656.90633)"><path id="path5273" d="m 130.01692,29.399015 0,14.999497 111.42165,0 0,-14.999497 -111.42165,0 z" style="fill:#fff;fill-opacity:1;fill-rule:evenodd;stroke:none"/><path id="path5275" d="m 130.01692,44.398512 0,9.599679 111.42165,0 0,-9.599679 -111.42165,0 z" style="fill:#fdfdfd;fill-opacity:1;fill-rule:evenodd;stroke:none"/><path id="path5277" d="m 130.01692,53.998191 0,6.749774 111.42165,0 0,-6.749774 -111.42165,0 z" style="fill:#fbfbfb;fill-opacity:1;fill-rule:evenodd;stroke:none"/><path id="path5279" d="m 130.01692,60.747965 0,5.849804 111.42165,0 0,-5.849804 -111.42165,0 z" style="fill:#f9f9f9;fill-opacity:1;fill-rule:evenodd;stroke:none"/><path id="path5281" d="m 130.01692,66.597769 0,4.649844 111.42165,0 0,-4.649844 -111.42165,0 z" style="fill:#f7f7f7;fill-opacity:1;fill-rule:evenodd;stroke:none"/><path id="path5283" d="m 130.01692,71.247613 0,4.649844 111.42165,0 0,-4.649844 -111.42165,0 z" style="fill:#f5f5f5;fill-opacity:1;fill-rule:evenodd;stroke:none"/><path id="path5285" d="m 130.01692,75.897457 0,4.649844 111.42165,0 0,-4.649844 -111.42165,0 z" style="fill:#f3f3f3;fill-opacity:1;fill-rule:evenodd;stroke:none"/><path id="path5287" d="m 130.01692,80.547301 0,3.749875 111.42165,0 0,-3.749875 -111.42165,0 z" style="fill:#f1f1f1;fill-opacity:1;fill-rule:evenodd;stroke:none"/><path id="path5289" d="m 130.01692,84.297176 0,4.649844 111.42165,0 0,-4.649844 -111.42165,0 z" style="fill:#efefef;fill-opacity:1;fill-rule:evenodd;stroke:none"/><path id="path5291" d="m 130.01692,88.94702 0,4.199859 111.42165,0 0,-4.199859 -111.42165,0 z" style="fill:#ededed;fill-opacity:1;fill-rule:evenodd;stroke:none"/><path id="path5293" d="m 130.01692,93.146879 0,4.199859 111.42165,0 0,-4.199859 -111.42165,0 z" style="fill:#ebebeb;fill-opacity:1;fill-rule:evenodd;stroke:none"/><path id="path5295" d="m 130.01692,97.346738 0,4.949832 111.42165,0 0,-4.949832 -111.42165,0 z" style="fill:#e9e9e9;fill-opacity:1;fill-rule:evenodd;stroke:none"/><path id="path5297" d="m 130.01692,102.29657 0,5.54982 111.42165,0 0,-5.54982 -111.42165,0 z" style="fill:#e7e7e7;fill-opacity:1;fill-rule:evenodd;stroke:none"/><path id="path5299" d="m 130.01692,107.84639 0,6.59978 111.42165,0 0,-6.59978 -111.42165,0 z" style="fill:#e5e5e5;fill-opacity:1;fill-rule:evenodd;stroke:none"/><path id="path5301" d="m 130.01692,114.44617 0,9.29968 111.42165,0 0,-9.29968 -111.42165,0 z" style="fill:#e3e3e3;fill-opacity:1;fill-rule:evenodd;stroke:none"/><path id="path5303" d="m 130.01692,123.74585 0,13.34956 111.42165,0 0,-13.34956 -111.42165,0 z" style="fill:#e0e0e0;fill-opacity:1;fill-rule:evenodd;stroke:none"/><path id="path5305" d="m 130.03566,29.436514 0,107.565146 111.34667,0 0,-107.565146 z" style="fill:none;stroke:#000;stroke-width:1.24655783px;stroke-linecap:round;stroke-linejoin:miter;stroke-miterlimit:4;stroke-opacity:1;stroke-dasharray:none"/><path id="path5307" d="m 74.924686,84.878406 107.597624,0" style="fill:none;stroke:#000;stroke-width:1.87452304px;stroke-linecap:butt;stroke-linejoin:round;stroke-opacity:1;stroke-dasharray:none"/><path id="path5309" d="m 184.20938,81.878507 c -1.55585,0 -2.81179,1.256208 -2.81179,2.812405 0,1.546824 1.25594,2.812406 2.81179,2.812406 1.54648,0 2.81178,-1.265582 2.81178,-2.812406 0,-1.556197 -1.2653,-2.812405 -2.81178,-2.812405" style="fill:#fff;fill-opacity:1;fill-rule:evenodd;stroke:none"/><path id="path5311" d="m 184.20938,81.878507 c -1.55585,0 -2.81179,1.256208 -2.81179,2.812405 0,1.546824 1.25594,2.812406 2.81179,2.812406 1.54648,0 2.81178,-1.265582 2.81178,-2.812406 0,-1.556197 -1.2653,-2.812405 -2.81178,-2.812405" style="fill:none;stroke:#000;stroke-width:1.87452304px;stroke-linecap:round;stroke-linejoin:round;stroke-opacity:1;stroke-dasharray:none"/><path id="path5313" d="m 75.487043,81.878507 c -1.555854,0 -2.811785,1.256208 -2.811785,2.812405 0,1.546824 1.255931,2.812406 2.811785,2.812406 1.546481,0 2.811784,-1.265582 2.811784,-2.812406 0,-1.556197 -1.265303,-2.812405 -2.811784,-2.812405" style="fill:#fff;fill-opacity:1;fill-rule:evenodd;stroke:none"/><path id="path5315" d="m 75.487043,81.878507 c -1.555854,0 -2.811785,1.256208 -2.811785,2.812405 0,1.546824 1.255931,2.812406 2.811785,2.812406 1.546481,0 2.811784,-1.265582 2.811784,-2.812406 0,-1.556197 -1.265303,-2.812405 -2.811784,-2.812405" style="fill:none;stroke:#000;stroke-width:1.87452304px;stroke-linecap:round;stroke-linejoin:round;stroke-opacity:1;stroke-dasharray:none"/><text id="text5317" style="font-size:13.79648972px;font-style:normal;font-weight:700;text-align:start;text-anchor:start;fill:#000;font-family:Calibri" x="91.177" y="76.347" xml:space="preserve">E</text><text id="text5319" style="font-size:8.69778728px;font-style:normal;font-weight:700;text-align:start;text-anchor:start;fill:#000;font-family:Calibri" x="97.925" y="78.297" xml:space="preserve">1</text><text id="text5323" style="font-size:13.79648972px;font-style:normal;font-weight:700;text-align:start;text-anchor:start;fill:#000;font-family:Calibri" x="217.445" y="125.696" xml:space="preserve">F</text><text id="text5325" style="font-size:8.69778728px;font-style:normal;font-weight:700;text-align:start;text-anchor:start;fill:#000;font-family:Calibri" x="223.743" y="127.646" xml:space="preserve">2</text><path id="path5329" d="m 327.55416,26.886599 107.59762,0" clip-path="url(#clipEmfPath2)" style="fill:none;stroke:#000;stroke-width:1.87452304px;stroke-linecap:butt;stroke-linejoin:round;stroke-opacity:1;stroke-dasharray:none"/><path id="path5331" d="m 436.83885,23.8867 c -1.55585,0 -2.81178,1.256208 -2.81178,2.812405 0,1.556198 1.25593,2.812406 2.81178,2.812406 1.55585,0 2.81178,-1.256208 2.81178,-2.812406 0,-1.556197 -1.25593,-2.812405 -2.81178,-2.812405" style="fill:#fff;fill-opacity:1;fill-rule:evenodd;stroke:none"/><path id="path5333" d="m 436.83885,23.8867 c -1.55585,0 -2.81178,1.256208 -2.81178,2.812405 0,1.556198 1.25593,2.812406 2.81178,2.812406 1.55585,0 2.81178,-1.256208 2.81178,-2.812406 0,-1.556197 -1.25593,-2.812405 -2.81178,-2.812405" style="fill:none;stroke:#000;stroke-width:1.87452304px;stroke-linecap:round;stroke-linejoin:round;stroke-opacity:1;stroke-dasharray:none"/><path id="path5335" d="m 328.11651,23.8867 c -1.55585,0 -2.81178,1.256208 -2.81178,2.812405 0,1.556198 1.25593,2.812406 2.81178,2.812406 1.55586,0 2.81179,-1.256208 2.81179,-2.812406 0,-1.556197 -1.25593,-2.812405 -2.81179,-2.812405" style="fill:#fff;fill-opacity:1;fill-rule:evenodd;stroke:none"/><path id="path5337" d="m 328.11651,23.8867 c -1.55585,0 -2.81178,1.256208 -2.81178,2.812405 0,1.556198 1.25593,2.812406 2.81178,2.812406 1.55586,0 2.81179,-1.256208 2.81179,-2.812406 0,-1.556197 -1.25593,-2.812405 -2.81179,-2.812405" style="fill:none;stroke:#000;stroke-width:1.87452304px;stroke-linecap:round;stroke-linejoin:round;stroke-opacity:1;stroke-dasharray:none"/><path id="path5339" d="m 382.10278,23.8867 c -1.55586,0 -2.81179,1.256208 -2.81179,2.812405 0,1.556198 1.25593,2.812406 2.81179,2.812406 1.55585,0 2.81178,-1.256208 2.81178,-2.812406 0,-1.556197 -1.25593,-2.812405 -2.81178,-2.812405" style="fill:#fff;fill-opacity:1;fill-rule:evenodd;stroke:none"/><path id="path5341" d="m 382.10278,23.8867 c -1.55586,0 -2.81179,1.256208 -2.81179,2.812405 0,1.556198 1.25593,2.812406 2.81179,2.812406 1.55585,0 2.81178,-1.256208 2.81178,-2.812406 0,-1.556197 -1.25593,-2.812405 -2.81178,-2.812405" style="fill:none;stroke:#000;stroke-width:1.87452304px;stroke-linecap:round;stroke-linejoin:round;stroke-opacity:1;stroke-dasharray:none"/><path id="path5343" d="m 381.80285,65.097819 0,14.999497 111.42165,0 0,-14.999497 -111.42165,0 z" style="fill:#fff;fill-opacity:1;fill-rule:evenodd;stroke:none"/><path id="path5345" d="m 381.80285,80.097316 0,9.599679 111.42165,0 0,-9.599679 -111.42165,0 z" style="fill:#fdfdfd;fill-opacity:1;fill-rule:evenodd;stroke:none"/><path id="path5347" d="m 381.80285,89.696995 0,6.749774 111.42165,0 0,-6.749774 -111.42165,0 z" style="fill:#fbfbfb;fill-opacity:1;fill-rule:evenodd;stroke:none"/><path id="path5349" d="m 381.80285,96.446769 0,5.849801 111.42165,0 0,-5.849801 -111.42165,0 z" style="fill:#f9f9f9;fill-opacity:1;fill-rule:evenodd;stroke:none"/><path id="path5351" d="m 381.80285,102.29657 0,4.64985 111.42165,0 0,-4.64985 -111.42165,0 z" style="fill:#f7f7f7;fill-opacity:1;fill-rule:evenodd;stroke:none"/><path id="path5353" d="m 381.80285,106.94642 0,4.64984 111.42165,0 0,-4.64984 -111.42165,0 z" style="fill:#f5f5f5;fill-opacity:1;fill-rule:evenodd;stroke:none"/><path id="path5355" d="m 381.80285,111.59626 0,4.64985 111.42165,0 0,-4.64985 -111.42165,0 z" style="fill:#f3f3f3;fill-opacity:1;fill-rule:evenodd;stroke:none"/><path id="path5357" d="m 381.80285,116.24611 0,3.74987 111.42165,0 0,-3.74987 -111.42165,0 z" style="fill:#f1f1f1;fill-opacity:1;fill-rule:evenodd;stroke:none"/><path id="path5359" d="m 381.80285,119.99598 0,4.64984 111.42165,0 0,-4.64984 -111.42165,0 z" style="fill:#efefef;fill-opacity:1;fill-rule:evenodd;stroke:none"/><path id="path5361" d="m 381.80285,124.64582 0,4.19986 111.42165,0 0,-4.19986 -111.42165,0 z" style="fill:#ededed;fill-opacity:1;fill-rule:evenodd;stroke:none"/><path id="path5363" d="m 381.80285,128.84568 0,4.19986 111.42165,0 0,-4.19986 -111.42165,0 z" style="fill:#ebebeb;fill-opacity:1;fill-rule:evenodd;stroke:none"/><path id="path5365" d="m 381.80285,133.04554 0,4.94984 111.42165,0 0,-4.94984 -111.42165,0 z" style="fill:#e9e9e9;fill-opacity:1;fill-rule:evenodd;stroke:none"/><path id="path5367" d="m 381.80285,137.99538 0,5.54981 111.42165,0 0,-5.54981 -111.42165,0 z" style="fill:#e7e7e7;fill-opacity:1;fill-rule:evenodd;stroke:none"/><path id="path5369" d="m 381.80285,143.54519 0,6.59978 111.42165,0 0,-6.59978 -111.42165,0 z" style="fill:#e5e5e5;fill-opacity:1;fill-rule:evenodd;stroke:none"/><path id="path5371" d="m 381.80285,150.14497 0,9.29969 111.42165,0 0,-9.29969 -111.42165,0 z" style="fill:#e3e3e3;fill-opacity:1;fill-rule:evenodd;stroke:none"/><path id="path5373" d="m 381.80285,159.44466 0,13.19956 111.42165,0 0,-13.19956 -111.42165,0 z" style="fill:#e0e0e0;fill-opacity:1;fill-rule:evenodd;stroke:none"/><path id="path5375" d="m 381.91532,65.135318 0,107.546392 111.34667,0 0,-107.546392 z" style="fill:none;stroke:#000;stroke-width:1.25593042px;stroke-linecap:round;stroke-linejoin:miter;stroke-miterlimit:4;stroke-opacity:1;stroke-dasharray:none"/><path id="path5377" d="m 382.29023,120.55846 48.36269,0" style="fill:none;stroke:#000;stroke-width:1.87452304px;stroke-linecap:butt;stroke-linejoin:round;stroke-opacity:1;stroke-dasharray:none"/><path id="path5379" d="m 432.33999,117.55856 c -1.55585,0 -2.81178,1.27496 -2.81178,2.81241 0,1.55619 1.25593,2.8124 2.81178,2.8124 1.55586,0 2.81179,-1.25621 2.81179,-2.8124 0,-1.53745 -1.25593,-2.81241 -2.81179,-2.81241" style="fill:#fff;fill-opacity:1;fill-rule:evenodd;stroke:none"/><path id="path5381" d="m 432.33999,117.55856 c -1.55585,0 -2.81178,1.27496 -2.81178,2.81241 0,1.55619 1.25593,2.8124 2.81178,2.8124 1.55586,0 2.81179,-1.25621 2.81179,-2.8124 0,-1.53745 -1.25593,-2.81241 -2.81179,-2.81241" style="fill:none;stroke:#000;stroke-width:1.87452304px;stroke-linecap:round;stroke-linejoin:round;stroke-opacity:1;stroke-dasharray:none"/><path id="path5383" d="m 381.72787,118.30854 c -1.55585,0 -2.81178,1.27495 -2.81178,2.8124 0,1.5562 1.25593,2.81241 2.81178,2.81241 1.55586,0 2.81179,-1.25621 2.81179,-2.81241 0,-1.53745 -1.25593,-2.8124 -2.81179,-2.8124" style="fill:#fff;fill-opacity:1;fill-rule:evenodd;stroke:none"/><path id="path5385" d="m 381.72787,118.30854 c -1.55585,0 -2.81178,1.27495 -2.81178,2.8124 0,1.5562 1.25593,2.81241 2.81178,2.81241 1.55586,0 2.81179,-1.25621 2.81179,-2.81241 0,-1.53745 -1.25593,-2.8124 -2.81179,-2.8124" style="fill:none;stroke:#000;stroke-width:1.87452304px;stroke-linecap:round;stroke-linejoin:round;stroke-opacity:1;stroke-dasharray:none"/><text id="text5387" style="font-size:13.79648972px;font-style:normal;font-weight:700;text-align:start;text-anchor:start;fill:#000;font-family:Calibri" x="469.68" y="161.395" xml:space="preserve">F</text><text id="text5389" style="font-size:8.69778728px;font-style:normal;font-weight:700;text-align:start;text-anchor:start;fill:#000;font-family:Calibri" x="475.979" y="163.345" xml:space="preserve">21</text><text id="text5393" style="font-size:13.79648972px;font-style:normal;font-weight:700;text-align:start;text-anchor:start;fill:#000;font-family:Calibri" x="342.963" y="16.349" xml:space="preserve">E</text><text id="text5395" style="font-size:8.69778728px;font-style:normal;font-weight:700;text-align:start;text-anchor:start;fill:#000;font-family:Calibri" x="349.711" y="18.299" xml:space="preserve">11</text><text id="text5399" style="font-size:13.79648972px;font-style:normal;font-weight:700;text-align:start;text-anchor:start;fill:#000;font-family:Calibri" x="397.399" y="16.349" xml:space="preserve">E</text><text id="text5401" style="font-size:8.69778728px;font-style:normal;font-weight:700;text-align:start;text-anchor:start;fill:#000;font-family:Calibri" x="404.147" y="18.299" xml:space="preserve">12</text><text id="text5405" style="font-size:13.79648972px;font-style:normal;font-weight:700;text-align:start;text-anchor:start;fill:#000;font-family:Calibri" x="394.7" y="108.146" xml:space="preserve">E</text><text id="text5407" style="font-size:8.69778728px;font-style:normal;font-weight:700;text-align:start;text-anchor:start;fill:#000;font-family:Calibri" x="401.448" y="110.096" xml:space="preserve">12</text><path id="path5411" d="m 305.73471,76.253695 0,5.887303 -26.11211,0 0,11.793355 26.11211,0 0,5.887302 8.69778,-11.793354 z" clip-path="url(#clipEmfPath6)" style="fill:#fff;fill-opacity:1;fill-rule:evenodd;stroke:none"/><path id="path5413" d="m 305.73471,76.253695 0,5.887303 -26.11211,0 0,11.793355 26.11211,0 0,5.887302 8.69778,-11.793354 z" style="fill:none;stroke:#000;stroke-width:.93726152px;stroke-linecap:round;stroke-linejoin:round;stroke-opacity:1;stroke-dasharray:none"/></g><path style="fill:none;stroke:#000;stroke-width:3;stroke-linecap:butt;stroke-linejoin:miter;stroke-opacity:1;stroke-miterlimit:4;stroke-dasharray:none" id="path5504" d="m 691.32464,684.24256 49.26703,-0.7698"/><path style="fill:none;stroke:#000;stroke-width:3.11342335;stroke-linecap:butt;stroke-linejoin:miter;stroke-miterlimit:4;stroke-opacity:1;stroke-dasharray:none" id="path5506" d="m 744.55622,683.47276 50.57549,0"/></g></svg>