<svg xmlns="http://www.w3.org/2000/svg" xmlns:svg="http://www.w3.org/2000/svg" id="svg7010" width="488.319" height="212.626" version="1.1"><defs id="defs7012"><marker id="Arrow1Mend" orient="auto" refX="0" refY="0" style="overflow:visible"><path id="path8828" d="M 0.0,0.0 L 5.0,-5.0 L -12.5,0.0 L 5.0,5.0 L 0.0,0.0 z" style="fill-rule:evenodd;stroke:#000;stroke-width:1pt" transform="scale(0.4) rotate(180) translate(10,0)"/></marker><marker id="Arrow1Lend" orient="auto" refX="0" refY="0" style="overflow:visible"><path id="path8822" d="M 0.0,0.0 L 5.0,-5.0 L -12.5,0.0 L 5.0,5.0 L 0.0,0.0 z" style="fill-rule:evenodd;stroke:#000;stroke-width:1pt" transform="scale(0.8) rotate(180) translate(12.5,0)"/></marker><clipPath id="clipEmfPath1" clipPathUnits="userSpaceOnUse"><rect id="rect7023" width="20.243" height="18.006" x="166.141" y="151.852"/></clipPath><clipPath id="clipEmfPath2" clipPathUnits="userSpaceOnUse"><rect id="rect7026" width="20.243" height="18.006" x="166.141" y="72.325"/></clipPath><clipPath id="clipEmfPath3" clipPathUnits="userSpaceOnUse"><rect id="rect7029" width="20.243" height="17.856" x="139.15" y="190.565"/></clipPath><clipPath id="clipEmfPath4" clipPathUnits="userSpaceOnUse"><rect id="rect7032" width="20.093" height="17.856" x="325.234" y="189.365"/></clipPath><clipPath id="clipEmfPath5" clipPathUnits="userSpaceOnUse"><rect id="rect7035" width="20.243" height="18.006" x="323.285" y="30.46"/></clipPath><clipPath id="clipEmfPath6" clipPathUnits="userSpaceOnUse"><rect id="rect7038" width="30.739" height="17.856" x="453.738" y="152.452"/></clipPath><clipPath id="clipEmfPath7" clipPathUnits="userSpaceOnUse"><rect id="rect7041" width="34.038" height="17.856" x="452.988" y="72.925"/></clipPath><clipPath id="clipEmfPath8" clipPathUnits="userSpaceOnUse"><rect id="rect7044" width="30.739" height="17.856" x="379.365" y="152.452"/></clipPath><clipPath id="clipEmfPath9" clipPathUnits="userSpaceOnUse"><rect id="rect7047" width="33.888" height="17.856" x="381.164" y="72.925"/></clipPath><clipPath id="clipEmfPath10" clipPathUnits="userSpaceOnUse"><rect id="rect7050" width="20.093" height="17.856" x="343.378" y="99.334"/></clipPath><clipPath id="clipEmfPath11" clipPathUnits="userSpaceOnUse"><rect id="rect7053" width="20.093" height="17.856" x="340.229" y="136.247"/></clipPath></defs><metadata id="metadata7015"/><g id="layer1" transform="translate(144.1645,-306.04142)"><path style="fill:#fff;fill-opacity:1;fill-rule:evenodd;stroke:none" id="path7059" d="m 136.44169,407.76217 0,5.90828 -26.14693,0 0,11.81656 26.14693,0 0,5.90828 8.71564,-11.81656 z" clip-path="url(#clipEmfPath0)"/><path style="fill:none;stroke:#000;stroke-width:.93716586px;stroke-linecap:round;stroke-linejoin:round;stroke-opacity:1;stroke-dasharray:none" id="path7061" d="m 136.44169,407.76217 0,5.90828 -26.14693,0 0,11.81656 26.14693,0 0,5.90828 8.71564,-11.81656 z"/><path style="fill:#fff;fill-opacity:1;fill-rule:evenodd;stroke:none" id="path7063" d="m -65.892413,364.62235 0,15.00515 111.410273,0 0,-15.00515 -111.410273,0 z"/><path style="fill:#fdfdfd;fill-opacity:1;fill-rule:evenodd;stroke:none" id="path7065" d="m -65.892413,379.6275 0,9.6033 111.410273,0 0,-9.6033 -111.410273,0 z"/><path style="fill:#fbfbfb;fill-opacity:1;fill-rule:evenodd;stroke:none" id="path7067" d="m -65.892413,389.2308 0,6.75232 111.410273,0 0,-6.75232 -111.410273,0 z"/><path style="fill:#f9f9f9;fill-opacity:1;fill-rule:evenodd;stroke:none" id="path7069" d="m -65.892413,395.98312 0,5.85201 111.410273,0 0,-5.85201 -111.410273,0 z"/><path style="fill:#f7f7f7;fill-opacity:1;fill-rule:evenodd;stroke:none" id="path7071" d="m -65.892413,401.83513 0,4.6516 111.410273,0 0,-4.6516 -111.410273,0 z"/><path style="fill:#f5f5f5;fill-opacity:1;fill-rule:evenodd;stroke:none" id="path7073" d="m -65.892413,406.48673 0,4.6516 111.410273,0 0,-4.6516 -111.410273,0 z"/><path style="fill:#f3f3f3;fill-opacity:1;fill-rule:evenodd;stroke:none" id="path7075" d="m -65.892413,411.13833 0,4.6516 111.410273,0 0,-4.6516 -111.410273,0 z"/><path style="fill:#f1f1f1;fill-opacity:1;fill-rule:evenodd;stroke:none" id="path7077" d="m -65.892413,415.78993 0,3.75128 111.410273,0 0,-3.75128 -111.410273,0 z"/><path style="fill:#efefef;fill-opacity:1;fill-rule:evenodd;stroke:none" id="path7079" d="m -65.892413,419.54121 0,4.6516 111.410273,0 0,-4.6516 -111.410273,0 z"/><path style="fill:#ededed;fill-opacity:1;fill-rule:evenodd;stroke:none" id="path7081" d="m -65.892413,424.19281 0,4.20145 111.410273,0 0,-4.20145 -111.410273,0 z"/><path style="fill:#ebebeb;fill-opacity:1;fill-rule:evenodd;stroke:none" id="path7083" d="m -65.892413,428.39426 0,4.20144 111.410273,0 0,-4.20144 -111.410273,0 z"/><path style="fill:#e9e9e9;fill-opacity:1;fill-rule:evenodd;stroke:none" id="path7085" d="m -65.892413,432.5957 0,5.10175 111.410273,0 0,-5.10175 -111.410273,0 z"/><path style="fill:#e7e7e7;fill-opacity:1;fill-rule:evenodd;stroke:none" id="path7087" d="m -65.892413,437.69745 0,5.40186 111.410273,0 0,-5.40186 -111.410273,0 z"/><path style="fill:#e5e5e5;fill-opacity:1;fill-rule:evenodd;stroke:none" id="path7089" d="m -65.892413,443.09931 0,6.75232 111.410273,0 0,-6.75232 -111.410273,0 z"/><path style="fill:#e3e3e3;fill-opacity:1;fill-rule:evenodd;stroke:none" id="path7091" d="m -65.892413,449.85163 0,9.30319 111.410273,0 0,-9.30319 -111.410273,0 z"/><path style="fill:#e0e0e0;fill-opacity:1;fill-rule:evenodd;stroke:none" id="path7093" d="m -65.892413,459.15482 0,13.20454 111.410273,0 0,-13.20454 -111.410273,0 z"/><path style="fill:none;stroke:#000;stroke-width:1.24643052px;stroke-linecap:round;stroke-linejoin:miter;stroke-miterlimit:4;stroke-opacity:1;stroke-dasharray:none" id="path7095" d="m -65.892413,364.68799 0,107.66199 111.335303,0 0,-107.66199 z"/><text id="text7097" x="21.826" y="461.106" xml:space="preserve" style="font-size:13.79508114px;font-style:normal;font-weight:700;text-align:start;text-anchor:start;fill:#000;font-family:Calibri">F</text><text id="text7099" x="28.124" y="463.056" xml:space="preserve" style="font-size:8.69689941px;font-style:normal;font-weight:700;text-align:start;text-anchor:start;fill:#000;font-family:Calibri">21</text><path style="fill:none;stroke:#000;stroke-width:1.87433171px;stroke-linecap:butt;stroke-linejoin:round;stroke-opacity:1;stroke-dasharray:none" id="path7103" d="m 79.17177,124.38336 109.46097,0" clip-path="url(#clipEmfPath1)" transform="translate(-144.31445,296.19884)"/><text id="text7105" x="21.826" y="381.578" xml:space="preserve" style="font-size:13.79508114px;font-style:normal;font-weight:700;text-align:start;text-anchor:start;fill:#000;font-family:Calibri">F</text><text id="text7107" x="28.124" y="383.529" xml:space="preserve" style="font-size:8.69689941px;font-style:normal;font-weight:700;text-align:start;text-anchor:start;fill:#000;font-family:Calibri">22</text><path style="fill:none;stroke:#000;stroke-width:1.87433171px;stroke-linecap:butt;stroke-linejoin:round;stroke-opacity:1;stroke-dasharray:none" id="path7111" d="M 135.65475,217.53724 135.40172,18.597014" clip-path="url(#clipEmfPath2)" transform="translate(-144.31445,296.19884)"/><text id="text7113" x="-5.164" y="499.819" xml:space="preserve" style="font-size:13.79508114px;font-style:normal;font-weight:700;text-align:start;text-anchor:start;fill:#000;font-family:Calibri">E</text><text id="text7115" x="1.584" y="501.769" xml:space="preserve" style="font-size:8.69689941px;font-style:normal;font-weight:700;text-align:start;text-anchor:start;fill:#000;font-family:Calibri">1</text><path style="fill:#fff;fill-opacity:1;fill-rule:evenodd;stroke:none" id="path7119" d="m 135.46732,215.9148 c -1.55569,0 -2.8115,1.25669 -2.8115,2.81347 0,1.55678 1.25581,2.81347 2.8115,2.81347 1.5557,0 2.8115,-1.25669 2.8115,-2.81347 0,-1.55678 -1.2558,-2.81347 -2.8115,-2.81347" clip-path="url(#clipEmfPath3)" transform="translate(-144.31445,296.19884)"/><path style="fill:none;stroke:#000;stroke-width:1.87433171px;stroke-linecap:round;stroke-linejoin:round;stroke-opacity:1;stroke-dasharray:none" id="path7121" d="m -8.84713,512.11364 c -1.55569,0 -2.8115,1.25669 -2.8115,2.81347 0,1.55678 1.25581,2.81347 2.8115,2.81347 1.5557,0 2.8115,-1.25669 2.8115,-2.81347 0,-1.55678 -1.2558,-2.81347 -2.8115,-2.81347"/><path style="fill:#fff;fill-opacity:1;fill-rule:evenodd;stroke:none" id="path7123" d="m -8.84713,310.79135 c -1.55569,0 -2.8115,1.26606 -2.8115,2.81347 0,1.55678 1.25581,2.81347 2.8115,2.81347 1.5557,0 2.8115,-1.25669 2.8115,-2.81347 0,-1.54741 -1.2558,-2.81347 -2.8115,-2.81347"/><path style="fill:none;stroke:#000;stroke-width:1.87433171px;stroke-linecap:round;stroke-linejoin:round;stroke-opacity:1;stroke-dasharray:none" id="path7125" d="m -8.84713,310.79135 c -1.55569,0 -2.8115,1.26606 -2.8115,2.81347 0,1.55678 1.25581,2.81347 2.8115,2.81347 1.5557,0 2.8115,-1.25669 2.8115,-2.81347 0,-1.54741 -1.2558,-2.81347 -2.8115,-2.81347"/><path style="fill:none;stroke:#000;stroke-width:1.87433171px;stroke-linecap:butt;stroke-linejoin:round;stroke-opacity:1;stroke-dasharray:none" id="path7127" d="m 175.09041,511.80416 -0.24366,-198.9496"/><path style="fill:#fff;fill-opacity:1;fill-rule:evenodd;stroke:none" id="path7129" d="m 174.90298,508.93443 c -1.5557,0 -2.8115,1.25668 -2.8115,2.81346 0,1.55679 1.2558,2.81347 2.8115,2.81347 1.55569,0 2.81149,-1.25668 2.81149,-2.81347 0,-1.55678 -1.2558,-2.81346 -2.81149,-2.81346"/><path style="fill:none;stroke:#000;stroke-width:1.87433171px;stroke-linecap:round;stroke-linejoin:round;stroke-opacity:1;stroke-dasharray:none" id="path7131" d="m 174.90298,508.93443 c -1.5557,0 -2.8115,1.25668 -2.8115,2.81346 0,1.55679 1.2558,2.81347 2.8115,2.81347 1.55569,0 2.81149,-1.25668 2.81149,-2.81347 0,-1.55678 -1.2558,-2.81346 -2.81149,-2.81346"/><path style="fill:#fff;fill-opacity:1;fill-rule:evenodd;stroke:none" id="path7133" d="m 174.90298,306.9838 c -1.5557,0 -2.8115,1.25668 -2.8115,2.81346 0,1.55679 1.2558,2.81347 2.8115,2.81347 1.55569,0 2.81149,-1.25668 2.81149,-2.81347 0,-1.55678 -1.2558,-2.81347 -2.81149,-2.81347"/><path style="fill:none;stroke:#000;stroke-width:1.87433171px;stroke-linecap:round;stroke-linejoin:round;stroke-opacity:1;stroke-dasharray:none" id="path7135" d="m 174.90298,306.9838 c -1.5557,0 -2.8115,1.25668 -2.8115,2.81346 0,1.55679 1.2558,2.81347 2.8115,2.81347 1.55569,0 2.81149,-1.25668 2.81149,-2.81347 0,-1.55678 -1.2558,-2.81347 -2.81149,-2.81347"/><path style="fill:#fff;fill-opacity:1;fill-rule:evenodd;stroke:none" id="path7137" d="m 174.90298,361.37748 c -1.5557,0 -2.8115,1.25668 -2.8115,2.81347 0,1.55678 1.2558,2.81347 2.8115,2.81347 1.55569,0 2.81149,-1.25669 2.81149,-2.81347 0,-1.55679 -1.2558,-2.81347 -2.81149,-2.81347"/><path style="fill:none;stroke:#000;stroke-width:1.87433171px;stroke-linecap:round;stroke-linejoin:round;stroke-opacity:1;stroke-dasharray:none" id="path7139" d="m 174.90298,361.37748 c -1.5557,0 -2.8115,1.25668 -2.8115,2.81347 0,1.55678 1.2558,2.81347 2.8115,2.81347 1.55569,0 2.81149,-1.25669 2.81149,-2.81347 0,-1.55679 -1.2558,-2.81347 -2.81149,-2.81347"/><path style="fill:#fff;fill-opacity:1;fill-rule:evenodd;stroke:none" id="path7141" d="m 175.52151,420.14142 c -1.53696,0 -2.8115,1.27544 -2.8115,2.81347 0,1.55678 1.27454,2.81346 2.8115,2.81346 1.55569,0 2.81149,-1.25668 2.81149,-2.81346 0,-1.53803 -1.2558,-2.81347 -2.81149,-2.81347"/><path style="fill:none;stroke:#000;stroke-width:1.87433171px;stroke-linecap:round;stroke-linejoin:round;stroke-opacity:1;stroke-dasharray:none" id="path7143" d="m 175.52151,420.14142 c -1.53696,0 -2.8115,1.27544 -2.8115,2.81347 0,1.55678 1.27454,2.81346 2.8115,2.81346 1.55569,0 2.81149,-1.25668 2.81149,-2.81346 0,-1.53803 -1.2558,-2.81347 -2.81149,-2.81347"/><path style="fill:#fff;fill-opacity:1;fill-rule:evenodd;stroke:none" id="path7145" d="m 174.90298,468.28921 c -1.5557,0 -2.8115,1.25668 -2.8115,2.81347 0,1.55678 1.2558,2.81347 2.8115,2.81347 1.55569,0 2.81149,-1.25669 2.81149,-2.81347 0,-1.55679 -1.2558,-2.81347 -2.81149,-2.81347"/><path style="fill:none;stroke:#000;stroke-width:1.87433171px;stroke-linecap:round;stroke-linejoin:round;stroke-opacity:1;stroke-dasharray:none" id="path7147" d="m 174.90298,468.28921 c -1.5557,0 -2.8115,1.25668 -2.8115,2.81347 0,1.55678 1.2558,2.81347 2.8115,2.81347 1.55569,0 2.81149,-1.25669 2.81149,-2.81347 0,-1.55679 -1.2558,-2.81347 -2.81149,-2.81347"/><text id="text7149" x="180.92" y="498.618" xml:space="preserve" style="font-size:13.79508114px;font-style:normal;font-weight:700;text-align:start;text-anchor:start;fill:#000;font-family:Calibri">E</text><text id="text7151" x="187.667" y="500.569" xml:space="preserve" style="font-size:8.69689941px;font-style:normal;font-weight:700;text-align:start;text-anchor:start;fill:#000;font-family:Calibri">11</text><text id="text7155" x="178.97" y="339.714" xml:space="preserve" style="font-size:13.79508114px;font-style:normal;font-weight:700;text-align:start;text-anchor:start;fill:#000;font-family:Calibri">E</text><text id="text7157" x="185.718" y="341.664" xml:space="preserve" style="font-size:8.69689941px;font-style:normal;font-weight:700;text-align:start;text-anchor:start;fill:#000;font-family:Calibri">14</text><path style="fill:#fff;fill-opacity:1;fill-rule:evenodd;stroke:none" id="path7161" d="m 376.51575,69.023713 0,15.005155 111.41027,0 0,-15.005155 -111.41027,0 z" clip-path="url(#clipEmfPath5)" transform="translate(-144.31445,296.19884)"/><path style="fill:#fdfdfd;fill-opacity:1;fill-rule:evenodd;stroke:none" id="path7163" d="m 232.2013,380.22771 0,9.6033 111.41027,0 0,-9.6033 -111.41027,0 z"/><path style="fill:#fbfbfb;fill-opacity:1;fill-rule:evenodd;stroke:none" id="path7165" d="m 232.2013,389.83101 0,6.75232 111.41027,0 0,-6.75232 -111.41027,0 z"/><path style="fill:#f9f9f9;fill-opacity:1;fill-rule:evenodd;stroke:none" id="path7167" d="m 232.2013,396.58333 0,5.85201 111.41027,0 0,-5.85201 -111.41027,0 z"/><path style="fill:#f7f7f7;fill-opacity:1;fill-rule:evenodd;stroke:none" id="path7169" d="m 232.2013,402.43534 0,4.6516 111.41027,0 0,-4.6516 -111.41027,0 z"/><path style="fill:#f5f5f5;fill-opacity:1;fill-rule:evenodd;stroke:none" id="path7171" d="m 232.2013,407.08694 0,4.65159 111.41027,0 0,-4.65159 -111.41027,0 z"/><path style="fill:#f3f3f3;fill-opacity:1;fill-rule:evenodd;stroke:none" id="path7173" d="m 232.2013,411.73853 0,4.6516 111.41027,0 0,-4.6516 -111.41027,0 z"/><path style="fill:#f1f1f1;fill-opacity:1;fill-rule:evenodd;stroke:none" id="path7175" d="m 232.2013,416.39013 0,3.75129 111.41027,0 0,-3.75129 -111.41027,0 z"/><path style="fill:#efefef;fill-opacity:1;fill-rule:evenodd;stroke:none" id="path7177" d="m 232.2013,420.14142 0,4.6516 111.41027,0 0,-4.6516 -111.41027,0 z"/><path style="fill:#ededed;fill-opacity:1;fill-rule:evenodd;stroke:none" id="path7179" d="m 232.2013,424.79302 0,4.20144 111.41027,0 0,-4.20144 -111.41027,0 z"/><path style="fill:#ebebeb;fill-opacity:1;fill-rule:evenodd;stroke:none" id="path7181" d="m 232.2013,428.99446 0,4.20145 111.41027,0 0,-4.20145 -111.41027,0 z"/><path style="fill:#e9e9e9;fill-opacity:1;fill-rule:evenodd;stroke:none" id="path7183" d="m 232.2013,433.19591 0,4.9517 111.41027,0 0,-4.9517 -111.41027,0 z"/><path style="fill:#e7e7e7;fill-opacity:1;fill-rule:evenodd;stroke:none" id="path7185" d="m 232.2013,438.14761 0,5.5519 111.41027,0 0,-5.5519 -111.41027,0 z"/><path style="fill:#e5e5e5;fill-opacity:1;fill-rule:evenodd;stroke:none" id="path7187" d="m 232.2013,443.69951 0,6.75232 111.41027,0 0,-6.75232 -111.41027,0 z"/><path style="fill:#e3e3e3;fill-opacity:1;fill-rule:evenodd;stroke:none" id="path7189" d="m 232.2013,450.45183 0,9.15315 111.41027,0 0,-9.15315 -111.41027,0 z"/><path style="fill:#e0e0e0;fill-opacity:1;fill-rule:evenodd;stroke:none" id="path7191" d="m 232.2013,459.60498 0,13.35459 111.41027,0 0,-13.35459 -111.41027,0 z"/><path style="fill:none;stroke:#000;stroke-width:1.25580227px;stroke-linecap:round;stroke-linejoin:miter;stroke-miterlimit:4;stroke-opacity:1;stroke-dasharray:none" id="path7193" d="m 232.2013,365.26007 0,107.66198 111.3353,0 0,-107.66198 z"/><text id="text7195" x="309.424" y="461.706" xml:space="preserve" style="font-size:13.79508114px;font-style:normal;font-weight:700;text-align:start;text-anchor:start;fill:#000;font-family:Calibri">F</text><text id="text7197" x="315.721" y="463.656" xml:space="preserve" style="font-size:8.69689941px;font-style:normal;font-weight:700;text-align:start;text-anchor:start;fill:#000;font-family:Calibri">212</text><path style="fill:none;stroke:#000;stroke-width:1.87433171px;stroke-linecap:butt;stroke-linejoin:round;stroke-opacity:1;stroke-dasharray:none" id="path7201" d="m 377.26548,124.95543 109.46097,0" clip-path="url(#clipEmfPath6)" transform="translate(-144.31445,296.19884)"/><text id="text7203" x="308.674" y="382.178" xml:space="preserve" style="font-size:13.79508114px;font-style:normal;font-weight:700;text-align:start;text-anchor:start;fill:#000;font-family:Calibri">F</text><text id="text7205" x="314.972" y="384.129" xml:space="preserve" style="font-size:8.69689941px;font-style:normal;font-weight:700;text-align:start;text-anchor:start;fill:#000;font-family:Calibri">222</text><path style="fill:none;stroke:#000;stroke-width:1.87433171px;stroke-linecap:butt;stroke-linejoin:round;stroke-opacity:1;stroke-dasharray:none" id="path7209" d="m 433.68286,71.930962 0,105.036088" clip-path="url(#clipEmfPath7)" transform="translate(-144.31445,296.19884)"/><path style="fill:#fff;fill-opacity:1;fill-rule:evenodd;stroke:none" id="path7211" d="m 289.85574,418.26578 c -1.53695,0 -2.8115,1.27543 -2.8115,2.81346 0,1.55679 1.27455,2.81347 2.8115,2.81347 1.55569,0 2.8115,-1.25668 2.8115,-2.81347 0,-1.53803 -1.25581,-2.81346 -2.8115,-2.81346"/><path style="fill:none;stroke:#000;stroke-width:1.87433171px;stroke-linecap:round;stroke-linejoin:round;stroke-opacity:1;stroke-dasharray:none" id="path7213" d="m 289.85574,418.26578 c -1.53695,0 -2.8115,1.27543 -2.8115,2.81346 0,1.55679 1.27455,2.81347 2.8115,2.81347 1.55569,0 2.8115,-1.25668 2.8115,-2.81347 0,-1.53803 -1.25581,-2.81346 -2.8115,-2.81346"/><path style="fill:#fff;fill-opacity:1;fill-rule:evenodd;stroke:none" id="path7215" d="m 289.23721,470.78382 c -1.5557,0 -2.8115,1.27544 -2.8115,2.81347 0,1.55678 1.2558,2.81346 2.8115,2.81346 1.55569,0 2.8115,-1.25668 2.8115,-2.81346 0,-1.53803 -1.25581,-2.81347 -2.8115,-2.81347"/><path style="fill:none;stroke:#000;stroke-width:1.87433171px;stroke-linecap:round;stroke-linejoin:round;stroke-opacity:1;stroke-dasharray:none" id="path7217" d="m 289.23721,470.78382 c -1.5557,0 -2.8115,1.27544 -2.8115,2.81347 0,1.55678 1.2558,2.81346 2.8115,2.81346 1.55569,0 2.8115,-1.25668 2.8115,-2.81346 0,-1.53803 -1.25581,-2.81347 -2.8115,-2.81347"/><path style="fill:#fff;fill-opacity:1;fill-rule:evenodd;stroke:none" id="path7219" d="m 289.23721,361.99644 c -1.5557,0 -2.8115,1.27544 -2.8115,2.81347 0,1.55679 1.2558,2.81347 2.8115,2.81347 1.55569,0 2.8115,-1.25668 2.8115,-2.81347 0,-1.53803 -1.25581,-2.81347 -2.8115,-2.81347"/><path style="fill:none;stroke:#000;stroke-width:1.87433171px;stroke-linecap:round;stroke-linejoin:round;stroke-opacity:1;stroke-dasharray:none" id="path7221" d="m 289.23721,361.99644 c -1.5557,0 -2.8115,1.27544 -2.8115,2.81347 0,1.55679 1.2558,2.81347 2.8115,2.81347 1.55569,0 2.8115,-1.25668 2.8115,-2.81347 0,-1.53803 -1.25581,-2.81347 -2.8115,-2.81347"/><text id="text7223" x="235.05" y="461.706" xml:space="preserve" style="font-size:13.79508114px;font-style:normal;font-weight:700;text-align:start;text-anchor:start;fill:#000;font-family:Calibri">F</text><text id="text7225" x="241.348" y="463.656" xml:space="preserve" style="font-size:8.69689941px;font-style:normal;font-weight:700;text-align:start;text-anchor:start;fill:#000;font-family:Calibri">211</text><text id="text7229" x="236.85" y="382.178" xml:space="preserve" style="font-size:13.79508114px;font-style:normal;font-weight:700;text-align:start;text-anchor:start;fill:#000;font-family:Calibri">F</text><text id="text7231" x="243.147" y="384.129" xml:space="preserve" style="font-size:8.69689941px;font-style:normal;font-weight:700;text-align:start;text-anchor:start;fill:#000;font-family:Calibri">221</text><path style="fill:#000;fill-opacity:1;fill-rule:nonzero;stroke:#000;stroke-width:.14994654px;stroke-linecap:butt;stroke-linejoin:bevel;stroke-opacity:1;stroke-dasharray:none" id="path7235" d="m 356.19799,109.44385 73.09894,0 c 0.35612,0 0.63727,0.28135 0.63727,0.61896 0,0.35638 -0.28115,0.63772 -0.63727,0.63772 l -73.09894,0 c -0.33738,0 -0.61853,-0.28134 -0.61853,-0.63772 0,-0.33761 0.28115,-0.61896 0.61853,-0.61896 z m 71.86188,-1.87564 4.98572,2.4946 -4.98572,2.51337 z" clip-path="url(#clipEmfPath9)" transform="translate(-144.31445,296.19884)"/><path style="fill:#fff;fill-opacity:1;fill-rule:evenodd;stroke:none" id="path7237" d="m 198.95065,395.38292 0,18.00618 20.24278,0 0,-18.00618 -20.24278,0 z"/><text id="text7239" x="199.063" y="408.587" xml:space="preserve" style="font-size:13.79508114px;font-style:normal;font-weight:700;text-align:start;text-anchor:start;fill:#000;font-family:Calibri">E</text><text id="text7241" x="205.811" y="410.538" xml:space="preserve" style="font-size:8.69689941px;font-style:normal;font-weight:700;text-align:start;text-anchor:start;fill:#000;font-family:Calibri">13</text><path style="fill:#000;fill-opacity:1;fill-rule:nonzero;stroke:#000;stroke-width:.14994654px;stroke-linecap:butt;stroke-linejoin:bevel;stroke-opacity:1;stroke-dasharray:none" id="path7245" d="m 344.53965,147.55694 -20.2053,6.90238 c -0.31863,0.11253 -0.67476,-0.0563 -0.78722,-0.37513 -0.11246,-0.33762 0.0562,-0.69399 0.39361,-0.80653 l 20.18655,-6.90237 c 0.33738,-0.11254 0.69351,0.0563 0.80597,0.37513 0.11246,0.33761 -0.075,0.69399 -0.39361,0.80652 z m -18.40594,8.2716 -5.54802,-0.75026 3.9361,-3.97637 z" clip-path="url(#clipEmfPath10)" transform="translate(-144.31445,296.19884)"/><path style="fill:#000;fill-opacity:1;fill-rule:nonzero;stroke:#000;stroke-width:.1541032px;stroke-linecap:butt;stroke-linejoin:bevel;stroke-opacity:1;stroke-dasharray:none" id="path7247" d="m 208.81061,442.53714 77.27223,0 c 0.35664,0 0.65384,0.2811 0.65384,0.61844 0,0.35607 -0.2972,0.61844 -0.65384,0.61844 l -77.27223,0 c -0.37645,0 -0.67365,-0.26237 -0.67365,-0.61844 0,-0.33734 0.2972,-0.61844 0.67365,-0.61844 z m 75.94473,-1.87409 5.29019,2.49253 -5.29019,2.49252 z"/><path style="fill:#fff;fill-opacity:1;fill-rule:evenodd;stroke:none" id="path7249" d="m 195.83926,432.27684 0,18.00619 20.24278,0 0,-18.00619 -20.24278,0 z"/><text id="text7251" x="195.914" y="445.5" xml:space="preserve" style="font-size:13.79508114px;font-style:normal;font-weight:700;text-align:start;text-anchor:start;fill:#000;font-family:Calibri">E</text><text id="text7253" x="202.662" y="447.451" xml:space="preserve" style="font-size:8.69689941px;font-style:normal;font-weight:700;text-align:start;text-anchor:start;fill:#000;font-family:Calibri">12</text><path style="fill:#000;fill-opacity:1;fill-rule:nonzero;stroke:#000;stroke-width:.14994654px;stroke-linecap:butt;stroke-linejoin:bevel;stroke-opacity:1;stroke-dasharray:none" id="path7257" d="m 340.8847,108.11214 -16.17548,-9.922156 c -0.28115,-0.187565 -0.37487,-0.562694 -0.20618,-0.862797 0.18744,-0.300103 0.5623,-0.393885 0.86219,-0.206321 l 16.17549,9.922164 c 0.29989,0.1688 0.39361,0.56269 0.20617,0.86279 -0.18743,0.28135 -0.5623,0.37513 -0.86219,0.20632 z m -16.08177,-7.67138 -2.96144,-4.745383 5.56677,0.468911 z" clip-path="url(#clipEmfPath11)" transform="translate(-144.31445,296.19884)"/><path style="fill:none;stroke:#000;stroke-width:3;stroke-linecap:butt;stroke-linejoin:miter;stroke-opacity:1;stroke-miterlimit:4;stroke-dasharray:none" id="path7764" d="m 134.73326,10.842558 0.63255,195.458112" transform="translate(-144.1645,306.04142)"/><path style="fill:none;stroke:#000;stroke-width:3;stroke-linecap:butt;stroke-linejoin:miter;stroke-opacity:1;stroke-miterlimit:4;stroke-dasharray:none" id="path7766" d="M 78.436265,115.84594 189.76516,116.4785" transform="translate(-144.1645,306.04142)"/><path style="fill:none;stroke:#000;stroke-width:2;stroke-linecap:butt;stroke-linejoin:miter;stroke-miterlimit:4;stroke-opacity:1;stroke-dasharray:none" id="path8259" d="m 289.31571,368.08093 0.38064,49.98964"/><path style="fill:none;stroke:#000;stroke-width:2;stroke-linecap:butt;stroke-linejoin:miter;stroke-opacity:1;stroke-miterlimit:4;stroke-dasharray:none" id="path8769" d="m 431.39946,115.21339 -55.66445,-0.63255" transform="translate(-144.1645,306.04142)"/><path style="fill:none;stroke:#000;stroke-width:2;stroke-linecap:butt;stroke-linejoin:miter;stroke-opacity:1;stroke-miterlimit:4;stroke-dasharray:none" id="path8771" d="m 437.09241,114.58084 49.97149,0" transform="translate(-144.1645,306.04142)"/><path style="fill:none;stroke:#000;stroke-width:2;stroke-linecap:butt;stroke-linejoin:miter;stroke-miterlimit:4;stroke-opacity:1;stroke-dasharray:none" id="path8259-5" d="m 289.55628,424.26512 -0.0119,46.06191"/><path style="fill:#000;fill-opacity:1;fill-rule:nonzero;stroke:#000;stroke-width:.15233628px;stroke-linecap:butt;stroke-linejoin:bevel;stroke-opacity:1;stroke-dasharray:none" id="path7247-7" d="m 210.82431,400.79445 75.48366,0 c 0.34839,0 0.63871,0.2812 0.63871,0.61866 0,0.3562 -0.29032,0.61866 -0.63871,0.61866 l -75.48366,0 c -0.36773,0 -0.65806,-0.26246 -0.65806,-0.61866 0,-0.33746 0.29033,-0.61866 0.65806,-0.61866 z m 74.18689,-1.87476 5.16774,2.49342 -5.16774,2.49341 z"/><path style="fill:none;stroke:#000;stroke-width:1px;stroke-linecap:butt;stroke-linejoin:miter;stroke-opacity:1;marker-end:url(#Arrow1Mend)" id="path8813" d="M 339.67963,97.501979 319.43802,80.423115" transform="translate(-144.1645,306.04142)"/><path style="fill:none;stroke:#000;stroke-width:1px;stroke-linecap:butt;stroke-linejoin:miter;stroke-opacity:1;marker-start:none;marker-end:url(#Arrow1Mend)" id="path9445" d="m 336.51688,135.45501 -16.44631,15.81376" transform="translate(-144.1645,306.04142)"/></g></svg>