<svg xmlns="http://www.w3.org/2000/svg" xmlns:svg="http://www.w3.org/2000/svg" id="svg16859" width="560.794" height="125.455" version="1.1"><defs id="defs16861"><clipPath id="clipEmfPath1" clipPathUnits="userSpaceOnUse"><rect id="rect16872" width="26.512" height="16.071" x="66.055" y="14.555"/></clipPath><clipPath id="clipEmfPath2" clipPathUnits="userSpaceOnUse"><rect id="rect16875" width="26.512" height="16.071" x="63.808" y="62.011"/></clipPath><clipPath id="clipEmfPath3" clipPathUnits="userSpaceOnUse"><rect id="rect16878" width="54.971" height="16.071" x="216.589" y="94.609"/></clipPath><clipPath id="clipEmfPath4" clipPathUnits="userSpaceOnUse"><rect id="rect16881" width="67.703" height="15.92" x="337.166" y="94.458"/></clipPath><clipPath id="clipEmfPath5" clipPathUnits="userSpaceOnUse"><rect id="rect16884" width="26.512" height="16.071" x="135.256" y="27.443"/></clipPath><clipPath id="clipEmfPath6" clipPathUnits="userSpaceOnUse"><rect id="rect16887" width="26.512" height="16.071" x="257.78" y="27.139"/></clipPath><clipPath id="clipEmfPath7" clipPathUnits="userSpaceOnUse"><rect id="rect16890" width="26.512" height="16.071" x="406.067" y="26.685"/></clipPath><clipPath id="clipEmfPath8" clipPathUnits="userSpaceOnUse"><rect id="rect16893" width="26.512" height="16.071" x=".15" y="45.334"/></clipPath><clipPath id="clipEmfPath9" clipPathUnits="userSpaceOnUse"><rect id="rect16896" width="26.512" height="16.071" x="541.622" y="44.575"/></clipPath></defs><metadata id="metadata16864"/><g id="layer1" transform="translate(180.39721,-329.62929)"><g id="g16898" transform="translate(-180.84656,329.84804)"><path id="path16902" d="M 31.904168,53.179751 537.42796,55.074966" clip-path="url(#clipEmfPath0)" style="fill:none;stroke:#00f;stroke-width:1.8723104px;stroke-linecap:butt;stroke-linejoin:round;stroke-opacity:1;stroke-dasharray:none"/><path id="path16904" d="m 33.402016,53.179751 c 15.839746,-7.012298 31.698215,-14.024596 50.55238,-14.024596 18.835444,0 42.239324,9.608743 62.535164,14.024596 20.27712,4.434804 38.19513,12.508423 59.16501,12.508423 20.96987,0 45.42225,-8.395805 66.65425,-12.508423 21.21327,-4.093666 37.12791,-12.318902 60.66285,-12.12938 23.51622,0.189521 56.65611,8.907513 80.50935,13.266509 23.83451,4.358996 41.75252,12.641088 62.53516,12.887466 20.78265,0.265331 41.43423,-5.552981 62.1607,-11.371293" style="fill:none;stroke:#000;stroke-width:1.8723104px;stroke-linecap:butt;stroke-linejoin:round;stroke-opacity:1;stroke-dasharray:none"/><path id="path16906" d="M 31.155244,56.591139 536.67904,58.486354" style="fill:none;stroke:#00f;stroke-width:.9361552px;stroke-linecap:round;stroke-linejoin:round;stroke-opacity:1;stroke-dasharray:none"/><path id="path16908" d="M 30.780782,49.768363 536.30457,51.663578" style="fill:none;stroke:#00f;stroke-width:.9361552px;stroke-linecap:round;stroke-linejoin:round;stroke-opacity:1;stroke-dasharray:none"/><path id="path16910" d="m 33.551801,49.010276 c -1.947202,0 -3.529305,1.601457 -3.529305,3.572482 0,1.971024 1.582103,3.572481 3.529305,3.572481 1.947203,0 3.519944,-1.601457 3.519944,-3.572481 0,-1.971025 -1.572741,-3.572482 -3.519944,-3.572482" style="fill:#fff;fill-opacity:1;fill-rule:evenodd;stroke:none"/><path id="path16912" d="m 33.551801,49.010276 c -1.947202,0 -3.529305,1.601457 -3.529305,3.572482 0,1.971024 1.582103,3.572481 3.529305,3.572481 1.947203,0 3.519944,-1.601457 3.519944,-3.572481 0,-1.971025 -1.572741,-3.572482 -3.519944,-3.572482" style="fill:none;stroke:#000;stroke-width:1.8723104px;stroke-linecap:round;stroke-linejoin:round;stroke-opacity:1;stroke-dasharray:none"/><path id="path16914" d="m 534.58205,51.663578 c -1.9472,0 -3.51994,1.610933 -3.51994,3.581958 0,1.971024 1.57274,3.563005 3.51994,3.563005 1.9472,0 3.51994,-1.591981 3.51994,-3.563005 0,-1.971025 -1.57274,-3.581958 -3.51994,-3.581958" style="fill:#fff;fill-opacity:1;fill-rule:evenodd;stroke:none"/><path id="path16916" d="m 534.58205,51.663578 c -1.9472,0 -3.51994,1.610933 -3.51994,3.581958 0,1.971024 1.57274,3.563005 3.51994,3.563005 1.9472,0 3.51994,-1.591981 3.51994,-3.563005 0,-1.971025 -1.57274,-3.581958 -3.51994,-3.581958" style="fill:none;stroke:#000;stroke-width:1.8723104px;stroke-linecap:round;stroke-linejoin:round;stroke-opacity:1;stroke-dasharray:none"/><text id="text16918" style="font-size:13.78020382px;font-style:normal;font-weight:700;text-align:start;text-anchor:start;fill:#000;font-family:Calibri" x="73.844" y="27.746" xml:space="preserve">E</text><text id="text16920" style="font-size:8.68752003px;font-style:normal;font-weight:700;text-align:start;text-anchor:start;fill:#000;font-family:Calibri" x="80.584" y="29.717" xml:space="preserve">1</text><path id="path16924" d="m 63.724082,61.897743 0,16.109332 26.586807,0 0,-16.109332 -26.586807,0 z" clip-path="url(#clipEmfPath1)" style="fill:#fff;fill-opacity:1;fill-rule:evenodd;stroke:none"/><text id="text16926" style="font-size:13.78020382px;font-style:normal;font-weight:700;text-align:start;text-anchor:start;fill:#00f;font-family:Calibri" x="71.597" y="75.202" xml:space="preserve">E</text><text id="text16928" style="font-size:8.68752003px;font-style:normal;font-weight:700;text-align:start;text-anchor:start;fill:#00f;font-family:Calibri" x="78.337" y="77.173" xml:space="preserve">2</text><path id="path16932" d="m 209.38047,76.168716 0.63658,35.753244 c 0,0.35061 -0.27148,0.6349 -0.61786,0.64437 -0.33702,0.009 -0.62723,-0.2748 -0.63659,-0.61594 l -0.63658,-35.762722 c 0,-0.350614 0.27148,-0.634897 0.61786,-0.644373 0.34638,0 0.62722,0.274806 0.63659,0.625421 z m -4.34376,1.345603 3.60419,-7.656671 3.87569,7.51453 z" clip-path="url(#clipEmfPath2)" style="fill:#000;fill-opacity:1;fill-rule:nonzero;stroke:#000;stroke-width:.14978483px;stroke-linecap:butt;stroke-linejoin:bevel;stroke-opacity:1;stroke-dasharray:none"/><path id="path16934" d="m 333.58953,64.816375 0,44.840805 c 0,0.36009 -0.28084,0.64437 -0.61786,0.64437 -0.35574,0 -0.63658,-0.28428 -0.63658,-0.64437 l 0,-44.840805 c 0,-0.360091 0.28084,-0.644374 0.63658,-0.644374 0.33702,0 0.61786,0.284283 0.61786,0.644374 z m -4.36248,1.250842 3.74462,-7.580863 3.74462,7.580863 z" style="fill:#000;fill-opacity:1;fill-rule:nonzero;stroke:#000;stroke-width:.14978483px;stroke-linecap:butt;stroke-linejoin:bevel;stroke-opacity:1;stroke-dasharray:none"/><path id="path16936" d="m 209.38983,111.93144 61.78624,0" style="fill:none;stroke:#000;stroke-width:.9361552px;stroke-linecap:round;stroke-linejoin:round;stroke-opacity:1;stroke-dasharray:none"/><path id="path16938" d="m 332.97167,110.41526 71.89672,-1.13713" style="fill:none;stroke:#000;stroke-width:.9361552px;stroke-linecap:round;stroke-linejoin:round;stroke-opacity:1;stroke-dasharray:none"/><text id="text16940" style="font-size:13.78020382px;font-style:normal;font-weight:700;text-align:start;text-anchor:start;fill:#000;font-family:Calibri" x="218.536" y="107.8" xml:space="preserve">2*Tol(E</text><text id="text16942" style="font-size:8.68752003px;font-style:normal;font-weight:700;text-align:start;text-anchor:start;fill:#000;font-family:Calibri" x="261.075" y="109.771" xml:space="preserve">1</text><text id="text16944" style="font-size:13.78020382px;font-style:normal;font-weight:700;text-align:start;text-anchor:start;fill:#000;font-family:Calibri" x="265.419" y="107.8" xml:space="preserve">)</text><text id="text16948" style="font-size:13.78020382px;font-style:normal;font-weight:700;text-align:start;text-anchor:start;fill:#000;font-family:Calibri" x="345.554" y="107.648" xml:space="preserve">2*Tol(E</text><text id="text16950" style="font-size:8.68752003px;font-style:normal;font-weight:700;text-align:start;text-anchor:start;fill:#000;font-family:Calibri" x="388.092" y="109.619" xml:space="preserve">2</text><text id="text16952" style="font-size:13.78020382px;font-style:normal;font-weight:700;text-align:start;text-anchor:start;fill:#000;font-family:Calibri" x="392.436" y="107.648" xml:space="preserve">)</text><path id="path16956" d="M 31.904168,49.901028 C 47.743914,42.88873 63.602382,35.876432 82.456547,35.876432 c 18.835443,0 42.239323,9.608743 62.535163,14.024596 20.27712,4.415852 38.19513,12.508423 59.16501,12.508423 20.96988,0 45.42225,-8.395805 66.65425,-12.508423 21.21327,-4.112618 37.12791,-12.318902 60.66285,-12.12938 23.51622,0.189521 56.65611,8.907513 80.50935,13.266509 23.83451,4.358996 41.75252,12.641088 62.53516,12.887466 20.78265,0.246378 41.43423,-5.552981 62.16071,-11.371293" clip-path="url(#clipEmfPath4)" style="fill:none;stroke:#000;stroke-width:.9361552px;stroke-linecap:round;stroke-linejoin:round;stroke-opacity:1;stroke-dasharray:none"/><path id="path16958" d="m 32.653092,56.591139 c 15.839746,-7.012298 31.698214,-14.024596 50.55238,-14.024596 18.835438,0 42.239318,9.608743 62.535168,14.024596 20.27712,4.434804 38.19513,12.508423 59.165,12.508423 20.96988,0 45.42225,-8.395805 66.65425,-12.508423 21.21328,-4.093666 37.12792,-12.318902 60.66286,-12.12938 23.51621,0.189521 56.65611,8.907513 80.50934,13.266509 23.83451,4.358996 41.75252,12.641088 62.53517,12.887467 20.78264,0.26533 41.43423,-5.552982 62.1607,-11.371294" style="fill:none;stroke:#000;stroke-width:.9361552px;stroke-linecap:round;stroke-linejoin:round;stroke-opacity:1;stroke-dasharray:none"/><path id="path16960" d="m 208.5192,22.088738 0.63659,35.762719 c 0,0.350615 -0.27149,0.634897 -0.61786,0.644374 -0.33702,0 -0.62723,-0.274807 -0.63659,-0.625422 l -0.63659,-35.753243 c 0,-0.350614 0.27149,-0.644373 0.61787,-0.644373 0.34637,-0.0095 0.62722,0.26533 0.63658,0.615945 z m 3.73526,34.436068 -3.61356,7.647195 -3.87568,-7.505054 z" style="fill:#000;fill-opacity:1;fill-rule:nonzero;stroke:#000;stroke-width:.14978483px;stroke-linecap:butt;stroke-linejoin:bevel;stroke-opacity:1;stroke-dasharray:none"/><path id="path16962" d="m 208.26644,54.695923 0.74893,42.073787" style="fill:none;stroke:#000;stroke-width:.9361552px;stroke-linecap:round;stroke-linejoin:round;stroke-opacity:1;stroke-dasharray:none"/><path id="path16964" d="m 333.58953,0.49275606 0,44.85975394 c 0,0.360091 -0.28084,0.625421 -0.61786,0.625421 -0.35574,0 -0.63658,-0.26533 -0.63658,-0.625421 l 0,-44.85975394 c 0,-0.34113881 0.28084,-0.62542115 0.63658,-0.62542115 0.33702,0 0.61786,0.28428234 0.61786,0.62542115 z m 3.12676,43.58995994 -3.74462,7.580862 -3.74462,-7.580862 z" style="fill:#000;fill-opacity:1;fill-rule:nonzero;stroke:#000;stroke-width:.14978483px;stroke-linecap:butt;stroke-linejoin:bevel;stroke-opacity:1;stroke-dasharray:none"/><path id="path16966" d="m 332.97167,34.227594 0,51.170822" style="fill:none;stroke:#000;stroke-width:.9361552px;stroke-linecap:round;stroke-linejoin:round;stroke-opacity:1;stroke-dasharray:none"/><path id="path16968" d="m 147.22912,57.349225 4.49355,-8.717992 -8.98709,0 z" style="fill:#fff;fill-opacity:1;fill-rule:evenodd;stroke:none"/><path id="path16970" d="m 147.22912,57.349225 4.49355,-8.717992 -8.98709,0 z" style="fill:none;stroke:#000;stroke-width:1.8723104px;stroke-linecap:round;stroke-linejoin:miter;stroke-miterlimit:4;stroke-opacity:1;stroke-dasharray:none"/><path id="path16972" d="m 270.42714,58.486354 4.49355,-8.717991 -8.98709,0 z" style="fill:#fff;fill-opacity:1;fill-rule:evenodd;stroke:none"/><path id="path16974" d="m 270.42714,58.486354 4.49355,-8.717991 -8.98709,0 z" style="fill:none;stroke:#000;stroke-width:1.8723104px;stroke-linecap:round;stroke-linejoin:miter;stroke-miterlimit:4;stroke-opacity:1;stroke-dasharray:none"/><path id="path16976" d="m 416.85117,59.244441 4.49355,-8.717992 -8.98709,0 z" style="fill:#fff;fill-opacity:1;fill-rule:evenodd;stroke:none"/><path id="path16978" d="m 416.85117,59.244441 4.49355,-8.717992 -8.98709,0 z" style="fill:none;stroke:#000;stroke-width:1.8723104px;stroke-linecap:round;stroke-linejoin:miter;stroke-miterlimit:4;stroke-opacity:1;stroke-dasharray:none"/><text id="text16980" style="font-size:13.78020382px;font-style:normal;font-weight:700;text-align:start;text-anchor:start;fill:#000;font-family:Calibri" x="139.899" y="40.633" xml:space="preserve">V</text><text id="text16982" style="font-size:8.68752003px;font-style:normal;font-weight:700;text-align:start;text-anchor:start;fill:#000;font-family:Calibri" x="147.987" y="42.604" xml:space="preserve">X1</text><text id="text16986" style="font-size:13.78020382px;font-style:normal;font-weight:700;text-align:start;text-anchor:start;fill:#000;font-family:Calibri" x="262.423" y="40.33" xml:space="preserve">V</text><text id="text16988" style="font-size:8.68752003px;font-style:normal;font-weight:700;text-align:start;text-anchor:start;fill:#000;font-family:Calibri" x="270.511" y="42.301" xml:space="preserve">X2</text><text id="text16992" style="font-size:13.78020382px;font-style:normal;font-weight:700;text-align:start;text-anchor:start;fill:#000;font-family:Calibri" x="410.71" y="39.875" xml:space="preserve">V</text><text id="text16994" style="font-size:8.68752003px;font-style:normal;font-weight:700;text-align:start;text-anchor:start;fill:#000;font-family:Calibri" x="418.798" y="41.846" xml:space="preserve">X3</text><text id="text16998" style="font-size:13.78020382px;font-style:normal;font-weight:700;text-align:start;text-anchor:start;fill:#000;font-family:Calibri" x="7.19" y="58.524" xml:space="preserve">V</text><text id="text17000" style="font-size:8.68752003px;font-style:normal;font-weight:700;text-align:start;text-anchor:start;fill:#000;font-family:Calibri" x="15.278" y="60.495" xml:space="preserve">1</text><text id="text17004" style="font-size:13.78020382px;font-style:normal;font-weight:700;text-align:start;text-anchor:start;fill:#000;font-family:Calibri" x="548.662" y="57.766" xml:space="preserve">V</text><text id="text17006" style="font-size:8.68752003px;font-style:normal;font-weight:700;text-align:start;text-anchor:start;fill:#000;font-family:Calibri" x="556.75" y="59.737" xml:space="preserve">2</text></g></g></svg>